<?xml version="1.0" encoding="UTF-8" standalone="no"?>
<!DOCTYPE svg PUBLIC "-//W3C//DTD SVG 1.1//EN" "http://www.w3.org/Graphics/SVG/1.1/DTD/svg11.dtd">
<svg xmlns="http://www.w3.org/2000/svg" version="1.1" xmlns:dc="http://purl.org/dc/elements/1.1/" xmlns:xl="http://www.w3.org/1999/xlink" viewBox="-162 -2 896 1172" width="896" height="1172">
  <defs>
    <marker orient="auto" overflow="visible" markerUnits="strokeWidth" id="FilledArrow_Marker" stroke-linejoin="miter" stroke-miterlimit="10" viewBox="-1 -4 10 8" markerWidth="10" markerHeight="8" color="black">
      <g>
        <path d="M 8 0 L 0 -3 L 0 3 Z" fill="currentColor" stroke="currentColor" stroke-width="1"/>
      </g>
    </marker>
  </defs>
  <g id="Canvas_1" fill="none" stroke-dasharray="none" stroke="none" stroke-opacity="1" fill-opacity="1">
    <title>Canvas 1</title>
    <rect fill="white" x="-162" y="-2" width="896" height="1172"/>
    <g id="Canvas_1_Layer_1">
      <title>Layer 1</title>
      <g id="Graphic_2">
        <ellipse cx="238.29211" cy="43" rx="149.236688660519" ry="43.5714981942969" stroke="black" stroke-linecap="round" stroke-linejoin="round" stroke-width="2"/>
        <text transform="translate(123.90295 17.5)" fill="black">
          <tspan font-family="Helvetica" font-size="14" fill="black" x="41.624023" y="14">Environment, Food and</tspan>
          <tspan font-family="Helvetica" font-size="14" fill="black" x="40.598633" y="31">Rural Affairs Committee</tspan>
          <tspan font-family="Helvetica" font-size="14" fill="black" x="0" y="48">inquiry opened (House of Commons)</tspan>
        </text>
      </g>
      <g id="Graphic_3">
        <ellipse cx="345.2921" cy="155" rx="78.8819619829352" ry="31.4286216483453" fill="white"/>
        <ellipse cx="345.2921" cy="155" rx="78.8819619829352" ry="31.4286216483453" stroke="black" stroke-linecap="round" stroke-linejoin="round" stroke-width="1"/>
        <text transform="translate(287.18665 138)" fill="black">
          <tspan font-family="Helvetica" font-size="14" fill="black" x="0" y="14">TREATY EFRA AA</tspan>
          <tspan font-family="Helvetica" font-size="14" fill="black" x="43.452637" y="31">NOT </tspan>
        </text>
      </g>
      <g id="Line_4">
        <path d="M 279.26255 85.90877 C 289.51653 96.65338 300.40197 108.05902 310.34117 118.46843" marker-end="url(#FilledArrow_Marker)" stroke="black" stroke-linecap="round" stroke-linejoin="round" stroke-width="1"/>
      </g>
      <g id="Graphic_5">
        <ellipse cx="117.29211" cy="155" rx="78.8819619829352" ry="31.4286216483453" fill="white"/>
        <ellipse cx="117.29211" cy="155" rx="78.8819619829352" ry="31.4286216483453" stroke="black" stroke-linecap="round" stroke-linejoin="round" stroke-width="1"/>
        <text transform="translate(59.186646 138)" fill="black">
          <tspan font-family="Helvetica" font-size="14" fill="black" x="0" y="14">TREATY EFRA AB</tspan>
          <tspan font-family="Helvetica" font-size="14" fill="black" x="43.32617" y="31">AND </tspan>
        </text>
      </g>
      <g id="Line_6">
        <path d="M 192.38876 85.47293 C 180.31263 96.6663 167.43676 108.60374 155.78339 119.40326" marker-end="url(#FilledArrow_Marker)" stroke="black" stroke-linecap="round" stroke-linejoin="round" stroke-width="1"/>
      </g>
      <g id="Graphic_7">
        <ellipse cx="117.29211" cy="376" rx="98.4883165541038" ry="55.7143747402485" stroke="black" stroke-linecap="round" stroke-linejoin="round" stroke-width="2"/>
        <text transform="translate(43.501587 342)" fill="black">
          <tspan font-family="Helvetica" font-size="14" fill="black" x="16.97705" y="14">Considered by the</tspan>
          <tspan font-family="Helvetica" font-size="14" fill="black" x="1.0253906" y="31">Environment, Food and</tspan>
          <tspan font-family="Helvetica" font-size="14" fill="black" x="0" y="48">Rural Affairs Committee</tspan>
          <tspan font-family="Helvetica" font-size="14" fill="black" x="7.2700195" y="65">(House of Commons)</tspan>
        </text>
      </g>
      <g id="Graphic_8">
        <ellipse cx="-55.707886" cy="536" rx="78.8819619829352" ry="31.4286216483453" fill="white"/>
        <ellipse cx="-55.707886" cy="536" rx="78.8819619829352" ry="31.4286216483453" stroke="black" stroke-linecap="round" stroke-linejoin="round" stroke-width="1"/>
        <text transform="translate(-113.81335 519)" fill="black">
          <tspan font-family="Helvetica" font-size="14" fill="black" x="0" y="14">TREATY EFRA AB</tspan>
          <tspan font-family="Helvetica" font-size="14" fill="black" x="43.452637" y="31">NOT </tspan>
        </text>
      </g>
      <g id="Line_9">
        <path d="M 65.047846 424.304 C 38.465243 448.89786 7.229577 477.80416 -17.203246 500.40635" marker-end="url(#FilledArrow_Marker)" stroke="black" stroke-linecap="round" stroke-linejoin="round" stroke-width="1"/>
      </g>
      <g id="Graphic_10">
        <ellipse cx="560.2921" cy="536" rx="161.208143336574" ry="67.8572512862" stroke="black" stroke-linecap="round" stroke-linejoin="round" stroke-width="2"/>
        <text transform="translate(436.3258 493.5)" fill="black">
          <tspan font-family="Helvetica" font-size="14" fill="black" x="46.925293" y="14">Government response to</tspan>
          <tspan font-family="Helvetica" font-size="14" fill="black" x="67.15283" y="31">the decision made</tspan>
          <tspan font-family="Helvetica" font-size="14" fill="black" x="61.711426" y="48">by the Environment,</tspan>
          <tspan font-family="Helvetica" font-size="14" fill="black" x="75.71484" y="65">Food and Rural</tspan>
          <tspan font-family="Helvetica" font-size="14" fill="black" x="0" y="82">Affairs Committee (House of Commons)</tspan>
        </text>
      </g>
      <g id="Line_11">
        <path d="M 191.19283 414.01675 C 209.45746 423.4324 224.21265 431.00096 225.35115 431.42857 C 291.32475 455.67097 312.08235 447.05257 379.35195 467.42857 C 380.46275 467.7648 402.0655 475.95025 429.98536 486.557" marker-end="url(#FilledArrow_Marker)" stroke="black" stroke-linecap="round" stroke-linejoin="round" stroke-width="1"/>
      </g>
      <g id="Graphic_12">
        <ellipse cx="117.29211" cy="536" rx="75.4768051746499" ry="31.4286216483453" fill="white"/>
        <ellipse cx="117.29211" cy="536" rx="75.4768051746499" ry="31.4286216483453" stroke="black" stroke-linecap="round" stroke-linejoin="round" stroke-width="1"/>
        <text transform="translate(61.91077 519)" fill="black">
          <tspan font-family="Helvetica" font-size="14" fill="black" x="0" y="14">TREATY EFRA AI</tspan>
          <tspan font-family="Helvetica" font-size="14" fill="black" x="40.60205" y="31">AND </tspan>
        </text>
      </g>
      <g id="Line_13">
        <path d="M 117.29211 432.7143 C 117.29211 453.1787 117.29211 475.6933 117.29211 494.6713" marker-end="url(#FilledArrow_Marker)" stroke="black" stroke-linecap="round" stroke-linejoin="round" stroke-width="1"/>
      </g>
      <g id="Graphic_14">
        <ellipse cx="290.2921" cy="536" rx="78.8819619829352" ry="31.4286216483453" fill="white"/>
        <ellipse cx="290.2921" cy="536" rx="78.8819619829352" ry="31.4286216483453" stroke="black" stroke-linecap="round" stroke-linejoin="round" stroke-width="1"/>
        <text transform="translate(232.18665 519)" fill="black">
          <tspan font-family="Helvetica" font-size="14" fill="black" x="0" y="14">TREATY EFRA AK</tspan>
          <tspan font-family="Helvetica" font-size="14" fill="black" x="43.32617" y="31">AND </tspan>
        </text>
      </g>
      <g id="Line_15">
        <path d="M 169.56082 424.2954 C 196.13255 448.8938 227.33758 477.80375 251.7627 500.4097" marker-end="url(#FilledArrow_Marker)" stroke="black" stroke-linecap="round" stroke-linejoin="round" stroke-width="1"/>
      </g>
      <g id="Graphic_16">
        <ellipse cx="571.2921" cy="672" rx="77.9121118003997" ry="31.4286216483453" fill="white"/>
        <ellipse cx="571.2921" cy="672" rx="77.9121118003997" ry="31.4286216483453" stroke="black" stroke-linecap="round" stroke-linejoin="round" stroke-width="1"/>
        <text transform="translate(513.9625 655)" fill="black">
          <tspan font-family="Helvetica" font-size="14" fill="black" x="0" y="14">TREATY EFRA AL</tspan>
          <tspan font-family="Helvetica" font-size="14" fill="black" x="42.550293" y="31">AND </tspan>
        </text>
      </g>
      <g id="Line_17">
        <path d="M 565.8664 604.81696 C 566.5826 613.6688 567.297 622.5017 567.9618 630.7238" marker-end="url(#FilledArrow_Marker)" stroke="black" stroke-linecap="round" stroke-linejoin="round" stroke-width="1"/>
      </g>
      <g id="Graphic_18">
        <ellipse cx="345.2921" cy="254" rx="78.8819619829352" ry="31.4286216483453" fill="white"/>
        <ellipse cx="345.2921" cy="254" rx="78.8819619829352" ry="31.4286216483453" stroke="black" stroke-linecap="round" stroke-linejoin="round" stroke-width="1"/>
        <text transform="translate(287.18665 237)" fill="black">
          <tspan font-family="Helvetica" font-size="14" fill="black" x="0" y="14">TREATY EFRA AA</tspan>
          <tspan font-family="Helvetica" font-size="14" fill="black" x="43.32617" y="31">AND </tspan>
        </text>
      </g>
      <g id="Graphic_19">
        <ellipse cx="313.2921" cy="376" rx="78.8819619829352" ry="31.4286216483453" fill="white"/>
        <ellipse cx="313.2921" cy="376" rx="78.8819619829352" ry="31.4286216483453" stroke="black" stroke-linecap="round" stroke-linejoin="round" stroke-width="1"/>
        <text transform="translate(255.18665 359)" fill="black">
          <tspan font-family="Helvetica" font-size="14" fill="black" x="0" y="14">TREATY EFRA AA</tspan>
          <tspan font-family="Helvetica" font-size="14" fill="black" x="31.260742" y="31">Decision </tspan>
        </text>
      </g>
      <g id="Line_20">
        <path d="M 337.07165 285.2585 C 333.07326 300.54088 328.29537 318.83965 324.02636 335.1638" marker-end="url(#FilledArrow_Marker)" stroke="black" stroke-linecap="round" stroke-linejoin="round" stroke-width="1"/>
      </g>
      <g id="Graphic_21">
        <ellipse cx="117.29211" cy="254" rx="78.8819619829352" ry="31.4286216483453" fill="white"/>
        <ellipse cx="117.29211" cy="254" rx="78.8819619829352" ry="31.4286216483453" stroke="black" stroke-linecap="round" stroke-linejoin="round" stroke-width="1"/>
        <text transform="translate(59.186646 237)" fill="black">
          <tspan font-family="Helvetica" font-size="14" fill="black" x="0" y="14">TREATY EFRA AB</tspan>
          <tspan font-family="Helvetica" font-size="14" fill="black" x="31.260742" y="31">Decision </tspan>
        </text>
      </g>
      <g id="Line_22">
        <path d="M 117.29211 186.42859 C 117.29211 194.77493 117.29211 203.89304 117.29211 212.67012" marker-end="url(#FilledArrow_Marker)" stroke="black" stroke-linecap="round" stroke-linejoin="round" stroke-width="1"/>
      </g>
      <g id="Graphic_23">
        <ellipse cx="-13.707886" cy="672" rx="78.8819619829352" ry="31.4286216483453" fill="white"/>
        <ellipse cx="-13.707886" cy="672" rx="78.8819619829352" ry="31.4286216483453" stroke="black" stroke-linecap="round" stroke-linejoin="round" stroke-width="1"/>
        <text transform="translate(-71.813354 655)" fill="black">
          <tspan font-family="Helvetica" font-size="14" fill="black" x="0" y="14">TREATY EFRA AE</tspan>
          <tspan font-family="Helvetica" font-size="14" fill="black" x="31.260742" y="31">Decision </tspan>
        </text>
      </g>
      <g id="Line_24">
        <path d="M 89.20646 565.1803 C 69.09793 586.0502 42.8363 613.2875 21.410615 635.521" marker-end="url(#FilledArrow_Marker)" stroke="black" stroke-linecap="round" stroke-linejoin="round" stroke-width="1"/>
      </g>
      <g id="Line_25">
        <path d="M 292.92476 345.63173 C 278.729 323.9291 262.64873 297.84766 258.34875 284.40457 C 243.8056 238.98356 239.32095 157.47407 238.31713 97.46766" marker-end="url(#FilledArrow_Marker)" stroke="black" stroke-linecap="round" stroke-linejoin="round" stroke-width="1"/>
      </g>
      <g id="Line_26">
        <path d="M 117.29211 285.4286 C 117.29211 292.8612 117.29211 301.0522 117.29211 309.38336" marker-end="url(#FilledArrow_Marker)" stroke="black" stroke-linecap="round" stroke-linejoin="round" stroke-width="1"/>
      </g>
      <g id="Graphic_27">
        <ellipse cx="-35.707886" cy="819" rx="124.44355822328" ry="80.0001278321517" stroke="black" stroke-linecap="round" stroke-linejoin="round" stroke-width="2"/>
        <text transform="translate(-130.26257 768)" fill="black">
          <tspan font-family="Helvetica" font-size="14" fill="black" x="21.78955" y="14">Environment, Food and</tspan>
          <tspan font-family="Helvetica" font-size="14" fill="black" x="20.76416" y="31">Rural Affairs Committee</tspan>
          <tspan font-family="Helvetica" font-size="14" fill="black" x="0" y="48">made recommendations about</tspan>
          <tspan font-family="Helvetica" font-size="14" fill="black" x="50.58594" y="65">how the treaty</tspan>
          <tspan font-family="Helvetica" font-size="14" fill="black" x="22.17578" y="82">should be implemented</tspan>
          <tspan font-family="Helvetica" font-size="14" fill="black" x="28.03418" y="99">(House of Commons)</tspan>
        </text>
      </g>
      <g id="Line_28">
        <path d="M -18.415452 703.3729 C -19.562608 711.0504 -20.845153 719.6403 -22.179725 728.58056" marker-end="url(#FilledArrow_Marker)" stroke="black" stroke-linecap="round" stroke-linejoin="round" stroke-width="1"/>
      </g>
      <g id="Line_29">
        <path d="M 345.2921 186.42859 C 345.2921 194.77493 345.2921 203.89304 345.2921 212.67012" marker-end="url(#FilledArrow_Marker)" stroke="black" stroke-linecap="round" stroke-linejoin="round" stroke-width="1"/>
      </g>
      <g id="Line_30">
        <path d="M -52.61776 504.5954 C -44.327223 430.8203 -22.56528 298.90647 29.345555 221.40457 C 32.94326 216.04854 51.61806 202.09949 70.95757 188.2384" marker-end="url(#FilledArrow_Marker)" stroke="black" stroke-linecap="round" stroke-linejoin="round" stroke-width="1"/>
      </g>
      <g id="Graphic_31">
        <ellipse cx="40.292114" cy="1003" rx="75.4768051746499" ry="31.4286216483453" fill="white"/>
        <ellipse cx="40.292114" cy="1003" rx="75.4768051746499" ry="31.4286216483453" stroke="black" stroke-linecap="round" stroke-linejoin="round" stroke-width="1"/>
        <text transform="translate(-15.089233 986)" fill="black">
          <tspan font-family="Helvetica" font-size="14" fill="black" x="0" y="14">TREATY EFRA AI</tspan>
          <tspan font-family="Helvetica" font-size="14" fill="black" x="40.728516" y="31">NOT </tspan>
        </text>
      </g>
      <g id="Line_32">
        <path d="M 59.14316 972.5623 C 74.39919 947.366 92.51325 915.6108 97.34955 898.4278 C 123.9511 803.9551 123.10843 661.3408 119.50638 577.30766" marker-end="url(#FilledArrow_Marker)" stroke="black" stroke-linecap="round" stroke-linejoin="round" stroke-width="1"/>
      </g>
      <g id="Graphic_33">
        <ellipse cx="571.2921" cy="254" rx="79.8518121654708" ry="31.4286216483453" fill="white"/>
        <ellipse cx="571.2921" cy="254" rx="79.8518121654708" ry="31.4286216483453" stroke="black" stroke-linecap="round" stroke-linejoin="round" stroke-width="1"/>
        <text transform="translate(512.41077 237)" fill="black">
          <tspan font-family="Helvetica" font-size="14" fill="black" x="0" y="14">TREATY EFRA AG</tspan>
          <tspan font-family="Helvetica" font-size="14" fill="black" x="32.03662" y="31">Decision </tspan>
        </text>
      </g>
      <g id="Graphic_34">
        <ellipse cx="571.2921" cy="376" rx="161.208143336574" ry="55.7143747402485" stroke="black" stroke-linecap="round" stroke-linejoin="round" stroke-width="2"/>
        <text transform="translate(447.3258 342)" fill="black">
          <tspan font-family="Helvetica" font-size="14" fill="black" x="55.097656" y="14">Oral evidence session</tspan>
          <tspan font-family="Helvetica" font-size="14" fill="black" x="61.711426" y="31">by the Environment,</tspan>
          <tspan font-family="Helvetica" font-size="14" fill="black" x="75.71484" y="48">Food and Rural</tspan>
          <tspan font-family="Helvetica" font-size="14" fill="black" x="0" y="65">Affairs Committee (House of Commons)</tspan>
        </text>
      </g>
      <g id="Line_35">
        <path d="M 571.2921 285.4286 C 571.2921 292.8612 571.2921 301.0522 571.2921 309.38336" marker-end="url(#FilledArrow_Marker)" stroke="black" stroke-linecap="round" stroke-linejoin="round" stroke-width="1"/>
      </g>
      <g id="Line_36">
        <path d="M -3.36117 897.2785 C 5.9589745 919.8789 15.706234 943.5222 23.693398 962.8776" marker-end="url(#FilledArrow_Marker)" stroke="black" stroke-linecap="round" stroke-linejoin="round" stroke-width="1"/>
      </g>
      <g id="Graphic_37">
        <ellipse cx="555.2921" cy="155" rx="80.9797436552917" ry="19.2857451023937" fill="white"/>
        <ellipse cx="555.2921" cy="155" rx="80.9797436552917" ry="19.2857451023937" stroke="black" stroke-linecap="round" stroke-linejoin="round" stroke-width="1"/>
        <text transform="translate(495.5084 146.5)" fill="black">
          <tspan font-family="Helvetica" font-size="14" fill="black" x="1.9448242" y="14">CT BE Summation </tspan>
        </text>
      </g>
      <g id="Line_38">
        <path d="M 518.8281 172.22575 C 487.0471 187.21059 442.07767 208.38335 405.15944 225.7729" marker-end="url(#FilledArrow_Marker)" stroke="black" stroke-linecap="round" stroke-linejoin="round" stroke-width="1"/>
      </g>
      <g id="Line_39">
        <path d="M 558.41136 174.2715 C 560.20135 185.36477 562.4775 199.4904 564.6342 212.8635" marker-end="url(#FilledArrow_Marker)" stroke="black" stroke-linecap="round" stroke-linejoin="round" stroke-width="1"/>
      </g>
      <g id="Graphic_40">
        <ellipse cx="290.2921" cy="819" rx="145.331653123791" ry="80.0001278321517" stroke="black" stroke-linecap="round" stroke-linejoin="round" stroke-width="2"/>
        <text transform="translate(179.02698 768)" fill="black">
          <tspan font-family="Helvetica" font-size="14" fill="black" x="38.5" y="14">Environment, Food and</tspan>
          <tspan font-family="Helvetica" font-size="14" fill="black" x="37.47461" y="31">Rural Affairs Committee</tspan>
          <tspan font-family="Helvetica" font-size="14" fill="black" x="16.71045" y="48">made recommendations about</tspan>
          <tspan font-family="Helvetica" font-size="14" fill="black" x="52.120605" y="65">what lessons could</tspan>
          <tspan font-family="Helvetica" font-size="14" fill="black" x="73.91016" y="82">be learnt for</tspan>
          <tspan font-family="Helvetica" font-size="14" fill="black" x="0" y="99">future treaties (House of Commons)</tspan>
        </text>
      </g>
      <g id="Graphic_41">
        <ellipse cx="303.2921" cy="1003" rx="78.8819619829352" ry="31.4286216483453" fill="white"/>
        <ellipse cx="303.2921" cy="1003" rx="78.8819619829352" ry="31.4286216483453" stroke="black" stroke-linecap="round" stroke-linejoin="round" stroke-width="1"/>
        <text transform="translate(245.18665 986)" fill="black">
          <tspan font-family="Helvetica" font-size="14" fill="black" x="0" y="14">TREATY EFRA AK</tspan>
          <tspan font-family="Helvetica" font-size="14" fill="black" x="43.452637" y="31">NOT </tspan>
        </text>
      </g>
      <g id="Line_42">
        <path d="M 295.995 899.939 C 297.51498 921.2683 299.09017 943.3384 300.39536 961.7055" marker-end="url(#FilledArrow_Marker)" stroke="black" stroke-linecap="round" stroke-linejoin="round" stroke-width="1"/>
      </g>
      <g id="Graphic_43">
        <ellipse cx="290.2921" cy="672" rx="79.3647508403207" ry="31.4286216483453" fill="white"/>
        <ellipse cx="290.2921" cy="672" rx="79.3647508403207" ry="31.4286216483453" stroke="black" stroke-linecap="round" stroke-linejoin="round" stroke-width="1"/>
        <text transform="translate(231.80042 655)" fill="black">
          <tspan font-family="Helvetica" font-size="14" fill="black" x="0" y="14">TREATY EFRA AH</tspan>
          <tspan font-family="Helvetica" font-size="14" fill="black" x="31.646973" y="31">Decision </tspan>
        </text>
      </g>
      <g id="Line_44">
        <path d="M 290.2921 672 C 290.2921 675.2736 290.2921 699.887 290.2921 728.0998" marker-end="url(#FilledArrow_Marker)" stroke="black" stroke-linecap="round" stroke-linejoin="round" stroke-width="1"/>
      </g>
      <g id="Line_45">
        <path d="M 344.92202 976.2963 C 387.12542 948.6163 439.211 912.4479 446.34795 898.4278 C 478.61835 835.0606 466.95435 806.491 446.34795 738.4294 C 431.155 688.244 371.15 619.09685 326.33534 572.32946" marker-end="url(#FilledArrow_Marker)" stroke="black" stroke-linecap="round" stroke-linejoin="round" stroke-width="1"/>
      </g>
      <g id="Line_46">
        <path d="M 290.2921 567.4286 C 290.2921 586.4256 290.2921 610.23176 290.2921 630.6698" marker-end="url(#FilledArrow_Marker)" stroke="black" stroke-linecap="round" stroke-linejoin="round" stroke-width="1"/>
      </g>
      <g id="Graphic_47">
        <ellipse cx="558.2921" cy="1003" rx="134.142060048635" ry="67.8572512862002" stroke="black" stroke-linecap="round" stroke-linejoin="round" stroke-width="2"/>
        <text transform="translate(455.97864 960.5)" fill="black">
          <tspan font-family="Helvetica" font-size="14" fill="black" x="29.54834" y="14">Environment, Food and</tspan>
          <tspan font-family="Helvetica" font-size="14" fill="black" x="23.686523" y="31">Rural Affairs Committee&apos;s</tspan>
          <tspan font-family="Helvetica" font-size="14" fill="black" x="67.68262" y="48">reply to the</tspan>
          <tspan font-family="Helvetica" font-size="14" fill="black" x="26.82422" y="65">government response to</tspan>
          <tspan font-family="Helvetica" font-size="14" fill="black" x="0" y="82">their report (House of Commons)</tspan>
        </text>
      </g>
      <g id="Graphic_48">
        <ellipse cx="638.2921" cy="1138" rx="77.9121118003997" ry="31.4286216483454" fill="white"/>
        <ellipse cx="638.2921" cy="1138" rx="77.9121118003997" ry="31.4286216483454" stroke="black" stroke-linecap="round" stroke-linejoin="round" stroke-width="1"/>
        <text transform="translate(580.9625 1121)" fill="black">
          <tspan font-family="Helvetica" font-size="14" fill="black" x="0" y="14">TREATY EFRA AL</tspan>
          <tspan font-family="Helvetica" font-size="14" fill="black" x="42.67676" y="31">NOT </tspan>
        </text>
      </g>
      <g id="Line_49">
        <path d="M 597.3687 1068.9395 C 603.4429 1079.1943 609.5442 1089.4951 615.12094 1098.9094" marker-end="url(#FilledArrow_Marker)" stroke="black" stroke-linecap="round" stroke-linejoin="round" stroke-width="1"/>
      </g>
      <g id="Graphic_50">
        <ellipse cx="570.2921" cy="819" rx="75.4768051746499" ry="31.4286216483453" fill="white"/>
        <ellipse cx="570.2921" cy="819" rx="75.4768051746499" ry="31.4286216483453" stroke="black" stroke-linecap="round" stroke-linejoin="round" stroke-width="1"/>
        <text transform="translate(514.91077 802)" fill="black">
          <tspan font-family="Helvetica" font-size="14" fill="black" x="0" y="14">TREATY EFRA AI</tspan>
          <tspan font-family="Helvetica" font-size="14" fill="black" x="28.53662" y="31">Decision </tspan>
        </text>
      </g>
      <g id="Line_51">
        <path d="M 571.0773 703.4285 C 570.92566 725.4296 570.7286 753.9235 570.56675 777.67365" marker-end="url(#FilledArrow_Marker)" stroke="black" stroke-linecap="round" stroke-linejoin="round" stroke-width="1"/>
      </g>
      <g id="Line_52">
        <path d="M 667.9151 1108.9229 C 683.03216 1093.9259 698.5135 1077.6739 701.32875 1070.4286 C 723.28875 1014.1102 708.31275 994.4686 701.32875 934.4278 C 691.03275 845.5438 703.05675 814.1374 655.32075 738.4294 C 652.0343 733.213 634.40105 719.4227 616.02445 705.6325" marker-end="url(#FilledArrow_Marker)" stroke="black" stroke-linecap="round" stroke-linejoin="round" stroke-width="1"/>
      </g>
      <g id="Line_53">
        <path d="M 568.2617 850.4173 C 566.9233 871.0242 565.1468 898.2899 563.44876 924.2998" marker-end="url(#FilledArrow_Marker)" stroke="black" stroke-linecap="round" stroke-linejoin="round" stroke-width="1"/>
      </g>
    </g>
  </g>
</svg>
