<?xml version="1.0" encoding="UTF-8" standalone="no"?>
<!DOCTYPE svg PUBLIC "-//W3C//DTD SVG 1.1//EN" "http://www.w3.org/Graphics/SVG/1.1/DTD/svg11.dtd">
<svg xmlns:xl="http://www.w3.org/1999/xlink" xmlns:dc="http://purl.org/dc/elements/1.1/" version="1.1" xmlns="http://www.w3.org/2000/svg" viewBox="130.5 152.5 3409 2947" width="3409" height="2947">
  <defs>
    <marker orient="auto" overflow="visible" markerUnits="strokeWidth" id="StickArrow_Marker" stroke-linejoin="miter" stroke-miterlimit="10" viewBox="-1 -4 10 8" markerWidth="10" markerHeight="8" color="black">
      <g>
        <path d="M 8 0 L 0 0 M 0 -3 L 8 0 L 0 3" fill="none" stroke="currentColor" stroke-width="1"/>
      </g>
    </marker>
    <marker orient="auto" overflow="visible" markerUnits="strokeWidth" id="StickArrow_Marker_2" stroke-linejoin="miter" stroke-miterlimit="10" viewBox="-9 -4 10 8" markerWidth="10" markerHeight="8" color="black">
      <g>
        <path d="M -8 0 L 0 0 M 0 3 L -8 0 L 0 -3" fill="none" stroke="currentColor" stroke-width="1"/>
      </g>
    </marker>
  </defs>
  <g id="Canvas_1" stroke="none" stroke-opacity="1" fill-opacity="1" stroke-dasharray="none" fill="none">
    <title>Canvas 1</title>
    <rect fill="white" x="130.5" y="152.5" width="3409" height="2947"/>
    <g id="Canvas_1_Layer_1">
      <title>Layer 1</title>
      <g id="Graphic_245">
        <rect x="2463.1724" y="1868.5" width="159.82759" height="896" fill="#ccc"/>
        <rect x="2463.1724" y="1868.5" width="159.82759" height="896" stroke="black" stroke-linecap="round" stroke-linejoin="round" stroke-width="1"/>
        <text transform="translate(2468.1724 2298.052)" fill="black">
          <tspan font-family="Helvetica Neue" font-size="16" fill="black" x="39.961795" y="15">Azure API </tspan>
          <tspan font-family="Helvetica Neue" font-size="16" fill="black" x="28.073795" y="33.448">management</tspan>
        </text>
      </g>
      <g id="Graphic_243">
        <rect x="2623" y="1868.5" width="916" height="896" fill="white"/>
        <rect x="2623" y="1868.5" width="916" height="896" stroke="black" stroke-linecap="round" stroke-linejoin="round" stroke-width="1"/>
      </g>
      <g id="Graphic_197">
        <rect x="152" y="1877" width="2097" height="896" fill="white"/>
        <rect x="152" y="1877" width="2097" height="896" stroke="black" stroke-linecap="round" stroke-linejoin="round" stroke-width="1"/>
      </g>
      <g id="Graphic_202">
        <rect x="1787" y="1920" width="411" height="793" fill="aqua"/>
        <rect x="1787" y="1920" width="411" height="793" stroke="black" stroke-linecap="round" stroke-linejoin="round" stroke-width="1"/>
      </g>
      <g id="Graphic_5">
        <rect x="131" y="361" width="1580" height="822" fill="white"/>
        <rect x="131" y="361" width="1580" height="822" stroke="black" stroke-linecap="round" stroke-linejoin="round" stroke-width="1"/>
      </g>
      <g id="Graphic_3">
        <rect x="461" y="458" width="781" height="452" fill="white"/>
        <rect x="461" y="458" width="781" height="452" stroke="black" stroke-linecap="round" stroke-linejoin="round" stroke-width="1"/>
      </g>
      <g id="Graphic_4">
        <rect x="461" y="458" width="279" height="57" fill="white"/>
        <rect x="461" y="458" width="279" height="57" stroke="black" stroke-linecap="round" stroke-linejoin="round" stroke-width="1"/>
        <text transform="translate(466 477.276)" fill="black">
          <tspan font-family="Helvetica Neue" font-size="16" fill="black" x="0" y="15">Data graphs</tspan>
        </text>
      </g>
      <g id="Graphic_6">
        <rect x="131" y="361" width="279" height="57" fill="white"/>
        <rect x="131" y="361" width="279" height="57" stroke="black" stroke-linecap="round" stroke-linejoin="round" stroke-width="1"/>
        <text transform="translate(136 380.276)" fill="black">
          <tspan font-family="Helvetica Neue" font-size="16" fill="black" x="0" y="15">AWS</tspan>
        </text>
      </g>
      <g id="Graphic_7">
        <circle cx="1092" cy="684" r="60.0000958741138" fill="white"/>
        <circle cx="1092" cy="684" r="60.0000958741138" stroke="black" stroke-linecap="round" stroke-linejoin="round" stroke-width="1"/>
        <text transform="translate(1049 674.776)" fill="black">
          <tspan font-family="Helvetica Neue" font-size="16" fill="black" x="30.56" y="15">API</tspan>
        </text>
      </g>
      <g id="Graphic_8">
        <circle cx="708" cy="684" r="60.0000958741138" fill="white"/>
        <circle cx="708" cy="684" r="60.0000958741138" stroke="black" stroke-linecap="round" stroke-linejoin="round" stroke-width="1"/>
        <text transform="translate(665 674.776)" fill="black">
          <tspan font-family="Helvetica Neue" font-size="16" fill="black" x="28.328" y="15">App</tspan>
        </text>
      </g>
      <g id="Line_9">
        <line x1="1092" y1="614.1" x2="1092" y2="589.9" marker-end="url(#StickArrow_Marker)" marker-start="url(#StickArrow_Marker_2)" stroke="black" stroke-linecap="round" stroke-linejoin="round" stroke-width="1"/>
      </g>
      <g id="Line_10">
        <line x1="777.9" y1="684" x2="1022.1" y2="684" marker-end="url(#StickArrow_Marker)" marker-start="url(#StickArrow_Marker_2)" stroke="black" stroke-linecap="round" stroke-linejoin="round" stroke-width="1"/>
      </g>
      <g id="Graphic_11">
        <circle cx="2250" cy="213" r="60.0000958741137" fill="white"/>
        <circle cx="2250" cy="213" r="60.0000958741137" stroke="black" stroke-linecap="round" stroke-linejoin="round" stroke-width="1"/>
        <text transform="translate(2207 194.552)" fill="black">
          <tspan font-family="Helvetica Neue" font-size="16" fill="black" x="27.744" y="15">SES</tspan>
          <tspan font-family="Helvetica Neue" font-size="16" fill="black" x="21.352" y="33.448">Dump</tspan>
        </text>
      </g>
      <g id="Graphic_12">
        <circle cx="1804" cy="684" r="60.0000958741138" fill="white"/>
        <circle cx="1804" cy="684" r="60.0000958741138" stroke="black" stroke-linecap="round" stroke-linejoin="round" stroke-width="1"/>
        <text transform="translate(1761 665.552)" fill="black">
          <tspan font-family="Helvetica Neue" font-size="16" fill="black" x="17.808" y="15">Python</tspan>
          <tspan font-family="Helvetica Neue" font-size="16" fill="black" x="1.224" y="33.448">(Transitivity)</tspan>
        </text>
      </g>
      <g id="Line_13">
        <line x1="1852.0617" y1="633.2443" x2="2208.7453" y2="256.56715" marker-start="url(#StickArrow_Marker_2)" stroke="black" stroke-linecap="round" stroke-linejoin="round" stroke-width="1"/>
      </g>
      <g id="Line_15">
        <line x1="1161.9" y1="684" x2="1744" y2="684" marker-start="url(#StickArrow_Marker_2)" stroke="black" stroke-linecap="round" stroke-linejoin="round" stroke-width="1"/>
      </g>
      <g id="Group_18">
        <title>Storage and Content Delivery - Volume</title>
        <g id="Group_20">
          <title>Layer_1</title>
          <g id="Group_25">
            <g id="Graphic_26">
              <path d="M 1114.3 498.4 L 1114.3 500.9 L 1069.2 500.9 L 1069.2 498.4 L 1091.8 492.3 Z" fill="#8c3123"/>
            </g>
          </g>
          <g id="Group_23">
            <g id="Graphic_24">
              <rect x="1068.6" y="506.4" width="46.8" height="51.6" fill="#8c3123"/>
            </g>
          </g>
          <g id="Graphic_22">
            <rect x="1068.6" y="504.1" width="46.8" height="51.4" fill="#e05243"/>
          </g>
          <g id="Graphic_21">
            <path d="M 1108 492 L 1076.1 492 L 1069.2 498.4 L 1069.7 498.4 L 1114.3 498.4 Z" fill="#e05243"/>
          </g>
        </g>
        <g id="Graphic_19">
          <text transform="translate(1065.7656 559)" fill="black">
            <tspan font-family="Helvetica" font-size="16" fill="black" x="0" y="15">NoSQL</tspan>
          </text>
        </g>
      </g>
      <g id="Group_27">
        <title>Storage and Content Delivery - Volume</title>
        <g id="Group_29">
          <title>Layer_1</title>
          <g id="Group_34">
            <g id="Graphic_35">
              <path d="M 2533.3 646.4 L 2533.3 648.9 L 2488.2 648.9 L 2488.2 646.4 L 2510.8 640.3 Z" fill="#8c3123"/>
            </g>
          </g>
          <g id="Group_32">
            <g id="Graphic_33">
              <rect x="2487.6" y="654.4" width="46.8" height="51.6" fill="#8c3123"/>
            </g>
          </g>
          <g id="Graphic_31">
            <rect x="2487.6" y="652.1" width="46.8" height="51.4" fill="#e05243"/>
          </g>
          <g id="Graphic_30">
            <path d="M 2527 640 L 2495.1 640 L 2488.2 646.4 L 2488.7 646.4 L 2533.3 646.4 Z" fill="#e05243"/>
          </g>
        </g>
        <g id="Graphic_28">
          <text transform="translate(2494.5508 707)" fill="black">
            <tspan font-family="Helvetica" font-size="16" fill="black" x="0" y="15">SSD</tspan>
          </text>
        </g>
      </g>
      <g id="Line_36">
        <line x1="2319.9" y1="684" x2="2487" y2="684" marker-start="url(#StickArrow_Marker_2)" stroke="black" stroke-linecap="round" stroke-linejoin="round" stroke-width="1"/>
      </g>
      <g id="Graphic_39">
        <circle cx="2250" cy="684" r="60.0000958741137" fill="white"/>
        <circle cx="2250" cy="684" r="60.0000958741137" stroke="black" stroke-linecap="round" stroke-linejoin="round" stroke-width="1"/>
        <text transform="translate(2207 647.104)" fill="black">
          <tspan font-family="Helvetica Neue" font-size="16" fill="black" x="2.248" y="15">Mapping of </tspan>
          <tspan font-family="Helvetica Neue" font-size="16" fill="black" x="5.672" y="33.448">categories </tspan>
          <tspan font-family="Helvetica Neue" font-size="16" fill="black" x="35.888" y="51.895996">to </tspan>
          <tspan font-family="Helvetica Neue" font-size="16" fill="black" x="7.88" y="70.34399">thesaurus</tspan>
        </text>
      </g>
      <g id="Line_40">
        <line x1="1873.9" y1="684" x2="2190" y2="684" marker-start="url(#StickArrow_Marker_2)" stroke="black" stroke-linecap="round" stroke-linejoin="round" stroke-width="1"/>
      </g>
      <g id="Graphic_41">
        <rect x="2391.7293" y="669.776" width="51.52" height="28.447998" fill="white"/>
        <text transform="translate(2396.7293 674.776)" fill="black">
          <tspan font-family="Helvetica Neue" font-size="16" fill="black" x="22026825e-20" y="15">dump</tspan>
        </text>
      </g>
      <g id="Group_42">
        <title>Storage and Content Delivery - Volume</title>
        <g id="Group_44">
          <title>Layer_1</title>
          <g id="Group_49">
            <g id="Graphic_50">
              <path d="M 2533.3 890.4 L 2533.3 892.9 L 2488.2 892.9 L 2488.2 890.4 L 2510.8 884.3 Z" fill="#8c3123"/>
            </g>
          </g>
          <g id="Group_47">
            <g id="Graphic_48">
              <rect x="2487.6" y="898.4" width="46.8" height="51.6" fill="#8c3123"/>
            </g>
          </g>
          <g id="Graphic_46">
            <rect x="2487.6" y="896.1" width="46.8" height="51.4" fill="#e05243"/>
          </g>
          <g id="Graphic_45">
            <path d="M 2527 884 L 2495.1 884 L 2488.2 890.4 L 2488.7 890.4 L 2533.3 890.4 Z" fill="#e05243"/>
          </g>
        </g>
        <g id="Graphic_43">
          <text transform="translate(2438.0586 951)" fill="black">
            <tspan font-family="Helvetica" font-size="16" fill="black" x="0" y="15">Search and indexing</tspan>
          </text>
        </g>
      </g>
      <g id="Line_53">
        <line x1="1870.2768" y1="706.254" x2="2487" y2="913.3333" marker-start="url(#StickArrow_Marker_2)" stroke="black" stroke-linecap="round" stroke-linejoin="round" stroke-width="1"/>
      </g>
      <g id="Graphic_52">
        <rect x="2215.3573" y="816.5484" width="51.52" height="28.447998" fill="white"/>
        <text transform="translate(2220.3573 821.5484)" fill="black">
          <tspan font-family="Helvetica Neue" font-size="16" fill="black" x="22026825e-20" y="15">dump</tspan>
        </text>
      </g>
      <g id="Group_57">
        <g id="Graphic_55">
          <path d="M 2697 960 L 2732.1724 889.6552 L 2767.3448 960 Z" fill="white"/>
          <path d="M 2697 960 L 2732.1724 889.6552 L 2767.3448 960 Z" stroke="black" stroke-linecap="round" stroke-linejoin="round" stroke-width="1"/>
        </g>
        <g id="Graphic_56">
          <circle cx="2732.1724" cy="893.1724" r="35.1724699951701" fill="white"/>
          <circle cx="2732.1724" cy="893.1724" r="35.1724699951701" stroke="black" stroke-linecap="round" stroke-linejoin="round" stroke-width="1"/>
        </g>
      </g>
      <g id="Line_58">
        <line x1="2544.8987" y1="927.8407" x2="2714.4436" y2="925.1128" marker-start="url(#StickArrow_Marker_2)" stroke="black" stroke-linecap="round" stroke-linejoin="round" stroke-width="1"/>
      </g>
      <g id="Group_59">
        <g id="Graphic_61">
          <path d="M 2712 706 L 2747.1724 635.6552 L 2782.3448 706 Z" fill="white"/>
          <path d="M 2712 706 L 2747.1724 635.6552 L 2782.3448 706 Z" stroke="black" stroke-linecap="round" stroke-linejoin="round" stroke-width="1"/>
        </g>
        <g id="Graphic_60">
          <circle cx="2747.1724" cy="639.1724" r="35.1724699951702" fill="white"/>
          <circle cx="2747.1724" cy="639.1724" r="35.1724699951702" stroke="black" stroke-linecap="round" stroke-linejoin="round" stroke-width="1"/>
        </g>
      </g>
      <g id="Line_62">
        <line x1="2544.8998" y1="669.40305" x2="2729.648" y2="670.7042" marker-start="url(#StickArrow_Marker_2)" stroke="black" stroke-linecap="round" stroke-linejoin="round" stroke-width="1"/>
      </g>
      <g id="Graphic_63">
        <rect x="2665.2586" y="718" width="163.82759" height="62" fill="white"/>
        <rect x="2665.2586" y="718" width="163.82759" height="62" stroke="black" stroke-linecap="round" stroke-linejoin="round" stroke-width="1"/>
        <text transform="translate(2670.2586 730.552)" fill="black">
          <tspan font-family="Helvetica Neue" font-size="16" fill="black" x="9.337795" y="15">Mapping people to </tspan>
          <tspan font-family="Helvetica Neue" font-size="16" fill="black" x="39.585795" y="33.448">categories</tspan>
        </text>
      </g>
      <g id="Graphic_64">
        <rect x="2648" y="981" width="159.82759" height="88" fill="white"/>
        <rect x="2648" y="981" width="159.82759" height="88" stroke="black" stroke-linecap="round" stroke-linejoin="round" stroke-width="1"/>
        <text transform="translate(2653 1006.552)" fill="black">
          <tspan font-family="Helvetica Neue" font-size="16" fill="black" x="11.505795" y="15">Indexing briefings </tspan>
          <tspan font-family="Helvetica Neue" font-size="16" fill="black" x="22.761795" y="33.448">with thesaurus</tspan>
        </text>
      </g>
      <g id="Group_65">
        <g id="Graphic_67">
          <path d="M 2214.8276 537.5 L 2250 467.1552 L 2285.1724 537.5 Z" fill="white"/>
          <path d="M 2214.8276 537.5 L 2250 467.1552 L 2285.1724 537.5 Z" stroke="black" stroke-linecap="round" stroke-linejoin="round" stroke-width="1"/>
        </g>
        <g id="Graphic_66">
          <circle cx="2250" cy="470.6724" r="35.1724699951701" fill="white"/>
          <circle cx="2250" cy="470.6724" r="35.1724699951701" stroke="black" stroke-linecap="round" stroke-linejoin="round" stroke-width="1"/>
        </g>
      </g>
      <g id="Graphic_68">
        <rect x="2168.0862" y="549.75" width="163.82759" height="62" fill="white"/>
        <rect x="2168.0862" y="549.75" width="163.82759" height="62" stroke="black" stroke-linecap="round" stroke-linejoin="round" stroke-width="1"/>
        <text transform="translate(2173.0862 562.302)" fill="black">
          <tspan font-family="Helvetica Neue" font-size="16" fill="black" x="5.7937955" y="15">Mapping categories </tspan>
          <tspan font-family="Helvetica Neue" font-size="16" fill="black" x="32.305795" y="33.448">tp thesaurus</tspan>
        </text>
      </g>
      <g id="Graphic_69">
        <circle cx="2511" cy="213" r="60.0000958741138" fill="white"/>
        <circle cx="2511" cy="213" r="60.0000958741138" stroke="black" stroke-linecap="round" stroke-linejoin="round" stroke-width="1"/>
        <text transform="translate(2468 194.552)" fill="black">
          <tspan font-family="Helvetica Neue" font-size="16" fill="black" x="27.744" y="15">SES</tspan>
          <tspan font-family="Helvetica Neue" font-size="16" fill="black" x="30.56" y="33.448">API</tspan>
        </text>
      </g>
      <g id="Line_71">
        <line x1="2319.9" y1="213" x2="2451" y2="213" marker-start="url(#StickArrow_Marker_2)" stroke="black" stroke-linecap="round" stroke-linejoin="round" stroke-width="1"/>
      </g>
      <g id="Graphic_70">
        <rect x="2369.867" y="198.776" width="51.52" height="28.447998" fill="white"/>
        <text transform="translate(2374.867 203.776)" fill="black">
          <tspan font-family="Helvetica Neue" font-size="16" fill="black" x="22026825e-20" y="15">dump</tspan>
        </text>
      </g>
      <g id="Group_72">
        <title>Storage and Content Delivery - Volume</title>
        <g id="Group_74">
          <title>Layer_1</title>
          <g id="Group_79">
            <g id="Graphic_80">
              <path d="M 2780.6448 175.4 L 2780.6448 177.9 L 2735.5448 177.9 L 2735.5448 175.4 L 2758.1448 169.3 Z" fill="#8c3123"/>
            </g>
          </g>
          <g id="Group_77">
            <g id="Graphic_78">
              <rect x="2734.9448" y="183.4" width="46.8" height="51.6" fill="#8c3123"/>
            </g>
          </g>
          <g id="Graphic_76">
            <rect x="2734.9448" y="181.1" width="46.8" height="51.4" fill="#e05243"/>
          </g>
          <g id="Graphic_75">
            <path d="M 2774.3448 169 L 2742.4448 169 L 2735.5448 175.4 L 2736.0448 175.4 L 2780.6448 175.4 Z" fill="#e05243"/>
          </g>
        </g>
        <g id="Graphic_73">
          <text transform="translate(2692.5284 236)" fill="black">
            <tspan font-family="Helvetica" font-size="16" fill="black" x="0" y="15">Ontology manager</tspan>
          </text>
        </g>
      </g>
      <g id="Line_81">
        <line x1="2580.9" y1="213" x2="2734.3448" y2="213" marker-start="url(#StickArrow_Marker_2)" stroke="black" stroke-linecap="round" stroke-linejoin="round" stroke-width="1"/>
      </g>
      <g id="Graphic_82">
        <rect x="131" y="241" width="517" height="57" fill="white"/>
        <text transform="translate(136 240.828)" fill="black">
          <tspan font-family="Helvetica Neue" font-size="48" fill="black" x="0" y="46">As is prototype</tspan>
        </text>
      </g>
      <g id="Group_83">
        <title>Storage and Content Delivery - Volume</title>
        <g id="Group_85">
          <title>Layer_1</title>
          <g id="Group_90">
            <g id="Graphic_91">
              <path d="M 2533.3 1134.4 L 2533.3 1136.9 L 2488.2 1136.9 L 2488.2 1134.4 L 2510.8 1128.3 Z" fill="#8c3123"/>
            </g>
          </g>
          <g id="Group_88">
            <g id="Graphic_89">
              <rect x="2487.6" y="1142.4" width="46.8" height="51.6" fill="#8c3123"/>
            </g>
          </g>
          <g id="Graphic_87">
            <rect x="2487.6" y="1140.1" width="46.8" height="51.4" fill="#e05243"/>
          </g>
          <g id="Graphic_86">
            <path d="M 2527 1128 L 2495.1 1128 L 2488.2 1134.4 L 2488.7 1134.4 L 2533.3 1134.4 Z" fill="#e05243"/>
          </g>
        </g>
        <g id="Graphic_84">
          <text transform="translate(2456.3164 1195)" fill="black">
            <tspan font-family="Helvetica" font-size="16" fill="black" x="0" y="15">Enquiry system</tspan>
          </text>
        </g>
      </g>
      <g id="Group_93">
        <g id="Graphic_95">
          <path d="M 2697 1204 L 2732.1724 1133.6552 L 2767.3448 1204 Z" fill="white"/>
          <path d="M 2697 1204 L 2732.1724 1133.6552 L 2767.3448 1204 Z" stroke="black" stroke-linecap="round" stroke-linejoin="round" stroke-width="1"/>
        </g>
        <g id="Graphic_94">
          <circle cx="2732.1724" cy="1137.1724" r="35.17246999517" fill="white"/>
          <circle cx="2732.1724" cy="1137.1724" r="35.17246999517" stroke="black" stroke-linecap="round" stroke-linejoin="round" stroke-width="1"/>
        </g>
      </g>
      <g id="Line_92">
        <line x1="2544.8987" y1="1171.8407" x2="2714.4436" y2="1169.1128" marker-start="url(#StickArrow_Marker_2)" stroke="black" stroke-linecap="round" stroke-linejoin="round" stroke-width="1"/>
      </g>
      <g id="Graphic_96">
        <rect x="2657" y="1216" width="159.82759" height="88" fill="white"/>
        <rect x="2657" y="1216" width="159.82759" height="88" stroke="black" stroke-linecap="round" stroke-linejoin="round" stroke-width="1"/>
        <text transform="translate(2662 1250.776)" fill="black">
          <tspan font-family="Helvetica Neue" font-size="16" fill="black" x="41.281795" y="15">Research</tspan>
        </text>
      </g>
      <g id="Graphic_99">
        <circle cx="2271.9138" cy="1172" r="60.0000958741138" fill="white"/>
        <circle cx="2271.9138" cy="1172" r="60.0000958741138" stroke="black" stroke-linecap="round" stroke-linejoin="round" stroke-width="1"/>
        <text transform="translate(2228.9138 1125.88)" fill="black">
          <tspan font-family="Helvetica Neue" font-size="16" fill="black" x="6.552" y="15">Redaction</tspan>
          <tspan font-family="Helvetica Neue" font-size="16" fill="black" x="29.512" y="33.448">and </tspan>
          <tspan font-family="Helvetica Neue" font-size="16" fill="black" x="12.776" y="51.895996">indexing </tspan>
          <tspan font-family="Helvetica Neue" font-size="16" fill="black" x="28.192" y="70.34399">with </tspan>
          <tspan font-family="Helvetica Neue" font-size="16" fill="black" x="7.88" y="88.79199">thesaurus</tspan>
        </text>
      </g>
      <g id="Line_98">
        <line x1="2341.8138" y1="1172" x2="2487" y2="1172" marker-start="url(#StickArrow_Marker_2)" stroke="black" stroke-linecap="round" stroke-linejoin="round" stroke-width="1"/>
      </g>
      <g id="Graphic_97">
        <rect x="2400.3352" y="1157.776" width="51.52" height="28.447998" fill="white"/>
        <text transform="translate(2405.3352 1162.776)" fill="black">
          <tspan font-family="Helvetica Neue" font-size="16" fill="black" x="22026825e-20" y="15">dump</tspan>
        </text>
      </g>
      <g id="Group_100">
        <g id="Graphic_102">
          <path d="M 2239.6552 1346 L 2274.8276 1275.6552 L 2310 1346 Z" fill="white"/>
          <path d="M 2239.6552 1346 L 2274.8276 1275.6552 L 2310 1346 Z" stroke="black" stroke-linecap="round" stroke-linejoin="round" stroke-width="1"/>
        </g>
        <g id="Graphic_101">
          <circle cx="2274.8276" cy="1279.1724" r="35.1724699951701" fill="white"/>
          <circle cx="2274.8276" cy="1279.1724" r="35.1724699951701" stroke="black" stroke-linecap="round" stroke-linejoin="round" stroke-width="1"/>
        </g>
      </g>
      <g id="Line_103">
        <line x1="1852.3776" y1="734.45436" x2="2230.388" y2="1128.6915" marker-start="url(#StickArrow_Marker_2)" stroke="black" stroke-linecap="round" stroke-linejoin="round" stroke-width="1"/>
      </g>
      <g id="Graphic_196">
        <rect x="430" y="2017" width="833" height="565" fill="white"/>
        <rect x="430" y="2017" width="833" height="565" stroke="black" stroke-linecap="round" stroke-linejoin="round" stroke-width="1"/>
      </g>
      <g id="Graphic_195">
        <rect x="430" y="2017" width="279" height="57" fill="white"/>
        <rect x="430" y="2017" width="279" height="57" stroke="black" stroke-linecap="round" stroke-linejoin="round" stroke-width="1"/>
        <text transform="translate(435 2036.276)" fill="black">
          <tspan font-family="Helvetica Neue" font-size="16" fill="black" x="0" y="15">Data graphs</tspan>
        </text>
      </g>
      <g id="Graphic_194">
        <rect x="152" y="1877" width="279" height="57" fill="white"/>
        <rect x="152" y="1877" width="279" height="57" stroke="black" stroke-linecap="round" stroke-linejoin="round" stroke-width="1"/>
        <text transform="translate(157 1896.276)" fill="black">
          <tspan font-family="Helvetica Neue" font-size="16" fill="black" x="0" y="15">AWS</tspan>
        </text>
      </g>
      <g id="Graphic_193">
        <circle cx="1113" cy="2243" r="60.0000958741138" fill="white"/>
        <circle cx="1113" cy="2243" r="60.0000958741138" stroke="black" stroke-linecap="round" stroke-linejoin="round" stroke-width="1"/>
        <text transform="translate(1070 2233.776)" fill="black">
          <tspan font-family="Helvetica Neue" font-size="16" fill="black" x="30.56" y="15">API</tspan>
        </text>
      </g>
      <g id="Graphic_192">
        <circle cx="729" cy="2243" r="60.0000958741139" fill="white"/>
        <circle cx="729" cy="2243" r="60.0000958741139" stroke="black" stroke-linecap="round" stroke-linejoin="round" stroke-width="1"/>
        <text transform="translate(686 2224.552)" fill="black">
          <tspan font-family="Helvetica Neue" font-size="16" fill="black" x="29.072" y="15">Edit</tspan>
          <tspan font-family="Helvetica Neue" font-size="16" fill="black" x="29.216" y="33.448">app</tspan>
        </text>
      </g>
      <g id="Line_191">
        <line x1="1113" y1="2173.1" x2="1113" y2="2148.9" marker-end="url(#StickArrow_Marker)" marker-start="url(#StickArrow_Marker_2)" stroke="black" stroke-linecap="round" stroke-linejoin="round" stroke-width="1"/>
      </g>
      <g id="Line_190">
        <line x1="798.9" y1="2243" x2="1043.1" y2="2243" marker-end="url(#StickArrow_Marker)" marker-start="url(#StickArrow_Marker_2)" stroke="black" stroke-linecap="round" stroke-linejoin="round" stroke-width="1"/>
      </g>
      <g id="Line_187">
        <line x1="2061.9811" y1="2092.3392" x2="2844.3592" y2="2006.0759" marker-start="url(#StickArrow_Marker_2)" stroke="black" stroke-linecap="round" stroke-linejoin="round" stroke-width="1"/>
      </g>
      <g id="Group_177">
        <title>Storage and Content Delivery - Volume</title>
        <g id="Group_179">
          <title>Layer_1</title>
          <g id="Group_184">
            <g id="Graphic_185">
              <path d="M 1135.3 2057.4 L 1135.3 2059.9 L 1090.2 2059.9 L 1090.2 2057.4 L 1112.8 2051.3 Z" fill="#8c3123"/>
            </g>
          </g>
          <g id="Group_182">
            <g id="Graphic_183">
              <rect x="1089.6" y="2065.4" width="46.8" height="51.6" fill="#8c3123"/>
            </g>
          </g>
          <g id="Graphic_181">
            <rect x="1089.6" y="2063.1" width="46.8" height="51.4" fill="#e05243"/>
          </g>
          <g id="Graphic_180">
            <path d="M 1129 2051 L 1097.1 2051 L 1090.2 2057.4 L 1090.7 2057.4 L 1135.3 2057.4 Z" fill="#e05243"/>
          </g>
        </g>
        <g id="Graphic_178">
          <text transform="translate(1086.7656 2118)" fill="black">
            <tspan font-family="Helvetica" font-size="16" fill="black" x="0" y="15">NoSQL</tspan>
          </text>
        </g>
      </g>
      <g id="Group_150">
        <g id="Graphic_152">
          <path d="M 3329.4828 2538.5 L 3364.655 2468.1552 L 3399.8276 2538.5 Z" fill="white"/>
          <path d="M 3329.4828 2538.5 L 3364.655 2468.1552 L 3399.8276 2538.5 Z" stroke="black" stroke-linecap="round" stroke-linejoin="round" stroke-width="1"/>
        </g>
        <g id="Graphic_151">
          <circle cx="3364.655" cy="2471.6724" r="35.1724699951703" fill="white"/>
          <circle cx="3364.655" cy="2471.6724" r="35.1724699951703" stroke="black" stroke-linecap="round" stroke-linejoin="round" stroke-width="1"/>
        </g>
      </g>
      <g id="Line_149">
        <line x1="3185.8986" y1="2506.3335" x2="3346.92" y2="2503.6258" marker-start="url(#StickArrow_Marker_2)" stroke="black" stroke-linecap="round" stroke-linejoin="round" stroke-width="1"/>
      </g>
      <g id="Graphic_143">
        <rect x="3284.7414" y="2552.5" width="159.82759" height="88" fill="white"/>
        <rect x="3284.7414" y="2552.5" width="159.82759" height="88" stroke="black" stroke-linecap="round" stroke-linejoin="round" stroke-width="1"/>
        <text transform="translate(3289.7414 2578.052)" fill="black">
          <tspan font-family="Helvetica Neue" font-size="16" fill="black" x="11.505795" y="15">Indexing briefings </tspan>
          <tspan font-family="Helvetica Neue" font-size="16" fill="black" x="22.761795" y="33.448">with thesaurus</tspan>
        </text>
      </g>
      <g id="Graphic_138">
        <circle cx="2904" cy="2173.5" r="60.0000958741138" fill="white"/>
        <circle cx="2904" cy="2173.5" r="60.0000958741138" stroke="black" stroke-linecap="round" stroke-linejoin="round" stroke-width="1"/>
        <text transform="translate(2861 2145.828)" fill="black">
          <tspan font-family="Helvetica Neue" font-size="16" fill="black" x="27.744" y="15">SES</tspan>
          <tspan font-family="Helvetica Neue" font-size="16" fill="black" x="26.696" y="33.448">term</tspan>
          <tspan font-family="Helvetica Neue" font-size="16" fill="black" x="30.56" y="51.895996">API</tspan>
        </text>
      </g>
      <g id="Group_129">
        <title>Layer_1</title>
        <g id="Group_134">
          <g id="Graphic_135">
            <path d="M 3186.7 2051.9 L 3186.7 2054.4 L 3141.6 2054.4 L 3141.6 2051.9 L 3164.2 2045.8 Z" fill="#8c3123"/>
          </g>
        </g>
        <g id="Group_132">
          <g id="Graphic_133">
            <rect x="3141" y="2059.9" width="46.8" height="51.6" fill="#8c3123"/>
          </g>
        </g>
        <g id="Graphic_131">
          <rect x="3141" y="2057.6" width="46.8" height="51.4" fill="#e05243"/>
        </g>
        <g id="Graphic_130">
          <path d="M 3180.4 2045.5 L 3148.5 2045.5 L 3141.6 2051.9 L 3142.1 2051.9 L 3186.7 2051.9 Z" fill="#e05243"/>
        </g>
      </g>
      <g id="Graphic_128">
        <text transform="translate(3121.8672 2111.5)" fill="black">
          <tspan font-family="Helvetica" font-size="16" fill="black" x="6.222656" y="15">Reference </tspan>
          <tspan font-family="Helvetica" font-size="16" fill="black" x="0" y="34">data service</tspan>
        </text>
      </g>
      <g id="Graphic_125">
        <rect x="152" y="1800" width="517" height="57" fill="white"/>
        <text transform="translate(157 1799.828)" fill="black">
          <tspan font-family="Helvetica Neue" font-size="48" fill="black" x="0" y="46">To be prototype</tspan>
        </text>
      </g>
      <g id="Graphic_198">
        <circle cx="2904" cy="1999.5" r="60.0000958741137" fill="lime"/>
        <circle cx="2904" cy="1999.5" r="60.0000958741137" stroke="black" stroke-linecap="round" stroke-linejoin="round" stroke-width="1"/>
        <text transform="translate(2861 1971.828)" fill="black">
          <tspan font-family="Helvetica Neue" font-size="16" fill="black" x="15.144" y="15">Change </tspan>
          <tspan font-family="Helvetica Neue" font-size="16" fill="black" x="23.44" y="33.448">event</tspan>
          <tspan font-family="Helvetica Neue" font-size="16" fill="black" x="26.112" y="51.895996">API?</tspan>
        </text>
      </g>
      <g id="Graphic_201">
        <circle cx="1992.5" cy="2100" r="60.0000958741136" fill="white"/>
        <circle cx="1992.5" cy="2100" r="60.0000958741136" stroke="black" stroke-linecap="round" stroke-linejoin="round" stroke-width="1"/>
        <text transform="translate(1949.5 2090.776)" fill="black">
          <tspan font-family="Helvetica Neue" font-size="16" fill="black" x="27.744" y="15">SES</tspan>
        </text>
      </g>
      <g id="Graphic_203">
        <rect x="1787" y="1920" width="279" height="57" fill="white"/>
        <rect x="1787" y="1920" width="279" height="57" stroke="black" stroke-linecap="round" stroke-linejoin="round" stroke-width="1"/>
        <text transform="translate(1792 1939.276)" fill="black">
          <tspan font-family="Helvetica Neue" font-size="16" fill="black" x="0" y="15">ETL</tspan>
        </text>
      </g>
      <g id="Line_205">
        <line x1="2062.175" y1="2105.6183" x2="2844.193" y2="2168.6774" marker-start="url(#StickArrow_Marker_2)" stroke="black" stroke-linecap="round" stroke-linejoin="round" stroke-width="1"/>
      </g>
      <g id="Group_206">
        <g id="Graphic_208">
          <path d="M 514 2274 L 549.1724 2203.6552 L 584.3448 2274 Z" fill="white"/>
          <path d="M 514 2274 L 549.1724 2203.6552 L 584.3448 2274 Z" stroke="black" stroke-linecap="round" stroke-linejoin="round" stroke-width="1"/>
        </g>
        <g id="Graphic_207">
          <circle cx="549.1724" cy="2207.1724" r="35.17246999517" fill="white"/>
          <circle cx="549.1724" cy="2207.1724" r="35.17246999517" stroke="black" stroke-linecap="round" stroke-linejoin="round" stroke-width="1"/>
        </g>
      </g>
      <g id="Graphic_209">
        <rect x="467.2586" y="2295" width="163.82759" height="62" fill="white"/>
        <rect x="467.2586" y="2295" width="163.82759" height="62" stroke="black" stroke-linecap="round" stroke-linejoin="round" stroke-width="1"/>
        <text transform="translate(472.2586 2298.328)" fill="black">
          <tspan font-family="Helvetica Neue" font-size="16" fill="black" x="12.601795" y="15">Managing people, </tspan>
          <tspan font-family="Helvetica Neue" font-size="16" fill="black" x="8.601795" y="33.448">contact details and </tspan>
          <tspan font-family="Helvetica Neue" font-size="16" fill="black" x="5.7857955" y="51.895996">people to thesaurus</tspan>
        </text>
      </g>
      <g id="Line_210">
        <line x1="659.1187" y1="2241.3786" x2="566.96504" y2="2239.2404" marker-start="url(#StickArrow_Marker_2)" stroke="black" stroke-linecap="round" stroke-linejoin="round" stroke-width="1"/>
      </g>
      <g id="Graphic_211">
        <rect x="2666.2586" y="719" width="163.82759" height="62" fill="white"/>
        <rect x="2666.2586" y="719" width="163.82759" height="62" stroke="black" stroke-linecap="round" stroke-linejoin="round" stroke-width="1"/>
        <text transform="translate(2671.2586 731.552)" fill="black">
          <tspan font-family="Helvetica Neue" font-size="16" fill="black" x="9.337795" y="15">Mapping people to </tspan>
          <tspan font-family="Helvetica Neue" font-size="16" fill="black" x="39.585795" y="33.448">categories</tspan>
        </text>
      </g>
      <g id="Graphic_212">
        <rect x="918" y="2268.5" width="163.82759" height="62" fill="aqua"/>
        <rect x="918" y="2268.5" width="163.82759" height="62" stroke="black" stroke-linecap="round" stroke-linejoin="round" stroke-width="1"/>
        <text transform="translate(923 2290.276)" fill="black">
          <tspan font-family="Helvetica Neue" font-size="16" fill="black" x="34.833795" y="15">Transitivity?</tspan>
        </text>
      </g>
      <g id="Line_213">
        <line x1="1181.9984" y1="2231.7814" x2="1933.2733" y2="2109.6298" marker-start="url(#StickArrow_Marker_2)" stroke="black" stroke-linecap="round" stroke-linejoin="round" stroke-width="1"/>
      </g>
      <g id="Graphic_215">
        <rect x="1910.5862" y="2315.5" width="163.82759" height="62" fill="white"/>
        <rect x="1910.5862" y="2315.5" width="163.82759" height="62" stroke="black" stroke-linecap="round" stroke-linejoin="round" stroke-width="1"/>
        <text transform="translate(1915.5862 2328.052)" fill="black">
          <tspan font-family="Helvetica Neue" font-size="16" fill="black" x="21.057795" y="15">Observability of </tspan>
          <tspan font-family="Helvetica Neue" font-size="16" fill="black" x="20.313795" y="33.448">usage (one day)</tspan>
        </text>
      </g>
      <g id="Graphic_216">
        <rect x="3269" y="2053.5" width="163.82759" height="62" fill="lime"/>
        <rect x="3269" y="2053.5" width="163.82759" height="62" stroke="black" stroke-linecap="round" stroke-linejoin="round" stroke-width="1"/>
        <text transform="translate(3274 2066.052)" fill="black">
          <tspan font-family="Helvetica Neue" font-size="16" fill="black" x="28.465795" y="15">Category and </tspan>
          <tspan font-family="Helvetica Neue" font-size="16" fill="black" x="37.345795" y="33.448">thesaurus?</tspan>
        </text>
      </g>
      <g id="Group_217">
        <title>Storage and Content Delivery - Volume</title>
        <g id="Group_219">
          <title>Layer_1</title>
          <g id="Group_224">
            <g id="Graphic_225">
              <path d="M 3174.3 2468.9 L 3174.3 2471.4 L 3129.2 2471.4 L 3129.2 2468.9 L 3151.8 2462.8 Z" fill="#8c3123"/>
            </g>
          </g>
          <g id="Group_222">
            <g id="Graphic_223">
              <rect x="3128.6" y="2476.9" width="46.8" height="51.6" fill="#8c3123"/>
            </g>
          </g>
          <g id="Graphic_221">
            <rect x="3128.6" y="2474.6" width="46.8" height="51.4" fill="#e05243"/>
          </g>
          <g id="Graphic_220">
            <path d="M 3168 2462.5 L 3136.1 2462.5 L 3129.2 2468.9 L 3129.7 2468.9 L 3174.3 2468.9 Z" fill="#e05243"/>
          </g>
        </g>
        <g id="Graphic_218">
          <text transform="translate(3130.215 2529.5)" fill="black">
            <tspan font-family="Helvetica" font-size="16" fill="black" x="0" y="15">SOLR</tspan>
          </text>
        </g>
      </g>
      <g id="Graphic_226">
        <circle cx="1992.5" cy="2522" r="60.0000958741138" fill="white"/>
        <circle cx="1992.5" cy="2522" r="60.0000958741138" stroke="black" stroke-linecap="round" stroke-linejoin="round" stroke-width="1"/>
        <text transform="translate(1949.5 2512.776)" fill="black">
          <tspan font-family="Helvetica Neue" font-size="16" fill="black" x="28.784" y="15">Solr</tspan>
        </text>
      </g>
      <g id="Line_227">
        <line x1="2981.7707" y1="2506.5" x2="3128" y2="2506.5" marker-start="url(#StickArrow_Marker_2)" stroke="black" stroke-linecap="round" stroke-linejoin="round" stroke-width="1"/>
      </g>
      <g id="Graphic_228">
        <rect x="1910.5862" y="2169" width="163.82759" height="62" fill="white"/>
        <rect x="1910.5862" y="2169" width="163.82759" height="62" stroke="black" stroke-linecap="round" stroke-linejoin="round" stroke-width="1"/>
        <text transform="translate(1915.5862 2190.776)" fill="black">
          <tspan font-family="Helvetica Neue" font-size="16" fill="black" x="54.249795" y="15">CRUD</tspan>
        </text>
      </g>
      <g id="Graphic_229">
        <rect x="1910.5862" y="2244" width="163.82759" height="62" fill="white"/>
        <rect x="1910.5862" y="2244" width="163.82759" height="62" stroke="black" stroke-linecap="round" stroke-linejoin="round" stroke-width="1"/>
        <text transform="translate(1915.5862 2256.552)" fill="black">
          <tspan font-family="Helvetica Neue" font-size="16" fill="black" x="3.5777955" y="15">Observability of SES </tspan>
          <tspan font-family="Helvetica Neue" font-size="16" fill="black" x="46.537795" y="33.448">deletes?</tspan>
        </text>
      </g>
      <g id="Graphic_230">
        <rect x="1910.5862" y="2591" width="163.82759" height="62" fill="white"/>
        <rect x="1910.5862" y="2591" width="163.82759" height="62" stroke="black" stroke-linecap="round" stroke-linejoin="round" stroke-width="1"/>
        <text transform="translate(1915.5862 2612.776)" fill="black">
          <tspan font-family="Helvetica Neue" font-size="16" fill="black" x="54.249795" y="15">CRUD</tspan>
        </text>
      </g>
      <g id="Graphic_231">
        <rect x="2834" y="2586.5" width="163.82759" height="62" fill="lime"/>
        <rect x="2834" y="2586.5" width="163.82759" height="62" stroke="black" stroke-linecap="round" stroke-linejoin="round" stroke-width="1"/>
        <text transform="translate(2839 2599.052)" fill="black">
          <tspan font-family="Helvetica Neue" font-size="16" fill="black" x="2.8177955" y="15">Query by publication </tspan>
          <tspan font-family="Helvetica Neue" font-size="16" fill="black" x="61.057795" y="33.448">date</tspan>
        </text>
      </g>
      <g id="Line_232">
        <line x1="1179.6397" y1="2264.1398" x2="1935.2968" y2="2503.8537" marker-start="url(#StickArrow_Marker_2)" stroke="black" stroke-linecap="round" stroke-linejoin="round" stroke-width="1"/>
      </g>
      <g id="Graphic_233">
        <circle cx="1113" cy="2924" r="60.0000958741136" fill="lime"/>
        <circle cx="1113" cy="2924" r="60.0000958741136" stroke="black" stroke-linecap="round" stroke-linejoin="round" stroke-width="1"/>
        <text transform="translate(1070 2914.776)" fill="black">
          <tspan font-family="Helvetica Neue" font-size="16" fill="black" x="14.712" y="15">Viewer?</tspan>
        </text>
      </g>
      <g id="Group_234">
        <g id="Graphic_236">
          <path d="M 1077.8276 3099 L 1113 3028.655 L 1148.1724 3099 Z" fill="white"/>
          <path d="M 1077.8276 3099 L 1113 3028.655 L 1148.1724 3099 Z" stroke="black" stroke-linecap="round" stroke-linejoin="round" stroke-width="1"/>
        </g>
        <g id="Graphic_235">
          <circle cx="1113" cy="3032.1724" r="35.1724699951701" fill="white"/>
          <circle cx="1113" cy="3032.1724" r="35.1724699951701" stroke="black" stroke-linecap="round" stroke-linejoin="round" stroke-width="1"/>
        </g>
      </g>
      <g id="Line_237">
        <line x1="1113" y1="2854.1" x2="1113" y2="2303" marker-start="url(#StickArrow_Marker_2)" stroke="black" stroke-linecap="round" stroke-linejoin="round" stroke-width="1"/>
      </g>
      <g id="Graphic_238">
        <circle cx="2911.8707" cy="2506.5" r="60.0000958741137" fill="lime"/>
        <circle cx="2911.8707" cy="2506.5" r="60.0000958741137" stroke="black" stroke-linecap="round" stroke-linejoin="round" stroke-width="1"/>
        <text transform="translate(2868.8707 2497.276)" fill="black">
          <tspan font-family="Helvetica Neue" font-size="16" fill="black" x="9.672" y="15">Solr API?</tspan>
        </text>
      </g>
      <g id="Line_239">
        <line x1="2062.3902" y1="2520.8217" x2="2851.879" y2="2507.5114" marker-start="url(#StickArrow_Marker_2)" stroke="black" stroke-linecap="round" stroke-linejoin="round" stroke-width="1"/>
      </g>
      <g id="Line_240">
        <line x1="2970.5514" y1="2020.917" x2="3141" y2="2075.7696" marker-start="url(#StickArrow_Marker_2)" stroke="black" stroke-linecap="round" stroke-linejoin="round" stroke-width="1"/>
      </g>
      <g id="Line_241">
        <line x1="2970.0626" y1="2150.6166" x2="3141" y2="2091.4055" marker-start="url(#StickArrow_Marker_2)" stroke="black" stroke-linecap="round" stroke-linejoin="round" stroke-width="1"/>
      </g>
      <g id="Line_242">
        <line x1="3197.6998" y1="2083.5142" x2="3269" y2="2083.973" marker-start="url(#StickArrow_Marker_2)" stroke="black" stroke-linecap="round" stroke-linejoin="round" stroke-width="1"/>
      </g>
      <g id="Graphic_244">
        <rect x="2463.1724" y="1868.5" width="279" height="57" fill="white"/>
        <rect x="2463.1724" y="1868.5" width="279" height="57" stroke="black" stroke-linecap="round" stroke-linejoin="round" stroke-width="1"/>
        <text transform="translate(2468.1724 1887.776)" fill="black">
          <tspan font-family="Helvetica Neue" font-size="16" fill="black" x="0" y="15">Azure</tspan>
        </text>
      </g>
    </g>
  </g>
</svg>
