<?xml version="1.0" encoding="UTF-8" standalone="no"?>
<!DOCTYPE svg PUBLIC "-//W3C//DTD SVG 1.1//EN" "http://www.w3.org/Graphics/SVG/1.1/DTD/svg11.dtd">
<svg xmlns="http://www.w3.org/2000/svg" version="1.1" xmlns:xl="http://www.w3.org/1999/xlink" xmlns:dc="http://purl.org/dc/elements/1.1/" viewBox="-125 -1 649 733" width="649" height="733">
  <defs>
    <marker orient="auto" overflow="visible" markerUnits="strokeWidth" id="FilledArrow_Marker" stroke-linejoin="miter" stroke-miterlimit="10" viewBox="-1 -4 10 8" markerWidth="10" markerHeight="8" color="black">
      <g>
        <path d="M 8 0 L 0 -3 L 0 3 Z" fill="currentColor" stroke="currentColor" stroke-width="1"/>
      </g>
    </marker>
  </defs>
  <g id="Canvas_1" stroke-dasharray="none" stroke="none" fill="none" stroke-opacity="1" fill-opacity="1">
    <title>Canvas 1</title>
    <rect fill="white" x="-125" y="-1" width="649" height="733"/>
    <g id="Canvas_1_Layer_1">
      <title>Layer 1</title>
      <g id="Graphic_2">
        <ellipse cx="156.078" cy="44" rx="111.801326108203" ry="43.5714981942969" stroke="black" stroke-linecap="round" stroke-linejoin="round" stroke-width="2"/>
        <text transform="translate(71.637085 18.5)" fill="black">
          <tspan font-family="Helvetica" font-size="14" fill="black" x=".39648438" y="14">Local Government Finance</tspan>
          <tspan font-family="Helvetica" font-size="14" fill="black" x="0" y="31">Report (England) approved</tspan>
          <tspan font-family="Helvetica" font-size="14" fill="black" x="17.92041" y="48">(House of Commons)</tspan>
        </text>
      </g>
      <g id="Graphic_3">
        <ellipse cx="315.078" cy="191" rx="67.0386813398149" ry="19.2857451023937" fill="white"/>
        <ellipse cx="315.078" cy="191" rx="67.0386813398149" ry="19.2857451023937" stroke="black" stroke-linecap="round" stroke-linejoin="round" stroke-width="1"/>
        <text transform="translate(266.44714 182.5)" fill="black">
          <tspan font-family="Helvetica" font-size="14" fill="black" x="1.9448242" y="14">LGFR AA SUM </tspan>
        </text>
      </g>
      <g id="Line_4">
        <path d="M 200.42262 85.0237 C 228.80184 111.25173 263.36228 143.17312 287.90544 165.85953" marker-end="url(#FilledArrow_Marker)" stroke="black" stroke-linecap="round" stroke-linejoin="round" stroke-width="1"/>
      </g>
      <g id="Graphic_5">
        <ellipse cx="118.078" cy="191" rx="111.305719847524" ry="67.8572512862001" stroke="black" stroke-linecap="round" stroke-linejoin="round" stroke-width="2"/>
        <text transform="translate(34.03357 148.5)" fill="black">
          <tspan font-family="Helvetica" font-size="14" fill="black" x="23.341309" y="14">Question on motion</tspan>
          <tspan font-family="Helvetica" font-size="14" fill="black" x="39.28955" y="31">to approve the</tspan>
          <tspan font-family="Helvetica" font-size="14" fill="black" x="0" y="48">Local Government Finance</tspan>
          <tspan font-family="Helvetica" font-size="14" fill="black" x="19.062012" y="65">Report (England) put</tspan>
          <tspan font-family="Helvetica" font-size="14" fill="black" x="17.523926" y="82">(House of Commons)</tspan>
        </text>
      </g>
      <g id="Graphic_6">
        <ellipse cx="138.078" cy="315" rx="83.094615198706" ry="19.2857451023937" fill="white"/>
        <ellipse cx="138.078" cy="315" rx="83.094615198706" ry="19.2857451023937" stroke="black" stroke-linecap="round" stroke-linejoin="round" stroke-width="1"/>
        <text transform="translate(76.60242 306.5)" fill="black">
          <tspan font-family="Helvetica" font-size="14" fill="black" x="1.9448242" y="14">LGFR AA EQUALS </tspan>
        </text>
      </g>
      <g id="Line_7">
        <path d="M 129.1312 259.52556 C 130.62801 268.80833 132.09317 277.8949 133.39282 285.95454" marker-end="url(#FilledArrow_Marker)" stroke="black" stroke-linecap="round" stroke-linejoin="round" stroke-width="1"/>
      </g>
      <g id="Graphic_8">
        <ellipse cx="411.078" cy="663" rx="111.305719847524" ry="43.571498194297" stroke="black" stroke-linecap="round" stroke-linejoin="round" stroke-width="2"/>
        <text transform="translate(327.03357 637.5)" fill="black">
          <tspan font-family="Helvetica" font-size="14" fill="black" x="0" y="14">Local Government Finance</tspan>
          <tspan font-family="Helvetica" font-size="14" fill="black" x="3.8896484" y="31">Report (England) rejected</tspan>
          <tspan font-family="Helvetica" font-size="14" fill="black" x="17.523926" y="48">(House of Commons)</tspan>
        </text>
      </g>
      <g id="Line_9">
        <path d="M 416.85164 618.4867 C 422.82516 569.9933 429.9243 503.93475 429.9243 464.94377 C 429.9243 389.94137 429.9243 389.94137 429.9243 389.94137 C 429.9243 333.99996 376.90036 261.61184 338.66012 217.11956" marker-end="url(#FilledArrow_Marker)" stroke="black" stroke-linecap="round" stroke-linejoin="round" stroke-width="1"/>
      </g>
      <g id="Graphic_10">
        <ellipse cx="138.078" cy="390" rx="65.9107498499939" ry="19.2857451023937" fill="white"/>
        <ellipse cx="138.078" cy="390" rx="65.9107498499939" ry="19.2857451023937" stroke="black" stroke-linecap="round" stroke-linejoin="round" stroke-width="1"/>
        <text transform="translate(90.34949 381.5)" fill="black">
          <tspan font-family="Helvetica" font-size="14" fill="black" x="1.9448242" y="14">LGFR AA NOT </tspan>
        </text>
      </g>
      <g id="Graphic_11">
        <ellipse cx="138.078" cy="465" rx="91.8489016481121" ry="19.2857451023937" fill="white"/>
        <ellipse cx="138.078" cy="465" rx="91.8489016481121" ry="19.2857451023937" stroke="black" stroke-linecap="round" stroke-linejoin="round" stroke-width="1"/>
        <text transform="translate(69.599 456.5)" fill="black">
          <tspan font-family="Helvetica" font-size="14" fill="black" x="1.9448242" y="14">LGFR AA Summation </tspan>
        </text>
      </g>
      <g id="Line_12">
        <path d="M 138.078 409.2857 C 138.078 417.39077 138.078 426.9106 138.078 435.814" marker-end="url(#FilledArrow_Marker)" stroke="black" stroke-linecap="round" stroke-linejoin="round" stroke-width="1"/>
      </g>
      <g id="Graphic_13">
        <ellipse cx="-42.921997" cy="540" rx="81.1506423658706" ry="19.2857451023937" fill="white"/>
        <ellipse cx="-42.921997" cy="540" rx="81.1506423658706" ry="19.2857451023937" stroke="black" stroke-linecap="round" stroke-linejoin="round" stroke-width="1"/>
        <text transform="translate(-102.84241 531.5)" fill="black">
          <tspan font-family="Helvetica" font-size="14" fill="black" x="1.9448242" y="14">LGFR AA Decision </tspan>
        </text>
      </g>
      <g id="Line_14">
        <path d="M -41.033566 520.7195 C -37.73696 485.61054 -33.07171 428.3431 -33.07171 389.94137 C -33.07171 314.94617 -33.07171 314.94617 -33.07171 314.94617 C -33.07171 228.79817 -53.91499 192.99257 -3.0693098 123.44777 C 2.0094427 116.49318 37.89078 99.15704 74.43428 82.31032" marker-end="url(#FilledArrow_Marker)" stroke="black" stroke-linecap="round" stroke-linejoin="round" stroke-width="1"/>
      </g>
      <g id="Graphic_15">
        <ellipse cx="320.078" cy="540" rx="81.6291587554917" ry="19.2857451023937" fill="white"/>
        <ellipse cx="320.078" cy="540" rx="81.6291587554917" ry="19.2857451023937" stroke="black" stroke-linecap="round" stroke-linejoin="round" stroke-width="1"/>
        <text transform="translate(259.77478 531.5)" fill="black">
          <tspan font-family="Helvetica" font-size="14" fill="black" x="1.9448242" y="14">LGFR AB Decision </tspan>
        </text>
      </g>
      <g id="Line_16">
        <path d="M 334.1269 558.9996 C 344.83376 573.4677 359.63 593.45186 373.5466 612.2526" marker-end="url(#FilledArrow_Marker)" stroke="black" stroke-linecap="round" stroke-linejoin="round" stroke-width="1"/>
      </g>
      <g id="Line_17">
        <path d="M 138.078 334.28572 C 138.078 342.39064 138.078 351.9105 138.078 360.81395" marker-end="url(#FilledArrow_Marker)" stroke="black" stroke-linecap="round" stroke-linejoin="round" stroke-width="1"/>
      </g>
      <g id="Line_18">
        <path d="M 295.86953 209.48098 C 277.51234 226.9312 253.25547 249.2943 238.9299 259.44137 C 229.85188 265.86958 203.96829 280.01634 180.22194 292.6882" marker-end="url(#FilledArrow_Marker)" stroke="black" stroke-linecap="round" stroke-linejoin="round" stroke-width="1"/>
      </g>
      <g id="Line_19">
        <path d="M 96.54897 482.2076 C 69.51796 493.40843 35.00916 507.70816 6.607274 519.4771" marker-end="url(#FilledArrow_Marker)" stroke="black" stroke-linecap="round" stroke-linejoin="round" stroke-width="1"/>
      </g>
      <g id="Line_20">
        <path d="M 179.78892 482.1882 C 206.98836 493.3969 241.7304 507.71404 270.3131 519.4928" marker-end="url(#FilledArrow_Marker)" stroke="black" stroke-linecap="round" stroke-linejoin="round" stroke-width="1"/>
      </g>
      <g id="Graphic_21">
        <ellipse cx="138.078" cy="540" rx="82.1119476128771" ry="19.2857451023937" fill="white"/>
        <ellipse cx="138.078" cy="540" rx="82.1119476128771" ry="19.2857451023937" stroke="black" stroke-linecap="round" stroke-linejoin="round" stroke-width="1"/>
        <text transform="translate(77.38855 531.5)" fill="black">
          <tspan font-family="Helvetica" font-size="14" fill="black" x="1.9448242" y="14">LGFR AC Decision </tspan>
        </text>
      </g>
      <g id="Line_22">
        <path d="M 138.078 465 C 138.078 469.594 138.078 491.6322 138.078 510.8112" marker-end="url(#FilledArrow_Marker)" stroke="black" stroke-linecap="round" stroke-linejoin="round" stroke-width="1"/>
      </g>
      <g id="Graphic_23">
        <ellipse cx="138.078" cy="663" rx="124.422195884458" ry="67.8572512862001" stroke="black" stroke-linecap="round" stroke-linejoin="round" stroke-width="2"/>
        <text transform="translate(43.540405 620.5)" fill="black">
          <tspan font-family="Helvetica" font-size="14" fill="black" x="52.124023" y="14">Decision on a</tspan>
          <tspan font-family="Helvetica" font-size="14" fill="black" x="38.50342" y="31">motion to approve</tspan>
          <tspan font-family="Helvetica" font-size="14" fill="black" x="25.665527" y="48">the Local Government</tspan>
          <tspan font-family="Helvetica" font-size="14" fill="black" x="14.382812" y="65">Finance Report (England)</tspan>
          <tspan font-family="Helvetica" font-size="14" fill="black" x="0" y="82">deferred (House of Commons)</tspan>
        </text>
      </g>
      <g id="Line_24">
        <path d="M 138.078 559.2857 C 138.078 566.45814 138.078 575.0755 138.078 584.2442" marker-end="url(#FilledArrow_Marker)" stroke="black" stroke-linecap="round" stroke-linejoin="round" stroke-width="1"/>
      </g>
    </g>
  </g>
</svg>
