<?xml version="1.0" encoding="UTF-8" standalone="no"?>
<!DOCTYPE svg PUBLIC "-//W3C//DTD SVG 1.1//EN" "http://www.w3.org/Graphics/SVG/1.1/DTD/svg11.dtd">
<svg xmlns="http://www.w3.org/2000/svg" xmlns:xl="http://www.w3.org/1999/xlink" xmlns:dc="http://purl.org/dc/elements/1.1/" version="1.1" viewBox="-142 -1 1164 2165" width="1164" height="2165">
  <defs>
    <marker orient="auto" overflow="visible" markerUnits="strokeWidth" id="FilledArrow_Marker" stroke-linejoin="miter" stroke-miterlimit="10" viewBox="-1 -4 10 8" markerWidth="10" markerHeight="8" color="black">
      <g>
        <path d="M 8 0 L 0 -3 L 0 3 Z" fill="currentColor" stroke="currentColor" stroke-width="1"/>
      </g>
    </marker>
  </defs>
  <g id="Canvas_1" stroke-dasharray="none" fill-opacity="1" stroke="none" fill="none" stroke-opacity="1">
    <title>Canvas 1</title>
    <rect fill="white" x="-142" y="-1" width="1164" height="2165"/>
    <g id="Canvas_1_Layer_1">
      <title>Layer 1</title>
      <g id="Graphic_2">
        <ellipse cx="4.5651855" cy="56" rx="124.413650948929" ry="55.7143747402485" stroke="black" stroke-linecap="round" stroke-linejoin="round" stroke-width="2"/>
        <text transform="translate(-89.96558 22)" fill="black">
          <tspan font-family="Helvetica" font-size="14" fill="black" x="37.717285" y="14">Considered by the</tspan>
          <tspan font-family="Helvetica" font-size="14" fill="black" x="23.70703" y="31">Delegated Powers and</tspan>
          <tspan font-family="Helvetica" font-size="14" fill="black" x="0" y="48">Regulatory Reform Committee</tspan>
          <tspan font-family="Helvetica" font-size="14" fill="black" x="10.899902" y="65">(DPRRC) (House of Lords)</tspan>
        </text>
      </g>
      <g id="Graphic_3">
        <ellipse cx="234.56519" cy="167" rx="73.6866411813355" ry="19.2857451023937" fill="white"/>
        <ellipse cx="234.56519" cy="167" rx="73.6866411813355" ry="19.2857451023937" stroke="black" stroke-linecap="round" stroke-linejoin="round" stroke-width="1"/>
        <text transform="translate(180.61597 158.5)" fill="black">
          <tspan font-family="Helvetica" font-size="14" fill="black" x="1.9448242" y="14">DPRRC AA NOT </tspan>
        </text>
      </g>
      <g id="Line_4">
        <path d="M 90.38113 97.42603 C 124.47001 113.87663 162.04554 132.00774 190.50858 145.74165" marker-end="url(#FilledArrow_Marker)" stroke="black" stroke-linecap="round" stroke-linejoin="round" stroke-width="1"/>
      </g>
      <g id="Graphic_5">
        <ellipse cx="155.56519" cy="2069" rx="68.4955928475003" ry="19.2857451023939" fill="white"/>
        <ellipse cx="155.56519" cy="2069" rx="68.4955928475003" ry="19.2857451023939" stroke="black" stroke-linecap="round" stroke-linejoin="round" stroke-width="1"/>
        <text transform="translate(105.7688 2060.5)" fill="black">
          <tspan font-family="Helvetica" font-size="14" fill="black" x="1.9448242" y="14">DPRRC AA OR </tspan>
        </text>
      </g>
      <g id="Line_6">
        <path d="M -49.029984 107.31846 C -92.32735 150.94414 -141.43481 207.41248 -141.43481 241.7737 C -141.43481 241.7737 -141.43481 241.7737 -141.43481 1773.8113 C -141.43481 1890.112 15.341556 1994.2225 113.62838 2047.4517" marker-end="url(#FilledArrow_Marker)" stroke="black" stroke-linecap="round" stroke-linejoin="round" stroke-width="1"/>
      </g>
      <g id="Graphic_7">
        <ellipse cx="56.565186" cy="167" rx="86.1836093924203" ry="19.2857451023937" fill="white"/>
        <ellipse cx="56.565186" cy="167" rx="86.1836093924203" ry="19.2857451023937" stroke="black" stroke-linecap="round" stroke-linejoin="round" stroke-width="1"/>
        <text transform="translate(-7.381592 158.5)" fill="black">
          <tspan font-family="Helvetica" font-size="14" fill="black" x="1.9448242" y="14">LRO AY Summation </tspan>
        </text>
      </g>
      <g id="Graphic_8">
        <ellipse cx="234.56519" cy="241" rx="73.366206099" ry="19.2857451023937" fill="white"/>
        <ellipse cx="234.56519" cy="241" rx="73.366206099" ry="19.2857451023937" stroke="black" stroke-linecap="round" stroke-linejoin="round" stroke-width="1"/>
        <text transform="translate(180.87231 232.5)" fill="black">
          <tspan font-family="Helvetica" font-size="14" fill="black" x="1.9448242" y="14">DPRRC AA AND </tspan>
        </text>
      </g>
      <g id="Line_9">
        <path d="M 97.3524 183.99499 C 124.07386 195.08975 158.24959 209.25212 186.27834 220.88666" marker-end="url(#FilledArrow_Marker)" stroke="black" stroke-linecap="round" stroke-linejoin="round" stroke-width="1"/>
      </g>
      <g id="Graphic_10">
        <ellipse cx="776.5652" cy="317" rx="73.8447224886211" ry="19.2857451023937" fill="white"/>
        <ellipse cx="776.5652" cy="317" rx="73.8447224886211" ry="19.2857451023937" stroke="black" stroke-linecap="round" stroke-linejoin="round" stroke-width="1"/>
        <text transform="translate(722.4895 308.5)" fill="black">
          <tspan font-family="Helvetica" font-size="14" fill="black" x="1.9448242" y="14">DPRRC AB AND </tspan>
        </text>
      </g>
      <g id="Line_11">
        <path d="M 299.4052 250.0345 C 408.0854 265.24947 587.384 290.5591 701.5808 306.55056" marker-end="url(#FilledArrow_Marker)" stroke="black" stroke-linecap="round" stroke-linejoin="round" stroke-width="1"/>
      </g>
      <g id="Graphic_12">
        <ellipse cx="776.5652" cy="392" rx="74.3275113460065" ry="19.2857451023937" fill="white"/>
        <ellipse cx="776.5652" cy="392" rx="74.3275113460065" ry="19.2857451023937" stroke="black" stroke-linecap="round" stroke-linejoin="round" stroke-width="1"/>
        <text transform="translate(722.1033 383.5)" fill="black">
          <tspan font-family="Helvetica" font-size="14" fill="black" x="1.9448242" y="14">DPRRC AC AND </tspan>
        </text>
      </g>
      <g id="Line_13">
        <path d="M 776.5652 336.28572 C 776.5652 344.39063 776.5652 353.91014 776.5652 362.81366" marker-end="url(#FilledArrow_Marker)" stroke="black" stroke-linecap="round" stroke-linejoin="round" stroke-width="1"/>
      </g>
      <g id="Graphic_14">
        <ellipse cx="651.5652" cy="467" rx="88.9265336972123" ry="19.2857451023937" fill="white"/>
        <ellipse cx="651.5652" cy="467" rx="88.9265336972123" ry="19.2857451023937" stroke="black" stroke-linecap="round" stroke-linejoin="round" stroke-width="1"/>
        <text transform="translate(585.4241 458.5)" fill="black">
          <tspan font-family="Helvetica" font-size="14" fill="black" x="1.9448242" y="14">DPRRC AA Decision </tspan>
        </text>
      </g>
      <g id="Line_15">
        <path d="M 747.055 409.70614 C 729.9621 419.96186 708.6654 432.73987 690.2945 443.7624" marker-end="url(#FilledArrow_Marker)" stroke="black" stroke-linecap="round" stroke-linejoin="round" stroke-width="1"/>
      </g>
      <g id="Graphic_16">
        <ellipse cx="155.56519" cy="2144" rx="99.6247929794538" ry="19.2857451023941" fill="white"/>
        <ellipse cx="155.56519" cy="2144" rx="99.6247929794538" ry="19.2857451023941" stroke="black" stroke-linecap="round" stroke-linejoin="round" stroke-width="1"/>
        <text transform="translate(80.86548 2135.5)" fill="black">
          <tspan font-family="Helvetica" font-size="14" fill="black" x="1.9448242" y="14">DPRRC AA Summation </tspan>
        </text>
      </g>
      <g id="Line_17">
        <path d="M 155.56519 2088.2857 C 155.56519 2096.3907 155.56519 2105.9106 155.56519 2114.814" marker-end="url(#FilledArrow_Marker)" stroke="black" stroke-linecap="round" stroke-linejoin="round" stroke-width="1"/>
      </g>
      <g id="Line_18">
        <path d="M 234.56519 186.28572 C 234.56519 194.10665 234.56519 203.2318 234.56519 211.8097" marker-end="url(#FilledArrow_Marker)" stroke="black" stroke-linecap="round" stroke-linejoin="round" stroke-width="1"/>
      </g>
      <g id="Graphic_19">
        <ellipse cx="946.5652" cy="1343" rx="74.1651575709566" ry="19.2857451023937" fill="white"/>
        <ellipse cx="946.5652" cy="1343" rx="74.1651575709566" ry="19.2857451023937" stroke="black" stroke-linecap="round" stroke-linejoin="round" stroke-width="1"/>
        <text transform="translate(892.2332 1334.5)" fill="black">
          <tspan font-family="Helvetica" font-size="14" fill="black" x="1.9448242" y="14">DPRRC AB NOT </tspan>
        </text>
      </g>
      <g id="Line_20">
        <path d="M 950.7576 1323.745 C 965.9804 1252.3563 997.5332 1088.757 997.5332 962.7817 C 997.5332 466.8457 997.5332 466.8457 997.5332 466.8457 C 997.5332 413.0178 901.2683 364.78244 829.1864 336.20655" marker-end="url(#FilledArrow_Marker)" stroke="black" stroke-linecap="round" stroke-linejoin="round" stroke-width="1"/>
      </g>
      <g id="Graphic_21">
        <ellipse cx="894.5652" cy="962" rx="74.647946428342" ry="19.2857451023936" fill="white"/>
        <ellipse cx="894.5652" cy="962" rx="74.647946428342" ry="19.2857451023936" stroke="black" stroke-linecap="round" stroke-linejoin="round" stroke-width="1"/>
        <text transform="translate(839.8469 953.5)" fill="black">
          <tspan font-family="Helvetica" font-size="14" fill="black" x="1.9448242" y="14">DPRRC AC NOT </tspan>
        </text>
      </g>
      <g id="Line_22">
        <path d="M 883.8996 942.911 C 865.5794 908.8089 839.5652 853.249 839.5652 812.8057 C 839.5652 602.2777 839.5652 602.2777 839.5652 602.2777 C 839.5652 547.565 810.1592 469.04524 789.1924 420.2306" marker-end="url(#FilledArrow_Marker)" stroke="black" stroke-linecap="round" stroke-linejoin="round" stroke-width="1"/>
      </g>
      <g id="Graphic_23">
        <ellipse cx="372.5652" cy="813" rx="74.647946428342" ry="19.2857451023937" fill="white"/>
        <ellipse cx="372.5652" cy="813" rx="74.647946428342" ry="19.2857451023937" stroke="black" stroke-linecap="round" stroke-linejoin="round" stroke-width="1"/>
        <text transform="translate(317.84692 804.5)" fill="black">
          <tspan font-family="Helvetica" font-size="14" fill="black" x="1.9448242" y="14">DPRRC AD NOT </tspan>
        </text>
      </g>
      <g id="Graphic_24">
        <ellipse cx="372.5652" cy="888" rx="100.103309369075" ry="19.2857451023937" fill="white"/>
        <ellipse cx="372.5652" cy="888" rx="100.103309369075" ry="19.2857451023937" stroke="black" stroke-linecap="round" stroke-linejoin="round" stroke-width="1"/>
        <text transform="translate(297.48267 879.5)" fill="black">
          <tspan font-family="Helvetica" font-size="14" fill="black" x="1.9448242" y="14">DPRRC AB Summation </tspan>
        </text>
      </g>
      <g id="Line_25">
        <path d="M 372.5652 832.2857 C 372.5652 840.3906 372.5652 849.9101 372.5652 858.8137" marker-end="url(#FilledArrow_Marker)" stroke="black" stroke-linecap="round" stroke-linejoin="round" stroke-width="1"/>
      </g>
      <g id="Graphic_26">
        <ellipse cx="644.5652" cy="1563" rx="74.1651575709565" ry="19.2857451023938" fill="white"/>
        <ellipse cx="644.5652" cy="1563" rx="74.1651575709565" ry="19.2857451023938" stroke="black" stroke-linecap="round" stroke-linejoin="round" stroke-width="1"/>
        <text transform="translate(590.23315 1554.5)" fill="black">
          <tspan font-family="Helvetica" font-size="14" fill="black" x="1.9448242" y="14">DPRRC AE NOT </tspan>
        </text>
      </g>
      <g id="Graphic_27">
        <ellipse cx="617.5652" cy="1699" rx="100.58609822646" ry="19.2857451023937" fill="white"/>
        <ellipse cx="617.5652" cy="1699" rx="100.58609822646" ry="19.2857451023937" stroke="black" stroke-linecap="round" stroke-linejoin="round" stroke-width="1"/>
        <text transform="translate(542.09644 1690.5)" fill="black">
          <tspan font-family="Helvetica" font-size="14" fill="black" x="1.9448242" y="14">DPRRC AC Summation </tspan>
        </text>
      </g>
      <g id="Line_28">
        <path d="M 640.7543 1582.2604 C 636.0214 1606.1687 628.77456 1642.7423 623.35 1670.0146" marker-end="url(#FilledArrow_Marker)" stroke="black" stroke-linecap="round" stroke-linejoin="round" stroke-width="1"/>
      </g>
      <g id="Graphic_29">
        <ellipse cx="589.5652" cy="602" rx="112.27557003006" ry="80.0001278321517" stroke="black" stroke-linecap="round" stroke-linejoin="round" stroke-width="2"/>
        <text transform="translate(504.7449 551)" fill="black">
          <tspan font-family="Helvetica" font-size="14" fill="black" x="29.172363" y="14">Motion tabled that</tspan>
          <tspan font-family="Helvetica" font-size="14" fill="black" x="27.617188" y="31">Standing Order 73</tspan>
          <tspan font-family="Helvetica" font-size="14" fill="black" x="28.782715" y="48">be dispensed with</tspan>
          <tspan font-family="Helvetica" font-size="14" fill="black" x="33.06201" y="65">to enable motion</tspan>
          <tspan font-family="Helvetica" font-size="14" fill="black" x="43.958496" y="82">to approve to</tspan>
          <tspan font-family="Helvetica" font-size="14" fill="black" x="0" y="99">be moved (House of Lords)</tspan>
        </text>
      </g>
      <g id="Line_30">
        <path d="M 642.7585 486.1915 C 638.9224 494.5466 634.15444 504.9293 629.0571 516.0282" marker-end="url(#FilledArrow_Marker)" stroke="black" stroke-linecap="round" stroke-linejoin="round" stroke-width="1"/>
      </g>
      <g id="Graphic_31">
        <ellipse cx="515.5652" cy="962" rx="89.4050500868332" ry="19.2857451023936" fill="white"/>
        <ellipse cx="515.5652" cy="962" rx="89.4050500868332" ry="19.2857451023936" stroke="black" stroke-linecap="round" stroke-linejoin="round" stroke-width="1"/>
        <text transform="translate(449.04126 953.5)" fill="black">
          <tspan font-family="Helvetica" font-size="14" fill="black" x="1.9448242" y="14">DPRRC AB Decision </tspan>
        </text>
      </g>
      <g id="Graphic_32">
        <ellipse cx="410.5652" cy="1563" rx="141.935041251034" ry="80.0001278321517" stroke="black" stroke-linecap="round" stroke-linejoin="round" stroke-width="2"/>
        <text transform="translate(302.01733 1512)" fill="black">
          <tspan font-family="Helvetica" font-size="14" fill="black" x="44.33789" y="14">Motion that Standing</tspan>
          <tspan font-family="Helvetica" font-size="14" fill="black" x="71.19287" y="31">Order 73 be</tspan>
          <tspan font-family="Helvetica" font-size="14" fill="black" x="54.458496" y="48">dispensed with to</tspan>
          <tspan font-family="Helvetica" font-size="14" fill="black" x="56.78955" y="65">enable motion to</tspan>
          <tspan font-family="Helvetica" font-size="14" fill="black" x="65.73779" y="82">approve to be</tspan>
          <tspan font-family="Helvetica" font-size="14" fill="black" x="0" y="99">moved withdrawn (House of Lords)</tspan>
        </text>
      </g>
      <g id="Line_33">
        <path d="M 517.4301 981.2816 C 525.2082 1067.7042 537.81505 1288.5614 485.5628 1447.313 C 484.58234 1450.2946 476.57273 1462.9302 466.11836 1478.8448" marker-end="url(#FilledArrow_Marker)" stroke="black" stroke-linecap="round" stroke-linejoin="round" stroke-width="1"/>
      </g>
      <g id="Graphic_34">
        <ellipse cx="14.565186" cy="1110" rx="89.8878389442188" ry="19.2857451023938" fill="white"/>
        <ellipse cx="14.565186" cy="1110" rx="89.8878389442188" ry="19.2857451023938" stroke="black" stroke-linecap="round" stroke-linejoin="round" stroke-width="1"/>
        <text transform="translate(-52.34497 1101.5)" fill="black">
          <tspan font-family="Helvetica" font-size="14" fill="black" x="1.9448242" y="14">DPRRC AC Decision </tspan>
        </text>
      </g>
      <g id="Graphic_35">
        <ellipse cx="36.565186" cy="1343" rx="86.5125894102848" ry="104.285880924055" stroke="black" stroke-linecap="round" stroke-linejoin="round" stroke-width="2"/>
        <text transform="translate(-27.644775 1275)" fill="black">
          <tspan font-family="Helvetica" font-size="14" fill="black" x="0" y="14">Motion that Standing</tspan>
          <tspan font-family="Helvetica" font-size="14" fill="black" x="26.85498" y="31">Order 73 be</tspan>
          <tspan font-family="Helvetica" font-size="14" fill="black" x="10.120605" y="48">dispensed with to</tspan>
          <tspan font-family="Helvetica" font-size="14" fill="black" x="12.45166" y="65">enable motion to</tspan>
          <tspan font-family="Helvetica" font-size="14" fill="black" x="21.399902" y="82">approve to be</tspan>
          <tspan font-family="Helvetica" font-size="14" fill="black" x="12.844727" y="99">moved lapsed at</tspan>
          <tspan font-family="Helvetica" font-size="14" fill="black" x="19.068848" y="116">end of session</tspan>
          <tspan font-family="Helvetica" font-size="14" fill="black" x="12.075684" y="133">(House of Lords)</tspan>
        </text>
      </g>
      <g id="Line_36">
        <path d="M 16.385834 1129.2818 C 18.551335 1152.2214 22.149576 1190.3464 25.75366 1228.5267" marker-end="url(#FilledArrow_Marker)" stroke="black" stroke-linecap="round" stroke-linejoin="round" stroke-width="1"/>
      </g>
      <g id="Graphic_37">
        <ellipse cx="120.56519" cy="962" rx="89.8878389442188" ry="19.2857451023936" fill="white"/>
        <ellipse cx="120.56519" cy="962" rx="89.8878389442188" ry="19.2857451023936" stroke="black" stroke-linecap="round" stroke-linejoin="round" stroke-width="1"/>
        <text transform="translate(53.65503 953.5)" fill="black">
          <tspan font-family="Helvetica" font-size="14" fill="black" x="1.9448242" y="14">DPRRC AD Decision </tspan>
        </text>
      </g>
      <g id="Graphic_38">
        <ellipse cx="209.56519" cy="1110" rx="86.5125894102848" ry="92.1430043781033" stroke="black" stroke-linecap="round" stroke-linejoin="round" stroke-width="2"/>
        <text transform="translate(145.35522 1050.5)" fill="black">
          <tspan font-family="Helvetica" font-size="14" fill="black" x="0" y="14">Motion that Standing</tspan>
          <tspan font-family="Helvetica" font-size="14" fill="black" x="26.85498" y="31">Order 73 be</tspan>
          <tspan font-family="Helvetica" font-size="14" fill="black" x="10.120605" y="48">dispensed with to</tspan>
          <tspan font-family="Helvetica" font-size="14" fill="black" x="12.45166" y="65">enable motion to</tspan>
          <tspan font-family="Helvetica" font-size="14" fill="black" x="21.399902" y="82">approve to be</tspan>
          <tspan font-family="Helvetica" font-size="14" fill="black" x="8.568848" y="99">moved not moved</tspan>
          <tspan font-family="Helvetica" font-size="14" fill="black" x="12.075684" y="116">(House of Lords)</tspan>
        </text>
      </g>
      <g id="Line_39">
        <path d="M 132.06434 981.1282 C 138.80086 992.3333 147.79352 1007.2906 157.27193 1023.0547" marker-end="url(#FilledArrow_Marker)" stroke="black" stroke-linecap="round" stroke-linejoin="round" stroke-width="1"/>
      </g>
      <g id="Graphic_40">
        <ellipse cx="318.5652" cy="962" rx="89.4050500868333" ry="19.2857451023936" fill="white"/>
        <ellipse cx="318.5652" cy="962" rx="89.4050500868333" ry="19.2857451023936" stroke="black" stroke-linecap="round" stroke-linejoin="round" stroke-width="1"/>
        <text transform="translate(252.04126 953.5)" fill="black">
          <tspan font-family="Helvetica" font-size="14" fill="black" x="1.9448242" y="14">DPRRC AE Decision </tspan>
        </text>
      </g>
      <g id="Graphic_41">
        <ellipse cx="400.5652" cy="1110" rx="86.5125894102848" ry="92.1430043781033" stroke="black" stroke-linecap="round" stroke-linejoin="round" stroke-width="2"/>
        <text transform="translate(336.35522 1050.5)" fill="black">
          <tspan font-family="Helvetica" font-size="14" fill="black" x="0" y="14">Motion that Standing</tspan>
          <tspan font-family="Helvetica" font-size="14" fill="black" x="26.85498" y="31">Order 73 be</tspan>
          <tspan font-family="Helvetica" font-size="14" fill="black" x="10.120605" y="48">dispensed with to</tspan>
          <tspan font-family="Helvetica" font-size="14" fill="black" x="12.45166" y="65">enable motion to</tspan>
          <tspan font-family="Helvetica" font-size="14" fill="black" x="21.399902" y="82">approve to be</tspan>
          <tspan font-family="Helvetica" font-size="14" fill="black" x="11.289551" y="99">moved not called</tspan>
          <tspan font-family="Helvetica" font-size="14" fill="black" x="12.075684" y="116">(House of Lords)</tspan>
        </text>
      </g>
      <g id="Line_42">
        <path d="M 329.17343 981.1503 C 335.12096 991.8854 342.97512 1006.061 351.30195 1021.0894" marker-end="url(#FilledArrow_Marker)" stroke="black" stroke-linecap="round" stroke-linejoin="round" stroke-width="1"/>
      </g>
      <g id="Graphic_43">
        <ellipse cx="712.5652" cy="962" rx="88.9137162939188" ry="19.2857451023936" fill="white"/>
        <ellipse cx="712.5652" cy="962" rx="88.9137162939188" ry="19.2857451023936" stroke="black" stroke-linecap="round" stroke-linejoin="round" stroke-width="1"/>
        <text transform="translate(646.4343 953.5)" fill="black">
          <tspan font-family="Helvetica" font-size="14" fill="black" x="1.9448242" y="14">DPRRC AF Decision </tspan>
        </text>
      </g>
      <g id="Graphic_44">
        <ellipse cx="712.5652" cy="1110" rx="86.0127106818415" ry="92.1430043781033" stroke="black" stroke-linecap="round" stroke-linejoin="round" stroke-width="2"/>
        <text transform="translate(648.7551 1050.5)" fill="black">
          <tspan font-family="Helvetica" font-size="14" fill="black" x="3.1069336" y="14">Question on motion</tspan>
          <tspan font-family="Helvetica" font-size="14" fill="black" x="2.717285" y="31">that Standing Order</tspan>
          <tspan font-family="Helvetica" font-size="14" fill="black" x="12.43457" y="48">73 be dispensed</tspan>
          <tspan font-family="Helvetica" font-size="14" fill="black" x="20.61377" y="65">with to enable</tspan>
          <tspan font-family="Helvetica" font-size="14" fill="black" x="7.775879" y="82">motion to approve</tspan>
          <tspan font-family="Helvetica" font-size="14" fill="black" x="25.286133" y="99">to be moved</tspan>
          <tspan font-family="Helvetica" font-size="14" fill="black" x="0" y="116">put (House of Lords)</tspan>
        </text>
      </g>
      <g id="Line_45">
        <path d="M 712.5652 981.2857 C 712.5652 989.0473 712.5652 998.5951 712.5652 1008.9566" marker-end="url(#FilledArrow_Marker)" stroke="black" stroke-linecap="round" stroke-linejoin="round" stroke-width="1"/>
      </g>
      <g id="Graphic_46">
        <ellipse cx="622.5652" cy="1774" rx="90.3749002693687" ry="19.2857451023937" fill="white"/>
        <ellipse cx="622.5652" cy="1774" rx="90.3749002693687" ry="19.2857451023937" stroke="black" stroke-linecap="round" stroke-linejoin="round" stroke-width="1"/>
        <text transform="translate(555.2654 1765.5)" fill="black">
          <tspan font-family="Helvetica" font-size="14" fill="black" x="1.9448242" y="14">DPRRC AG Decision </tspan>
        </text>
      </g>
      <g id="Graphic_47">
        <ellipse cx="622.5652" cy="1921" rx="86.5125894102848" ry="92.1430043781034" stroke="black" stroke-linecap="round" stroke-linejoin="round" stroke-width="2"/>
        <text transform="translate(558.3552 1861.5)" fill="black">
          <tspan font-family="Helvetica" font-size="14" fill="black" x="0" y="14">Motion that Standing</tspan>
          <tspan font-family="Helvetica" font-size="14" fill="black" x="26.85498" y="31">Order 73 be</tspan>
          <tspan font-family="Helvetica" font-size="14" fill="black" x="10.120605" y="48">dispensed with to</tspan>
          <tspan font-family="Helvetica" font-size="14" fill="black" x="12.45166" y="65">enable motion to</tspan>
          <tspan font-family="Helvetica" font-size="14" fill="black" x="21.399902" y="82">approve to be</tspan>
          <tspan font-family="Helvetica" font-size="14" fill="black" x="2.727539" y="99">moved disagreed to</tspan>
          <tspan font-family="Helvetica" font-size="14" fill="black" x="12.075684" y="116">(House of Lords)</tspan>
        </text>
      </g>
      <g id="Line_48">
        <path d="M 622.5652 1793.2857 C 622.5652 1800.2944 622.5652 1808.7575 622.5652 1817.9548" marker-end="url(#FilledArrow_Marker)" stroke="black" stroke-linecap="round" stroke-linejoin="round" stroke-width="1"/>
      </g>
      <g id="Graphic_49">
        <ellipse cx="423.5652" cy="1774" rx="89.8878389442188" ry="19.2857451023937" fill="white"/>
        <ellipse cx="423.5652" cy="1774" rx="89.8878389442188" ry="19.2857451023937" stroke="black" stroke-linecap="round" stroke-linejoin="round" stroke-width="1"/>
        <text transform="translate(356.65503 1765.5)" fill="black">
          <tspan font-family="Helvetica" font-size="14" fill="black" x="1.9448242" y="14">DPRRC AH Decision </tspan>
        </text>
      </g>
      <g id="Graphic_50">
        <ellipse cx="423.5652" cy="1921" rx="86.5125894102848" ry="92.1430043781034" stroke="black" stroke-linecap="round" stroke-linejoin="round" stroke-width="2"/>
        <text transform="translate(359.35522 1861.5)" fill="black">
          <tspan font-family="Helvetica" font-size="14" fill="black" x="0" y="14">Motion that Standing</tspan>
          <tspan font-family="Helvetica" font-size="14" fill="black" x="26.85498" y="31">Order 73 be</tspan>
          <tspan font-family="Helvetica" font-size="14" fill="black" x="10.120605" y="48">dispensed with to</tspan>
          <tspan font-family="Helvetica" font-size="14" fill="black" x="12.45166" y="65">enable motion to</tspan>
          <tspan font-family="Helvetica" font-size="14" fill="black" x="21.399902" y="82">approve to be</tspan>
          <tspan font-family="Helvetica" font-size="14" fill="black" x="11.675781" y="99">moved agreed to</tspan>
          <tspan font-family="Helvetica" font-size="14" fill="black" x="12.075684" y="116">(House of Lords)</tspan>
        </text>
      </g>
      <g id="Line_51">
        <path d="M 423.5652 1793.2857 C 423.5652 1800.2944 423.5652 1808.7575 423.5652 1817.9548" marker-end="url(#FilledArrow_Marker)" stroke="black" stroke-linecap="round" stroke-linejoin="round" stroke-width="1"/>
      </g>
      <g id="Graphic_52">
        <ellipse cx="372.5652" cy="737" rx="90.8705065300476" ry="19.2857451023937" fill="white"/>
        <ellipse cx="372.5652" cy="737" rx="90.8705065300476" ry="19.2857451023937" stroke="black" stroke-linecap="round" stroke-linejoin="round" stroke-width="1"/>
        <text transform="translate(304.8689 728.5)" fill="black">
          <tspan font-family="Helvetica" font-size="14" fill="black" x="1.9448242" y="14">DPRRC AA EQUALS </tspan>
        </text>
      </g>
      <g id="Line_53">
        <path d="M 372.5652 756.2857 C 372.5652 764.6726 372.5652 774.5905 372.5652 783.8185" marker-end="url(#FilledArrow_Marker)" stroke="black" stroke-linecap="round" stroke-linejoin="round" stroke-width="1"/>
      </g>
      <g id="Graphic_54">
        <ellipse cx="712.5652" cy="1343" rx="91.3490229196687" ry="19.2857451023937" fill="white"/>
        <ellipse cx="712.5652" cy="1343" rx="91.3490229196687" ry="19.2857451023937" stroke="black" stroke-linecap="round" stroke-linejoin="round" stroke-width="1"/>
        <text transform="translate(644.4861 1334.5)" fill="black">
          <tspan font-family="Helvetica" font-size="14" fill="black" x="1.9448242" y="14">DPRRC AB EQUALS </tspan>
        </text>
      </g>
      <g id="Line_55">
        <path d="M 706.63565 1362.2453 C 693.39404 1405.1657 668.786 1484.6858 653.4336 1534.3202" marker-end="url(#FilledArrow_Marker)" stroke="black" stroke-linecap="round" stroke-linejoin="round" stroke-width="1"/>
      </g>
      <g id="Graphic_56">
        <ellipse cx="116.56519" cy="1774" rx="74.8145726711565" ry="19.2857451023937" fill="white"/>
        <ellipse cx="116.56519" cy="1774" rx="74.8145726711565" ry="19.2857451023937" stroke="black" stroke-linecap="round" stroke-linejoin="round" stroke-width="1"/>
        <text transform="translate(61.71362 1765.5)" fill="black">
          <tspan font-family="Helvetica" font-size="14" fill="black" x="1.9448242" y="14">DPRRC AA SUM </tspan>
        </text>
      </g>
      <g id="Line_57">
        <path d="M 82.38914 1756.8383 C 9.032821 1717.8543 -103.43465 1644.1498 -103.43465 1563.3121 C -103.43465 887.8297 -103.43465 887.8297 -103.43465 887.8297 C -103.43465 823.0833 128.7937 774.4575 287.4909 749.3391" marker-end="url(#FilledArrow_Marker)" stroke="black" stroke-linecap="round" stroke-linejoin="round" stroke-width="1"/>
      </g>
      <g id="Graphic_58">
        <ellipse cx="116.56519" cy="1699" rx="75.2930890607775" ry="19.2857451023937" fill="white"/>
        <ellipse cx="116.56519" cy="1699" rx="75.2930890607775" ry="19.2857451023937" stroke="black" stroke-linecap="round" stroke-linejoin="round" stroke-width="1"/>
        <text transform="translate(61.33081 1690.5)" fill="black">
          <tspan font-family="Helvetica" font-size="14" fill="black" x="1.9448242" y="14">DPRRC AB SUM </tspan>
        </text>
      </g>
      <g id="Line_59">
        <path d="M 116.56519 1718.2857 C 116.56519 1726.3906 116.56519 1735.9105 116.56519 1744.814" marker-end="url(#FilledArrow_Marker)" stroke="black" stroke-linecap="round" stroke-linejoin="round" stroke-width="1"/>
      </g>
      <g id="Graphic_60">
        <ellipse cx="174.56519" cy="1563" rx="75.775877918163" ry="19.2857451023938" fill="white"/>
        <ellipse cx="174.56519" cy="1563" rx="75.775877918163" ry="19.2857451023938" stroke="black" stroke-linecap="round" stroke-linejoin="round" stroke-width="1"/>
        <text transform="translate(118.94458 1554.5)" fill="black">
          <tspan font-family="Helvetica" font-size="14" fill="black" x="1.9448242" y="14">DPRRC AC SUM </tspan>
        </text>
      </g>
      <g id="Line_61">
        <path d="M 166.37634 1582.1735 C 156.07802 1606.3161 140.30478 1643.352 128.63484 1670.7226" marker-end="url(#FilledArrow_Marker)" stroke="black" stroke-linecap="round" stroke-linejoin="round" stroke-width="1"/>
      </g>
      <g id="Graphic_62">
        <ellipse cx="622.5652" cy="2069" rx="75.2930890607776" ry="19.2857451023939" fill="white"/>
        <ellipse cx="622.5652" cy="2069" rx="75.2930890607776" ry="19.2857451023939" stroke="black" stroke-linecap="round" stroke-linejoin="round" stroke-width="1"/>
        <text transform="translate(567.3308 2060.5)" fill="black">
          <tspan font-family="Helvetica" font-size="14" fill="black" x="1.9448242" y="14">DPRRC AE SUM </tspan>
        </text>
      </g>
      <g id="Line_63">
        <path d="M 656.7808 2051.8148 C 681.7914 2039.0736 711.1863 2023.0188 717.5972 2013.312 C 776.4212 1923.701 746.5412 1881.0337 746.5412 1773.8113 C 746.5412 1698.809 746.5412 1698.809 746.5412 1698.809 C 746.5412 1593.0563 727.9014 1448.1042 716.8944 1372.0687" marker-end="url(#FilledArrow_Marker)" stroke="black" stroke-linecap="round" stroke-linejoin="round" stroke-width="1"/>
      </g>
      <g id="Graphic_64">
        <ellipse cx="400.5652" cy="1343" rx="75.775877918163" ry="19.2857451023937" fill="white"/>
        <ellipse cx="400.5652" cy="1343" rx="75.775877918163" ry="19.2857451023937" stroke="black" stroke-linecap="round" stroke-linejoin="round" stroke-width="1"/>
        <text transform="translate(344.9446 1334.5)" fill="black">
          <tspan font-family="Helvetica" font-size="14" fill="black" x="1.9448242" y="14">DPRRC AD SUM </tspan>
        </text>
      </g>
      <g id="Line_65">
        <path d="M 381.40596 1361.6623 C 336.27973 1405.5976 251.44195 1488.1065 200.8031 1537.4276" marker-end="url(#FilledArrow_Marker)" stroke="black" stroke-linecap="round" stroke-linejoin="round" stroke-width="1"/>
      </g>
      <g id="Line_66">
        <path d="M 457.2781 898.2828 C 559.96217 911.5504 714.6948 933.2682 821.9058 950.0611" marker-end="url(#FilledArrow_Marker)" stroke="black" stroke-linecap="round" stroke-linejoin="round" stroke-width="1"/>
      </g>
      <g id="Line_67">
        <path d="M 407.4564 906.0813 C 427.1888 916.2807 451.5452 928.8553 472.4209 939.644" marker-end="url(#FilledArrow_Marker)" stroke="black" stroke-linecap="round" stroke-linejoin="round" stroke-width="1"/>
      </g>
      <g id="Line_68">
        <path d="M 285.49495 897.5253 C 175.91944 910.1419 34.3082 929.0122 21.565986 943.3417 C -4.971084 973.1067 .4899814 1037.31 8.406073 1081.0118" marker-end="url(#FilledArrow_Marker)" stroke="black" stroke-linecap="round" stroke-linejoin="round" stroke-width="1"/>
      </g>
      <g id="Line_69">
        <path d="M 317.66267 904.1309 C 277.49416 915.9029 224.64253 931.3706 182.93472 943.6113" marker-end="url(#FilledArrow_Marker)" stroke="black" stroke-linecap="round" stroke-linejoin="round" stroke-width="1"/>
      </g>
      <g id="Line_70">
        <path d="M 358.6491 907.0996 C 352.42226 915.624 345.0508 925.7062 338.29 934.957" marker-end="url(#FilledArrow_Marker)" stroke="black" stroke-linecap="round" stroke-linejoin="round" stroke-width="1"/>
      </g>
      <g id="Line_71">
        <path d="M 438.8758 902.4483 C 497.6844 915.2358 579.7762 933.0599 640.22884 946.2141" marker-end="url(#FilledArrow_Marker)" stroke="black" stroke-linecap="round" stroke-linejoin="round" stroke-width="1"/>
      </g>
      <g id="Line_72">
        <path d="M 572.86076 1716.2822 C 543.8431 1727.5006 506.8472 1741.804 476.4301 1753.5634" marker-end="url(#FilledArrow_Marker)" stroke="black" stroke-linecap="round" stroke-linejoin="round" stroke-width="1"/>
      </g>
      <g id="Line_73">
        <path d="M 618.8423 1718.2842 C 619.38276 1726.3963 620.01914 1735.9262 620.61466 1744.8367" marker-end="url(#FilledArrow_Marker)" stroke="black" stroke-linecap="round" stroke-linejoin="round" stroke-width="1"/>
      </g>
      <g id="Line_74">
        <path d="M 504.08866 655.175 C 471.5648 675.3977 436.31956 697.3111 410.2759 713.5131" marker-end="url(#FilledArrow_Marker)" stroke="black" stroke-linecap="round" stroke-linejoin="round" stroke-width="1"/>
      </g>
      <g id="Line_75">
        <path d="M 323.97215 1627.4873 C 274.45255 1664.3494 219.93 1704.776 200.56519 1718.3065 C 192.4503 1723.976 171.5154 1737.851 152.17484 1750.597" marker-end="url(#FilledArrow_Marker)" stroke="black" stroke-linecap="round" stroke-linejoin="round" stroke-width="1"/>
      </g>
      <g id="Line_76">
        <path d="M 51.407956 1446.7696 C 62.32281 1518.9235 76.67821 1603.5809 89.56279 1643.3113 C 91.00357 1647.7478 96.63143 1659.387 102.4455 1671.0281" marker-end="url(#FilledArrow_Marker)" stroke="black" stroke-linecap="round" stroke-linejoin="round" stroke-width="1"/>
      </g>
      <g id="Line_77">
        <path d="M 202.39285 1202.8315 C 193.95455 1312.0404 182.4222 1461.279 176.81665 1533.8477" marker-end="url(#FilledArrow_Marker)" stroke="black" stroke-linecap="round" stroke-linejoin="round" stroke-width="1"/>
      </g>
      <g id="Line_78">
        <path d="M 400.5652 1203.1429 C 400.5652 1242.7148 400.5652 1285.326 400.5652 1313.8156" marker-end="url(#FilledArrow_Marker)" stroke="black" stroke-linecap="round" stroke-linejoin="round" stroke-width="1"/>
      </g>
      <g id="Line_79">
        <path d="M 776.3057 1173.4067 C 824.5973 1221.501 885.08 1281.7913 920.789 1317.3526" marker-end="url(#FilledArrow_Marker)" stroke="black" stroke-linecap="round" stroke-linejoin="round" stroke-width="1"/>
      </g>
      <g id="Line_80">
        <path d="M 641.175 1163.2785 C 573.6826 1213.6853 484.497 1280.3451 432.96713 1318.8223" marker-end="url(#FilledArrow_Marker)" stroke="black" stroke-linecap="round" stroke-linejoin="round" stroke-width="1"/>
      </g>
      <g id="Line_81">
        <path d="M 712.5652 1203.1429 C 712.5652 1242.7148 712.5652 1285.326 712.5652 1313.8156" marker-end="url(#FilledArrow_Marker)" stroke="black" stroke-linecap="round" stroke-linejoin="round" stroke-width="1"/>
      </g>
      <g id="Line_82">
        <path d="M 490.3943 1981.1441 C 508.83587 1997.7835 524.42305 2011.761 526.5668 2013.312 C 535.24205 2019.5912 559.9559 2033.831 582.5873 2046.6017" marker-end="url(#FilledArrow_Marker)" stroke="black" stroke-linecap="round" stroke-linejoin="round" stroke-width="1"/>
      </g>
      <g id="Line_83">
        <path d="M 345.8562 1963.8902 C 296.14486 1991.3524 235.9871 2024.6037 195.3745 2047.0336" marker-end="url(#FilledArrow_Marker)" stroke="black" stroke-linecap="round" stroke-linejoin="round" stroke-width="1"/>
      </g>
      <g id="Line_84">
        <path d="M 622.5652 2014.143 C 622.5652 2032.3854 622.5652 2048.9745 622.5652 2059.1032" marker-end="url(#FilledArrow_Marker)" stroke="black" stroke-linecap="round" stroke-linejoin="round" stroke-width="1"/>
      </g>
    </g>
  </g>
</svg>
