<?xml version="1.0" encoding="UTF-8" standalone="no"?>
<!DOCTYPE svg PUBLIC "-//W3C//DTD SVG 1.1//EN" "http://www.w3.org/Graphics/SVG/1.1/DTD/svg11.dtd">
<svg xmlns:xl="http://www.w3.org/1999/xlink" version="1.1" xmlns:dc="http://purl.org/dc/elements/1.1/" xmlns="http://www.w3.org/2000/svg" viewBox="-143.16787 -722 1844.5894 769.5" width="1844.5894" height="769.5">
  <defs>
    <marker orient="auto" overflow="visible" markerUnits="strokeWidth" id="StickArrow_Marker" stroke-linejoin="miter" stroke-miterlimit="10" viewBox="-1 -4 10 8" markerWidth="10" markerHeight="8" color="black">
      <g>
        <path d="M 8 0 L 0 0 M 0 -3 L 8 0 L 0 3" fill="none" stroke="currentColor" stroke-width="1"/>
      </g>
    </marker>
    <marker orient="auto" overflow="visible" markerUnits="strokeWidth" id="StickArrow_Marker_2" stroke-linejoin="miter" stroke-miterlimit="10" viewBox="-9 -4 10 8" markerWidth="10" markerHeight="8" color="black">
      <g>
        <path d="M -8 0 L 0 0 M 0 3 L -8 0 L 0 -3" fill="none" stroke="currentColor" stroke-width="1"/>
      </g>
    </marker>
    <filter id="Shadow" filterUnits="userSpaceOnUse" x="-327.6268" y="-798.95">
      <feGaussianBlur in="SourceAlpha" result="blur" stdDeviation="1.3030978"/>
      <feOffset in="blur" result="offset" dx="0" dy="2"/>
      <feFlood flood-color="black" flood-opacity=".2" result="flood"/>
      <feComposite in="flood" in2="offset" operator="in" result="color"/>
      <feMerge>
        <feMergeNode in="color"/>
        <feMergeNode in="SourceGraphic"/>
      </feMerge>
    </filter>
  </defs>
  <g id="Canvas_1" fill-opacity="1" stroke-dasharray="none" fill="none" stroke="none" stroke-opacity="1">
    <title>Canvas 1</title>
    <rect fill="white" x="-143.16787" y="-722" width="1844.5894" height="769.5"/>
    <g id="Canvas_1_Layer_1">
      <title>Layer 1</title>
      <g id="Graphic_19">
        <rect x="-142.66787" y="-315" width="595.9216" height="362" fill="#ccc"/>
        <rect x="-142.66787" y="-315" width="595.9216" height="362" stroke="#919191" stroke-linecap="round" stroke-linejoin="round" stroke-width="1"/>
      </g>
      <g id="Graphic_18">
        <text transform="translate(-137.66787 -310.948)" fill="black">
          <tspan font-family="Helvetica Neue" font-size="16" fill="black" x="0" y="15">Parliamentary </tspan>
          <tspan font-family="Helvetica Neue" font-size="16" fill="black" x="0" y="33.448">network</tspan>
        </text>
      </g>
      <g id="Group_9">
        <title>Storage and Content Delivery - Volume</title>
        <g id="Group_11">
          <title>Layer_1</title>
          <g id="Group_16">
            <g id="Graphic_17">
              <path d="M 161.98828 -293.51405 L 161.98828 -291.8316 L 131.63663 -291.8316 L 131.63663 -293.51405 L 146.8461 -297.61926 Z" fill="#8c3123"/>
            </g>
          </g>
          <g id="Group_14">
            <g id="Graphic_15">
              <rect x="131.23284" y="-288.13016" width="31.495726" height="34.726057" fill="#8c3123"/>
            </g>
          </g>
          <g id="Graphic_13">
            <rect x="131.23284" y="-289.67803" width="31.495726" height="34.59146" fill="#e05243"/>
          </g>
          <g id="Graphic_12">
            <path d="M 157.74847 -297.82116 L 136.28023 -297.82116 L 131.63663 -293.51405 L 131.97312 -293.51405 L 161.98828 -293.51405 Z" fill="#e05243"/>
          </g>
        </g>
        <g id="Graphic_10"/>
      </g>
      <g id="Graphic_8">
        <text transform="translate(106.12746 -250.6104)" fill="black">
          <tspan font-family="Helvetica Neue" font-size="16" fill="black" x="1.7679348" y="15">SQLServer</tspan>
        </text>
      </g>
      <g id="Graphic_7">
        <rect x="86.7114" y="-96.5" width="120" height="45" fill="white"/>
        <rect x="86.7114" y="-96.5" width="120" height="45" stroke="black" stroke-linecap="round" stroke-linejoin="round" stroke-width="1"/>
        <text transform="translate(91.7114 -83.224)" fill="black">
          <tspan font-family="Helvetica Neue" font-size="16" fill="black" x="16.016" y="15">Admin app</tspan>
        </text>
      </g>
      <g id="Line_6">
        <line x1="146.7114" y1="-220.71022" x2="146.7114" y2="-192.51359" marker-end="url(#StickArrow_Marker)" marker-start="url(#StickArrow_Marker_2)" stroke="black" stroke-linecap="round" stroke-linejoin="round" stroke-width="1"/>
      </g>
      <g id="Group_3">
        <g id="Graphic_5">
          <path d="M 130.82904 39.772825 L 146.7114 8.008119 L 162.59375 39.772825 Z" fill="white"/>
          <path d="M 130.82904 39.772825 L 146.7114 8.008119 L 162.59375 39.772825 Z" stroke="black" stroke-linecap="round" stroke-linejoin="round" stroke-width="1"/>
        </g>
        <g id="Graphic_4">
          <circle cx="146.7114" cy="10.655178" r="15.8823783196184" fill="white"/>
          <circle cx="146.7114" cy="10.655178" r="15.8823783196184" stroke="black" stroke-linecap="round" stroke-linejoin="round" stroke-width="1"/>
        </g>
      </g>
      <g id="Line_2">
        <line x1="146.7114" y1="-41.6" x2="146.7114" y2="-15.127183" marker-end="url(#StickArrow_Marker)" marker-start="url(#StickArrow_Marker_2)" stroke="black" stroke-linecap="round" stroke-linejoin="round" stroke-width="1"/>
      </g>
      <g id="Graphic_21">
        <rect x="-142.66787" y="-677" width="595.9216" height="362" fill="#ccc"/>
        <rect x="-142.66787" y="-677" width="595.9216" height="362" stroke="#919191" stroke-linecap="round" stroke-linejoin="round" stroke-width="1"/>
      </g>
      <g id="Graphic_20">
        <text transform="translate(-137.66787 -663.724)" fill="black">
          <tspan font-family="Helvetica Neue" font-size="16" fill="black" x="0" y="15">The internet</tspan>
        </text>
      </g>
      <g id="Graphic_25">
        <rect x="87.5" y="-562.8747" width="120" height="45" fill="white"/>
        <rect x="87.5" y="-562.8747" width="120" height="45" stroke="black" stroke-linecap="round" stroke-linejoin="round" stroke-width="1"/>
        <text transform="translate(92.5 -549.5987)" fill="black">
          <tspan font-family="Helvetica Neue" font-size="16" fill="black" x="23" y="15">Web app</tspan>
        </text>
      </g>
      <g id="Group_22">
        <g id="Graphic_24">
          <path d="M 130.82904 -607.7494 L 146.7114 -639.5141 L 162.59375 -607.7494 Z" fill="white"/>
          <path d="M 130.82904 -607.7494 L 146.7114 -639.5141 L 162.59375 -607.7494 Z" stroke="black" stroke-linecap="round" stroke-linejoin="round" stroke-width="1"/>
        </g>
        <g id="Graphic_23">
          <circle cx="146.7114" cy="-636.867" r="15.8823783196184" fill="white"/>
          <circle cx="146.7114" cy="-636.867" r="15.8823783196184" stroke="black" stroke-linecap="round" stroke-linejoin="round" stroke-width="1"/>
        </g>
      </g>
      <g id="Group_28">
        <title>Storage and Content Delivery - Volume</title>
        <g id="Group_30">
          <title>Layer_1</title>
          <g id="Group_35">
            <g id="Graphic_36">
              <path d="M 161.98828 -390.9573 L 161.98828 -389.27483 L 131.63663 -389.27483 L 131.63663 -390.9573 L 146.8461 -395.0625 Z" fill="#8c3123"/>
            </g>
          </g>
          <g id="Group_33">
            <g id="Graphic_34">
              <rect x="131.23284" y="-385.5734" width="31.495726" height="34.726057" fill="#8c3123"/>
            </g>
          </g>
          <g id="Graphic_32">
            <rect x="131.23284" y="-387.12127" width="31.495726" height="34.59146" fill="#e05243"/>
          </g>
          <g id="Graphic_31">
            <path d="M 157.74847 -395.2644 L 136.28023 -395.2644 L 131.63663 -390.9573 L 131.97312 -390.9573 L 161.98828 -390.9573 Z" fill="#e05243"/>
          </g>
        </g>
        <g id="Graphic_29"/>
      </g>
      <g id="Graphic_27">
        <text transform="translate(106.12746 -348.05366)" fill="black">
          <tspan font-family="Helvetica Neue" font-size="16" fill="black" x="1.7679348" y="15">SQLServer</tspan>
        </text>
      </g>
      <g id="Line_26">
        <line x1="146.9807" y1="-395.2644" x2="147.1954" y2="-418.10044" marker-end="url(#StickArrow_Marker)" stroke="black" stroke-linecap="round" stroke-linejoin="round" stroke-width="1"/>
      </g>
      <g id="Line_37">
        <line x1="147.28688" y1="-562.8747" x2="146.9556" y2="-597.8498" marker-end="url(#StickArrow_Marker)" stroke="black" stroke-linecap="round" stroke-linejoin="round" stroke-width="1"/>
      </g>
      <g id="Graphic_38">
        <rect x="87.5" y="-473" width="120" height="45" fill="white"/>
        <rect x="87.5" y="-473" width="120" height="45" stroke="black" stroke-linecap="round" stroke-linejoin="round" stroke-width="1"/>
        <text transform="translate(92.5 -459.724)" fill="black">
          <tspan font-family="Helvetica Neue" font-size="16" fill="black" x="23.304" y="15">API layer</tspan>
        </text>
      </g>
      <g id="Line_39">
        <line x1="147.5" y1="-473" x2="147.5" y2="-507.9747" marker-end="url(#StickArrow_Marker)" stroke="black" stroke-linecap="round" stroke-linejoin="round" stroke-width="1"/>
      </g>
      <g id="Graphic_40">
        <rect x="292.5" y="-306.5" width="120" height="45" fill="white"/>
        <rect x="292.5" y="-306.5" width="120" height="45" stroke="black" stroke-linecap="round" stroke-linejoin="round" stroke-width="1"/>
        <text transform="translate(297.5 -302.448)" fill="black">
          <tspan font-family="Helvetica Neue" font-size="16" fill="black" x="10.112" y="15">Replication / </tspan>
          <tspan font-family="Helvetica Neue" font-size="16" fill="black" x="6.544" y="33.448">denormalised</tspan>
        </text>
      </g>
      <g id="Line_41">
        <path d="M 163.13235 -268.2098 C 163.13235 -268.2098 269.8512 -226.13677 323.5 -230.61022 C 345.19525 -232.41925 354.08615 -241.49623 356.98077 -251.6671" marker-end="url(#StickArrow_Marker)" stroke="black" stroke-linecap="round" stroke-linejoin="round" stroke-width="1"/>
      </g>
      <g id="Line_42">
        <path d="M 360.66918 -306.5 C 360.507 -317.7073 353.67353 -331.14548 328.5 -342 C 284.52265 -360.9625 201.52504 -364.73056 173.02971 -365.47288" marker-end="url(#StickArrow_Marker)" stroke="black" stroke-linecap="round" stroke-linejoin="round" stroke-width="1"/>
      </g>
      <g id="Graphic_83">
        <rect x="483.5" y="-315" width="595.9216" height="362" fill="#ccc"/>
        <rect x="483.5" y="-315" width="595.9216" height="362" stroke="#919191" stroke-linecap="round" stroke-linejoin="round" stroke-width="1"/>
      </g>
      <g id="Graphic_82">
        <text transform="translate(488.5 -310.948)" fill="black">
          <tspan font-family="Helvetica Neue" font-size="16" fill="black" x="0" y="15">Parliamentary </tspan>
          <tspan font-family="Helvetica Neue" font-size="16" fill="black" x="0" y="33.448">network</tspan>
        </text>
      </g>
      <g id="Graphic_71">
        <rect x="713.6679" y="-6" width="120" height="45" fill="white"/>
        <rect x="713.6679" y="-6" width="120" height="45" stroke="black" stroke-linecap="round" stroke-linejoin="round" stroke-width="1"/>
        <text transform="translate(718.6679 -1.947998)" fill="black">
          <tspan font-family="Helvetica Neue" font-size="16" fill="black" x="31.432" y="15">Queue </tspan>
          <tspan font-family="Helvetica Neue" font-size="16" fill="black" x="19.296" y="33.448">processor</tspan>
        </text>
      </g>
      <g id="Graphic_65">
        <rect x="483.5" y="-673" width="595.9216" height="362" fill="#ccc"/>
        <rect x="483.5" y="-673" width="595.9216" height="362" stroke="#919191" stroke-linecap="round" stroke-linejoin="round" stroke-width="1"/>
      </g>
      <g id="Graphic_64">
        <text transform="translate(488.5 -663.724)" fill="black">
          <tspan font-family="Helvetica Neue" font-size="16" fill="black" x="0" y="15">The internet</tspan>
        </text>
      </g>
      <g id="Graphic_63">
        <rect x="713.6679" y="-562.8747" width="120" height="45" fill="white"/>
        <rect x="713.6679" y="-562.8747" width="120" height="45" stroke="black" stroke-linecap="round" stroke-linejoin="round" stroke-width="1"/>
        <text transform="translate(718.6679 -558.8227)" fill="black">
          <tspan font-family="Helvetica Neue" font-size="16" fill="black" x="29.96" y="15">Search </tspan>
          <tspan font-family="Helvetica Neue" font-size="16" fill="black" x="26.552" y="33.448">material</tspan>
        </text>
      </g>
      <g id="Group_60">
        <g id="Graphic_62">
          <path d="M 756.9969 -607.7494 L 772.8793 -639.5141 L 788.7616 -607.7494 Z" fill="white"/>
          <path d="M 756.9969 -607.7494 L 772.8793 -639.5141 L 788.7616 -607.7494 Z" stroke="black" stroke-linecap="round" stroke-linejoin="round" stroke-width="1"/>
        </g>
        <g id="Graphic_61">
          <circle cx="772.8793" cy="-636.867" r="15.8823783196184" fill="white"/>
          <circle cx="772.8793" cy="-636.867" r="15.8823783196184" stroke="black" stroke-linecap="round" stroke-linejoin="round" stroke-width="1"/>
        </g>
      </g>
      <g id="Graphic_50"/>
      <g id="Line_48">
        <line x1="773.45475" y1="-562.8747" x2="773.1235" y2="-597.8498" marker-end="url(#StickArrow_Marker)" stroke="black" stroke-linecap="round" stroke-linejoin="round" stroke-width="1"/>
      </g>
      <g id="Graphic_84">
        <rect x="713.6679" y="-201" width="120" height="45" fill="white"/>
        <rect x="713.6679" y="-201" width="120" height="45" stroke="black" stroke-linecap="round" stroke-linejoin="round" stroke-width="1"/>
        <text transform="translate(718.6679 -196.948)" fill="black">
          <tspan font-family="Helvetica Neue" font-size="16" fill="black" x="5.96" y="15">Parliamentary </tspan>
          <tspan font-family="Helvetica Neue" font-size="16" fill="black" x="31.144" y="33.448">search</tspan>
        </text>
      </g>
      <g id="Graphic_85">
        <rect x="904.5" y="-201" width="120" height="45" fill="white"/>
        <rect x="904.5" y="-201" width="120" height="45" stroke="black" stroke-linecap="round" stroke-linejoin="round" stroke-width="1"/>
        <text transform="translate(909.5 -187.724)" fill="black">
          <tspan font-family="Helvetica Neue" font-size="16" fill="black" x="10.856" y="15">Internal SES</tspan>
        </text>
      </g>
      <g id="Line_87">
        <line x1="843.5679" y1="-178.5" x2="904.5" y2="-178.5" marker-start="url(#StickArrow_Marker_2)" stroke="black" stroke-linecap="round" stroke-linejoin="round" stroke-width="1"/>
      </g>
      <g id="Group_89">
        <g id="Graphic_91">
          <path d="M 757.7855 -252.10807 L 773.6679 -283.87278 L 789.5502 -252.10807 Z" fill="white"/>
          <path d="M 757.7855 -252.10807 L 773.6679 -283.87278 L 789.5502 -252.10807 Z" stroke="black" stroke-linecap="round" stroke-linejoin="round" stroke-width="1"/>
        </g>
        <g id="Graphic_90">
          <circle cx="773.6679" cy="-281.22572" r="15.8823783196184" fill="white"/>
          <circle cx="773.6679" cy="-281.22572" r="15.8823783196184" stroke="black" stroke-linecap="round" stroke-linejoin="round" stroke-width="1"/>
        </g>
      </g>
      <g id="Line_88">
        <line x1="775" y1="-201.5" x2="774.1844" y2="-242.21006" marker-end="url(#StickArrow_Marker)" stroke="black" stroke-linecap="round" stroke-linejoin="round" stroke-width="1"/>
      </g>
      <g id="Graphic_92">
        <rect x="904.5" y="-297.10807" width="120" height="45" fill="white"/>
        <rect x="904.5" y="-297.10807" width="120" height="45" stroke="black" stroke-linecap="round" stroke-linejoin="round" stroke-width="1"/>
        <text transform="translate(909.5 -293.05607)" fill="black">
          <tspan font-family="Helvetica Neue" font-size="16" fill="black" x="21.816" y="15">Peersync</tspan>
          <tspan font-family="Helvetica Neue" font-size="16" fill="black" x="17.368" y="33.448">(redaction)</tspan>
        </text>
      </g>
      <g id="Graphic_93">
        <rect x="904.5" y="-562.8747" width="120" height="45" fill="white"/>
        <rect x="904.5" y="-562.8747" width="120" height="45" stroke="black" stroke-linecap="round" stroke-linejoin="round" stroke-width="1"/>
        <text transform="translate(909.5 -549.5987)" fill="black">
          <tspan font-family="Helvetica Neue" font-size="16" fill="black" x="8.344" y="15">External SES</tspan>
        </text>
      </g>
      <g id="Line_94">
        <line x1="964.5" y1="-242.20807" x2="964.5" y2="-201" marker-start="url(#StickArrow_Marker_2)" stroke="black" stroke-linecap="round" stroke-linejoin="round" stroke-width="1"/>
      </g>
      <g id="Line_95">
        <line x1="964.5" y1="-507.9747" x2="964.5" y2="-297.10807" marker-start="url(#StickArrow_Marker_2)" stroke="black" stroke-linecap="round" stroke-linejoin="round" stroke-width="1"/>
      </g>
      <g id="Line_96">
        <line x1="773.728" y1="-507.9747" x2="773.9372" y2="-395.2644" marker-start="url(#StickArrow_Marker_2)" stroke="black" stroke-linecap="round" stroke-linejoin="round" stroke-width="1"/>
      </g>
      <g id="Line_97">
        <line x1="843.5679" y1="-540.3747" x2="904.5" y2="-540.3747" marker-start="url(#StickArrow_Marker_2)" stroke="black" stroke-linecap="round" stroke-linejoin="round" stroke-width="1"/>
      </g>
      <g id="Graphic_98">
        <text transform="translate(-137.66787 -708.724)" fill="black">
          <tspan font-family="Helvetica Neue" font-size="16" fill="black" x="0" y="15">Software engineering approach</tspan>
        </text>
      </g>
      <g id="Graphic_99">
        <text transform="translate(488.5 -704.724)" fill="black">
          <tspan font-family="Helvetica Neue" font-size="16" fill="black" x="0" y="15">Search as is</tspan>
        </text>
      </g>
      <g id="Graphic_137">
        <text transform="translate(565 -136.9478)" fill="black">
          <tspan font-family="Helvetica Neue" font-size="16" fill="black" x="0" y="15">HTTP POST</tspan>
        </text>
      </g>
      <g id="Graphic_139">
        <rect x="86.7114" y="-182.61359" width="120" height="45" fill="white"/>
        <rect x="86.7114" y="-182.61359" width="120" height="45" stroke="black" stroke-linecap="round" stroke-linejoin="round" stroke-width="1"/>
        <text transform="translate(91.7114 -169.33759)" fill="black">
          <tspan font-family="Helvetica Neue" font-size="16" fill="black" x="23.304" y="15">API layer</tspan>
        </text>
      </g>
      <g id="Line_140">
        <line x1="146.7114" y1="-127.71359" x2="146.7114" y2="-106.4" marker-end="url(#StickArrow_Marker)" marker-start="url(#StickArrow_Marker_2)" stroke="black" stroke-linecap="round" stroke-linejoin="round" stroke-width="1"/>
      </g>
      <g id="Group_142">
        <title>Storage and Content Delivery - Volume</title>
        <g id="Group_144">
          <title>Layer_1</title>
          <g id="Group_149">
            <g id="Graphic_150">
              <path d="M 788.94475 -390.9573 L 788.94475 -389.27483 L 758.5931 -389.27483 L 758.5931 -390.9573 L 773.8026 -395.0625 Z" fill="#8c3123"/>
            </g>
          </g>
          <g id="Group_147">
            <g id="Graphic_148">
              <rect x="758.1893" y="-385.5734" width="31.495726" height="34.726057" fill="#8c3123"/>
            </g>
          </g>
          <g id="Graphic_146">
            <rect x="758.1893" y="-387.12127" width="31.495726" height="34.59146" fill="#e05243"/>
          </g>
          <g id="Graphic_145">
            <path d="M 784.7049 -395.2644 L 763.2367 -395.2644 L 758.5931 -390.9573 L 758.9296 -390.9573 L 788.94475 -390.9573 Z" fill="#e05243"/>
          </g>
        </g>
        <g id="Graphic_143"/>
      </g>
      <g id="Graphic_141">
        <text transform="translate(733.0839 -348.05366)" fill="black">
          <tspan font-family="Helvetica Neue" font-size="16" fill="black" x="19.391935" y="15">SOLR</tspan>
        </text>
      </g>
      <g id="Line_70">
        <path d="M 747.3638 -367.7344 C 718.0381 -359.8408 632.0796 -328.8914 636 -238 C 639.5911 -154.7443 717.3103 -50.962175 754.3557 -6" marker-start="url(#StickArrow_Marker_2)" stroke="black" stroke-linecap="round" stroke-linejoin="round" stroke-width="1"/>
      </g>
      <g id="Line_151">
        <path d="M 790.0888 -365.65303 C 790.0888 -365.65303 866.6521 -314.5214 862 -261.5 C 860.014 -238.86565 843.6264 -220.43052 825.4948 -206.7342" marker-end="url(#StickArrow_Marker)" stroke="black" stroke-linecap="round" stroke-linejoin="round" stroke-width="1"/>
      </g>
      <g id="Graphic_152">
        <rect x="904.5" y="-113.5" width="120" height="45" fill="white"/>
        <rect x="904.5" y="-113.5" width="120" height="45" stroke="black" stroke-linecap="round" stroke-linejoin="round" stroke-width="1"/>
        <text transform="translate(909.5 -109.448)" fill="black">
          <tspan font-family="Helvetica Neue" font-size="16" fill="black" x="22.4" y="15">Ontology </tspan>
          <tspan font-family="Helvetica Neue" font-size="16" fill="black" x="23.584" y="33.448">manager</tspan>
        </text>
      </g>
      <g id="Line_153">
        <line x1="964.5" y1="-146.1" x2="964.5" y2="-113.5" marker-start="url(#StickArrow_Marker_2)" stroke="black" stroke-linecap="round" stroke-linejoin="round" stroke-width="1"/>
      </g>
      <g id="Graphic_193">
        <rect x="1105" y="-315" width="595.9216" height="362" fill="#ccc"/>
        <rect x="1105" y="-315" width="595.9216" height="362" stroke="#919191" stroke-linecap="round" stroke-linejoin="round" stroke-width="1"/>
      </g>
      <g id="Graphic_192">
        <text transform="translate(1110 -301.724)" fill="black">
          <tspan font-family="Helvetica Neue" font-size="16" fill="black" x="0" y="15">Prod internal Azure subscription</tspan>
        </text>
      </g>
      <g id="Graphic_191">
        <rect x="1335.1679" y="-6" width="120" height="45" fill="white"/>
        <rect x="1335.1679" y="-6" width="120" height="45" stroke="black" stroke-linecap="round" stroke-linejoin="round" stroke-width="1"/>
        <text transform="translate(1340.1679 -1.947998)" fill="black">
          <tspan font-family="Helvetica Neue" font-size="16" fill="black" x="31.432" y="15">Queue </tspan>
          <tspan font-family="Helvetica Neue" font-size="16" fill="black" x="19.296" y="33.448">processor</tspan>
        </text>
      </g>
      <g id="Graphic_190">
        <rect x="1105" y="-673" width="595.9216" height="362" fill="#ccc"/>
        <rect x="1105" y="-673" width="595.9216" height="362" stroke="#919191" stroke-linecap="round" stroke-linejoin="round" stroke-width="1"/>
      </g>
      <g id="Graphic_189">
        <text transform="translate(1110 -663.724)" fill="black">
          <tspan font-family="Helvetica Neue" font-size="16" fill="black" x="0" y="15">Prod external Azure subscription</tspan>
        </text>
      </g>
      <g id="Graphic_188">
        <rect x="1335.1679" y="-490.5" width="120" height="45" fill="white"/>
        <rect x="1335.1679" y="-490.5" width="120" height="45" stroke="black" stroke-linecap="round" stroke-linejoin="round" stroke-width="1"/>
        <text transform="translate(1340.1679 -477.224)" fill="black">
          <tspan font-family="Helvetica Neue" font-size="16" fill="black" x="10.696" y="15">Search MVP</tspan>
        </text>
      </g>
      <g id="Group_185">
        <g id="Graphic_187">
          <path d="M 1378.4969 -607.7494 L 1394.3793 -639.5141 L 1410.2616 -607.7494 Z" fill="white"/>
          <path d="M 1378.4969 -607.7494 L 1394.3793 -639.5141 L 1410.2616 -607.7494 Z" stroke="black" stroke-linecap="round" stroke-linejoin="round" stroke-width="1"/>
        </g>
        <g id="Graphic_186">
          <circle cx="1394.3793" cy="-636.867" r="15.8823783196183" fill="white"/>
          <circle cx="1394.3793" cy="-636.867" r="15.8823783196183" stroke="black" stroke-linecap="round" stroke-linejoin="round" stroke-width="1"/>
        </g>
      </g>
      <g id="Graphic_184"/>
      <g id="Line_183">
        <line x1="1394.3793" y1="-579.7395" x2="1394.3793" y2="-597.8494" marker-end="url(#StickArrow_Marker)" stroke="black" stroke-linecap="round" stroke-linejoin="round" stroke-width="1"/>
      </g>
      <g id="Graphic_181">
        <rect x="1526" y="-201" width="120" height="45" fill="white"/>
        <rect x="1526" y="-201" width="120" height="45" stroke="black" stroke-linecap="round" stroke-linejoin="round" stroke-width="1"/>
        <text transform="translate(1531 -187.724)" fill="black">
          <tspan font-family="Helvetica Neue" font-size="16" fill="black" x="10.856" y="15">Internal SES</tspan>
        </text>
      </g>
      <g id="Graphic_175">
        <rect x="1526" y="-297.10807" width="120" height="45" fill="white"/>
        <rect x="1526" y="-297.10807" width="120" height="45" stroke="black" stroke-linecap="round" stroke-linejoin="round" stroke-width="1"/>
        <text transform="translate(1531 -293.05607)" fill="black">
          <tspan font-family="Helvetica Neue" font-size="16" fill="black" x="21.816" y="15">Peersync</tspan>
          <tspan font-family="Helvetica Neue" font-size="16" fill="black" x="17.368" y="33.448">(redaction)</tspan>
        </text>
      </g>
      <g id="Graphic_174">
        <rect x="1526" y="-490.5" width="120" height="45" fill="white"/>
        <rect x="1526" y="-490.5" width="120" height="45" stroke="black" stroke-linecap="round" stroke-linejoin="round" stroke-width="1"/>
        <text transform="translate(1531 -477.224)" fill="black">
          <tspan font-family="Helvetica Neue" font-size="16" fill="black" x="8.344" y="15">External SES</tspan>
        </text>
      </g>
      <g id="Line_173">
        <line x1="1586" y1="-242.20807" x2="1586" y2="-201" marker-start="url(#StickArrow_Marker_2)" stroke="black" stroke-linecap="round" stroke-linejoin="round" stroke-width="1"/>
      </g>
      <g id="Line_172">
        <line x1="1586" y1="-435.6" x2="1586" y2="-297.10807" marker-start="url(#StickArrow_Marker_2)" stroke="black" stroke-linecap="round" stroke-linejoin="round" stroke-width="1"/>
      </g>
      <g id="Line_171">
        <line x1="1395.2878" y1="-435.60007" x2="1395.4372" y2="-395.2644" marker-start="url(#StickArrow_Marker_2)" stroke="black" stroke-linecap="round" stroke-linejoin="round" stroke-width="1"/>
      </g>
      <g id="Line_170">
        <line x1="1465.0679" y1="-468" x2="1526" y2="-468" marker-start="url(#StickArrow_Marker_2)" stroke="black" stroke-linecap="round" stroke-linejoin="round" stroke-width="1"/>
      </g>
      <g id="Graphic_169">
        <text transform="translate(1110 -704.724)" fill="black">
          <tspan font-family="Helvetica Neue" font-size="16" fill="black" x="0" y="15">Search to be</tspan>
        </text>
      </g>
      <g id="Graphic_168">
        <text transform="translate(1272.5 -167.724)" fill="black">
          <tspan font-family="Helvetica Neue" font-size="16" fill="black" x="0" y="15">HTTP POST</tspan>
        </text>
      </g>
      <g id="Group_159">
        <title>Storage and Content Delivery - Volume</title>
        <g id="Group_161">
          <title>Layer_1</title>
          <g id="Group_166">
            <g id="Graphic_167">
              <path d="M 1410.4447 -390.9573 L 1410.4447 -389.27483 L 1380.0931 -389.27483 L 1380.0931 -390.9573 L 1395.3026 -395.0625 Z" fill="#8c3123"/>
            </g>
          </g>
          <g id="Group_164">
            <g id="Graphic_165">
              <rect x="1379.6893" y="-385.5734" width="31.495726" height="34.726057" fill="#8c3123"/>
            </g>
          </g>
          <g id="Graphic_163">
            <rect x="1379.6893" y="-387.12127" width="31.495726" height="34.59146" fill="#e05243"/>
          </g>
          <g id="Graphic_162">
            <path d="M 1406.205 -395.2644 L 1384.7367 -395.2644 L 1380.0931 -390.9573 L 1380.4296 -390.9573 L 1410.4447 -390.9573 Z" fill="#e05243"/>
          </g>
        </g>
        <g id="Graphic_160"/>
      </g>
      <g id="Graphic_158">
        <text transform="translate(1354.584 -348.05366)" fill="black">
          <tspan font-family="Helvetica Neue" font-size="16" fill="black" x="19.391935" y="15">SOLR</tspan>
        </text>
      </g>
      <g id="Line_157">
        <line x1="1395.1679" y1="-318.15346" x2="1395.1679" y2="-6" marker-start="url(#StickArrow_Marker_2)" stroke="black" stroke-linecap="round" stroke-linejoin="round" stroke-width="1"/>
      </g>
      <g id="Graphic_155">
        <rect x="1526" y="-113.5" width="120" height="45" fill="white"/>
        <rect x="1526" y="-113.5" width="120" height="45" stroke="black" stroke-linecap="round" stroke-linejoin="round" stroke-width="1"/>
        <text transform="translate(1531 -109.448)" fill="black">
          <tspan font-family="Helvetica Neue" font-size="16" fill="black" x="22.4" y="15">Ontology </tspan>
          <tspan font-family="Helvetica Neue" font-size="16" fill="black" x="23.584" y="33.448">manager</tspan>
        </text>
      </g>
      <g id="Line_154">
        <line x1="1586" y1="-146.1" x2="1586" y2="-113.5" marker-start="url(#StickArrow_Marker_2)" stroke="black" stroke-linecap="round" stroke-linejoin="round" stroke-width="1"/>
      </g>
      <g id="Graphic_194" filter="url(#Shadow)">
        <path d="M 1350.0237 -546.2141 C 1330.6293 -549.6247 1338.3633 -578.3362 1369.3017 -573.4372 C 1372.172 -582.98696 1408.1493 -581.4369 1407.914 -573.4372 C 1430.4729 -583.66895 1459.3017 -563.26703 1439.9649 -553.0353 C 1463.168 -548.07466 1439.672 -521.3475 1420.6293 -525.8122 C 1419.1053 -518.3706 1385.0625 -515.7665 1382.0745 -525.8122 C 1362.7977 -515.08387 1322.6025 -531.57926 1350.0237 -546.2141 Z" fill="white"/>
        <path d="M 1350.0237 -546.2141 C 1330.6293 -549.6247 1338.3633 -578.3362 1369.3017 -573.4372 C 1372.172 -582.98696 1408.1493 -581.4369 1407.914 -573.4372 C 1430.4729 -583.66895 1459.3017 -563.26703 1439.9649 -553.0353 C 1463.168 -548.07466 1439.672 -521.3475 1420.6293 -525.8122 C 1419.1053 -518.3706 1385.0625 -515.7665 1382.0745 -525.8122 C 1362.7977 -515.08387 1322.6025 -531.57926 1350.0237 -546.2141 Z" stroke="black" stroke-linecap="round" stroke-linejoin="round" stroke-width="1"/>
        <text transform="translate(1357.3793 -556.6247)" fill="black">
          <tspan font-family="Helvetica" font-size="12" fill="black" x="9.651367" y="11">Cloudflare</tspan>
        </text>
      </g>
      <g id="Line_195">
        <path d="M 1334.59 -525.7215 C 1305.1214 -511.17705 1275.851 -491.2457 1276 -469.5 C 1276.2997 -425.76896 1395.4372 -395.2644 1395.4372 -395.2644" marker-start="url(#StickArrow_Marker_2)" stroke="black" stroke-linecap="round" stroke-linejoin="round" stroke-width="1"/>
      </g>
      <g id="Line_196">
        <line x1="1394.766" y1="-509.58815" x2="1394.9505" y2="-490.5" marker-start="url(#StickArrow_Marker_2)" stroke="black" stroke-linecap="round" stroke-linejoin="round" stroke-width="1"/>
      </g>
      <g id="Line_197">
        <line x1="1449.0367" y1="-526.3423" x2="1533.1794" y2="-490.5" marker-start="url(#StickArrow_Marker_2)" stroke="black" stroke-linecap="round" stroke-linejoin="round" stroke-width="1"/>
      </g>
    </g>
  </g>
</svg>
