<?xml version="1.0" encoding="UTF-8" standalone="no"?>
<!DOCTYPE svg PUBLIC "-//W3C//DTD SVG 1.1//EN" "http://www.w3.org/Graphics/SVG/1.1/DTD/svg11.dtd">
<svg xmlns:xl="http://www.w3.org/1999/xlink" xmlns:dc="http://purl.org/dc/elements/1.1/" xmlns="http://www.w3.org/2000/svg" version="1.1" viewBox="-457.5 -157 3900 1218.5" width="3900" height="1218.5">
  <defs>
    <marker orient="auto" overflow="visible" markerUnits="strokeWidth" id="StickArrow_Marker" stroke-linejoin="miter" stroke-miterlimit="10" viewBox="-1 -4 10 8" markerWidth="10" markerHeight="8" color="black">
      <g>
        <path d="M 8 0 L 0 0 M 0 -3 L 8 0 L 0 3" fill="none" stroke="currentColor" stroke-width="1"/>
      </g>
    </marker>
  </defs>
  <g id="Canvas_1" fill-opacity="1" fill="none" stroke-opacity="1" stroke="none" stroke-dasharray="none">
    <title>Canvas 1</title>
    <rect fill="white" x="-457.5" y="-157" width="3900" height="1218.5"/>
    <g id="Canvas_1_Layer_1">
      <title>Layer 1</title>
      <g id="Graphic_2">
        <path d="M 270 163 L 399 163 C 403.97056 163 408 167.02944 408 172 L 408 236 C 408 240.97056 403.97056 245 399 245 L 270 245 C 265.02944 245 261 240.97056 261 236 L 261 172 C 261 167.02944 265.02944 163 270 163 Z" fill="#ff9300"/>
        <path d="M 270 163 L 399 163 C 403.97056 163 408 167.02944 408 172 L 408 236 C 408 240.97056 403.97056 245 399 245 L 270 245 C 265.02944 245 261 240.97056 261 236 L 261 172 C 261 167.02944 265.02944 163 270 163 Z" stroke="black" stroke-linecap="round" stroke-linejoin="round" stroke-width="1"/>
        <text transform="translate(266 194.776)" fill="black">
          <tspan font-family="Helvetica Neue" font-size="16" fill="black" x="1.82" y="15">Populate test suite</tspan>
        </text>
      </g>
      <g id="Graphic_3">
        <path d="M 334.5 282.5 L 394.5 342.5 L 334.5 402.5 L 274.5 342.5 Z" fill="white"/>
        <path d="M 334.5 282.5 L 394.5 342.5 L 334.5 402.5 L 274.5 342.5 Z" stroke="black" stroke-linecap="round" stroke-linejoin="round" stroke-width="1"/>
        <text transform="translate(295.7 313.628)" fill="black">
          <tspan font-family="Helvetica Neue" font-size="16" fill="black" x="16.288" y="15">Do the </tspan>
          <tspan font-family="Helvetica Neue" font-size="16" fill="black" x="22.664" y="33.448">tests </tspan>
          <tspan font-family="Helvetica Neue" font-size="16" fill="black" x="18.512" y="51.895996">pass?</tspan>
        </text>
      </g>
      <g id="Graphic_4">
        <circle cx="334.5" cy="468.25" r="28.2500451407286" fill="white"/>
        <circle cx="334.5" cy="468.25" r="28.2500451407286" stroke="black" stroke-linecap="round" stroke-linejoin="round" stroke-width="1"/>
        <text transform="translate(316.9 459.026)" fill="black">
          <tspan font-family="Helvetica Neue" font-size="16" fill="black" x="5.0080004" y="15">Yes</tspan>
        </text>
      </g>
      <g id="Graphic_6">
        <path d="M 270 36.5 L 399 36.5 C 403.97056 36.5 408 40.529437 408 45.5 L 408 109.5 C 408 114.47056 403.97056 118.5 399 118.5 L 270 118.5 C 265.02944 118.5 261 114.47056 261 109.5 L 261 45.5 C 261 40.529437 265.02944 36.5 270 36.5 Z" fill="#ff9300"/>
        <path d="M 270 36.5 L 399 36.5 C 403.97056 36.5 408 40.529437 408 45.5 L 408 109.5 C 408 114.47056 403.97056 118.5 399 118.5 L 270 118.5 C 265.02944 118.5 261 114.47056 261 109.5 L 261 45.5 C 261 40.529437 265.02944 36.5 270 36.5 Z" stroke="black" stroke-linecap="round" stroke-linejoin="round" stroke-width="1"/>
        <text transform="translate(266 68.276)" fill="black">
          <tspan font-family="Helvetica Neue" font-size="16" fill="black" x="12.788" y="15">Agree test suite</tspan>
        </text>
      </g>
      <g id="Line_7">
        <line x1="334.5" y1="118.5" x2="334.5" y2="153.1" marker-end="url(#StickArrow_Marker)" stroke="black" stroke-linecap="round" stroke-linejoin="round" stroke-width="1"/>
      </g>
      <g id="Line_8">
        <line x1="334.5" y1="245" x2="334.5" y2="272.6" marker-end="url(#StickArrow_Marker)" stroke="black" stroke-linecap="round" stroke-linejoin="round" stroke-width="1"/>
      </g>
      <g id="Line_9">
        <line x1="334.5" y1="402.5" x2="334.5" y2="430.1" marker-end="url(#StickArrow_Marker)" stroke="black" stroke-linecap="round" stroke-linejoin="round" stroke-width="1"/>
      </g>
      <g id="Graphic_10">
        <path d="M 334.5 534 L 394.5 594 L 334.5 654 L 274.5 594 Z" fill="white"/>
        <path d="M 334.5 534 L 394.5 594 L 334.5 654 L 274.5 594 Z" stroke="black" stroke-linecap="round" stroke-linejoin="round" stroke-width="1"/>
        <text transform="translate(295.7 574.352)" fill="black">
          <tspan font-family="Helvetica Neue" font-size="16" fill="black" x="5.92" y="15">Are IDMS </tspan>
          <tspan font-family="Helvetica Neue" font-size="16" fill="black" x="13.32" y="33.448">happy?</tspan>
        </text>
      </g>
      <g id="Line_12">
        <line x1="334.5" y1="496.5" x2="334.5" y2="524.1" marker-end="url(#StickArrow_Marker)" stroke="black" stroke-linecap="round" stroke-linejoin="round" stroke-width="1"/>
      </g>
      <g id="Graphic_13">
        <circle cx="543.75" cy="342.5" r="28.2500451407286" fill="white"/>
        <circle cx="543.75" cy="342.5" r="28.2500451407286" stroke="black" stroke-linecap="round" stroke-linejoin="round" stroke-width="1"/>
        <text transform="translate(526.15 333.276)" fill="black">
          <tspan font-family="Helvetica Neue" font-size="16" fill="black" x="7.232" y="15">No</tspan>
        </text>
      </g>
      <g id="Line_14">
        <line x1="394.5" y1="342.5" x2="505.6" y2="342.5" marker-end="url(#StickArrow_Marker)" stroke="black" stroke-linecap="round" stroke-linejoin="round" stroke-width="1"/>
      </g>
      <g id="Graphic_15">
        <path d="M 479.25 163 L 608.25 163 C 613.22056 163 617.25 167.02944 617.25 172 L 617.25 236 C 617.25 240.97056 613.22056 245 608.25 245 L 479.25 245 C 474.27944 245 470.25 240.97056 470.25 236 L 470.25 172 C 470.25 167.02944 474.27944 163 479.25 163 Z" fill="white"/>
        <path d="M 479.25 163 L 608.25 163 C 613.22056 163 617.25 167.02944 617.25 172 L 617.25 236 C 617.25 240.97056 613.22056 245 608.25 245 L 479.25 245 C 474.27944 245 470.25 240.97056 470.25 236 L 470.25 172 C 470.25 167.02944 474.27944 163 479.25 163 Z" stroke="black" stroke-linecap="round" stroke-linejoin="round" stroke-width="1"/>
        <text transform="translate(475.25 185.552)" fill="black">
          <tspan font-family="Helvetica Neue" font-size="16" fill="black" x="29.548" y="15">Tweak Solr </tspan>
          <tspan font-family="Helvetica Neue" font-size="16" fill="black" x="18.868" y="33.448">indexing rules</tspan>
        </text>
      </g>
      <g id="Line_16">
        <line x1="543.75" y1="314.25" x2="543.75" y2="254.9" marker-end="url(#StickArrow_Marker)" stroke="black" stroke-linecap="round" stroke-linejoin="round" stroke-width="1"/>
      </g>
      <g id="Line_17">
        <line x1="470.25" y1="204" x2="417.9" y2="204" marker-end="url(#StickArrow_Marker)" stroke="black" stroke-linecap="round" stroke-linejoin="round" stroke-width="1"/>
      </g>
      <g id="Graphic_18">
        <circle cx="334.5" cy="781.25" r="28.2500451407286" fill="white"/>
        <circle cx="334.5" cy="781.25" r="28.2500451407286" stroke="black" stroke-linecap="round" stroke-linejoin="round" stroke-width="1"/>
        <text transform="translate(316.9 772.026)" fill="black">
          <tspan font-family="Helvetica Neue" font-size="16" fill="black" x="5.0080004" y="15">Yes</tspan>
        </text>
      </g>
      <g id="Line_19">
        <line x1="334.5" y1="654" x2="334.5" y2="743.1" marker-end="url(#StickArrow_Marker)" stroke="black" stroke-linecap="round" stroke-linejoin="round" stroke-width="1"/>
      </g>
      <g id="Graphic_20">
        <circle cx="169.75" cy="594" r="28.2500451407286" fill="white"/>
        <circle cx="169.75" cy="594" r="28.2500451407286" stroke="black" stroke-linecap="round" stroke-linejoin="round" stroke-width="1"/>
        <text transform="translate(152.15 584.776)" fill="black">
          <tspan font-family="Helvetica Neue" font-size="16" fill="black" x="7.232" y="15">No</tspan>
        </text>
      </g>
      <g id="Line_21">
        <line x1="274.5" y1="594" x2="207.90001" y2="594" marker-end="url(#StickArrow_Marker)" stroke="black" stroke-linecap="round" stroke-linejoin="round" stroke-width="1"/>
      </g>
      <g id="Line_22">
        <path d="M 169.5993 565.7504 L 167 78.5 L 251.10018 77.99791" marker-end="url(#StickArrow_Marker)" stroke="black" stroke-linecap="round" stroke-linejoin="round" stroke-width="1"/>
      </g>
      <g id="Graphic_24">
        <path d="M 795.5 17.5 L 855.5 77.5 L 795.5 137.5 L 735.5 77.5 Z" fill="lime"/>
        <path d="M 795.5 17.5 L 855.5 77.5 L 795.5 137.5 L 735.5 77.5 Z" stroke="black" stroke-linecap="round" stroke-linejoin="round" stroke-width="1"/>
        <text transform="translate(756.7 48.628003)" fill="black">
          <tspan font-family="Helvetica Neue" font-size="16" fill="black" x="15.416" y="15">Are we </tspan>
          <tspan font-family="Helvetica Neue" font-size="16" fill="black" x="6.512" y="33.448">redacting </tspan>
          <tspan font-family="Helvetica Neue" font-size="16" fill="black" x="4.592" y="51.895996">ePetitions</tspan>
        </text>
      </g>
      <g id="Graphic_25">
        <circle cx="795.5" cy="204" r="28.2500451407286" fill="lime"/>
        <circle cx="795.5" cy="204" r="28.2500451407286" stroke="black" stroke-linecap="round" stroke-linejoin="round" stroke-width="1"/>
        <text transform="translate(777.9 194.776)" fill="black">
          <tspan font-family="Helvetica Neue" font-size="16" fill="black" x="5.0080004" y="15">Yes</tspan>
        </text>
      </g>
      <g id="Line_26">
        <line x1="795.5" y1="137.5" x2="795.5" y2="165.84999" marker-end="url(#StickArrow_Marker)" stroke="black" stroke-linecap="round" stroke-linejoin="round" stroke-width="1"/>
      </g>
      <g id="Graphic_27">
        <path d="M 958.2257 57.524255 C 969.2581 68.55656 969.2581 86.44344 958.2257 97.47574 C 947.1934 108.5081 929.3066 108.5081 918.2743 97.47574 C 907.2419 86.44344 907.2419 68.55656 918.2743 57.524255 C 929.3066 46.491896 947.1934 46.491896 958.2257 57.524255" stroke="black" stroke-linecap="round" stroke-linejoin="round" stroke-dasharray="4.0,4.0" stroke-width="1"/>
        <text transform="translate(920.65 68.276)" fill="black">
          <tspan font-family="Helvetica Neue" font-size="16" fill="black" x="7.232" y="15">No</tspan>
        </text>
      </g>
      <g id="Line_28">
        <line x1="855.5" y1="77.5" x2="900.1" y2="77.5" marker-end="url(#StickArrow_Marker)" stroke="black" stroke-linecap="round" stroke-linejoin="round" stroke-dasharray="4.0,4.0" stroke-width="1"/>
      </g>
      <g id="Graphic_29">
        <path d="M 731 301.5 L 860 301.5 C 864.9706 301.5 869 305.52944 869 310.5 L 869 374.5 C 869 379.47056 864.9706 383.5 860 383.5 L 731 383.5 C 726.0294 383.5 722 379.47056 722 374.5 L 722 310.5 C 722 305.52944 726.0294 301.5 731 301.5 Z" fill="lime"/>
        <path d="M 731 301.5 L 860 301.5 C 864.9706 301.5 869 305.52944 869 310.5 L 869 374.5 C 869 379.47056 864.9706 383.5 860 383.5 L 731 383.5 C 726.0294 383.5 722 379.47056 722 374.5 L 722 310.5 C 722 305.52944 726.0294 301.5 731 301.5 Z" stroke="black" stroke-linecap="round" stroke-linejoin="round" stroke-width="1"/>
        <text transform="translate(727 324.052)" fill="black">
          <tspan font-family="Helvetica Neue" font-size="16" fill="black" x="24.356" y="15">Engage with </tspan>
          <tspan font-family="Helvetica Neue" font-size="16" fill="black" x="22.716" y="33.448">stakeholders</tspan>
        </text>
      </g>
      <g id="Line_31">
        <line x1="795.5" y1="232.25001" x2="795.5" y2="291.6" marker-end="url(#StickArrow_Marker)" stroke="black" stroke-linecap="round" stroke-linejoin="round" stroke-width="1"/>
      </g>
      <g id="Graphic_32">
        <path d="M 731 444.5 L 860 444.5 C 864.9706 444.5 869 448.52944 869 453.5 L 869 517.5 C 869 522.47056 864.9706 526.5 860 526.5 L 731 526.5 C 726.0294 526.5 722 522.47056 722 517.5 L 722 453.5 C 722 448.52944 726.0294 444.5 731 444.5 Z" fill="#ff9300"/>
        <path d="M 731 444.5 L 860 444.5 C 864.9706 444.5 869 448.52944 869 453.5 L 869 517.5 C 869 522.47056 864.9706 526.5 860 526.5 L 731 526.5 C 726.0294 526.5 722 522.47056 722 517.5 L 722 453.5 C 722 448.52944 726.0294 444.5 731 444.5 Z" stroke="black" stroke-linecap="round" stroke-linejoin="round" stroke-width="1"/>
        <text transform="translate(727 476.276)" fill="black">
          <tspan font-family="Helvetica Neue" font-size="16" fill="black" x="5.236" y="15">Redact ePetitions</tspan>
        </text>
      </g>
      <g id="Line_33">
        <line x1="795.5" y1="383.5" x2="795.5" y2="434.6" marker-end="url(#StickArrow_Marker)" stroke="black" stroke-linecap="round" stroke-linejoin="round" stroke-width="1"/>
      </g>
      <g id="Graphic_34">
        <path d="M 1043 664.5 L 1172 664.5 C 1176.9706 664.5 1181 668.5294 1181 673.5 L 1181 737.5 C 1181 742.4706 1176.9706 746.5 1172 746.5 L 1043 746.5 C 1038.0294 746.5 1034 742.4706 1034 737.5 L 1034 673.5 C 1034 668.5294 1038.0294 664.5 1043 664.5 Z" fill="white"/>
        <path d="M 1043 664.5 L 1172 664.5 C 1176.9706 664.5 1181 668.5294 1181 673.5 L 1181 737.5 C 1181 742.4706 1176.9706 746.5 1172 746.5 L 1043 746.5 C 1038.0294 746.5 1034 742.4706 1034 737.5 L 1034 673.5 C 1034 668.5294 1038.0294 664.5 1043 664.5 Z" stroke="black" stroke-linecap="round" stroke-linejoin="round" stroke-width="1"/>
        <text transform="translate(1039 687.052)" fill="black">
          <tspan font-family="Helvetica Neue" font-size="16" fill="black" x="27.756" y="15">Redactable </tspan>
          <tspan font-family="Helvetica Neue" font-size="16" fill="black" x="7.444" y="33.448">content redacted</tspan>
        </text>
      </g>
      <g id="Line_35">
        <line x1="853.6455" y1="526.5" x2="1041.2637" y2="658.7949" marker-end="url(#StickArrow_Marker)" stroke="black" stroke-linecap="round" stroke-linejoin="round" stroke-width="1"/>
      </g>
      <g id="Line_37">
        <path d="M 943.7592 105.21062 C 956.3825 197.2304 920.2918 303.7884 944 392.5 C 969.634 486.922 1047.3047 565.81415 1088.9263 655.4648" marker-end="url(#StickArrow_Marker)" stroke="black" stroke-linecap="round" stroke-linejoin="round" stroke-dasharray="4.0,4.0" stroke-width="1"/>
      </g>
      <g id="Graphic_49">
        <path d="M 1107.5 17.5 L 1167.5 77.5 L 1107.5 137.5 L 1047.5 77.5 Z" fill="lime"/>
        <path d="M 1107.5 17.5 L 1167.5 77.5 L 1107.5 137.5 L 1047.5 77.5 Z" stroke="black" stroke-linecap="round" stroke-linejoin="round" stroke-width="1"/>
        <text transform="translate(1068.7 30.180005)" fill="black">
          <tspan font-family="Helvetica Neue" font-size="16" fill="black" x="15.416" y="15">Are we </tspan>
          <tspan font-family="Helvetica Neue" font-size="16" fill="black" x="6.512" y="33.448">redacting </tspan>
          <tspan font-family="Helvetica Neue" font-size="16" fill="black" x="13.632" y="51.895996">internal </tspan>
          <tspan font-family="Helvetica Neue" font-size="16" fill="black" x="9.328" y="70.34399">research </tspan>
          <tspan font-family="Helvetica Neue" font-size="16" fill="black" x="9.336" y="88.79199">briefings</tspan>
        </text>
      </g>
      <g id="Graphic_48">
        <circle cx="1107.5" cy="204" r="28.2500451407286" fill="lime"/>
        <circle cx="1107.5" cy="204" r="28.2500451407286" stroke="black" stroke-linecap="round" stroke-linejoin="round" stroke-width="1"/>
        <text transform="translate(1089.9 194.776)" fill="black">
          <tspan font-family="Helvetica Neue" font-size="16" fill="black" x="5.0080004" y="15">Yes</tspan>
        </text>
      </g>
      <g id="Line_47">
        <line x1="1107.5" y1="137.5" x2="1107.5" y2="165.84999" marker-end="url(#StickArrow_Marker)" stroke="black" stroke-linecap="round" stroke-linejoin="round" stroke-width="1"/>
      </g>
      <g id="Graphic_46">
        <path d="M 1270.2257 57.524255 C 1281.2581 68.55656 1281.2581 86.44344 1270.2257 97.47574 C 1259.1934 108.5081 1241.3066 108.5081 1230.2743 97.47574 C 1219.2419 86.44344 1219.2419 68.55656 1230.2743 57.524255 C 1241.3066 46.491896 1259.1934 46.491896 1270.2257 57.524255" stroke="black" stroke-linecap="round" stroke-linejoin="round" stroke-dasharray="4.0,4.0" stroke-width="1"/>
        <text transform="translate(1232.65 68.276)" fill="black">
          <tspan font-family="Helvetica Neue" font-size="16" fill="black" x="7.232" y="15">No</tspan>
        </text>
      </g>
      <g id="Line_45">
        <line x1="1167.5" y1="77.5" x2="1212.1" y2="77.5" marker-end="url(#StickArrow_Marker)" stroke="black" stroke-linecap="round" stroke-linejoin="round" stroke-dasharray="4.0,4.0" stroke-width="1"/>
      </g>
      <g id="Graphic_44">
        <path d="M 1043 301.5 L 1172 301.5 C 1176.9706 301.5 1181 305.52944 1181 310.5 L 1181 374.5 C 1181 379.47056 1176.9706 383.5 1172 383.5 L 1043 383.5 C 1038.0294 383.5 1034 379.47056 1034 374.5 L 1034 310.5 C 1034 305.52944 1038.0294 301.5 1043 301.5 Z" fill="#ff914d"/>
        <path d="M 1043 301.5 L 1172 301.5 C 1176.9706 301.5 1181 305.52944 1181 310.5 L 1181 374.5 C 1181 379.47056 1176.9706 383.5 1172 383.5 L 1043 383.5 C 1038.0294 383.5 1034 379.47056 1034 374.5 L 1034 310.5 C 1034 305.52944 1038.0294 301.5 1043 301.5 Z" stroke="black" stroke-linecap="round" stroke-linejoin="round" stroke-width="1"/>
        <text transform="translate(1039 324.052)" fill="black">
          <tspan font-family="Helvetica Neue" font-size="16" fill="black" x="24.356" y="15">Engage with </tspan>
          <tspan font-family="Helvetica Neue" font-size="16" fill="black" x="22.716" y="33.448">stakeholders</tspan>
        </text>
      </g>
      <g id="Line_43">
        <line x1="1107.5" y1="232.25001" x2="1107.5" y2="291.6" marker-end="url(#StickArrow_Marker)" stroke="black" stroke-linecap="round" stroke-linejoin="round" stroke-width="1"/>
      </g>
      <g id="Graphic_42">
        <path d="M 1043 444.5 L 1172 444.5 C 1176.9706 444.5 1181 448.52944 1181 453.5 L 1181 517.5 C 1181 522.47056 1176.9706 526.5 1172 526.5 L 1043 526.5 C 1038.0294 526.5 1034 522.47056 1034 517.5 L 1034 453.5 C 1034 448.52944 1038.0294 444.5 1043 444.5 Z" stroke="black" stroke-linecap="round" stroke-linejoin="round" stroke-width="1"/>
        <text transform="translate(1039 467.052)" fill="black">
          <tspan font-family="Helvetica Neue" font-size="16" fill="black" x="7.012" y="15">Redact Research </tspan>
          <tspan font-family="Helvetica Neue" font-size="16" fill="black" x="37.1" y="33.448">Briefings</tspan>
        </text>
      </g>
      <g id="Line_41">
        <line x1="1107.5" y1="383.5" x2="1107.5" y2="434.6" marker-end="url(#StickArrow_Marker)" stroke="black" stroke-linecap="round" stroke-linejoin="round" stroke-width="1"/>
      </g>
      <g id="Line_39">
        <line x1="1107.5" y1="526.5" x2="1107.5" y2="654.6" marker-end="url(#StickArrow_Marker)" stroke="black" stroke-linecap="round" stroke-linejoin="round" stroke-width="1"/>
      </g>
      <g id="Line_38">
        <path d="M 1238.8495 103.35577 C 1201.8781 216.56114 1285.0008 401.93115 1227 502.5 C 1195.5513 556.65326 1166.7021 604.7244 1136.4963 655.9694" marker-end="url(#StickArrow_Marker)" stroke="black" stroke-linecap="round" stroke-linejoin="round" stroke-dasharray="4.0,4.0" stroke-width="1"/>
      </g>
      <g id="Graphic_60">
        <path d="M 1388 17.5 L 1448 77.5 L 1388 137.5 L 1328 77.5 Z" fill="lime"/>
        <path d="M 1388 17.5 L 1448 77.5 L 1388 137.5 L 1328 77.5 Z" stroke="black" stroke-linecap="round" stroke-linejoin="round" stroke-width="1"/>
        <text transform="translate(1349.2 39.404004)" fill="black">
          <tspan font-family="Helvetica Neue" font-size="16" fill="black" x="15.416" y="15">Are we </tspan>
          <tspan font-family="Helvetica Neue" font-size="16" fill="black" x="6.512" y="33.448">redacting </tspan>
          <tspan font-family="Helvetica Neue" font-size="16" fill="black" x="9.328" y="51.895996">research </tspan>
          <tspan font-family="Helvetica Neue" font-size="16" fill="black" x="11.552" y="70.34399">material</tspan>
        </text>
      </g>
      <g id="Graphic_59">
        <circle cx="1388" cy="204" r="28.2500451407286" fill="lime"/>
        <circle cx="1388" cy="204" r="28.2500451407286" stroke="black" stroke-linecap="round" stroke-linejoin="round" stroke-width="1"/>
        <text transform="translate(1370.4 194.776)" fill="black">
          <tspan font-family="Helvetica Neue" font-size="16" fill="black" x="5.0080004" y="15">Yes</tspan>
        </text>
      </g>
      <g id="Line_58">
        <line x1="1388" y1="137.5" x2="1388" y2="165.84999" marker-end="url(#StickArrow_Marker)" stroke="black" stroke-linecap="round" stroke-linejoin="round" stroke-width="1"/>
      </g>
      <g id="Graphic_57">
        <path d="M 1550.7257 57.524255 C 1561.7581 68.55656 1561.7581 86.44344 1550.7257 97.47574 C 1539.6934 108.5081 1521.8066 108.5081 1510.7743 97.47574 C 1499.7419 86.44344 1499.7419 68.55656 1510.7743 57.524255 C 1521.8066 46.491896 1539.6934 46.491896 1550.7257 57.524255" stroke="black" stroke-linecap="round" stroke-linejoin="round" stroke-dasharray="4.0,4.0" stroke-width="1"/>
        <text transform="translate(1513.15 68.276)" fill="black">
          <tspan font-family="Helvetica Neue" font-size="16" fill="black" x="7.232" y="15">No</tspan>
        </text>
      </g>
      <g id="Line_56">
        <line x1="1448" y1="77.5" x2="1492.6" y2="77.5" marker-end="url(#StickArrow_Marker)" stroke="black" stroke-linecap="round" stroke-linejoin="round" stroke-dasharray="4.0,4.0" stroke-width="1"/>
      </g>
      <g id="Graphic_55">
        <path d="M 1323.5 301.5 L 1452.5 301.5 C 1457.4706 301.5 1461.5 305.52944 1461.5 310.5 L 1461.5 374.5 C 1461.5 379.47056 1457.4706 383.5 1452.5 383.5 L 1323.5 383.5 C 1318.5294 383.5 1314.5 379.47056 1314.5 374.5 L 1314.5 310.5 C 1314.5 305.52944 1318.5294 301.5 1323.5 301.5 Z" stroke="black" stroke-linecap="round" stroke-linejoin="round" stroke-width="1"/>
        <text transform="translate(1319.5 324.052)" fill="black">
          <tspan font-family="Helvetica Neue" font-size="16" fill="black" x="24.356" y="15">Engage with </tspan>
          <tspan font-family="Helvetica Neue" font-size="16" fill="black" x="22.716" y="33.448">stakeholders</tspan>
        </text>
      </g>
      <g id="Line_54">
        <line x1="1388" y1="232.25001" x2="1388" y2="291.6" marker-end="url(#StickArrow_Marker)" stroke="black" stroke-linecap="round" stroke-linejoin="round" stroke-width="1"/>
      </g>
      <g id="Graphic_53">
        <path d="M 1323.5 444.5 L 1452.5 444.5 C 1457.4706 444.5 1461.5 448.52944 1461.5 453.5 L 1461.5 517.5 C 1461.5 522.47056 1457.4706 526.5 1452.5 526.5 L 1323.5 526.5 C 1318.5294 526.5 1314.5 522.47056 1314.5 517.5 L 1314.5 453.5 C 1314.5 448.52944 1318.5294 444.5 1323.5 444.5 Z" stroke="black" stroke-linecap="round" stroke-linejoin="round" stroke-width="1"/>
        <text transform="translate(1319.5 467.052)" fill="black">
          <tspan font-family="Helvetica Neue" font-size="16" fill="black" x="9.972" y="15">Redact research </tspan>
          <tspan font-family="Helvetica Neue" font-size="16" fill="black" x="40.052" y="33.448">material</tspan>
        </text>
      </g>
      <g id="Line_52">
        <line x1="1388" y1="383.5" x2="1388" y2="434.6" marker-end="url(#StickArrow_Marker)" stroke="black" stroke-linecap="round" stroke-linejoin="round" stroke-width="1"/>
      </g>
      <g id="Line_51">
        <line x1="1335.725" y1="526.5" x2="1167.5648" y2="658.3903" marker-end="url(#StickArrow_Marker)" stroke="black" stroke-linecap="round" stroke-linejoin="round" stroke-width="1"/>
      </g>
      <g id="Line_50">
        <path d="M 1519.817 103.5567 C 1486.3431 219.04615 1593.5148 419.9068 1535.5 520.5 C 1503.5848 575.4566 1290.387 613.4158 1175.882 660.6286" marker-end="url(#StickArrow_Marker)" stroke="black" stroke-linecap="round" stroke-linejoin="round" stroke-dasharray="4.0,4.0" stroke-width="1"/>
      </g>
      <g id="Graphic_62">
        <path d="M 1857.75 49.25 L 1986.75 49.25 C 1991.7206 49.25 1995.75 53.27944 1995.75 58.25 L 1995.75 122.25 C 1995.75 127.22056 1991.7206 131.25 1986.75 131.25 L 1857.75 131.25 C 1852.7794 131.25 1848.75 127.22056 1848.75 122.25 L 1848.75 58.25 C 1848.75 53.27944 1852.7794 49.25 1857.75 49.25 Z" stroke="black" stroke-linecap="round" stroke-linejoin="round" stroke-width="1"/>
        <text transform="translate(1853.75 62.578)" fill="black">
          <tspan font-family="Helvetica Neue" font-size="16" fill="black" x="7.9" y="15">Draft updates for </tspan>
          <tspan font-family="Helvetica Neue" font-size="16" fill="black" x="14.7" y="33.448">help and about </tspan>
          <tspan font-family="Helvetica Neue" font-size="16" fill="black" x="46.572" y="51.895996">pages</tspan>
        </text>
      </g>
      <g id="Graphic_63">
        <path d="M 2700.5 45 L 2829.5 45 C 2834.4706 45 2838.5 49.02944 2838.5 54 L 2838.5 118 C 2838.5 122.97056 2834.4706 127 2829.5 127 L 2700.5 127 C 2695.5294 127 2691.5 122.97056 2691.5 118 L 2691.5 54 C 2691.5 49.02944 2695.5294 45 2700.5 45 Z" stroke="black" stroke-linecap="round" stroke-linejoin="round" stroke-width="1"/>
        <text transform="translate(2696.5 76.776)" fill="black">
          <tspan font-family="Helvetica Neue" font-size="16" fill="black" x="4.772" y="15">Draft comms plan</tspan>
        </text>
      </g>
      <g id="Graphic_64">
        <path d="M 2481.75 45 L 2610.75 45 C 2615.7206 45 2619.75 49.02944 2619.75 54 L 2619.75 118 C 2619.75 122.97056 2615.7206 127 2610.75 127 L 2481.75 127 C 2476.7794 127 2472.75 122.97056 2472.75 118 L 2472.75 54 C 2472.75 49.02944 2476.7794 45 2481.75 45 Z" stroke="black" stroke-linecap="round" stroke-linejoin="round" stroke-width="1"/>
        <text transform="translate(2477.75 58.328)" fill="black">
          <tspan font-family="Helvetica Neue" font-size="16" fill="black" x="5.38" y="15">Establish process </tspan>
          <tspan font-family="Helvetica Neue" font-size="16" fill="black" x="7.748" y="33.448">for feedback and </tspan>
          <tspan font-family="Helvetica Neue" font-size="16" fill="black" x="9.372" y="51.895996">enquiry handling</tspan>
        </text>
      </g>
      <g id="Graphic_65">
        <path d="M 2263 45 L 2392 45 C 2396.9706 45 2401 49.02944 2401 54 L 2401 118 C 2401 122.97056 2396.9706 127 2392 127 L 2263 127 C 2258.0294 127 2254 122.97056 2254 118 L 2254 54 C 2254 49.02944 2258.0294 45 2263 45 Z" stroke="black" stroke-linecap="round" stroke-linejoin="round" stroke-width="1"/>
        <text transform="translate(2259 67.552)" fill="black">
          <tspan font-family="Helvetica Neue" font-size="16" fill="black" x="11.164" y="15">Mitigate internal </tspan>
          <tspan font-family="Helvetica Neue" font-size="16" fill="black" x="33.084" y="33.448">only  links</tspan>
        </text>
      </g>
      <g id="Graphic_67">
        <path d="M 2064.25 49.25 L 2193.25 49.25 C 2198.2206 49.25 2202.25 53.27944 2202.25 58.25 L 2202.25 122.25 C 2202.25 127.22056 2198.2206 131.25 2193.25 131.25 L 2064.25 131.25 C 2059.2794 131.25 2055.25 127.22056 2055.25 122.25 L 2055.25 58.25 C 2055.25 53.27944 2059.2794 49.25 2064.25 49.25 Z" stroke="black" stroke-linecap="round" stroke-linejoin="round" stroke-width="1"/>
        <text transform="translate(2060.25 44.130005)" fill="black">
          <tspan font-family="Helvetica Neue" font-size="16" fill="black" x="5.836" y="15">Investigate where </tspan>
          <tspan font-family="Helvetica Neue" font-size="16" fill="black" x="5.972" y="33.448">search material is </tspan>
          <tspan font-family="Helvetica Neue" font-size="16" fill="black" x="19.292" y="51.895996">mentioned on </tspan>
          <tspan font-family="Helvetica Neue" font-size="16" fill="black" x="25.092" y="70.34399">website and </tspan>
          <tspan font-family="Helvetica Neue" font-size="16" fill="black" x="41.532" y="88.79199">intranet</tspan>
        </text>
      </g>
      <g id="Graphic_69">
        <path d="M 2128.75 200 L 2188.75 260 L 2128.75 320 L 2068.75 260 Z" stroke="black" stroke-linecap="round" stroke-linejoin="round" stroke-width="1"/>
        <text transform="translate(2089.95 231.128)" fill="black">
          <tspan font-family="Helvetica Neue" font-size="16" fill="black" x="4.584" y="15">Is content </tspan>
          <tspan font-family="Helvetica Neue" font-size="16" fill="black" x="22.064" y="33.448">team </tspan>
          <tspan font-family="Helvetica Neue" font-size="16" fill="black" x="4.296" y="51.895996">available?</tspan>
        </text>
      </g>
      <g id="Line_70">
        <line x1="1972.1263" y1="131.25" x2="2088.172" y2="226.64355" marker-end="url(#StickArrow_Marker)" stroke="black" stroke-linecap="round" stroke-linejoin="round" stroke-width="1"/>
      </g>
      <g id="Graphic_71">
        <circle cx="2128.75" cy="398.25" r="28.2500451407285" stroke="black" stroke-linecap="round" stroke-linejoin="round" stroke-width="1"/>
        <text transform="translate(2111.15 389.026)" fill="black">
          <tspan font-family="Helvetica Neue" font-size="16" fill="black" x="5.0080004" y="15">Yes</tspan>
        </text>
      </g>
      <g id="Line_72">
        <line x1="2128.75" y1="320" x2="2128.75" y2="360.1" marker-end="url(#StickArrow_Marker)" stroke="black" stroke-linecap="round" stroke-linejoin="round" stroke-width="1"/>
      </g>
      <g id="Graphic_73">
        <circle cx="1743.5" cy="264.75" r="28.2500451407286" stroke="black" stroke-linecap="round" stroke-linejoin="round" stroke-width="1"/>
        <text transform="translate(1725.9 255.526)" fill="black">
          <tspan font-family="Helvetica Neue" font-size="16" fill="black" x="7.232" y="15">No</tspan>
        </text>
      </g>
      <g id="Line_74">
        <line x1="2069.4808" y1="260.73077" x2="1781.6471" y2="264.27966" marker-end="url(#StickArrow_Marker)" stroke="black" stroke-linecap="round" stroke-linejoin="round" stroke-width="1"/>
      </g>
      <g id="Graphic_75">
        <path d="M 1679 49.25 L 1808 49.25 C 1812.9706 49.25 1817 53.27944 1817 58.25 L 1817 122.25 C 1817 127.22056 1812.9706 131.25 1808 131.25 L 1679 131.25 C 1674.0294 131.25 1670 127.22056 1670 122.25 L 1670 58.25 C 1670 53.27944 1674.0294 49.25 1679 49.25 Z" fill="red"/>
        <path d="M 1679 49.25 L 1808 49.25 C 1812.9706 49.25 1817 53.27944 1817 58.25 L 1817 122.25 C 1817 127.22056 1812.9706 131.25 1808 131.25 L 1679 131.25 C 1674.0294 131.25 1670 127.22056 1670 122.25 L 1670 58.25 C 1670 53.27944 1674.0294 49.25 1679 49.25 Z" stroke="black" stroke-linecap="round" stroke-linejoin="round" stroke-width="1"/>
        <text transform="translate(1675 81.026)" fill="black">
          <tspan font-family="Helvetica Neue" font-size="16" fill="black" x="64.052" y="15">?</tspan>
        </text>
      </g>
      <g id="Line_76">
        <line x1="1743.5" y1="236.49999" x2="1743.5" y2="141.15" marker-end="url(#StickArrow_Marker)" stroke="black" stroke-linecap="round" stroke-linejoin="round" stroke-width="1"/>
      </g>
      <g id="Line_77">
        <line x1="2128.75" y1="131.25" x2="2128.75" y2="190.1" marker-end="url(#StickArrow_Marker)" stroke="black" stroke-linecap="round" stroke-linejoin="round" stroke-width="1"/>
      </g>
      <g id="Graphic_79">
        <path d="M 2064.25 474.5 L 2193.25 474.5 C 2198.2206 474.5 2202.25 478.52944 2202.25 483.5 L 2202.25 547.5 C 2202.25 552.47056 2198.2206 556.5 2193.25 556.5 L 2064.25 556.5 C 2059.2794 556.5 2055.25 552.47056 2055.25 547.5 L 2055.25 483.5 C 2055.25 478.52944 2059.2794 474.5 2064.25 474.5 Z" stroke="black" stroke-linecap="round" stroke-linejoin="round" stroke-width="1"/>
        <text transform="translate(2060.25 487.828)" fill="black">
          <tspan font-family="Helvetica Neue" font-size="16" fill="black" x="12.94" y="15">Navigation plan </tspan>
          <tspan font-family="Helvetica Neue" font-size="16" fill="black" x="7.444" y="33.448">and user support </tspan>
          <tspan font-family="Helvetica Neue" font-size="16" fill="black" x="30.276" y="51.895996">plan exists</tspan>
        </text>
      </g>
      <g id="Line_80">
        <line x1="2128.75" y1="426.5" x2="2128.75" y2="464.6" marker-end="url(#StickArrow_Marker)" stroke="black" stroke-linecap="round" stroke-linejoin="round" stroke-width="1"/>
      </g>
      <g id="Graphic_87">
        <rect x="694" y="-156.5" width="915" height="120" fill="white"/>
        <rect x="694" y="-156.5" width="915" height="120" stroke="black" stroke-linecap="round" stroke-linejoin="round" stroke-width="1"/>
        <text transform="translate(699 -125.172)" fill="black">
          <tspan font-family="Helvetica Neue" font-size="48" fill="black" x="366.7" y="46">Content</tspan>
        </text>
      </g>
      <g id="Graphic_88">
        <rect x="-457" y="-156.5" width="1130" height="120" fill="white"/>
        <rect x="-457" y="-156.5" width="1130" height="120" stroke="black" stroke-linecap="round" stroke-linejoin="round" stroke-width="1"/>
        <text transform="translate(-452 -125.172)" fill="black">
          <tspan font-family="Helvetica Neue" font-size="48" fill="black" x="436.88" y="46">Confidence</tspan>
        </text>
      </g>
      <g id="Graphic_89">
        <path d="M -36 36.5 L 93 36.5 C 97.97056 36.5 102 40.529437 102 45.5 L 102 109.5 C 102 114.47056 97.97056 118.5 93 118.5 L -36 118.5 C -40.970563 118.5 -45 114.47056 -45 109.5 L -45 45.5 C -45 40.529437 -40.970563 36.5 -36 36.5 Z" fill="white"/>
        <path d="M -36 36.5 L 93 36.5 C 97.97056 36.5 102 40.529437 102 45.5 L 102 109.5 C 102 114.47056 97.97056 118.5 93 118.5 L -36 118.5 C -40.970563 118.5 -45 114.47056 -45 109.5 L -45 45.5 C -45 40.529437 -40.970563 36.5 -36 36.5 Z" stroke="black" stroke-linecap="round" stroke-linejoin="round" stroke-width="1"/>
        <text transform="translate(-40 59.052)" fill="black">
          <tspan font-family="Helvetica Neue" font-size="16" fill="black" x="17.396" y="15">Tech review of </tspan>
          <tspan font-family="Helvetica Neue" font-size="16" fill="black" x="38.716" y="33.448">upgrade</tspan>
        </text>
      </g>
      <g id="Graphic_90">
        <path d="M -237 36.5 L -108 36.5 C -103.02944 36.5 -99 40.529437 -99 45.5 L -99 109.5 C -99 114.47056 -103.02944 118.5 -108 118.5 L -237 118.5 C -241.97056 118.5 -246 114.47056 -246 109.5 L -246 45.5 C -246 40.529437 -241.97056 36.5 -237 36.5 Z" fill="white"/>
        <path d="M -237 36.5 L -108 36.5 C -103.02944 36.5 -99 40.529437 -99 45.5 L -99 109.5 C -99 114.47056 -103.02944 118.5 -108 118.5 L -237 118.5 C -241.97056 118.5 -246 114.47056 -246 109.5 L -246 45.5 C -246 40.529437 -241.97056 36.5 -237 36.5 Z" stroke="black" stroke-linecap="round" stroke-linejoin="round" stroke-width="1"/>
        <text transform="translate(-241 59.052)" fill="black">
          <tspan font-family="Helvetica Neue" font-size="16" fill="black" x="28.5" y="15">Draft revert </tspan>
          <tspan font-family="Helvetica Neue" font-size="16" fill="black" x="24.636" y="33.448">change plan</tspan>
        </text>
      </g>
      <g id="Graphic_91">
        <path d="M -448 36.5 L -319 36.5 C -314.02944 36.5 -310 40.529437 -310 45.5 L -310 109.5 C -310 114.47056 -314.02944 118.5 -319 118.5 L -448 118.5 C -452.97056 118.5 -457 114.47056 -457 109.5 L -457 45.5 C -457 40.529437 -452.97056 36.5 -448 36.5 Z" fill="white"/>
        <path d="M -448 36.5 L -319 36.5 C -314.02944 36.5 -310 40.529437 -310 45.5 L -310 109.5 C -310 114.47056 -314.02944 118.5 -319 118.5 L -448 118.5 C -452.97056 118.5 -457 114.47056 -457 109.5 L -457 45.5 C -457 40.529437 -452.97056 36.5 -448 36.5 Z" stroke="black" stroke-linecap="round" stroke-linejoin="round" stroke-width="1"/>
        <text transform="translate(-452 59.052)" fill="black">
          <tspan font-family="Helvetica Neue" font-size="16" fill="black" x="27.908" y="15">Draft Solr 9 </tspan>
          <tspan font-family="Helvetica Neue" font-size="16" fill="black" x="24.332" y="33.448">backup plan</tspan>
        </text>
      </g>
      <g id="Graphic_92">
        <path d="M -448 211 L -319 211 C -314.02944 211 -310 215.02944 -310 220 L -310 284 C -310 288.97056 -314.02944 293 -319 293 L -448 293 C -452.97056 293 -457 288.97056 -457 284 L -457 220 C -457 215.02944 -452.97056 211 -448 211 Z" fill="white"/>
        <path d="M -448 211 L -319 211 C -314.02944 211 -310 215.02944 -310 220 L -310 284 C -310 288.97056 -314.02944 293 -319 293 L -448 293 C -452.97056 293 -457 288.97056 -457 284 L -457 220 C -457 215.02944 -452.97056 211 -448 211 Z" stroke="black" stroke-linecap="round" stroke-linejoin="round" stroke-width="1"/>
        <text transform="translate(-452 233.552)" fill="black">
          <tspan font-family="Helvetica Neue" font-size="16" fill="black" x="7.588" y="15">Implement Solr 9 </tspan>
          <tspan font-family="Helvetica Neue" font-size="16" fill="black" x="24.332" y="33.448">backup plan</tspan>
        </text>
      </g>
      <g id="Line_93">
        <line x1="-383.5" y1="118.5" x2="-383.5" y2="201.1" marker-end="url(#StickArrow_Marker)" stroke="black" stroke-linecap="round" stroke-linejoin="round" stroke-width="1"/>
      </g>
      <g id="Graphic_94">
        <rect x="1633" y="-156.5" width="1211" height="120" fill="white"/>
        <rect x="1633" y="-156.5" width="1211" height="120" stroke="black" stroke-linecap="round" stroke-linejoin="round" stroke-width="1"/>
        <text transform="translate(1638 -125.172)" fill="black">
          <tspan font-family="Helvetica Neue" font-size="48" fill="black" x="288.908" y="46">User experience and support</tspan>
        </text>
      </g>
      <g id="Graphic_95">
        <path d="M -448 960.6667 L 3433 960.6667 C 3437.9706 960.6667 3442 964.6961 3442 969.6667 L 3442 1052 C 3442 1056.9706 3437.9706 1061 3433 1061 L -448 1061 C -452.97056 1061 -457 1056.9706 -457 1052 L -457 969.6667 C -457 964.6961 -452.97056 960.6667 -448 960.6667 Z" fill="white"/>
        <path d="M -448 960.6667 L 3433 960.6667 C 3437.9706 960.6667 3442 964.6961 3442 969.6667 L 3442 1052 C 3442 1056.9706 3437.9706 1061 3433 1061 L -448 1061 C -452.97056 1061 -457 1056.9706 -457 1052 L -457 969.6667 C -457 964.6961 -452.97056 960.6667 -448 960.6667 Z" stroke="black" stroke-linecap="round" stroke-linejoin="round" stroke-width="1"/>
        <text transform="translate(-452 982.1613)" fill="black">
          <tspan font-family="Helvetica Neue" font-size="48" fill="black" x="1723.148" y="46">Green light to go live</tspan>
        </text>
      </g>
      <g id="Line_97">
        <line x1="1108.1315" y1="746.5" x2="1111.2777" y2="950.7678" marker-end="url(#StickArrow_Marker)" stroke="black" stroke-linecap="round" stroke-linejoin="round" stroke-width="1"/>
      </g>
      <g id="Line_99">
        <line x1="334.5" y1="809.5" x2="334.5" y2="950.7667" marker-end="url(#StickArrow_Marker)" stroke="black" stroke-linecap="round" stroke-linejoin="round" stroke-width="1"/>
      </g>
      <g id="Line_100">
        <line x1="2128.75" y1="556.5" x2="2128.75" y2="950.1" marker-end="url(#StickArrow_Marker)" stroke="black" stroke-linecap="round" stroke-linejoin="round" stroke-width="1"/>
      </g>
      <g id="Line_102">
        <line x1="-383.5" y1="293" x2="-383.5" y2="952.7667" marker-end="url(#StickArrow_Marker)" stroke="black" stroke-linecap="round" stroke-linejoin="round" stroke-width="1"/>
      </g>
      <g id="Graphic_105">
        <rect x="-443.5" y="962.6667" width="120" height="74" fill="white"/>
      </g>
      <g id="Graphic_106">
        <rect x="-225" y="962" width="120" height="74" fill="white"/>
      </g>
      <g id="Line_107">
        <line x1="-172.1663" y1="118.5" x2="-165.38171" y2="952.1003" marker-end="url(#StickArrow_Marker)" stroke="black" stroke-linecap="round" stroke-linejoin="round" stroke-width="1"/>
      </g>
      <g id="Graphic_108">
        <rect x="-25" y="962" width="120" height="74" fill="white"/>
      </g>
      <g id="Line_109">
        <line x1="28.789202" y1="118.5" x2="34.669182" y2="952.1002" marker-end="url(#StickArrow_Marker)" stroke="black" stroke-linecap="round" stroke-linejoin="round" stroke-width="1"/>
      </g>
      <g id="Graphic_110">
        <rect x="274.5" y="960.6667" width="120" height="74" fill="white"/>
      </g>
      <g id="Graphic_111"/>
      <g id="Graphic_112"/>
      <g id="Graphic_113"/>
      <g id="Line_114">
        <line x1="2327.5" y1="127" x2="2327.5" y2="950.1" marker-end="url(#StickArrow_Marker)" stroke="black" stroke-linecap="round" stroke-linejoin="round" stroke-width="1"/>
      </g>
      <g id="Graphic_115"/>
      <g id="Line_116">
        <line x1="2545.9687" y1="127" x2="2540.3218" y2="950.1002" marker-end="url(#StickArrow_Marker)" stroke="black" stroke-linecap="round" stroke-linejoin="round" stroke-width="1"/>
      </g>
      <g id="Graphic_117"/>
      <g id="Line_118">
        <line x1="2765" y1="127" x2="2765" y2="950.1" marker-end="url(#StickArrow_Marker)" stroke="black" stroke-linecap="round" stroke-linejoin="round" stroke-width="1"/>
      </g>
      <g id="Graphic_119"/>
      <g id="Graphic_121">
        <rect x="2860" y="-156.5" width="582" height="120" fill="white"/>
        <rect x="2860" y="-156.5" width="582" height="120" stroke="black" stroke-linecap="round" stroke-linejoin="round" stroke-width="1"/>
        <text transform="translate(2865 -125.172)" fill="black">
          <tspan font-family="Helvetica Neue" font-size="48" fill="black" x="105.112" y="46">PDS governance</tspan>
        </text>
      </g>
      <g id="Graphic_122">
        <path d="M 2972.5 27 L 3032.5 87 L 2972.5 147 L 2912.5 87 Z" stroke="black" stroke-linecap="round" stroke-linejoin="round" stroke-width="1"/>
        <text transform="translate(2933.7 58.128)" fill="black">
          <tspan font-family="Helvetica Neue" font-size="16" fill="black" x="17.192" y="15">Do we </tspan>
          <tspan font-family="Helvetica Neue" font-size="16" fill="black" x="11.248" y="33.448">need an </tspan>
          <tspan font-family="Helvetica Neue" font-size="16" fill="black" x="19.704" y="51.895996">RFC?</tspan>
        </text>
      </g>
      <g id="Graphic_123">
        <circle cx="2972.5" cy="228.875" r="28.2500451407286" stroke="black" stroke-linecap="round" stroke-linejoin="round" stroke-width="1"/>
        <text transform="translate(2954.9 219.651)" fill="black">
          <tspan font-family="Helvetica Neue" font-size="16" fill="black" x="5.0080004" y="15">Yes</tspan>
        </text>
      </g>
      <g id="Line_124">
        <line x1="2972.5" y1="147" x2="2972.5" y2="190.72499" marker-end="url(#StickArrow_Marker)" stroke="black" stroke-linecap="round" stroke-linejoin="round" stroke-width="1"/>
      </g>
      <g id="Graphic_125">
        <path d="M 2908 310.75 L 3037 310.75 C 3041.9706 310.75 3046 314.77944 3046 319.75 L 3046 383.75 C 3046 388.72056 3041.9706 392.75 3037 392.75 L 2908 392.75 C 2903.0294 392.75 2899 388.72056 2899 383.75 L 2899 319.75 C 2899 314.77944 2903.0294 310.75 2908 310.75 Z" stroke="black" stroke-linecap="round" stroke-linejoin="round" stroke-width="1"/>
        <text transform="translate(2904 342.526)" fill="black">
          <tspan font-family="Helvetica Neue" font-size="16" fill="black" x="32.948" y="15">Draft RFC</tspan>
        </text>
      </g>
      <g id="Graphic_126">
        <path d="M 2908 467.75 L 3037 467.75 C 3041.9706 467.75 3046 471.77944 3046 476.75 L 3046 540.75 C 3046 545.72056 3041.9706 549.75 3037 549.75 L 2908 549.75 C 2903.0294 549.75 2899 545.72056 2899 540.75 L 2899 476.75 C 2899 471.77944 2903.0294 467.75 2908 467.75 Z" stroke="black" stroke-linecap="round" stroke-linejoin="round" stroke-width="1"/>
        <text transform="translate(2904 499.526)" fill="black">
          <tspan font-family="Helvetica Neue" font-size="16" fill="black" x="24.652" y="15">RFC to CAB</tspan>
        </text>
      </g>
      <g id="Line_127">
        <line x1="2972.5" y1="257.125" x2="2972.5" y2="300.85" marker-end="url(#StickArrow_Marker)" stroke="black" stroke-linecap="round" stroke-linejoin="round" stroke-width="1"/>
      </g>
      <g id="Line_128">
        <line x1="2972.5" y1="392.75" x2="2972.5" y2="457.85" marker-end="url(#StickArrow_Marker)" stroke="black" stroke-linecap="round" stroke-linejoin="round" stroke-width="1"/>
      </g>
      <g id="Graphic_129">
        <circle cx="3134.75" cy="87" r="28.2500451407286" stroke="black" stroke-linecap="round" stroke-linejoin="round" stroke-width="1"/>
        <text transform="translate(3117.15 77.776)" fill="black">
          <tspan font-family="Helvetica Neue" font-size="16" fill="black" x="7.232" y="15">No</tspan>
        </text>
      </g>
      <g id="Line_130">
        <line x1="3032.5" y1="87" x2="3096.6" y2="87" marker-end="url(#StickArrow_Marker)" stroke="black" stroke-linecap="round" stroke-linejoin="round" stroke-width="1"/>
      </g>
      <g id="Graphic_131">
        <path d="M 3246 46 L 3375 46 C 3379.9706 46 3384 50.02944 3384 55 L 3384 119 C 3384 123.97056 3379.9706 128 3375 128 L 3246 128 C 3241.0294 128 3237 123.97056 3237 119 L 3237 55 C 3237 50.02944 3241.0294 46 3246 46 Z" fill="red"/>
        <path d="M 3246 46 L 3375 46 C 3379.9706 46 3384 50.02944 3384 55 L 3384 119 C 3384 123.97056 3379.9706 128 3375 128 L 3246 128 C 3241.0294 128 3237 123.97056 3237 119 L 3237 55 C 3237 50.02944 3241.0294 46 3246 46 Z" stroke="black" stroke-linecap="round" stroke-linejoin="round" stroke-width="1"/>
        <text transform="translate(3242 77.776)" fill="black">
          <tspan font-family="Helvetica Neue" font-size="16" fill="black" x="64.052" y="15">?</tspan>
        </text>
      </g>
      <g id="Line_132">
        <line x1="3163" y1="87" x2="3227.1" y2="87" marker-end="url(#StickArrow_Marker)" stroke="black" stroke-linecap="round" stroke-linejoin="round" stroke-width="1"/>
      </g>
      <g id="Graphic_133">
        <path d="M 2972.5 599.75 L 3032.5 659.75 L 2972.5 719.75 L 2912.5 659.75 Z" stroke="black" stroke-linecap="round" stroke-linejoin="round" stroke-width="1"/>
        <text transform="translate(2933.7 640.102)" fill="black">
          <tspan font-family="Helvetica Neue" font-size="16" fill="black" x="14.36" y="15">Did the </tspan>
          <tspan font-family="Helvetica Neue" font-size="16" fill="black" x=".44" y="33.448">RFC pass?</tspan>
        </text>
      </g>
      <g id="Graphic_134">
        <circle cx="2972.5" cy="798" r="28.2500451407285" stroke="black" stroke-linecap="round" stroke-linejoin="round" stroke-width="1"/>
        <text transform="translate(2954.9 788.776)" fill="black">
          <tspan font-family="Helvetica Neue" font-size="16" fill="black" x="5.0080004" y="15">Yes</tspan>
        </text>
      </g>
      <g id="Line_135">
        <line x1="2972.5" y1="549.75" x2="2972.5" y2="589.85" marker-end="url(#StickArrow_Marker)" stroke="black" stroke-linecap="round" stroke-linejoin="round" stroke-width="1"/>
      </g>
      <g id="Line_136">
        <line x1="2972.5" y1="719.75" x2="2972.5" y2="759.85" marker-end="url(#StickArrow_Marker)" stroke="black" stroke-linecap="round" stroke-linejoin="round" stroke-width="1"/>
      </g>
      <g id="Graphic_137">
        <circle cx="3134.75" cy="659.75" r="28.2500451407285" stroke="black" stroke-linecap="round" stroke-linejoin="round" stroke-width="1"/>
        <text transform="translate(3117.15 650.526)" fill="black">
          <tspan font-family="Helvetica Neue" font-size="16" fill="black" x="7.232" y="15">No</tspan>
        </text>
      </g>
      <g id="Line_138">
        <line x1="3032.5" y1="659.75" x2="3096.6" y2="659.75" marker-end="url(#StickArrow_Marker)" stroke="black" stroke-linecap="round" stroke-linejoin="round" stroke-width="1"/>
      </g>
      <g id="Graphic_139">
        <path d="M 3246 618.75 L 3375 618.75 C 3379.9706 618.75 3384 622.77944 3384 627.75 L 3384 691.75 C 3384 696.7206 3379.9706 700.75 3375 700.75 L 3246 700.75 C 3241.0294 700.75 3237 696.7206 3237 691.75 L 3237 627.75 C 3237 622.77944 3241.0294 618.75 3246 618.75 Z" fill="red"/>
        <path d="M 3246 618.75 L 3375 618.75 C 3379.9706 618.75 3384 622.77944 3384 627.75 L 3384 691.75 C 3384 696.7206 3379.9706 700.75 3375 700.75 L 3246 700.75 C 3241.0294 700.75 3237 696.7206 3237 691.75 L 3237 627.75 C 3237 622.77944 3241.0294 618.75 3246 618.75 Z" stroke="black" stroke-linecap="round" stroke-linejoin="round" stroke-width="1"/>
        <text transform="translate(3242 650.526)" fill="black">
          <tspan font-family="Helvetica Neue" font-size="16" fill="black" x="64.052" y="15">?</tspan>
        </text>
      </g>
      <g id="Line_140">
        <line x1="3163" y1="659.75" x2="3227.1" y2="659.75" marker-end="url(#StickArrow_Marker)" stroke="black" stroke-linecap="round" stroke-linejoin="round" stroke-width="1"/>
      </g>
      <g id="Graphic_141"/>
      <g id="Line_142">
        <line x1="2972.5" y1="826.25" x2="2972.5" y2="950.1" marker-end="url(#StickArrow_Marker)" stroke="black" stroke-linecap="round" stroke-linejoin="round" stroke-width="1"/>
      </g>
    </g>
  </g>
</svg>
