<?xml version="1.0" encoding="UTF-8" standalone="no"?>
<!DOCTYPE svg PUBLIC "-//W3C//DTD SVG 1.1//EN" "http://www.w3.org/Graphics/SVG/1.1/DTD/svg11.dtd">
<svg version="1.1" xmlns:xl="http://www.w3.org/1999/xlink" xmlns="http://www.w3.org/2000/svg" xmlns:dc="http://purl.org/dc/elements/1.1/" viewBox="121.5 -243.5 719 930" width="719" height="930">
  <defs/>
  <g id="Canvas_1" stroke-opacity="1" stroke-dasharray="none" stroke="none" fill="none" fill-opacity="1">
    <title>Canvas 1</title>
    <rect fill="white" x="121.5" y="-243.5" width="719" height="930"/>
    <g id="Canvas_1_Layer_1">
      <title>Layer 1</title>
      <g id="Graphic_2">
        <rect x="122" y="198" width="718" height="339.5" fill="white"/>
        <rect x="122" y="198" width="718" height="339.5" stroke="black" stroke-linecap="round" stroke-linejoin="round" stroke-width="1"/>
      </g>
      <g id="Graphic_4">
        <rect x="122" y="198" width="718" height="37" fill="white"/>
        <rect x="122" y="198" width="718" height="37" stroke="black" stroke-linecap="round" stroke-linejoin="round" stroke-width="1"/>
        <text transform="translate(127 207.276)" fill="black">
          <tspan font-family="Helvetica Neue" font-size="16" fill="black" x="0" y="15" xml:space="preserve">Title</tspan>
        </text>
      </g>
      <g id="Graphic_5">
        <rect x="122" y="245.5" width="718" height="37" fill="#ccc"/>
        <rect x="122" y="245.5" width="718" height="37" stroke="black" stroke-linecap="round" stroke-linejoin="round" stroke-width="1"/>
        <text transform="translate(127 254.776)" fill="black">
          <tspan font-family="Helvetica Neue" font-size="16" fill="black" x="0" y="15" xml:space="preserve">Content</tspan>
        </text>
      </g>
      <g id="Graphic_6">
        <rect x="122" y="293" width="234" height="37" fill="#ccc"/>
        <rect x="122" y="293" width="234" height="37" stroke="black" stroke-linecap="round" stroke-linejoin="round" stroke-width="1"/>
        <text transform="translate(127 302.276)" fill="black">
          <tspan font-family="Helvetica Neue" font-size="16" fill="black" x="0" y="15" xml:space="preserve">Main Member</tspan>
        </text>
      </g>
      <g id="Graphic_7">
        <rect x="364" y="293" width="234" height="37" fill="#ccc"/>
        <rect x="364" y="293" width="234" height="37" stroke="black" stroke-linecap="round" stroke-linejoin="round" stroke-width="1"/>
        <text transform="translate(369 302.276)" fill="black">
          <tspan font-family="Helvetica Neue" font-size="16" fill="black" x="0" y="15" xml:space="preserve">Other Member</tspan>
        </text>
      </g>
      <g id="Graphic_8">
        <rect x="606" y="293" width="234" height="37" fill="#ccc"/>
        <rect x="606" y="293" width="234" height="37" stroke="black" stroke-linecap="round" stroke-linejoin="round" stroke-width="1"/>
        <text transform="translate(611 302.276)" fill="black">
          <tspan font-family="Helvetica Neue" font-size="16" fill="black" x="0" y="15" xml:space="preserve">Department</tspan>
        </text>
      </g>
      <g id="Graphic_9">
        <rect x="122" y="500.5" width="234" height="37" fill="white"/>
        <rect x="122" y="500.5" width="234" height="37" stroke="black" stroke-linecap="round" stroke-linejoin="round" stroke-width="1"/>
        <text transform="translate(127 509.776)" fill="black">
          <tspan font-family="Helvetica Neue" font-size="16" fill="black" x="0" y="15" xml:space="preserve">Dates</tspan>
        </text>
      </g>
      <g id="Graphic_10">
        <rect x="364" y="500.5" width="234" height="37" fill="#ccc"/>
        <rect x="364" y="500.5" width="234" height="37" stroke="black" stroke-linecap="round" stroke-linejoin="round" stroke-width="1"/>
        <text transform="translate(369 509.776)" fill="black">
          <tspan font-family="Helvetica Neue" font-size="16" fill="black" x="0" y="15" xml:space="preserve">Reference</tspan>
        </text>
      </g>
      <g id="Graphic_11">
        <rect x="606" y="500.5" width="234" height="37" fill="#ccc"/>
        <rect x="606" y="500.5" width="234" height="37" stroke="black" stroke-linecap="round" stroke-linejoin="round" stroke-width="1"/>
        <text transform="translate(611 509.776)" fill="black">
          <tspan font-family="Helvetica Neue" font-size="16" fill="black" x="0" y="15" xml:space="preserve">House of Commons</tspan>
        </text>
      </g>
      <g id="Graphic_12">
        <rect x="122" y="340.5" width="234" height="37" fill="white"/>
        <rect x="122" y="340.5" width="234" height="37" stroke="black" stroke-linecap="round" stroke-linejoin="round" stroke-width="1"/>
        <text transform="translate(127 349.776)" fill="black">
          <tspan font-family="Helvetica Neue" font-size="16" fill="black" x="0" y="15" xml:space="preserve">Type</tspan>
        </text>
      </g>
      <g id="Graphic_13">
        <rect x="364" y="340.5" width="234" height="37" fill="#ccc"/>
        <rect x="364" y="340.5" width="234" height="37" stroke="black" stroke-linecap="round" stroke-linejoin="round" stroke-width="1"/>
        <text transform="translate(369 349.776)" fill="black">
          <tspan font-family="Helvetica Neue" font-size="16" fill="black" x="0" y="15" xml:space="preserve">Status</tspan>
        </text>
      </g>
      <g id="Graphic_14">
        <rect x="606" y="340.5" width="234" height="37" fill="#ccc"/>
        <rect x="606" y="340.5" width="234" height="37" stroke="black" stroke-linecap="round" stroke-linejoin="round" stroke-width="1"/>
        <text transform="translate(611 349.776)" fill="black">
          <tspan font-family="Helvetica Neue" font-size="16" fill="black" x="0" y="15" xml:space="preserve">Corporate author</tspan>
        </text>
      </g>
      <g id="Graphic_15">
        <circle cx="339.75" cy="311.5" r="9.25001478059255" fill="yellow"/>
        <circle cx="339.75" cy="311.5" r="9.25001478059255" stroke="black" stroke-linecap="round" stroke-linejoin="round" stroke-width="1"/>
      </g>
      <g id="Graphic_16">
        <circle cx="581.75" cy="311.5" r="9.25001478059254" fill="yellow"/>
        <circle cx="581.75" cy="311.5" r="9.25001478059254" stroke="black" stroke-linecap="round" stroke-linejoin="round" stroke-width="1"/>
      </g>
      <g id="Graphic_17">
        <circle cx="821.75" cy="311.5" r="9.25001478059256" fill="yellow"/>
        <circle cx="821.75" cy="311.5" r="9.25001478059256" stroke="black" stroke-linecap="round" stroke-linejoin="round" stroke-width="1"/>
      </g>
      <g id="Graphic_18">
        <circle cx="339.75" cy="359" r="9.25001478059254" fill="yellow"/>
        <circle cx="339.75" cy="359" r="9.25001478059254" stroke="black" stroke-linecap="round" stroke-linejoin="round" stroke-width="1"/>
      </g>
      <g id="Graphic_19">
        <circle cx="821.75" cy="359" r="9.25001478059256" fill="yellow"/>
        <circle cx="821.75" cy="359" r="9.25001478059256" stroke="black" stroke-linecap="round" stroke-linejoin="round" stroke-width="1"/>
      </g>
      <g id="Graphic_20">
        <circle cx="821.75" cy="519" r="9.25001478059256" fill="yellow"/>
        <circle cx="821.75" cy="519" r="9.25001478059256" stroke="black" stroke-linecap="round" stroke-linejoin="round" stroke-width="1"/>
      </g>
      <g id="Graphic_21">
        <circle cx="177.25" cy="630" r="9.25001478059254" fill="yellow"/>
        <circle cx="177.25" cy="630" r="9.25001478059254" stroke="black" stroke-linecap="round" stroke-linejoin="round" stroke-width="1"/>
      </g>
      <g id="Graphic_22">
        <rect x="201.5" y="615.5" width="120" height="29" fill="white"/>
        <text transform="translate(206.5 620.776)" fill="black">
          <tspan font-family="Helvetica Neue" font-size="16" fill="black" x="0" y="15" xml:space="preserve">Can be many</tspan>
        </text>
      </g>
      <g id="Graphic_23">
        <rect x="160" y="649" width="34.5" height="37" fill="#ccc"/>
        <rect x="160" y="649" width="34.5" height="37" stroke="black" stroke-linecap="round" stroke-linejoin="round" stroke-width="1"/>
      </g>
      <g id="Graphic_24">
        <rect x="201.5" y="653" width="120" height="29" fill="white"/>
        <text transform="translate(206.5 658.276)" fill="black">
          <tspan font-family="Helvetica Neue" font-size="16" fill="black" x="0" y="15" xml:space="preserve">Can be null</tspan>
        </text>
      </g>
      <g id="Graphic_25">
        <rect x="201.5" y="578" width="120" height="29" fill="white"/>
        <text transform="translate(206.5 583.276)" fill="black">
          <tspan font-family="Helvetica Neue" font-size="16" fill="black" x="0" y="15" xml:space="preserve">Labelled</tspan>
        </text>
      </g>
      <g id="Graphic_26">
        <circle cx="177.25" cy="592.5" r="9.25001478059255" fill="aqua"/>
        <circle cx="177.25" cy="592.5" r="9.25001478059255" stroke="black" stroke-linecap="round" stroke-linejoin="round" stroke-width="1"/>
      </g>
      <g id="Graphic_27">
        <circle cx="312.25" cy="311.5" r="9.25001478059255" fill="aqua"/>
        <circle cx="312.25" cy="311.5" r="9.25001478059255" stroke="black" stroke-linecap="round" stroke-linejoin="round" stroke-width="1"/>
      </g>
      <g id="Graphic_29">
        <circle cx="555.75" cy="311.5" r="9.25001478059255" fill="aqua"/>
        <circle cx="555.75" cy="311.5" r="9.25001478059255" stroke="black" stroke-linecap="round" stroke-linejoin="round" stroke-width="1"/>
      </g>
      <g id="Graphic_30">
        <rect x="122" y="377.5" width="718" height="122.5" fill="white"/>
        <rect x="122" y="377.5" width="718" height="122.5" stroke="black" stroke-linecap="round" stroke-linejoin="round" stroke-width="1"/>
        <text transform="translate(127 429.526)" fill="black">
          <tspan font-family="Helvetica Neue" font-size="16" fill="black" x="214.728" y="15" xml:space="preserve">THE DETAILED STUFF WILL GO HERE</tspan>
        </text>
      </g>
      <g id="Graphic_51">
        <rect x="122" y="-243" width="718" height="339.5" fill="white"/>
        <rect x="122" y="-243" width="718" height="339.5" stroke="black" stroke-linecap="round" stroke-linejoin="round" stroke-width="1"/>
      </g>
      <g id="Graphic_50">
        <rect x="122" y="-243" width="718" height="37" fill="white"/>
        <rect x="122" y="-243" width="718" height="37" stroke="black" stroke-linecap="round" stroke-linejoin="round" stroke-width="1"/>
        <text transform="translate(127 -233.724)" fill="black">
          <tspan font-family="Helvetica Neue" font-size="16" fill="black" x="0" y="15" xml:space="preserve">Title</tspan>
        </text>
      </g>
      <g id="Graphic_49">
        <rect x="122" y="-195.5" width="718" height="37" fill="white"/>
        <rect x="122" y="-195.5" width="718" height="37" stroke="black" stroke-linecap="round" stroke-linejoin="round" stroke-width="1"/>
        <text transform="translate(127 -186.224)" fill="black">
          <tspan font-family="Helvetica Neue" font-size="16" fill="black" x="0" y="15" xml:space="preserve">Content</tspan>
        </text>
      </g>
      <g id="Graphic_48">
        <rect x="122" y="-148" width="234" height="37" fill="white"/>
        <rect x="122" y="-148" width="234" height="37" stroke="black" stroke-linecap="round" stroke-linejoin="round" stroke-width="1"/>
        <text transform="translate(127 -138.724)" fill="black">
          <tspan font-family="Helvetica Neue" font-size="16" fill="black" x="0" y="15" xml:space="preserve">Primary person</tspan>
        </text>
      </g>
      <g id="Graphic_47">
        <rect x="364" y="-148" width="234" height="37" fill="white"/>
        <rect x="364" y="-148" width="234" height="37" stroke="black" stroke-linecap="round" stroke-linejoin="round" stroke-width="1"/>
        <text transform="translate(369 -138.724)" fill="black">
          <tspan font-family="Helvetica Neue" font-size="16" fill="black" x="0" y="15" xml:space="preserve">Secondary person</tspan>
        </text>
      </g>
      <g id="Graphic_46">
        <rect x="606" y="-148" width="234" height="37" fill="white"/>
        <rect x="606" y="-148" width="234" height="37" stroke="black" stroke-linecap="round" stroke-linejoin="round" stroke-width="1"/>
        <text transform="translate(611 -138.724)" fill="black">
          <tspan font-family="Helvetica Neue" font-size="16" fill="black" x="0" y="15" xml:space="preserve">Primary group</tspan>
        </text>
      </g>
      <g id="Graphic_45">
        <rect x="122" y="59.5" width="234" height="37" fill="white"/>
        <rect x="122" y="59.5" width="234" height="37" stroke="black" stroke-linecap="round" stroke-linejoin="round" stroke-width="1"/>
        <text transform="translate(127 68.776)" fill="black">
          <tspan font-family="Helvetica Neue" font-size="16" fill="black" x="0" y="15" xml:space="preserve">Significant date</tspan>
        </text>
      </g>
      <g id="Graphic_44">
        <rect x="364" y="59.5" width="234" height="37" fill="white"/>
        <rect x="364" y="59.5" width="234" height="37" stroke="black" stroke-linecap="round" stroke-linejoin="round" stroke-width="1"/>
        <text transform="translate(369 68.776)" fill="black">
          <tspan font-family="Helvetica Neue" font-size="16" fill="black" x="0" y="15" xml:space="preserve">Reference</tspan>
        </text>
      </g>
      <g id="Graphic_43">
        <rect x="606" y="59.5" width="234" height="37" fill="white"/>
        <rect x="606" y="59.5" width="234" height="37" stroke="black" stroke-linecap="round" stroke-linejoin="round" stroke-width="1"/>
        <text transform="translate(611 68.776)" fill="black">
          <tspan font-family="Helvetica Neue" font-size="16" fill="black" x="0" y="15" xml:space="preserve">House</tspan>
        </text>
      </g>
      <g id="Graphic_42">
        <rect x="122" y="-100.5" width="234" height="37" fill="white"/>
        <rect x="122" y="-100.5" width="234" height="37" stroke="black" stroke-linecap="round" stroke-linejoin="round" stroke-width="1"/>
        <text transform="translate(127 -91.224)" fill="black">
          <tspan font-family="Helvetica Neue" font-size="16" fill="black" x="0" y="15" xml:space="preserve">Type</tspan>
        </text>
      </g>
      <g id="Graphic_41">
        <rect x="364" y="-100.5" width="234" height="37" fill="white"/>
        <rect x="364" y="-100.5" width="234" height="37" stroke="black" stroke-linecap="round" stroke-linejoin="round" stroke-width="1"/>
        <text transform="translate(369 -91.224)" fill="black">
          <tspan font-family="Helvetica Neue" font-size="16" fill="black" x="0" y="15" xml:space="preserve">Status</tspan>
        </text>
      </g>
      <g id="Graphic_40">
        <rect x="606" y="-100.5" width="234" height="37" fill="white"/>
        <rect x="606" y="-100.5" width="234" height="37" stroke="black" stroke-linecap="round" stroke-linejoin="round" stroke-width="1"/>
        <text transform="translate(611 -91.224)" fill="black">
          <tspan font-family="Helvetica Neue" font-size="16" fill="black" x="0" y="15" xml:space="preserve">Secondary group</tspan>
        </text>
      </g>
      <g id="Graphic_31">
        <rect x="122" y="-63.5" width="718" height="122.5" fill="white"/>
        <rect x="122" y="-63.5" width="718" height="122.5" stroke="black" stroke-linecap="round" stroke-linejoin="round" stroke-width="1"/>
        <text transform="translate(127 -11.473999)" fill="black">
          <tspan font-family="Helvetica Neue" font-size="16" fill="black" x="214.728" y="15" xml:space="preserve">THE DETAILED STUFF WILL GO HERE</tspan>
        </text>
      </g>
    </g>
  </g>
</svg>
