<?xml version="1.0" encoding="UTF-8" standalone="no"?>
<!DOCTYPE svg PUBLIC "-//W3C//DTD SVG 1.1//EN" "http://www.w3.org/Graphics/SVG/1.1/DTD/svg11.dtd">
<svg xmlns="http://www.w3.org/2000/svg" version="1.1" xmlns:dc="http://purl.org/dc/elements/1.1/" xmlns:xl="http://www.w3.org/1999/xlink" viewBox="167.37703 34.46332 1565.0915 742.4308" width="1565.0915" height="742.4308">
  <defs>
    <marker orient="auto" overflow="visible" markerUnits="strokeWidth" id="StickArrow_Marker" stroke-linejoin="miter" stroke-miterlimit="10" viewBox="-1 -4 10 8" markerWidth="10" markerHeight="8" color="black">
      <g>
        <path d="M 8 0 L 0 0 M 0 -3 L 8 0 L 0 3" fill="none" stroke="currentColor" stroke-width="1"/>
      </g>
    </marker>
    <marker orient="auto" overflow="visible" markerUnits="strokeWidth" id="StickArrow_Marker_2" stroke-linejoin="miter" stroke-miterlimit="10" viewBox="-9 -4 10 8" markerWidth="10" markerHeight="8" color="black">
      <g>
        <path d="M -8 0 L 0 0 M 0 3 L -8 0 L 0 -3" fill="none" stroke="currentColor" stroke-width="1"/>
      </g>
    </marker>
    <marker orient="auto" overflow="visible" markerUnits="strokeWidth" id="StickArrow_Marker_3" stroke-linejoin="miter" stroke-miterlimit="10" viewBox="-1 -4 10 8" markerWidth="10" markerHeight="8" color="#895b13">
      <g>
        <path d="M 8 0 L 0 0 M 0 -3 L 8 0 L 0 3" fill="none" stroke="currentColor" stroke-width="1"/>
      </g>
    </marker>
  </defs>
  <g id="Canvas_1" stroke-dasharray="none" fill-opacity="1" stroke="none" stroke-opacity="1" fill="none">
    <title>Canvas 1</title>
    <rect fill="white" x="167.37703" y="34.46332" width="1565.0915" height="742.4308"/>
    <g id="Canvas_1_Layer_1">
      <title>Layer 1</title>
      <g id="Graphic_1019">
        <ellipse cx="675.59055" cy="500.91965" rx="65.1969541919032" ry="29.7638269136949" fill="white"/>
        <ellipse cx="675.59055" cy="500.91965" rx="65.1969541919032" ry="29.7638269136949" stroke="black" stroke-linecap="round" stroke-linejoin="round" stroke-width="1"/>
        <text transform="translate(628.4331 488.63965)" fill="black">
          <tspan font-family="Helvetica Neue" font-size="10" fill="black" x="12.807478" y="10">UpperTierLocal</tspan>
          <tspan font-family="Helvetica Neue" font-size="10" fill="black" x="16.877478" y="22.28">AuthorityArea</tspan>
        </text>
      </g>
      <g id="Graphic_1018">
        <ellipse cx="426.14173" cy="500.91965" rx="65.1969541919031" ry="29.7638269136949" fill="white"/>
        <ellipse cx="426.14173" cy="500.91965" rx="65.1969541919031" ry="29.7638269136949" stroke="black" stroke-linecap="round" stroke-linejoin="round" stroke-width="1"/>
        <text transform="translate(378.98425 494.77965)" fill="black">
          <tspan font-family="Helvetica Neue" font-size="10" fill="black" x="7.522478" y="10">ConstituencyArea</tspan>
        </text>
      </g>
      <g id="Graphic_1017">
        <ellipse cx="1398.4537" cy="168.46608" rx="65.1969541919033" ry="29.7638269136949" fill="white"/>
        <ellipse cx="1398.4537" cy="168.46608" rx="65.1969541919033" ry="29.7638269136949" stroke="black" stroke-linecap="round" stroke-linejoin="round" stroke-width="1"/>
        <text transform="translate(1351.2962 162.32608)" fill="black">
          <tspan font-family="Helvetica Neue" font-size="10" fill="black" x="10.862478" y="10">GeographicArea</tspan>
        </text>
      </g>
      <g id="Line_1014">
        <line x1="453.67814" y1="473.50445" x2="726.0777" y2="202.30393" marker-end="url(#StickArrow_Marker)" stroke="black" stroke-linecap="round" stroke-linejoin="round" stroke-dasharray="4.0,4.0" stroke-width="1"/>
      </g>
      <g id="Graphic_1012">
        <rect x="1611.9685" y="153.07087" width="120" height="28.346457" fill="white"/>
        <rect x="1611.9685" y="153.07087" width="120" height="28.346457" stroke="black" stroke-linecap="round" stroke-linejoin="round" stroke-width="1"/>
        <text transform="translate(1616.9685 160.0761)" fill="black">
          <tspan font-family="Helvetica Neue" font-size="12" fill="black" x="26.776" y="11">rdfs:Literal</tspan>
        </text>
      </g>
      <g id="Line_1011">
        <line x1="1464.1475" y1="168.17258" x2="1601.5686" y2="167.55862" marker-end="url(#StickArrow_Marker)" stroke="black" stroke-linecap="round" stroke-linejoin="round" stroke-width="1"/>
      </g>
      <g id="Graphic_1010">
        <rect x="1517.9675" y="156.67545" width="52.23" height="22.28" fill="white"/>
        <text transform="translate(1522.9675 161.67545)" fill="black">
          <tspan font-family="Helvetica Neue" font-size="10" fill="black" x="0" y="10">geometry</tspan>
        </text>
      </g>
      <g id="Graphic_1009">
        <ellipse cx="885.3543" cy="500.91965" rx="65.1969541919032" ry="29.7638269136949" fill="white"/>
        <ellipse cx="885.3543" cy="500.91965" rx="65.1969541919032" ry="29.7638269136949" stroke="black" stroke-linecap="round" stroke-linejoin="round" stroke-width="1"/>
        <text transform="translate(838.1968 488.63965)" fill="black">
          <tspan font-family="Helvetica Neue" font-size="10" fill="black" x="12.907478" y="10">LowerTierLocal</tspan>
          <tspan font-family="Helvetica Neue" font-size="10" fill="black" x="16.877478" y="22.28">AuthorityArea</tspan>
        </text>
      </g>
      <g id="Line_1008">
        <line x1="683.26396" y1="470.87043" x2="750.507" y2="207.54524" marker-end="url(#StickArrow_Marker)" stroke="black" stroke-linecap="round" stroke-linejoin="round" stroke-dasharray="4.0,4.0" stroke-width="1"/>
      </g>
      <g id="Line_1007">
        <line x1="874.1901" y1="471.111" x2="775.26645" y2="206.98357" marker-end="url(#StickArrow_Marker)" stroke="black" stroke-linecap="round" stroke-linejoin="round" stroke-dasharray="4.0,4.0" stroke-width="1"/>
      </g>
      <g id="Graphic_1006">
        <ellipse cx="1095.1181" cy="500.91965" rx="65.1969541919031" ry="29.7638269136949" fill="white"/>
        <ellipse cx="1095.1181" cy="500.91965" rx="65.1969541919031" ry="29.7638269136949" stroke="black" stroke-linecap="round" stroke-linejoin="round" stroke-width="1"/>
        <text transform="translate(1047.9606 488.63965)" fill="black">
          <tspan font-family="Helvetica Neue" font-size="10" fill="black" x="23.907478" y="10">Combined</tspan>
          <tspan font-family="Helvetica Neue" font-size="10" fill="black" x="16.877478" y="22.28">AuthorityArea</tspan>
        </text>
      </g>
      <g id="Line_1005">
        <line x1="1067.5817" y1="473.50445" x2="795.1821" y2="202.30393" marker-end="url(#StickArrow_Marker)" stroke="black" stroke-linecap="round" stroke-linejoin="round" stroke-dasharray="4.0,4.0" stroke-width="1"/>
      </g>
      <g id="Graphic_1004">
        <ellipse cx="1304.8819" cy="499.55737" rx="65.1969541919033" ry="29.7638269136949" fill="white"/>
        <ellipse cx="1304.8819" cy="499.55737" rx="65.1969541919033" ry="29.7638269136949" stroke="black" stroke-linecap="round" stroke-linejoin="round" stroke-width="1"/>
        <text transform="translate(1257.7244 493.4174)" fill="black">
          <tspan font-family="Helvetica Neue" font-size="10" fill="black" x="15.212478" y="10">EnglishRegion</tspan>
        </text>
      </g>
      <g id="Line_1003">
        <line x1="1313.3609" y1="469.55567" x2="1387.2823" y2="207.99462" marker-end="url(#StickArrow_Marker)" stroke="black" stroke-linecap="round" stroke-linejoin="round" stroke-dasharray="4.0,4.0" stroke-width="1"/>
      </g>
      <g id="Graphic_1002">
        <ellipse cx="1514.6457" cy="499.55737" rx="65.1969541919032" ry="29.7638269136949" fill="white"/>
        <ellipse cx="1514.6457" cy="499.55737" rx="65.1969541919032" ry="29.7638269136949" stroke="black" stroke-linecap="round" stroke-linejoin="round" stroke-width="1"/>
        <text transform="translate(1467.4882 493.4174)" fill="black">
          <tspan font-family="Helvetica Neue" font-size="10" fill="black" x="29.37748" y="10">Country</tspan>
        </text>
      </g>
      <g id="Line_1001">
        <line x1="1504.1657" y1="469.69445" x2="1412.212" y2="207.67047" marker-end="url(#StickArrow_Marker)" stroke="black" stroke-linecap="round" stroke-linejoin="round" stroke-dasharray="4.0,4.0" stroke-width="1"/>
      </g>
      <g id="Graphic_1000">
        <ellipse cx="426.14173" cy="318.14005" rx="65.1969541919031" ry="29.7638269136949" fill="white"/>
        <ellipse cx="426.14173" cy="318.14005" rx="65.1969541919031" ry="29.7638269136949" stroke="black" stroke-linecap="round" stroke-linejoin="round" stroke-width="1"/>
        <text transform="translate(378.98425 312.00005)" fill="black">
          <tspan font-family="Helvetica Neue" font-size="10" fill="black" x="17.987478" y="10">BoundarySet</tspan>
        </text>
      </g>
      <g id="Line_999">
        <line x1="426.14173" y1="470.65586" x2="426.14173" y2="358.30384" marker-end="url(#StickArrow_Marker)" stroke="black" stroke-linecap="round" stroke-linejoin="round" stroke-width="1"/>
      </g>
      <g id="Graphic_998">
        <rect x="398.54673" y="399.0991" width="55.19" height="22.28" fill="white"/>
        <text transform="translate(403.54673 404.0991)" fill="black">
          <tspan font-family="Helvetica Neue" font-size="10" fill="black" x="0" y="10">definedBy</tspan>
        </text>
      </g>
      <g id="Graphic_997">
        <ellipse cx="425.19685" cy="168.66142" rx="65.1969541919033" ry="29.7638269136949" fill="white"/>
        <ellipse cx="425.19685" cy="168.66142" rx="65.1969541919033" ry="29.7638269136949" stroke="black" stroke-linecap="round" stroke-linejoin="round" stroke-width="1"/>
        <text transform="translate(378.03937 162.52142)" fill="black">
          <tspan font-family="Helvetica Neue" font-size="10" fill="black" x="14.282478" y="10">StatutoryThing</tspan>
        </text>
      </g>
      <g id="Line_996">
        <line x1="694.9338" y1="168.0522" x2="500.7929" y2="168.49068" marker-end="url(#StickArrow_Marker)" stroke="black" stroke-linecap="round" stroke-linejoin="round" stroke-width="1"/>
      </g>
      <g id="Graphic_995">
        <rect x="557.61215" y="157.13995" width="72.97" height="22.28" fill="white"/>
        <text transform="translate(562.61215 162.13995)" fill="black">
          <tspan font-family="Helvetica Neue" font-size="10" fill="black" x="58264504e-20" y="10">establishedBy</tspan>
        </text>
      </g>
      <g id="Line_991">
        <path d="M 1426.1851 132.41865 C 1440.941 117.33656 1465.415 99.19585 1455.1466 91.98569 C 1443.1103 83.53422 1359.9852 81.2357 1347.43 89.15104 C 1334.875 97.06638 1369.0167 122.70701 1379.8084 139.48248" marker-start="url(#StickArrow_Marker_2)" stroke="black" stroke-linecap="round" stroke-linejoin="round" stroke-width="1"/>
      </g>
      <g id="Graphic_990">
        <rect x="1356.5587" y="73.3899" width="96.29" height="22.28" fill="white"/>
        <text transform="translate(1361.5587 78.3899)" fill="black">
          <tspan font-family="Helvetica Neue" font-size="10" fill="black" x="0" y="10">whollyContainedBy</tspan>
        </text>
      </g>
      <g id="Line_989">
        <path d="M 1374.375 140.36022 C 1350.2682 112.2214 1280.0883 70.00473 1302.0472 55.935326 C 1324.0062 41.86592 1485.6671 41.7888 1506.1417 55.935326 C 1525.0188 68.97804 1463.0505 106.07801 1432.046 133.96171" marker-end="url(#StickArrow_Marker)" stroke="black" stroke-linecap="round" stroke-linejoin="round" stroke-width="1"/>
      </g>
      <g id="Graphic_988">
        <rect x="1379.2458" y="34.46332" width="92.97" height="22.28" fill="white"/>
        <text transform="translate(1384.2458 39.46332)" fill="black">
          <tspan font-family="Helvetica Neue" font-size="10" fill="black" x="0" y="10">partlyContainedBy</tspan>
        </text>
      </g>
      <g id="Line_987">
        <path d="M 848.4528 525.8725 C 825.7949 541.19375 803.1303 571.84083 780.4724 571.84083 C 760.461 571.84083 740.4442 547.93465 720.4315 531.7949" marker-end="url(#StickArrow_Marker)" stroke="black" stroke-linecap="round" stroke-linejoin="round" stroke-width="1"/>
      </g>
      <g id="Graphic_986">
        <rect x="691.7263" y="560.063" width="165.92" height="22.28" fill="white"/>
        <text transform="translate(696.7263 565.063)" fill="black">
          <tspan font-family="Helvetica Neue" font-size="10" fill="black" x="0" y="10">isAlsoUpperTierLocalAuthorityArea</tspan>
        </text>
      </g>
      <g id="Graphic_985">
        <ellipse cx="760.6299" cy="167.90383" rx="65.1969541919033" ry="29.7638269136949" fill="white"/>
        <ellipse cx="760.6299" cy="167.90383" rx="65.1969541919033" ry="29.7638269136949" stroke="black" stroke-linecap="round" stroke-linejoin="round" stroke-width="1"/>
        <text transform="translate(713.4724 149.48383)" fill="black">
          <tspan font-family="Helvetica Neue" font-size="10" fill="black" x="10.862478" y="10">GeographicArea</tspan>
          <tspan font-family="Helvetica Neue" font-size="10" fill="black" x="21.227478" y="22.28">Established</tspan>
          <tspan font-family="Helvetica Neue" font-size="10" fill="black" x="25.117478" y="34.559998">ByStatute</tspan>
        </text>
      </g>
      <g id="Line_984">
        <line x1="826.3267" y1="167.96174" x2="1322.857" y2="168.39944" marker-end="url(#StickArrow_Marker)" stroke="black" stroke-linecap="round" stroke-linejoin="round" stroke-dasharray="4.0,4.0" stroke-width="1"/>
      </g>
      <g id="Line_983">
        <line x1="425.95043" y1="287.8764" x2="425.45073" y2="208.82488" marker-end="url(#StickArrow_Marker)" stroke="black" stroke-linecap="round" stroke-linejoin="round" stroke-width="1"/>
      </g>
      <g id="Graphic_982">
        <rect x="360.13803" y="237.598" width="131.13" height="22.28" fill="white"/>
        <text transform="translate(365.13803 242.598)" fill="black">
          <tspan font-family="Helvetica Neue" font-size="10" fill="black" x="5115908e-19" y="10">boundarySetEstablishedBy</tspan>
        </text>
      </g>
      <g id="Line_1025">
        <path d="M 1371.8515 196.07853 C 1348.5857 220.22785 1322.1832 265.43457 1302.0472 268.53375 C 1281.9113 271.63293 1243.9957 228.51888 1251.0236 214.67548 C 1257.3782 202.1583 1303.0398 196.35522 1334.6929 188.161" marker-end="url(#StickArrow_Marker_3)" stroke="#895b13" stroke-linecap="round" stroke-linejoin="round" stroke-width="1"/>
      </g>
      <g id="Graphic_1024">
        <rect x="1214.9662" y="230.9532" width="92.8" height="22.28" fill="white"/>
        <text transform="translate(1219.9662 235.9532)" fill="black">
          <tspan font-family="Helvetica Neue" font-size="10" fill="black" x="0" y="10">partlyFormedFrom</tspan>
        </text>
      </g>
      <g id="Line_1027">
        <path d="M 1337.9649 180.2285 C 1283.4047 190.83806 1183.0881 187.42402 1174.268 212.06036 C 1165.448 236.6967 1251.0806 330.5393 1285.0394 328.0613 C 1316.9718 325.73116 1343.6755 250.63348 1372.5218 205.41217" marker-end="url(#StickArrow_Marker_3)" stroke="#895b13" stroke-linecap="round" stroke-linejoin="round" stroke-width="1"/>
      </g>
      <g id="Graphic_1026">
        <rect x="1159.2245" y="262.11906" width="96.12" height="22.28" fill="white"/>
        <text transform="translate(1164.2245 267.11906)" fill="black">
          <tspan font-family="Helvetica Neue" font-size="10" fill="black" x="0" y="10">whollyFormedFrom</tspan>
        </text>
      </g>
      <g id="Line_1030">
        <path d="M 412.8175 347.75437 C 348.91883 489.7748 47.42079 746.4529 221.10236 773.8583 C 393.42705 801.0495 1033.6383 602.5527 1445.329 514.2679" marker-end="url(#StickArrow_Marker)" stroke="black" stroke-linecap="round" stroke-linejoin="round" stroke-width="1"/>
      </g>
      <g id="Graphic_1029">
        <rect x="437.3767" y="739.27986" width="52.41" height="22.28" fill="white"/>
        <text transform="translate(442.3767 744.27986)" fill="black">
          <tspan font-family="Helvetica Neue" font-size="10" fill="black" x="0" y="10">appliesTo</tspan>
        </text>
      </g>
      <g id="Graphic_1031">
        <ellipse cx="425.19685" cy="647.7165" rx="65.1969541919033" ry="29.7638269136949" fill="white"/>
        <ellipse cx="425.19685" cy="647.7165" rx="65.1969541919033" ry="29.7638269136949" stroke="black" stroke-linecap="round" stroke-linejoin="round" stroke-width="1"/>
        <text transform="translate(378.03937 635.4365)" fill="black">
          <tspan font-family="Helvetica Neue" font-size="10" fill="black" x="7.522478" y="10">ConstituencyArea</tspan>
          <tspan font-family="Helvetica Neue" font-size="10" fill="black" x="36.69248" y="22.28">Type</tspan>
        </text>
      </g>
      <g id="Line_1033">
        <line x1="425.94693" y1="531.1833" x2="425.45537" y2="607.5531" marker-end="url(#StickArrow_Marker)" stroke="black" stroke-linecap="round" stroke-linejoin="round" stroke-width="1"/>
      </g>
      <g id="Graphic_1032">
        <rect x="362.6075" y="562.6776" width="126.13" height="22.28" fill="white"/>
        <text transform="translate(367.6075 567.6776)" fill="black">
          <tspan font-family="Helvetica Neue" font-size="10" fill="black" x="50448534e-20" y="10">hasConstituencyAreaType</tspan>
        </text>
      </g>
    </g>
  </g>
</svg>
