<?xml version="1.0" encoding="UTF-8" standalone="no"?>
<!DOCTYPE svg PUBLIC "-//W3C//DTD SVG 1.1//EN" "http://www.w3.org/Graphics/SVG/1.1/DTD/svg11.dtd">
<svg xmlns="http://www.w3.org/2000/svg" xmlns:dc="http://purl.org/dc/elements/1.1/" version="1.1" xmlns:xl="http://www.w3.org/1999/xlink" viewBox="-18.452757 38.055555 1629.0315 547.8797" width="1629.0315" height="547.8797">
  <defs>
    <marker orient="auto" overflow="visible" markerUnits="strokeWidth" id="StickArrow_Marker" stroke-linejoin="miter" stroke-miterlimit="10" viewBox="-1 -4 10 8" markerWidth="10" markerHeight="8" color="black">
      <g>
        <path d="M 8 0 L 0 0 M 0 -3 L 8 0 L 0 3" fill="none" stroke="currentColor" stroke-width="1"/>
      </g>
    </marker>
    <marker orient="auto" overflow="visible" markerUnits="strokeWidth" id="StickArrow_Marker_2" stroke-linejoin="miter" stroke-miterlimit="10" viewBox="-9 -4 10 8" markerWidth="10" markerHeight="8" color="black">
      <g>
        <path d="M -8 0 L 0 0 M 0 3 L -8 0 L 0 -3" fill="none" stroke="currentColor" stroke-width="1"/>
      </g>
    </marker>
    <marker orient="auto" overflow="visible" markerUnits="strokeWidth" id="StickArrow_Marker_3" stroke-linejoin="miter" stroke-miterlimit="10" viewBox="-1 -4 10 8" markerWidth="10" markerHeight="8" color="#895b13">
      <g>
        <path d="M 8 0 L 0 0 M 0 -3 L 8 0 L 0 3" fill="none" stroke="currentColor" stroke-width="1"/>
      </g>
    </marker>
  </defs>
  <g id="Canvas_1" fill-opacity="1" fill="none" stroke-dasharray="none" stroke="none" stroke-opacity="1">
    <title>Canvas 1</title>
    <rect fill="white" x="0" y="38.055555" width="1610.5787" height="547.8797"/>
    <g id="Canvas_1_Layer_1">
      <title>Layer 1</title>
      <g id="Graphic_1019">
        <ellipse cx="552.7559" cy="504.5119" rx="65.1969541919032" ry="29.763826913695" fill="white"/>
        <ellipse cx="552.7559" cy="504.5119" rx="65.1969541919032" ry="29.763826913695" stroke="black" stroke-linecap="round" stroke-linejoin="round" stroke-width="1"/>
        <text transform="translate(505.5984 492.2319)" fill="black">
          <tspan font-family="Helvetica Neue" font-size="10" fill="black" x="12.807478" y="10">UpperTierLocal</tspan>
          <tspan font-family="Helvetica Neue" font-size="10" fill="black" x="16.877478" y="22.28">AuthorityArea</tspan>
        </text>
      </g>
      <g id="Graphic_1018">
        <ellipse cx="303.3071" cy="504.5119" rx="65.1969541919032" ry="29.763826913695" fill="white"/>
        <ellipse cx="303.3071" cy="504.5119" rx="65.1969541919032" ry="29.763826913695" stroke="black" stroke-linecap="round" stroke-linejoin="round" stroke-width="1"/>
        <text transform="translate(256.1496 498.3719)" fill="black">
          <tspan font-family="Helvetica Neue" font-size="10" fill="black" x="7.522478" y="10">ConstituencyArea</tspan>
        </text>
      </g>
      <g id="Graphic_1017">
        <ellipse cx="1275.619" cy="172.05831" rx="65.1969541919033" ry="29.7638269136949" fill="white"/>
        <ellipse cx="1275.619" cy="172.05831" rx="65.1969541919033" ry="29.7638269136949" stroke="black" stroke-linecap="round" stroke-linejoin="round" stroke-width="1"/>
        <text transform="translate(1228.4616 165.91831)" fill="black">
          <tspan font-family="Helvetica Neue" font-size="10" fill="black" x="10.862478" y="10">GeographicArea</tspan>
        </text>
      </g>
      <g id="Line_1016">
        <line x1="1338.7886" y1="163.77364" x2="1479.767" y2="145.28435" marker-end="url(#StickArrow_Marker)" stroke="black" stroke-linecap="round" stroke-linejoin="round" stroke-width="1"/>
      </g>
      <g id="Graphic_1015">
        <rect x="1393.7532" y="141.90302" width="53.71" height="22.28" fill="white"/>
        <text transform="translate(1398.7532 146.90302)" fill="black">
          <tspan font-family="Helvetica Neue" font-size="10" fill="black" x="0" y="10">ons_code</tspan>
        </text>
      </g>
      <g id="Line_1014">
        <line x1="330.8435" y1="477.0967" x2="603.2431" y2="205.89616" marker-end="url(#StickArrow_Marker)" stroke="black" stroke-linecap="round" stroke-linejoin="round" stroke-dasharray="4.0,4.0" stroke-width="1"/>
      </g>
      <g id="Graphic_1013">
        <rect x="1490.0787" y="121.88976" width="120" height="28.346457" fill="white"/>
        <rect x="1490.0787" y="121.88976" width="120" height="28.346457" stroke="black" stroke-linecap="round" stroke-linejoin="round" stroke-width="1"/>
        <text transform="translate(1495.0787 128.89499)" fill="black">
          <tspan font-family="Helvetica Neue" font-size="12" fill="black" x="26.776" y="11">rdfs:Literal</tspan>
        </text>
      </g>
      <g id="Graphic_1012">
        <rect x="1490.0787" y="201.25984" width="120" height="28.346457" fill="white"/>
        <rect x="1490.0787" y="201.25984" width="120" height="28.346457" stroke="black" stroke-linecap="round" stroke-linejoin="round" stroke-width="1"/>
        <text transform="translate(1495.0787 208.26507)" fill="black">
          <tspan font-family="Helvetica Neue" font-size="12" fill="black" x="26.776" y="11">rdfs:Literal</tspan>
        </text>
      </g>
      <g id="Line_1011">
        <line x1="1337.7366" y1="181.87518" x2="1479.8062" y2="204.32742" marker-end="url(#StickArrow_Marker)" stroke="black" stroke-linecap="round" stroke-linejoin="round" stroke-width="1"/>
      </g>
      <g id="Graphic_1010">
        <rect x="1394.013" y="183.75607" width="52.23" height="22.28" fill="white"/>
        <text transform="translate(1399.013 188.75607)" fill="black">
          <tspan font-family="Helvetica Neue" font-size="10" fill="black" x="0" y="10">geometry</tspan>
        </text>
      </g>
      <g id="Graphic_1009">
        <ellipse cx="762.5197" cy="504.5119" rx="65.1969541919032" ry="29.763826913695" fill="white"/>
        <ellipse cx="762.5197" cy="504.5119" rx="65.1969541919032" ry="29.763826913695" stroke="black" stroke-linecap="round" stroke-linejoin="round" stroke-width="1"/>
        <text transform="translate(715.3622 492.2319)" fill="black">
          <tspan font-family="Helvetica Neue" font-size="10" fill="black" x="12.907478" y="10">LowerTierLocal</tspan>
          <tspan font-family="Helvetica Neue" font-size="10" fill="black" x="16.877478" y="22.28">AuthorityArea</tspan>
        </text>
      </g>
      <g id="Line_1008">
        <line x1="560.4293" y1="474.46266" x2="627.6724" y2="211.13747" marker-end="url(#StickArrow_Marker)" stroke="black" stroke-linecap="round" stroke-linejoin="round" stroke-dasharray="4.0,4.0" stroke-width="1"/>
      </g>
      <g id="Line_1007">
        <line x1="751.35545" y1="474.70324" x2="652.4318" y2="210.5758" marker-end="url(#StickArrow_Marker)" stroke="black" stroke-linecap="round" stroke-linejoin="round" stroke-dasharray="4.0,4.0" stroke-width="1"/>
      </g>
      <g id="Graphic_1006">
        <ellipse cx="972.2835" cy="504.5119" rx="65.1969541919032" ry="29.763826913695" fill="white"/>
        <ellipse cx="972.2835" cy="504.5119" rx="65.1969541919032" ry="29.763826913695" stroke="black" stroke-linecap="round" stroke-linejoin="round" stroke-width="1"/>
        <text transform="translate(925.126 492.2319)" fill="black">
          <tspan font-family="Helvetica Neue" font-size="10" fill="black" x="23.907478" y="10">Combined</tspan>
          <tspan font-family="Helvetica Neue" font-size="10" fill="black" x="16.877478" y="22.28">AuthorityArea</tspan>
        </text>
      </g>
      <g id="Line_1005">
        <line x1="944.747" y1="477.0967" x2="672.3475" y2="205.89616" marker-end="url(#StickArrow_Marker)" stroke="black" stroke-linecap="round" stroke-linejoin="round" stroke-dasharray="4.0,4.0" stroke-width="1"/>
      </g>
      <g id="Graphic_1004">
        <ellipse cx="1182.0472" cy="503.1496" rx="65.1969541919033" ry="29.7638269136949" fill="white"/>
        <ellipse cx="1182.0472" cy="503.1496" rx="65.1969541919033" ry="29.7638269136949" stroke="black" stroke-linecap="round" stroke-linejoin="round" stroke-width="1"/>
        <text transform="translate(1134.8898 497.0096)" fill="black">
          <tspan font-family="Helvetica Neue" font-size="10" fill="black" x="15.212478" y="10">EnglishRegion</tspan>
        </text>
      </g>
      <g id="Line_1003">
        <line x1="1190.5262" y1="473.1479" x2="1264.4476" y2="211.58686" marker-end="url(#StickArrow_Marker)" stroke="black" stroke-linecap="round" stroke-linejoin="round" stroke-dasharray="4.0,4.0" stroke-width="1"/>
      </g>
      <g id="Graphic_1002">
        <ellipse cx="1391.811" cy="503.1496" rx="65.1969541919032" ry="29.7638269136949" fill="white"/>
        <ellipse cx="1391.811" cy="503.1496" rx="65.1969541919032" ry="29.7638269136949" stroke="black" stroke-linecap="round" stroke-linejoin="round" stroke-width="1"/>
        <text transform="translate(1344.6535 497.0096)" fill="black">
          <tspan font-family="Helvetica Neue" font-size="10" fill="black" x="29.37748" y="10">Country</tspan>
        </text>
      </g>
      <g id="Line_1001">
        <line x1="1381.331" y1="473.2867" x2="1289.3773" y2="211.2627" marker-end="url(#StickArrow_Marker)" stroke="black" stroke-linecap="round" stroke-linejoin="round" stroke-dasharray="4.0,4.0" stroke-width="1"/>
      </g>
      <g id="Graphic_1000">
        <ellipse cx="303.3071" cy="321.7323" rx="65.1969541919032" ry="29.7638269136949" fill="white"/>
        <ellipse cx="303.3071" cy="321.7323" rx="65.1969541919032" ry="29.7638269136949" stroke="black" stroke-linecap="round" stroke-linejoin="round" stroke-width="1"/>
        <text transform="translate(256.1496 315.5923)" fill="black">
          <tspan font-family="Helvetica Neue" font-size="10" fill="black" x="17.987478" y="10">BoundarySet</tspan>
        </text>
      </g>
      <g id="Line_999">
        <line x1="303.3071" y1="474.2481" x2="303.3071" y2="361.89608" marker-end="url(#StickArrow_Marker)" stroke="black" stroke-linecap="round" stroke-linejoin="round" stroke-width="1"/>
      </g>
      <g id="Graphic_998">
        <rect x="275.7121" y="402.69134" width="55.19" height="22.28" fill="white"/>
        <text transform="translate(280.7121 407.69134)" fill="black">
          <tspan font-family="Helvetica Neue" font-size="10" fill="black" x="0" y="10">definedBy</tspan>
        </text>
      </g>
      <g id="Graphic_997">
        <ellipse cx="303.3071" cy="174.3307" rx="65.1969541919032" ry="29.7638269136949" fill="white"/>
        <ellipse cx="303.3071" cy="174.3307" rx="65.1969541919032" ry="29.7638269136949" stroke="black" stroke-linecap="round" stroke-linejoin="round" stroke-width="1"/>
        <text transform="translate(256.1496 168.1907)" fill="black">
          <tspan font-family="Helvetica Neue" font-size="10" fill="black" x="14.282478" y="10">StatutoryThing</tspan>
        </text>
      </g>
      <g id="Line_996">
        <line x1="572.1096" y1="172.05272" x2="378.89243" y2="173.69015" marker-end="url(#StickArrow_Marker)" stroke="black" stroke-linecap="round" stroke-linejoin="round" stroke-width="1"/>
      </g>
      <g id="Graphic_995">
        <rect x="435.2446" y="161.7634" width="72.97" height="22.28" fill="white"/>
        <text transform="translate(440.2446 166.7634)" fill="black">
          <tspan font-family="Helvetica Neue" font-size="10" fill="black" x="58264504e-20" y="10">establishedBy</tspan>
        </text>
      </g>
      <g id="Graphic_994">
        <rect x="-17.952757" y="306.14173" width="120" height="28.346457" fill="white"/>
        <rect x="-17.952757" y="306.14173" width="120" height="28.346457" stroke="black" stroke-linecap="round" stroke-linejoin="round" stroke-width="1"/>
        <text transform="translate(-12.952757 313.14696)" fill="black">
          <tspan font-family="Helvetica Neue" font-size="12" fill="black" x="31.774" y="11">xsd:date</tspan>
        </text>
      </g>
      <g id="Line_993">
        <line x1="237.61478" y1="321.3759" x2="112.44709" y2="320.69687" marker-end="url(#StickArrow_Marker)" stroke="black" stroke-linecap="round" stroke-linejoin="round" stroke-width="1"/>
      </g>
      <g id="Graphic_992">
        <rect x="137.88987" y="309.87175" width="65.2" height="22.28" fill="white"/>
        <text transform="translate(142.88987 314.87175)" fill="black">
          <tspan font-family="Helvetica Neue" font-size="10" fill="black" x="3623768e-19" y="10">appliesFrom</tspan>
        </text>
      </g>
      <g id="Line_991">
        <path d="M 1303.3505 136.01088 C 1318.1064 120.92879 1342.5804 102.78808 1332.312 95.57792 C 1320.2757 87.12645 1237.1505 84.82793 1224.5954 92.74327 C 1212.0403 100.65861 1246.1821 126.29924 1256.9738 143.07471" marker-start="url(#StickArrow_Marker_2)" stroke="black" stroke-linecap="round" stroke-linejoin="round" stroke-width="1"/>
      </g>
      <g id="Graphic_990">
        <rect x="1233.7241" y="76.98213" width="96.29" height="22.28" fill="white"/>
        <text transform="translate(1238.7241 81.98213)" fill="black">
          <tspan font-family="Helvetica Neue" font-size="10" fill="black" x="0" y="10">whollyContainedBy</tspan>
        </text>
      </g>
      <g id="Line_989">
        <path d="M 1251.5404 143.95245 C 1227.4335 115.81363 1157.2537 73.59697 1179.2126 59.52756 C 1201.1715 45.45815 1362.8325 45.38103 1383.307 59.52756 C 1402.1841 72.57027 1340.2159 109.67024 1309.2113 137.55394" marker-end="url(#StickArrow_Marker)" stroke="black" stroke-linecap="round" stroke-linejoin="round" stroke-width="1"/>
      </g>
      <g id="Graphic_988">
        <rect x="1256.4112" y="38.055555" width="92.97" height="22.28" fill="white"/>
        <text transform="translate(1261.4112 43.055555)" fill="black">
          <tspan font-family="Helvetica Neue" font-size="10" fill="black" x="0" y="10">partlyContainedBy</tspan>
        </text>
      </g>
      <g id="Line_987">
        <path d="M 725.6181 529.46474 C 702.9603 544.786 680.2956 575.4331 657.6378 575.4331 C 637.6263 575.4331 617.6095 551.5269 597.5968 535.3871" marker-end="url(#StickArrow_Marker)" stroke="black" stroke-linecap="round" stroke-linejoin="round" stroke-width="1"/>
      </g>
      <g id="Graphic_986">
        <rect x="568.8917" y="563.65525" width="165.92" height="22.28" fill="white"/>
        <text transform="translate(573.8917 568.65525)" fill="black">
          <tspan font-family="Helvetica Neue" font-size="10" fill="black" x="0" y="10">isAlsoUpperTierLocalAuthorityArea</tspan>
        </text>
      </g>
      <g id="Graphic_985">
        <ellipse cx="637.7953" cy="171.49606" rx="65.1969541919032" ry="29.7638269136949" fill="white"/>
        <ellipse cx="637.7953" cy="171.49606" rx="65.1969541919032" ry="29.7638269136949" stroke="black" stroke-linecap="round" stroke-linejoin="round" stroke-width="1"/>
        <text transform="translate(590.6378 153.07606)" fill="black">
          <tspan font-family="Helvetica Neue" font-size="10" fill="black" x="10.862478" y="10">GeographicArea</tspan>
          <tspan font-family="Helvetica Neue" font-size="10" fill="black" x="21.227478" y="22.28">Established</tspan>
          <tspan font-family="Helvetica Neue" font-size="10" fill="black" x="25.117478" y="34.559998">ByStatute</tspan>
        </text>
      </g>
      <g id="Line_984">
        <line x1="703.492" y1="171.55397" x2="1200.0223" y2="171.99167" marker-end="url(#StickArrow_Marker)" stroke="black" stroke-linecap="round" stroke-linejoin="round" stroke-dasharray="4.0,4.0" stroke-width="1"/>
      </g>
      <g id="Line_983">
        <line x1="303.3071" y1="291.4685" x2="303.3071" y2="214.4945" marker-end="url(#StickArrow_Marker)" stroke="black" stroke-linecap="round" stroke-linejoin="round" stroke-width="1"/>
      </g>
      <g id="Graphic_982">
        <rect x="237.74208" y="237.3955" width="131.13" height="22.28" fill="white"/>
        <text transform="translate(242.74208 242.3955)" fill="black">
          <tspan font-family="Helvetica Neue" font-size="10" fill="black" x="5115908e-19" y="10">boundarySetEstablishedBy</tspan>
        </text>
      </g>
      <g id="Line_1021">
        <path d="M 365.4989 331.44976 C 390.12018 335.29683 427.05945 349.57167 439.3701 342.99212 C 451.6807 336.41257 452.1626 297.67322 439.3701 291.9685 C 428.0979 286.94178 396.95473 299.46592 372.20725 306.34288" marker-end="url(#StickArrow_Marker)" stroke="black" stroke-linecap="round" stroke-linejoin="round" stroke-width="1"/>
      </g>
      <g id="Graphic_1020">
        <rect x="421.3724" y="306.2057" width="54.82" height="22.28" fill="white"/>
        <text transform="translate(426.3724 311.2057)" fill="black">
          <tspan font-family="Helvetica Neue" font-size="10" fill="black" x="0" y="10">revisionOf</tspan>
        </text>
      </g>
      <g id="Graphic_1022">
        <rect x="387.40157" y="235.2756" width="120" height="45.35433" fill="aqua"/>
        <rect x="387.40157" y="235.2756" width="120" height="45.35433" stroke="black" stroke-linecap="round" stroke-linejoin="round" stroke-width="1"/>
        <text transform="translate(392.40157 248.72876)" fill="black">
          <tspan font-family="Helvetica Neue" font-size="16" fill="black" x="5.224" y="15">Interim review</tspan>
        </text>
      </g>
      <g id="Line_1025">
        <path d="M 1249.0169 199.67076 C 1225.7511 223.82009 1199.3486 269.0268 1179.2126 272.12598 C 1159.0766 275.22517 1121.1611 232.1111 1128.189 218.26772 C 1134.5436 205.75053 1180.2051 199.94746 1211.8582 191.75323" marker-end="url(#StickArrow_Marker_3)" stroke="#895b13" stroke-linecap="round" stroke-linejoin="round" stroke-width="1"/>
      </g>
      <g id="Graphic_1024">
        <rect x="1092.1316" y="234.54542" width="92.8" height="22.28" fill="white"/>
        <text transform="translate(1097.1316 239.54542)" fill="black">
          <tspan font-family="Helvetica Neue" font-size="10" fill="black" x="0" y="10">partlyFormedFrom</tspan>
        </text>
      </g>
      <g id="Line_1027">
        <path d="M 1215.1302 183.82074 C 1160.57 194.4303 1060.2534 191.01625 1051.4334 215.6526 C 1042.6134 240.28893 1128.246 334.13155 1162.2047 331.65354 C 1194.1372 329.3234 1220.8409 254.2257 1249.6871 209.0044" marker-end="url(#StickArrow_Marker_3)" stroke="#895b13" stroke-linecap="round" stroke-linejoin="round" stroke-width="1"/>
      </g>
      <g id="Graphic_1026">
        <rect x="1036.3898" y="265.7113" width="96.12" height="22.28" fill="white"/>
        <text transform="translate(1041.3898 270.7113)" fill="black">
          <tspan font-family="Helvetica Neue" font-size="10" fill="black" x="0" y="10">whollyFormedFrom</tspan>
        </text>
      </g>
    </g>
  </g>
</svg>
