<?xml version="1.0" encoding="UTF-8" standalone="no"?>
<!DOCTYPE svg PUBLIC "-//W3C//DTD SVG 1.1//EN" "http://www.w3.org/Graphics/SVG/1.1/DTD/svg11.dtd">
<svg xmlns:xl="http://www.w3.org/1999/xlink" xmlns="http://www.w3.org/2000/svg" xmlns:dc="http://purl.org/dc/elements/1.1/" version="1.1" viewBox="47 99 2817 585" width="2817" height="585">
  <defs>
    <marker orient="auto" overflow="visible" markerUnits="strokeWidth" id="StickArrow_Marker" stroke-linejoin="miter" stroke-miterlimit="10" viewBox="-1 -4 10 8" markerWidth="10" markerHeight="8" color="black">
      <g>
        <path d="M 8 0 L 0 0 M 0 -3 L 8 0 L 0 3" fill="none" stroke="currentColor" stroke-width="1"/>
      </g>
    </marker>
  </defs>
  <g id="Canvas_1" stroke-opacity="1" stroke="none" stroke-dasharray="none" fill="none" fill-opacity="1">
    <title>Canvas 1</title>
    <rect fill="white" x="47" y="99" width="2817" height="585"/>
    <g id="Canvas_1_Layer_1">
      <title>Layer 1</title>
      <g id="Graphic_52">
        <rect x="48" y="508" width="2814.5" height="175.5" fill="#ccc"/>
        <rect x="48" y="508" width="2814.5" height="175.5" stroke="black" stroke-linecap="round" stroke-linejoin="round" stroke-width="1"/>
      </g>
      <g id="Graphic_51">
        <rect x="48" y="508" width="104.5" height="175.5" fill="aqua"/>
        <rect x="48" y="508" width="104.5" height="175.5" stroke="black" stroke-linecap="round" stroke-linejoin="round" stroke-width="1"/>
        <text transform="translate(53 577.302)" fill="black">
          <tspan font-family="Helvetica Neue" font-size="16" fill="black" x="15.41" y="15">Software </tspan>
          <tspan font-family="Helvetica Neue" font-size="16" fill="black" x="5.026" y="33.448">Engineering</tspan>
        </text>
      </g>
      <g id="Graphic_34">
        <rect x="48" y="332.5" width="2814.5" height="175.5" fill="#ccc"/>
        <rect x="48" y="332.5" width="2814.5" height="175.5" stroke="black" stroke-linecap="round" stroke-linejoin="round" stroke-width="1"/>
      </g>
      <g id="Graphic_2">
        <rect x="48" y="157" width="2814.5" height="175.5" fill="#ccc"/>
        <rect x="48" y="157" width="2814.5" height="175.5" stroke="black" stroke-linecap="round" stroke-linejoin="round" stroke-width="1"/>
      </g>
      <g id="Graphic_3">
        <rect x="48" y="157" width="104.5" height="175.5" fill="aqua"/>
        <rect x="48" y="157" width="104.5" height="175.5" stroke="black" stroke-linecap="round" stroke-linejoin="round" stroke-width="1"/>
        <text transform="translate(53 226.302)" fill="black">
          <tspan font-family="Helvetica Neue" font-size="16" fill="black" x="18.65" y="15">Content</tspan>
          <tspan font-family="Helvetica Neue" font-size="16" fill="black" x="22.658" y="33.448">editors</tspan>
        </text>
      </g>
      <g id="Graphic_4">
        <path d="M 318.05 203 L 351.45 203 L 376.5 228.05 L 376.5 261.45 L 351.45 286.5 L 318.05 286.5 L 293 261.45 L 293 228.05 Z" fill="white"/>
        <path d="M 318.05 203 L 351.45 203 L 376.5 228.05 L 376.5 261.45 L 351.45 286.5 L 318.05 286.5 L 293 261.45 L 293 228.05 Z" stroke="black" stroke-linecap="round" stroke-linejoin="round" stroke-width="1"/>
        <text transform="translate(298 223.246)" fill="black">
          <tspan font-family="Helvetica Neue" font-size="12" fill="black" x="12.744" y="11">Does the </tspan>
          <tspan font-family="Helvetica Neue" font-size="12" fill="black" x="3.966" y="25.336">term exist in </tspan>
          <tspan font-family="Helvetica Neue" font-size="12" fill="black" x="13.188" y="39.671997">intranet?</tspan>
        </text>
      </g>
      <g id="Graphic_5">
        <rect x="167.5" y="210.5" width="83.5" height="68.5" fill="white"/>
        <rect x="167.5" y="210.5" width="83.5" height="68.5" stroke="black" stroke-linecap="round" stroke-linejoin="round" stroke-width="1"/>
        <text transform="translate(172.5 216.078)" fill="black">
          <tspan font-family="Helvetica Neue" font-size="12" fill="black" x="15.966" y="11">Want to </tspan>
          <tspan font-family="Helvetica Neue" font-size="12" fill="black" x="3.864" y="25.336">categorise a </tspan>
          <tspan font-family="Helvetica Neue" font-size="12" fill="black" x="15.306" y="39.671997">piece of </tspan>
          <tspan font-family="Helvetica Neue" font-size="12" fill="black" x="16.41" y="54.007996">content</tspan>
        </text>
      </g>
      <g id="Line_6">
        <line x1="251" y1="244.75" x2="283.1" y2="244.75" marker-end="url(#StickArrow_Marker)" stroke="black" stroke-linecap="round" stroke-linejoin="round" stroke-width="1"/>
      </g>
      <g id="Graphic_7">
        <rect x="443" y="206" width="83.5" height="68.5" fill="white"/>
        <rect x="443" y="206" width="83.5" height="68.5" stroke="black" stroke-linecap="round" stroke-linejoin="round" stroke-width="1"/>
        <text transform="translate(448 233.082)" fill="black">
          <tspan font-family="Helvetica Neue" font-size="12" fill="black" x="7.644" y="11">Categorise</tspan>
        </text>
      </g>
      <g id="Line_8">
        <line x1="376.5" y1="243.4975" x2="433.10445" y2="241.79937" marker-end="url(#StickArrow_Marker)" stroke="black" stroke-linecap="round" stroke-linejoin="round" stroke-width="1"/>
      </g>
      <g id="Graphic_9">
        <rect x="393.86616" y="231.45042" width="25.74" height="22.28" fill="white"/>
        <text transform="translate(398.86616 236.45042)" fill="black">
          <tspan font-family="Helvetica Neue" font-size="10" fill="black" x="7993606e-19" y="10">Yes</tspan>
        </text>
      </g>
      <g id="Line_11">
        <path d="M 374.5659 263.3841 C 405.1091 276.3686 449.5357 292.55814 494.5 299.5 C 524.0485 304.06187 548.7442 303.84507 568.1817 301.73626" marker-end="url(#StickArrow_Marker)" stroke="black" stroke-linecap="round" stroke-linejoin="round" stroke-width="1"/>
      </g>
      <g id="Graphic_10">
        <rect x="450.7283" y="281.88868" width="22.96" height="22.28" fill="white"/>
        <text transform="translate(455.7283 286.88868)" fill="black">
          <tspan font-family="Helvetica Neue" font-size="10" fill="black" x="0" y="10">No</tspan>
        </text>
      </g>
      <g id="Graphic_12">
        <path d="M 603.05 160 L 636.45 160 L 661.5 185.05 L 661.5 218.45 L 636.45 243.5 L 603.05 243.5 L 578 218.45 L 578 185.05 Z" fill="white"/>
        <path d="M 603.05 160 L 636.45 160 L 661.5 185.05 L 661.5 218.45 L 636.45 243.5 L 603.05 243.5 L 578 218.45 L 578 185.05 Z" stroke="black" stroke-linecap="round" stroke-linejoin="round" stroke-width="1"/>
        <text transform="translate(583 165.91)" fill="black">
          <tspan font-family="Helvetica Neue" font-size="12" fill="black" x="12.744" y="11">Does the </tspan>
          <tspan font-family="Helvetica Neue" font-size="12" fill="black" x="12.078" y="25.336">guidance </tspan>
          <tspan font-family="Helvetica Neue" font-size="12" fill="black" x="10.524" y="39.671997">suggest a </tspan>
          <tspan font-family="Helvetica Neue" font-size="12" fill="black" x="10.968" y="54.007996">change is </tspan>
          <tspan font-family="Helvetica Neue" font-size="12" fill="black" x="10.968" y="68.343994">possible?</tspan>
        </text>
      </g>
      <g id="Graphic_13">
        <path d="M 603.05 247 L 636.45 247 L 661.5 272.05 L 661.5 305.45 L 636.45 330.5 L 603.05 330.5 L 578 305.45 L 578 272.05 Z" fill="white"/>
        <path d="M 603.05 247 L 636.45 247 L 661.5 272.05 L 661.5 305.45 L 636.45 330.5 L 603.05 330.5 L 578 305.45 L 578 272.05 Z" stroke="black" stroke-linecap="round" stroke-linejoin="round" stroke-width="1"/>
        <text transform="translate(583 260.078)" fill="black">
          <tspan font-family="Helvetica Neue" font-size="12" fill="black" x="12.744" y="11">Does the </tspan>
          <tspan font-family="Helvetica Neue" font-size="12" fill="black" x="12.078" y="25.336">guidance </tspan>
          <tspan font-family="Helvetica Neue" font-size="12" fill="black" x="10.524" y="39.671997">suggest a </tspan>
          <tspan font-family="Helvetica Neue" font-size="12" fill="black" x="8.412" y="54.007996">new term?</tspan>
        </text>
      </g>
      <g id="Line_16">
        <path d="M 363.53224 215.08224 C 384.8675 197.1191 417.6521 176.46477 460.5 170 C 500.46676 163.96993 539.8862 171.6889 569.5075 181.02302" marker-end="url(#StickArrow_Marker)" stroke="black" stroke-linecap="round" stroke-linejoin="round" stroke-width="1"/>
      </g>
      <g id="Graphic_15">
        <rect x="423.62035" y="159.70664" width="63.53" height="22.28" fill="white"/>
        <text transform="translate(428.62034 164.70664)" fill="black">
          <tspan font-family="Helvetica Neue" font-size="10" fill="black" x="0" y="10">Similar term</tspan>
        </text>
      </g>
      <g id="Graphic_17">
        <rect x="944" y="296.48954" width="83.5" height="68.5" fill="white"/>
        <rect x="944" y="296.48954" width="83.5" height="68.5" stroke="black" stroke-linecap="round" stroke-linejoin="round" stroke-width="1"/>
        <text transform="translate(949 309.23554)" fill="black">
          <tspan font-family="Helvetica Neue" font-size="12" fill="black" x="15.858" y="11">Change </tspan>
          <tspan font-family="Helvetica Neue" font-size="12" fill="black" x="16.632" y="25.336">request</tspan>
          <tspan font-family="Helvetica Neue" font-size="12" fill="black" x="4.524" y="39.671997">(Sharepoint)</tspan>
        </text>
      </g>
      <g id="Line_19">
        <line x1="578" y1="273.75093" x2="535.817" y2="258.5963" marker-end="url(#StickArrow_Marker)" stroke="black" stroke-linecap="round" stroke-linejoin="round" stroke-width="1"/>
      </g>
      <g id="Graphic_18">
        <rect x="543.104" y="254.19852" width="22.96" height="22.28" fill="white"/>
        <text transform="translate(548.104 259.19852)" fill="black">
          <tspan font-family="Helvetica Neue" font-size="10" fill="black" x="0" y="10">No</tspan>
        </text>
      </g>
      <g id="Line_21">
        <line x1="578" y1="213.65648" x2="536.0204" y2="225.62844" marker-end="url(#StickArrow_Marker)" stroke="black" stroke-linecap="round" stroke-linejoin="round" stroke-width="1"/>
      </g>
      <g id="Graphic_20">
        <rect x="543.104" y="209.19437" width="22.96" height="22.28" fill="white"/>
        <text transform="translate(548.104 214.19437)" fill="black">
          <tspan font-family="Helvetica Neue" font-size="10" fill="black" x="0" y="10">No</tspan>
        </text>
      </g>
      <g id="Line_23">
        <line x1="661.5" y1="216.46397" x2="934.6629" y2="312.7349" marker-end="url(#StickArrow_Marker)" stroke="black" stroke-linecap="round" stroke-linejoin="round" stroke-width="1"/>
      </g>
      <g id="Graphic_22">
        <rect x="777.07685" y="250.59255" width="25.74" height="22.28" fill="white"/>
        <text transform="translate(782.07685 255.59255)" fill="black">
          <tspan font-family="Helvetica Neue" font-size="10" fill="black" x="7993606e-19" y="10">Yes</tspan>
        </text>
      </g>
      <g id="Line_25">
        <line x1="661.5" y1="293.5398" x2="934.1645" y2="324.82137" marker-end="url(#StickArrow_Marker)" stroke="black" stroke-linecap="round" stroke-linejoin="round" stroke-width="1"/>
      </g>
      <g id="Graphic_24">
        <rect x="777.07685" y="297.13592" width="25.74" height="22.28" fill="white"/>
        <text transform="translate(782.07685 302.13592)" fill="black">
          <tspan font-family="Helvetica Neue" font-size="10" fill="black" x="7993606e-19" y="10">Yes</tspan>
        </text>
      </g>
      <g id="Graphic_33">
        <rect x="48" y="332.5" width="104.5" height="175.5" fill="aqua"/>
        <rect x="48" y="332.5" width="104.5" height="175.5" stroke="black" stroke-linecap="round" stroke-linejoin="round" stroke-width="1"/>
        <text transform="translate(53 411.026)" fill="black">
          <tspan font-family="Helvetica Neue" font-size="16" fill="black" x="27.394" y="15">IDMS</tspan>
        </text>
      </g>
      <g id="Graphic_35">
        <path d="M 1082.55 389 L 1115.95 389 L 1141 414.05 L 1141 447.45 L 1115.95 472.5 L 1082.55 472.5 L 1057.5 447.45 L 1057.5 414.05 Z" fill="white"/>
        <path d="M 1082.55 389 L 1115.95 389 L 1141 414.05 L 1141 447.45 L 1115.95 472.5 L 1082.55 472.5 L 1057.5 447.45 L 1057.5 414.05 Z" stroke="black" stroke-linecap="round" stroke-linejoin="round" stroke-width="1"/>
        <text transform="translate(1062.5 402.078)" fill="black">
          <tspan font-family="Helvetica Neue" font-size="12" fill="black" x="12.744" y="11">Does the </tspan>
          <tspan font-family="Helvetica Neue" font-size="12" fill="black" x="16.968" y="25.336">change </tspan>
          <tspan font-family="Helvetica Neue" font-size="12" fill="black" x="19.962" y="39.671997">match </tspan>
          <tspan font-family="Helvetica Neue" font-size="12" fill="black" x="17.526" y="54.007996">policy?</tspan>
        </text>
      </g>
      <g id="Line_37">
        <line x1="1024.6197" y1="364.98954" x2="1060.7507" y2="396.8264" marker-end="url(#StickArrow_Marker)" stroke="black" stroke-linecap="round" stroke-linejoin="round" stroke-width="1"/>
      </g>
      <g id="Graphic_38">
        <rect x="1214.5" y="297.13592" width="83.5" height="68.5" fill="white"/>
        <rect x="1214.5" y="297.13592" width="83.5" height="68.5" stroke="black" stroke-linecap="round" stroke-linejoin="round" stroke-width="1"/>
        <text transform="translate(1219.5 309.88192)" fill="black">
          <tspan font-family="Helvetica Neue" font-size="12" fill="black" x="15.858" y="11">Change </tspan>
          <tspan font-family="Helvetica Neue" font-size="12" fill="black" x="15.192" y="25.336">rejected</tspan>
          <tspan font-family="Helvetica Neue" font-size="12" fill="black" x="4.524" y="39.671997">(Sharepoint)</tspan>
        </text>
      </g>
      <g id="Line_40">
        <line x1="1135.0454" y1="408.0954" x2="1206.1346" y2="363.10355" marker-end="url(#StickArrow_Marker)" stroke="black" stroke-linecap="round" stroke-linejoin="round" stroke-width="1"/>
      </g>
      <g id="Graphic_39">
        <rect x="1159.6917" y="374.0913" width="22.96" height="22.28" fill="white"/>
        <text transform="translate(1164.6917 379.0913)" fill="black">
          <tspan font-family="Helvetica Neue" font-size="10" fill="black" x="0" y="10">No</tspan>
        </text>
      </g>
      <g id="Graphic_41">
        <rect x="1493" y="399.59413" width="83.5" height="68.5" fill="white"/>
        <rect x="1493" y="399.59413" width="83.5" height="68.5" stroke="black" stroke-linecap="round" stroke-linejoin="round" stroke-width="1"/>
        <text transform="translate(1498 405.17213)" fill="black">
          <tspan font-family="Helvetica Neue" font-size="12" fill="black" x="15.858" y="11">Change </tspan>
          <tspan font-family="Helvetica Neue" font-size="12" fill="black" x="15.294" y="25.336">made in </tspan>
          <tspan font-family="Helvetica Neue" font-size="12" fill="black" x="12.3" y="39.671997">Ontology </tspan>
          <tspan font-family="Helvetica Neue" font-size="12" fill="black" x="13.08" y="54.007996">Manager</tspan>
        </text>
      </g>
      <g id="Line_43">
        <path d="M 1141 427.2979 C 1182.892 423.01826 1249.3035 414.01733 1307 396.3713 C 1336.0308 387.49244 1358.5773 377.73323 1375.8526 368.51734" marker-end="url(#StickArrow_Marker)" stroke="black" stroke-linecap="round" stroke-linejoin="round" stroke-width="1"/>
      </g>
      <g id="Graphic_42">
        <rect x="1237.3929" y="399.59413" width="25.74" height="22.28" fill="white"/>
        <text transform="translate(1242.3929 404.59413)" fill="black">
          <tspan font-family="Helvetica Neue" font-size="10" fill="black" x="7993606e-19" y="10">Yes</tspan>
        </text>
      </g>
      <g id="Graphic_44">
        <rect x="1622.5" y="399.59413" width="83.5" height="68.5" fill="white"/>
        <rect x="1622.5" y="399.59413" width="83.5" height="68.5" stroke="black" stroke-linecap="round" stroke-linejoin="round" stroke-width="1"/>
        <text transform="translate(1627.5 412.34013)" fill="black">
          <tspan font-family="Helvetica Neue" font-size="12" fill="black" x="5.19" y="11">Export from </tspan>
          <tspan font-family="Helvetica Neue" font-size="12" fill="black" x="12.3" y="25.336">Ontology </tspan>
          <tspan font-family="Helvetica Neue" font-size="12" fill="black" x="13.08" y="39.671997">Manager</tspan>
        </text>
      </g>
      <g id="Line_46">
        <line x1="1576.5" y1="433.84413" x2="1612.6" y2="433.84413" marker-end="url(#StickArrow_Marker)" stroke="black" stroke-linecap="round" stroke-linejoin="round" stroke-width="1"/>
      </g>
      <g id="Graphic_47">
        <rect x="1751.5" y="399.59413" width="83.5" height="68.5" fill="white"/>
        <rect x="1751.5" y="399.59413" width="83.5" height="68.5" stroke="black" stroke-linecap="round" stroke-linejoin="round" stroke-width="1"/>
        <text transform="translate(1756.5 412.34013)" fill="black">
          <tspan font-family="Helvetica Neue" font-size="12" fill="black" x="15.858" y="11">Change </tspan>
          <tspan font-family="Helvetica Neue" font-size="12" fill="black" x="12.63" y="25.336">added to </tspan>
          <tspan font-family="Helvetica Neue" font-size="12" fill="black" x="2.742" y="39.671997">Spreadsheet</tspan>
        </text>
      </g>
      <g id="Line_48">
        <line x1="1706" y1="433.84413" x2="1741.6" y2="433.84413" marker-end="url(#StickArrow_Marker)" stroke="black" stroke-linecap="round" stroke-linejoin="round" stroke-width="1"/>
      </g>
      <g id="Graphic_49">
        <rect x="1902" y="399.59413" width="83.5" height="68.5" fill="white"/>
        <rect x="1902" y="399.59413" width="83.5" height="68.5" stroke="black" stroke-linecap="round" stroke-linejoin="round" stroke-width="1"/>
        <text transform="translate(1907 412.34013)" fill="black">
          <tspan font-family="Helvetica Neue" font-size="12" fill="black" x="15.858" y="11">Change </tspan>
          <tspan font-family="Helvetica Neue" font-size="12" fill="black" x="9.738" y="25.336">pushed to </tspan>
          <tspan font-family="Helvetica Neue" font-size="12" fill="black" x="17.748" y="39.671997">GitHub</tspan>
        </text>
      </g>
      <g id="Line_50">
        <line x1="1835" y1="433.84413" x2="1892.1" y2="433.84413" marker-end="url(#StickArrow_Marker)" stroke="black" stroke-linecap="round" stroke-linejoin="round" stroke-width="1"/>
      </g>
      <g id="Graphic_53">
        <rect x="1384.5" y="296.48954" width="83.5" height="68.5" fill="white"/>
        <rect x="1384.5" y="296.48954" width="83.5" height="68.5" stroke="black" stroke-linecap="round" stroke-linejoin="round" stroke-width="1"/>
        <text transform="translate(1389.5 302.06754)" fill="black">
          <tspan font-family="Helvetica Neue" font-size="12" fill="black" x="15.858" y="11">Change </tspan>
          <tspan font-family="Helvetica Neue" font-size="12" fill="black" x="3.528" y="25.336">provisionally </tspan>
          <tspan font-family="Helvetica Neue" font-size="12" fill="black" x="11.634" y="39.671997">accepted</tspan>
          <tspan font-family="Helvetica Neue" font-size="12" fill="black" x="4.524" y="54.007996">(Sharepoint)</tspan>
        </text>
      </g>
      <g id="Line_54">
        <line x1="1462.2923" y1="364.98954" x2="1491.5312" y2="392.7745" marker-end="url(#StickArrow_Marker)" stroke="black" stroke-linecap="round" stroke-linejoin="round" stroke-width="1"/>
      </g>
      <g id="Graphic_55">
        <rect x="2195.5" y="556.5" width="83.5" height="68.5" fill="white"/>
        <rect x="2195.5" y="556.5" width="83.5" height="68.5" stroke="black" stroke-linecap="round" stroke-linejoin="round" stroke-width="1"/>
        <text transform="translate(2200.5 562.078)" fill="black">
          <tspan font-family="Helvetica Neue" font-size="12" fill="black" x="19.188" y="11">Import </tspan>
          <tspan font-family="Helvetica Neue" font-size="12" fill="black" x="3.63" y="25.336">spreadsheet </tspan>
          <tspan font-family="Helvetica Neue" font-size="12" fill="black" x="4.632" y="39.671997">into Intranet </tspan>
          <tspan font-family="Helvetica Neue" font-size="12" fill="black" x="23.304" y="54.007996">CMS</tspan>
        </text>
      </g>
      <g id="Line_56">
        <line x1="1985.5" y1="455.4812" x2="2038.7103" y2="483.0576" marker-end="url(#StickArrow_Marker)" stroke="black" stroke-linecap="round" stroke-linejoin="round" stroke-width="1"/>
      </g>
      <g id="Graphic_57">
        <rect x="2047.5" y="475" width="83.5" height="68.5" fill="white"/>
        <rect x="2047.5" y="475" width="83.5" height="68.5" stroke="black" stroke-linecap="round" stroke-linejoin="round" stroke-width="1"/>
        <text transform="translate(2052.5 494.914)" fill="black">
          <tspan font-family="Helvetica Neue" font-size="12" fill="black" x="5.526" y="11">Raise ticket</tspan>
          <tspan font-family="Helvetica Neue" font-size="12" fill="black" x="1.434" y="25.336">(ServiceNow)</tspan>
        </text>
      </g>
      <g id="Line_58">
        <line x1="2131" y1="532.2407" x2="2186.828" y2="562.9838" marker-end="url(#StickArrow_Marker)" stroke="black" stroke-linecap="round" stroke-linejoin="round" stroke-width="1"/>
      </g>
      <g id="Line_62">
        <line x1="2279" y1="590.75" x2="2364.6" y2="590.75" marker-end="url(#StickArrow_Marker)" stroke="black" stroke-linecap="round" stroke-linejoin="round" stroke-width="1"/>
      </g>
      <g id="Graphic_63">
        <rect x="2538.5" y="475" width="83.5" height="68.5" fill="white"/>
        <rect x="2538.5" y="475" width="83.5" height="68.5" stroke="black" stroke-linecap="round" stroke-linejoin="round" stroke-width="1"/>
        <text transform="translate(2543.5 494.914)" fill="black">
          <tspan font-family="Helvetica Neue" font-size="12" fill="black" x="1.08" y="11">Ticket closed</tspan>
          <tspan font-family="Helvetica Neue" font-size="12" fill="black" x="1.434" y="25.336">(ServiceNow)</tspan>
        </text>
      </g>
      <g id="Line_64">
        <line x1="2455.296" y1="571.346" x2="2529.6344" y2="534.4035" marker-end="url(#StickArrow_Marker)" stroke="black" stroke-linecap="round" stroke-linejoin="round" stroke-width="1"/>
      </g>
      <g id="Graphic_65">
        <path d="M 2399.55 549 L 2432.95 549 L 2458 574.05 L 2458 607.45 L 2432.95 632.5 L 2399.55 632.5 L 2374.5 607.45 L 2374.5 574.05 Z" fill="white"/>
        <path d="M 2399.55 549 L 2432.95 549 L 2458 574.05 L 2458 607.45 L 2432.95 632.5 L 2399.55 632.5 L 2374.5 607.45 L 2374.5 574.05 Z" stroke="black" stroke-linecap="round" stroke-linejoin="round" stroke-width="1"/>
        <text transform="translate(2379.5 562.078)" fill="black">
          <tspan font-family="Helvetica Neue" font-size="12" fill="black" x=".63" y="11">Is the change </tspan>
          <tspan font-family="Helvetica Neue" font-size="12" fill="black" x="21.966" y="25.336">in the </tspan>
          <tspan font-family="Helvetica Neue" font-size="12" fill="black" x="16.302" y="39.671997">Intranet </tspan>
          <tspan font-family="Helvetica Neue" font-size="12" fill="black" x="19.968" y="54.007996">CMS?</tspan>
        </text>
      </g>
      <g id="Graphic_66">
        <rect x="2482.749" y="540.16753" width="25.74" height="22.28" fill="white"/>
        <text transform="translate(2487.749 545.16753)" fill="black">
          <tspan font-family="Helvetica Neue" font-size="10" fill="black" x="7993606e-19" y="10">Yes</tspan>
        </text>
      </g>
      <g id="Line_68">
        <path d="M 2391.177 557.3729 C 2378.3355 545.263 2360.6826 534.5 2338.5 534.5 C 2320.169 534.5 2301.8604 541.84997 2285.9535 551.2362" marker-end="url(#StickArrow_Marker)" stroke="black" stroke-linecap="round" stroke-linejoin="round" stroke-width="1"/>
      </g>
      <g id="Graphic_67">
        <rect x="2325.613" y="523.37435" width="22.96" height="22.28" fill="white"/>
        <text transform="translate(2330.613 528.37435)" fill="black">
          <tspan font-family="Helvetica Neue" font-size="10" fill="black" x="0" y="10">No</tspan>
        </text>
      </g>
      <g id="Line_71">
        <line x1="2615.765" y1="475" x2="2720.109" y2="374.3723" marker-end="url(#StickArrow_Marker)" stroke="black" stroke-linecap="round" stroke-linejoin="round" stroke-width="1"/>
      </g>
      <g id="Graphic_72">
        <rect x="2721" y="299" width="83.5" height="68.5" fill="white"/>
        <rect x="2721" y="299" width="83.5" height="68.5" stroke="black" stroke-linecap="round" stroke-linejoin="round" stroke-width="1"/>
        <text transform="translate(2726 311.746)" fill="black">
          <tspan font-family="Helvetica Neue" font-size="12" fill="black" x="15.858" y="11">Change </tspan>
          <tspan font-family="Helvetica Neue" font-size="12" fill="black" x="11.634" y="25.336">accepted</tspan>
          <tspan font-family="Helvetica Neue" font-size="12" fill="black" x="4.524" y="39.671997">(Sharepoint)</tspan>
        </text>
      </g>
      <g id="Line_73">
        <path d="M 2721 325.39878 C 2521.3142 288.2779 1649.931 131.20635 1081.5 108 C 746.6058 94.32785 598.58656 130.45706 533.6756 168.38347 C 530.76013 163.71976 521.4355 169.54892 524.3509 174.21263 C 512.30604 182.28489 503.7747 190.32739 497.76105 197.8794" marker-end="url(#StickArrow_Marker)" stroke="black" stroke-linecap="round" stroke-linejoin="round" stroke-width="1"/>
      </g>
    </g>
  </g>
</svg>
