<?xml version="1.0" encoding="UTF-8" standalone="no"?>
<!DOCTYPE svg PUBLIC "-//W3C//DTD SVG 1.1//EN" "http://www.w3.org/Graphics/SVG/1.1/DTD/svg11.dtd">
<svg xmlns:xl="http://www.w3.org/1999/xlink" xmlns="http://www.w3.org/2000/svg" xmlns:dc="http://purl.org/dc/elements/1.1/" version="1.1" viewBox="1141.8622 350.99606 721 315.72664" width="721" height="315.72664">
  <defs>
    <marker orient="auto" overflow="visible" markerUnits="strokeWidth" id="StickArrow_Marker" stroke-linejoin="miter" stroke-miterlimit="10" viewBox="-1 -4 10 8" markerWidth="10" markerHeight="8" color="black">
      <g>
        <path d="M 8 0 L 0 0 M 0 -3 L 8 0 L 0 3" fill="none" stroke="currentColor" stroke-width="1"/>
      </g>
    </marker>
  </defs>
  <g id="Canvas_1" stroke-opacity="1" fill-opacity="1" stroke-dasharray="none" fill="none" stroke="none">
    <title>Canvas 1</title>
    <rect fill="white" x="1141.8622" y="350.99606" width="721" height="315.72664"/>
    <g id="Canvas_1_Layer_1">
      <title>Layer 1</title>
      <g id="Graphic_544">
        <ellipse cx="1513.7008" cy="565.5118" rx="66.6142792830315" ry="32.5984770959516" fill="white"/>
        <ellipse cx="1513.7008" cy="565.5118" rx="66.6142792830315" ry="32.5984770959516" stroke="black" stroke-linecap="round" stroke-linejoin="round" stroke-width="1"/>
        <text transform="translate(1465.4094 557.3158)" fill="black">
          <tspan font-family="Helvetica Neue" font-size="14" fill="black" x="9.65834" y="13">Relationship</tspan>
        </text>
      </g>
      <g id="Graphic_545">
        <ellipse cx="1208.9764" cy="559.8425" rx="66.6142792830314" ry="32.5984770959517" fill="white"/>
        <ellipse cx="1208.9764" cy="559.8425" rx="66.6142792830314" ry="32.5984770959517" stroke="black" stroke-linecap="round" stroke-linejoin="round" stroke-width="1"/>
        <text transform="translate(1160.685 551.6465)" fill="black">
          <tspan font-family="Helvetica Neue" font-size="14" fill="black" x="30.91734" y="13">Thing</tspan>
        </text>
      </g>
      <g id="Line_548">
        <path d="M 1456.621 548.164 C 1427.4615 539.30184 1400.3444 522.03215 1369.1339 521.5748 C 1340.9041 521.1611 1309.3102 534.5015 1278.9201 542.9344" marker-end="url(#StickArrow_Marker)" stroke="black" stroke-linecap="round" stroke-linejoin="round" stroke-width="1"/>
      </g>
      <g id="Graphic_547">
        <rect x="1309.1666" y="510.50964" width="109.47" height="22.28" fill="white"/>
        <text transform="translate(1314.1666 515.50964)" fill="black">
          <tspan font-family="Helvetica Neue" font-size="10" fill="black" x="5897505e-19" y="10">relationshipFromThing</tspan>
        </text>
      </g>
      <g id="Line_556">
        <path d="M 1455.222 581.6979 C 1421.805 590.9473 1386.7985 609.96516 1354.9606 609.4488 C 1326.3936 608.9855 1300.362 592.7952 1273.4567 582.046" marker-end="url(#StickArrow_Marker)" stroke="black" stroke-linecap="round" stroke-linejoin="round" stroke-width="1"/>
      </g>
      <g id="Graphic_555">
        <rect x="1312.8661" y="598.17006" width="96.68" height="22.28" fill="white"/>
        <text transform="translate(1317.8661 603.17006)" fill="black">
          <tspan font-family="Helvetica Neue" font-size="10" fill="black" x="14921397e-20" y="10">relationshipToThing</tspan>
        </text>
      </g>
      <g id="Graphic_557">
        <ellipse cx="1795.748" cy="565.5118" rx="66.6142792830312" ry="32.5984770959516" fill="white"/>
        <ellipse cx="1795.748" cy="565.5118" rx="66.6142792830312" ry="32.5984770959516" stroke="black" stroke-linecap="round" stroke-linejoin="round" stroke-width="1"/>
        <text transform="translate(1747.4567 549.1198)" fill="black">
          <tspan font-family="Helvetica Neue" font-size="14" fill="black" x="9.65834" y="13">Relationship</tspan>
          <tspan font-family="Helvetica Neue" font-size="14" fill="black" x="33.64034" y="29.392">Type</tspan>
        </text>
      </g>
      <g id="Line_559">
        <line x1="1580.815" y1="565.5118" x2="1718.7338" y2="565.5118" marker-end="url(#StickArrow_Marker)" stroke="black" stroke-linecap="round" stroke-linejoin="round" stroke-width="1"/>
      </g>
      <g id="Graphic_558">
        <rect x="1601.8938" y="554.3718" width="102.05" height="22.28" fill="white"/>
        <text transform="translate(1606.8938 559.3718)" fill="black">
          <tspan font-family="Helvetica Neue" font-size="10" fill="black" x="0" y="10">hasRelationshipType</tspan>
        </text>
      </g>
      <g id="Line_561">
        <path d="M 1812.5716 597.5309 C 1821.6085 614.73016 1850.2832 640.5342 1839.685 649.13385 C 1829.0869 657.7335 1759.2704 657.75605 1748.9764 649.13385 C 1740.2244 641.8033 1760.3 622.0042 1772.4386 605.6392" marker-end="url(#StickArrow_Marker)" stroke="black" stroke-linecap="round" stroke-linejoin="round" stroke-width="1"/>
      </g>
      <g id="Graphic_560">
        <rect x="1770.9642" y="644.4427" width="41.85" height="22.28" fill="white"/>
        <text transform="translate(1775.9642 649.4427)" fill="black">
          <tspan font-family="Helvetica Neue" font-size="10" fill="black" x="0" y="10">inverse</tspan>
        </text>
      </g>
      <g id="Graphic_566">
        <rect x="1155.5905" y="368.50393" width="120" height="28.346457" fill="white"/>
        <rect x="1155.5905" y="368.50393" width="120" height="28.346457" stroke="black" stroke-linecap="round" stroke-linejoin="round" stroke-width="1"/>
        <text transform="translate(1160.5905 375.50916)" fill="black">
          <tspan font-family="Helvetica Neue" font-size="12" fill="black" x="26.776" y="11">rdfs:Literal</tspan>
        </text>
      </g>
      <g id="Line_565">
        <line x1="1513.9594" y1="532.4136" x2="1514.7822" y2="427.09237" marker-end="url(#StickArrow_Marker)" stroke="black" stroke-linecap="round" stroke-linejoin="round" stroke-width="1"/>
      </g>
      <g id="Graphic_564">
        <rect x="1445.2947" y="467.4665" width="138.17" height="22.28" fill="white"/>
        <text transform="translate(1450.2947 472.4665)" fill="black">
          <tspan font-family="Helvetica Neue" font-size="10" fill="black" x="0" y="10">relationshipToWebDocument</tspan>
        </text>
      </g>
      <g id="Graphic_570">
        <ellipse cx="1792.9134" cy="384.0945" rx="66.6142792830315" ry="32.5984770959516" fill="white"/>
        <ellipse cx="1792.9134" cy="384.0945" rx="66.6142792830315" ry="32.5984770959516" stroke="black" stroke-linecap="round" stroke-linejoin="round" stroke-width="1"/>
        <text transform="translate(1744.622 375.8985)" fill="black">
          <tspan font-family="Helvetica Neue" font-size="14" fill="black" x="1.2163399" y="13">DocumentType</tspan>
        </text>
      </g>
      <g id="Line_572">
        <line x1="1582.2323" y1="384.0945" x2="1715.8992" y2="384.0945" marker-end="url(#StickArrow_Marker)" stroke="black" stroke-linecap="round" stroke-linejoin="round" stroke-width="1"/>
      </g>
      <g id="Graphic_571">
        <rect x="1604.8476" y="372.9545" width="93.18" height="22.28" fill="white"/>
        <text transform="translate(1609.8476 377.9545)" fill="black">
          <tspan font-family="Helvetica Neue" font-size="10" fill="black" x="13500312e-20" y="10">hasDocumentType</tspan>
        </text>
      </g>
      <g id="Graphic_573">
        <ellipse cx="1515.1181" cy="384.0945" rx="66.6142792830312" ry="32.5984770959516" fill="white"/>
        <ellipse cx="1515.1181" cy="384.0945" rx="66.6142792830312" ry="32.5984770959516" stroke="black" stroke-linecap="round" stroke-linejoin="round" stroke-width="1"/>
        <text transform="translate(1466.8268 367.7025)" fill="black">
          <tspan font-family="Helvetica Neue" font-size="14" fill="black" x="34.29834" y="13">Web</tspan>
          <tspan font-family="Helvetica Neue" font-size="14" fill="black" x="15.86734" y="29.392">Document</tspan>
        </text>
      </g>
      <g id="Line_577">
        <line x1="1448.007" y1="383.77693" x2="1285.9904" y2="383.0103" marker-end="url(#StickArrow_Marker)" stroke="black" stroke-linecap="round" stroke-linejoin="round" stroke-width="1"/>
      </g>
      <g id="Graphic_576">
        <rect x="1357.1686" y="372.25704" width="21.11" height="22.28" fill="white"/>
        <text transform="translate(1362.1686 377.25704)" fill="black">
          <tspan font-family="Helvetica Neue" font-size="10" fill="black" x="29043434e-20" y="10">uri</tspan>
        </text>
      </g>
    </g>
  </g>
</svg>
