<?xml version="1.0" encoding="UTF-8" standalone="no"?>
<!DOCTYPE svg PUBLIC "-//W3C//DTD SVG 1.1//EN" "http://www.w3.org/Graphics/SVG/1.1/DTD/svg11.dtd">
<svg version="1.1" xmlns:xl="http://www.w3.org/1999/xlink" xmlns:dc="http://purl.org/dc/elements/1.1/" xmlns="http://www.w3.org/2000/svg" viewBox="1141.8622 413.35827 701.1575 338.32283" width="701.1575" height="338.32283">
  <defs>
    <marker orient="auto" overflow="visible" markerUnits="strokeWidth" id="StickArrow_Marker" stroke-linejoin="miter" stroke-miterlimit="10" viewBox="-1 -4 10 8" markerWidth="10" markerHeight="8" color="black">
      <g>
        <path d="M 8 0 L 0 0 M 0 -3 L 8 0 L 0 3" fill="none" stroke="currentColor" stroke-width="1"/>
      </g>
    </marker>
  </defs>
  <g id="Canvas_1" stroke-opacity="1" fill="none" stroke-dasharray="none" fill-opacity="1" stroke="none">
    <title>Canvas 1</title>
    <rect fill="white" x="1141.8622" y="413.35827" width="701.1575" height="338.32283"/>
    <g id="Canvas_1_Layer_1">
      <title>Layer 1</title>
      <g id="Graphic_544">
        <ellipse cx="1513.7008" cy="565.5118" rx="66.6142792830315" ry="32.5984770959516" fill="white"/>
        <ellipse cx="1513.7008" cy="565.5118" rx="66.6142792830315" ry="32.5984770959516" stroke="black" stroke-linecap="round" stroke-linejoin="round" stroke-width="1"/>
        <text transform="translate(1465.4094 557.3158)" fill="black">
          <tspan font-family="Helvetica Neue" font-size="14" fill="black" x="9.65834" y="13">Relationship</tspan>
        </text>
      </g>
      <g id="Graphic_545">
        <ellipse cx="1208.9764" cy="559.8425" rx="66.6142792830314" ry="32.5984770959517" fill="white"/>
        <ellipse cx="1208.9764" cy="559.8425" rx="66.6142792830314" ry="32.5984770959517" stroke="black" stroke-linecap="round" stroke-linejoin="round" stroke-width="1"/>
        <text transform="translate(1160.685 551.6465)" fill="black">
          <tspan font-family="Helvetica Neue" font-size="14" fill="black" x="30.91734" y="13">Thing</tspan>
        </text>
      </g>
      <g id="Line_548">
        <path d="M 1456.621 548.164 C 1427.4615 539.30184 1400.3444 522.03215 1369.1339 521.5748 C 1340.9041 521.1611 1309.3102 534.5015 1278.9201 542.9344" marker-end="url(#StickArrow_Marker)" stroke="black" stroke-linecap="round" stroke-linejoin="round" stroke-width="1"/>
      </g>
      <g id="Graphic_547">
        <rect x="1321.5766" y="510.50964" width="84.65" height="22.28" fill="white"/>
        <text transform="translate(1326.5766 515.50964)" fill="black">
          <tspan font-family="Helvetica Neue" font-size="10" fill="black" x="731859e-18" y="10">relationshipFrom</tspan>
        </text>
      </g>
      <g id="Line_556">
        <path d="M 1455.222 581.6979 C 1421.805 590.9473 1386.7985 609.96516 1354.9606 609.4488 C 1326.3936 608.9855 1300.362 592.7952 1273.4567 582.046" marker-end="url(#StickArrow_Marker)" stroke="black" stroke-linecap="round" stroke-linejoin="round" stroke-width="1"/>
      </g>
      <g id="Graphic_555">
        <rect x="1325.2761" y="598.17006" width="71.86" height="22.28" fill="white"/>
        <text transform="translate(1330.2761 603.17006)" fill="black">
          <tspan font-family="Helvetica Neue" font-size="10" fill="black" x="2877698e-19" y="10">relationshipTo</tspan>
        </text>
      </g>
      <g id="Graphic_557">
        <ellipse cx="1775.9055" cy="565.5118" rx="66.6142792830314" ry="32.5984770959516" fill="white"/>
        <ellipse cx="1775.9055" cy="565.5118" rx="66.6142792830314" ry="32.5984770959516" stroke="black" stroke-linecap="round" stroke-linejoin="round" stroke-width="1"/>
        <text transform="translate(1727.6142 549.1198)" fill="black">
          <tspan font-family="Helvetica Neue" font-size="14" fill="black" x="9.65834" y="13">Relationship</tspan>
          <tspan font-family="Helvetica Neue" font-size="14" fill="black" x="33.64034" y="29.392">Type</tspan>
        </text>
      </g>
      <g id="Line_559">
        <line x1="1580.815" y1="565.5118" x2="1698.8913" y2="565.5118" marker-end="url(#StickArrow_Marker)" stroke="black" stroke-linecap="round" stroke-linejoin="round" stroke-width="1"/>
      </g>
      <g id="Graphic_558">
        <rect x="1619.81" y="554.3718" width="46.86" height="22.28" fill="white"/>
        <text transform="translate(1624.81 559.3718)" fill="black">
          <tspan font-family="Helvetica Neue" font-size="10" fill="black" x="29132252e-20" y="10">hasType</tspan>
        </text>
      </g>
      <g id="Line_561">
        <path d="M 1792.729 597.5309 C 1801.766 614.73016 1830.4407 640.5342 1819.8425 649.13385 C 1809.2444 657.7335 1739.4279 657.75605 1729.1338 649.13385 C 1720.382 641.8033 1740.4575 622.0042 1752.596 605.6392" marker-end="url(#StickArrow_Marker)" stroke="black" stroke-linecap="round" stroke-linejoin="round" stroke-width="1"/>
      </g>
      <g id="Graphic_560">
        <rect x="1751.1217" y="644.4427" width="41.85" height="22.28" fill="white"/>
        <text transform="translate(1756.1217 649.4427)" fill="black">
          <tspan font-family="Helvetica Neue" font-size="10" fill="black" x="0" y="10">inverse</tspan>
        </text>
      </g>
      <g id="Graphic_566">
        <rect x="1453.2283" y="413.85827" width="120" height="28.346457" fill="white"/>
        <rect x="1453.2283" y="413.85827" width="120" height="28.346457" stroke="black" stroke-linecap="round" stroke-linejoin="round" stroke-width="1"/>
        <text transform="translate(1458.2283 420.8635)" fill="black">
          <tspan font-family="Helvetica Neue" font-size="12" fill="black" x="26.776" y="11">rdfs:Literal</tspan>
        </text>
      </g>
      <g id="Line_565">
        <line x1="1513.587" y1="532.4134" x2="1513.3128" y2="452.60466" marker-end="url(#StickArrow_Marker)" stroke="black" stroke-linecap="round" stroke-linejoin="round" stroke-width="1"/>
      </g>
      <g id="Graphic_564">
        <rect x="1502.888" y="479.3803" width="21.11" height="22.28" fill="white"/>
        <text transform="translate(1507.888 484.3803)" fill="black">
          <tspan font-family="Helvetica Neue" font-size="10" fill="black" x="29043434e-20" y="10">uri</tspan>
        </text>
      </g>
      <g id="Graphic_570">
        <ellipse cx="1512.2835" cy="718.5827" rx="66.6142792830314" ry="32.5984770959516" fill="white"/>
        <ellipse cx="1512.2835" cy="718.5827" rx="66.6142792830314" ry="32.5984770959516" stroke="black" stroke-linecap="round" stroke-linejoin="round" stroke-width="1"/>
        <text transform="translate(1463.9921 710.3867)" fill="black">
          <tspan font-family="Helvetica Neue" font-size="14" fill="black" x="1.2163399" y="13">DocumentType</tspan>
        </text>
      </g>
      <g id="Line_572">
        <line x1="1513.3943" y1="598.6099" x2="1512.6816" y2="675.585" marker-end="url(#StickArrow_Marker)" stroke="black" stroke-linecap="round" stroke-linejoin="round" stroke-width="1"/>
      </g>
      <g id="Graphic_571">
        <rect x="1466.4166" y="629.34716" width="93.18" height="22.28" fill="white"/>
        <text transform="translate(1471.4166 634.34716)" fill="black">
          <tspan font-family="Helvetica Neue" font-size="10" fill="black" x="13500312e-20" y="10">hasDocumentType</tspan>
        </text>
      </g>
    </g>
  </g>
</svg>
