<?xml version="1.0" encoding="UTF-8" standalone="no"?>
<!DOCTYPE svg PUBLIC "-//W3C//DTD SVG 1.1//EN" "http://www.w3.org/Graphics/SVG/1.1/DTD/svg11.dtd">
<svg xmlns="http://www.w3.org/2000/svg" version="1.1" xmlns:xl="http://www.w3.org/1999/xlink" xmlns:dc="http://purl.org/dc/elements/1.1/" viewBox="174.05127 26.5 733.4631 1513" width="733.4631" height="1513">
  <defs>
    <marker orient="auto" overflow="visible" markerUnits="strokeWidth" id="StickArrow_Marker" stroke-linejoin="miter" stroke-miterlimit="10" viewBox="-9 -4 10 8" markerWidth="10" markerHeight="8" color="black">
      <g>
        <path d="M -8 0 L 0 0 M 0 3 L -8 0 L 0 -3" fill="none" stroke="currentColor" stroke-width="1"/>
      </g>
    </marker>
  </defs>
  <g id="Canvas_1" fill="none" fill-opacity="1" stroke-opacity="1" stroke="none" stroke-dasharray="none">
    <title>Canvas 1</title>
    <rect fill="white" x="174.05127" y="26.5" width="733.4631" height="1513"/>
    <g id="Canvas_1_Layer_1">
      <title>Layer 1</title>
      <g id="Graphic_987">
        <ellipse cx="574.468" cy="283.76378" rx="65.1969541919032" ry="29.7638269136949" fill="white"/>
        <ellipse cx="574.468" cy="283.76378" rx="65.1969541919032" ry="29.7638269136949" stroke="black" stroke-linecap="round" stroke-linejoin="round" stroke-width="1"/>
        <text transform="translate(527.3105 277.62378)" fill="black">
          <tspan font-family="Helvetica Neue" font-size="10" fill="black" x="21.692478" y="10">Proceeding</tspan>
        </text>
      </g>
      <g id="Graphic_988">
        <ellipse cx="419.1253" cy="1352.7638" rx="65.1969541919032" ry="29.7638269136948" fill="white"/>
        <ellipse cx="419.1253" cy="1352.7638" rx="65.1969541919032" ry="29.7638269136948" stroke="black" stroke-linecap="round" stroke-linejoin="round" stroke-width="1"/>
        <text transform="translate(371.9678 1334.3438)" fill="black">
          <tspan font-family="Helvetica Neue" font-size="10" fill="black" x="27.98748" y="10">Credited</tspan>
          <tspan font-family="Helvetica Neue" font-size="10" fill="black" x="37.89748" y="22.28">Oral</tspan>
          <tspan font-family="Helvetica Neue" font-size="10" fill="black" x="19.467478" y="34.559998">Contribution</tspan>
        </text>
      </g>
      <g id="Graphic_989">
        <ellipse cx="743.1253" cy="1347.2362" rx="65.1969541919032" ry="29.7638269136949" fill="white"/>
        <ellipse cx="743.1253" cy="1347.2362" rx="65.1969541919032" ry="29.7638269136949" stroke="black" stroke-linecap="round" stroke-linejoin="round" stroke-width="1"/>
        <text transform="translate(695.9678 1328.8162)" fill="black">
          <tspan font-family="Helvetica Neue" font-size="10" fill="black" x="22.522478" y="10">Uncredited</tspan>
          <tspan font-family="Helvetica Neue" font-size="10" fill="black" x="37.89748" y="22.28">Oral</tspan>
          <tspan font-family="Helvetica Neue" font-size="10" fill="black" x="19.467478" y="34.559998">Contribution</tspan>
        </text>
      </g>
      <g id="Graphic_990">
        <ellipse cx="585.519" cy="1244.7638" rx="65.1969541919032" ry="29.7638269136949" fill="white"/>
        <ellipse cx="585.519" cy="1244.7638" rx="65.1969541919032" ry="29.7638269136949" stroke="black" stroke-linecap="round" stroke-linejoin="round" stroke-width="1"/>
        <text transform="translate(538.3615 1232.4838)" fill="black">
          <tspan font-family="Helvetica Neue" font-size="10" fill="black" x="37.89748" y="10">Oral</tspan>
          <tspan font-family="Helvetica Neue" font-size="10" fill="black" x="19.467478" y="22.28">Contribution</tspan>
        </text>
      </g>
      <g id="Line_991">
        <line x1="539.2814" y1="1274.7749" x2="457.05874" y2="1328.1426" marker-start="url(#StickArrow_Marker)" stroke="black" stroke-linecap="round" stroke-linejoin="round" stroke-dasharray="4.0,4.0" stroke-width="1"/>
      </g>
      <g id="Line_992">
        <line x1="631.709" y1="1274.7956" x2="705.2352" y2="1322.6008" marker-start="url(#StickArrow_Marker)" stroke="black" stroke-linecap="round" stroke-linejoin="round" stroke-dasharray="4.0,4.0" stroke-width="1"/>
      </g>
      <g id="Graphic_993">
        <ellipse cx="576.3586" cy="615.2379" rx="65.1969541919032" ry="29.7638269136949" fill="white"/>
        <ellipse cx="576.3586" cy="615.2379" rx="65.1969541919032" ry="29.7638269136949" stroke="black" stroke-linecap="round" stroke-linejoin="round" stroke-width="1"/>
        <text transform="translate(529.20115 609.0979)" fill="black">
          <tspan font-family="Helvetica Neue" font-size="10" fill="black" x="34.56248" y="10">Event</tspan>
        </text>
      </g>
      <g id="Graphic_994">
        <ellipse cx="778.9649" cy="564.7104" rx="65.1969541919032" ry="29.7638269136949" fill="white"/>
        <ellipse cx="778.9649" cy="564.7104" rx="65.1969541919032" ry="29.7638269136949" stroke="black" stroke-linecap="round" stroke-linejoin="round" stroke-width="1"/>
        <text transform="translate(731.80745 558.5704)" fill="black">
          <tspan font-family="Helvetica Neue" font-size="10" fill="black" x="27.802478" y="10">Location</tspan>
        </text>
      </g>
      <g id="Line_996">
        <line x1="711.6429" y1="581.4997" x2="634.0749" y2="600.8442" marker-start="url(#StickArrow_Marker)" stroke="black" stroke-linecap="round" stroke-linejoin="round" stroke-width="1"/>
      </g>
      <g id="Line_998">
        <path d="M 506.1533 601.4358 C 460.10424 590.6598 397.87374 565.28834 376.1618 576.47415 C 352.88598 588.46565 351.95247 666.26 376.1618 675.47415 C 400.3711 684.6883 473.0136 646.3329 521.4322 631.7645" marker-start="url(#StickArrow_Marker)" stroke="black" stroke-linecap="round" stroke-linejoin="round" stroke-width="1"/>
      </g>
      <g id="Line_999">
        <line x1="576.94304" y1="655.4" x2="585.0786" y2="1214.5007" marker-start="url(#StickArrow_Marker)" stroke="black" stroke-linecap="round" stroke-linejoin="round" stroke-dasharray="4.0,4.0" stroke-width="1"/>
      </g>
      <g id="Line_1000">
        <line x1="574.69706" y1="323.9273" x2="576.186" y2="584.97425" marker-start="url(#StickArrow_Marker)" stroke="black" stroke-linecap="round" stroke-linejoin="round" stroke-width="1"/>
      </g>
      <g id="Graphic_1001">
        <ellipse cx="344.86167" cy="283.76378" rx="65.1969541919032" ry="29.7638269136949" fill="white"/>
        <ellipse cx="344.86167" cy="283.76378" rx="65.1969541919032" ry="29.7638269136949" stroke="black" stroke-linecap="round" stroke-linejoin="round" stroke-width="1"/>
        <text transform="translate(297.7042 271.48378)" fill="black">
          <tspan font-family="Helvetica Neue" font-size="10" fill="black" x="21.692478" y="10">Proceeding</tspan>
          <tspan font-family="Helvetica Neue" font-size="10" fill="black" x="36.69248" y="22.28">Type</tspan>
        </text>
      </g>
      <g id="Line_1002">
        <line x1="420.45856" y1="283.76378" x2="508.7711" y2="283.76378" marker-start="url(#StickArrow_Marker)" stroke="black" stroke-linecap="round" stroke-linejoin="round" stroke-width="1"/>
      </g>
      <g id="Graphic_1003">
        <ellipse cx="776.8617" cy="283.76378" rx="65.1969541919032" ry="29.7638269136949" fill="white"/>
        <ellipse cx="776.8617" cy="283.76378" rx="65.1969541919032" ry="29.7638269136949" stroke="black" stroke-linecap="round" stroke-linejoin="round" stroke-width="1"/>
        <text transform="translate(729.7042 271.48378)" fill="black">
          <tspan font-family="Helvetica Neue" font-size="10" fill="black" x="16.507478" y="10">Parliamentary</tspan>
          <tspan font-family="Helvetica Neue" font-size="10" fill="black" x="33.17248" y="22.28">Group</tspan>
        </text>
      </g>
      <g id="Line_1004">
        <line x1="701.2648" y1="283.76378" x2="640.16486" y2="283.76378" marker-start="url(#StickArrow_Marker)" stroke="black" stroke-linecap="round" stroke-linejoin="round" stroke-width="1"/>
      </g>
      <g id="Graphic_1005">
        <ellipse cx="778.9649" cy="681.7104" rx="65.1969541919032" ry="29.7638269136949" fill="white"/>
        <ellipse cx="778.9649" cy="681.7104" rx="65.1969541919032" ry="29.7638269136949" stroke="black" stroke-linecap="round" stroke-linejoin="round" stroke-width="1"/>
        <text transform="translate(731.80745 669.4304)" fill="black">
          <tspan font-family="Helvetica Neue" font-size="10" fill="black" x="34.56248" y="10">Event</tspan>
          <tspan font-family="Helvetica Neue" font-size="10" fill="black" x="33.27248" y="22.28">Series</tspan>
        </text>
      </g>
      <g id="Line_1006">
        <line x1="716.1322" y1="661.0958" x2="629.7847" y2="632.7663" marker-start="url(#StickArrow_Marker)" stroke="black" stroke-linecap="round" stroke-linejoin="round" stroke-width="1"/>
      </g>
      <g id="Graphic_1007">
        <ellipse cx="419.1253" cy="1469.7638" rx="65.1969541919032" ry="29.7638269136948" fill="white"/>
        <ellipse cx="419.1253" cy="1469.7638" rx="65.1969541919032" ry="29.7638269136948" stroke="black" stroke-linecap="round" stroke-linejoin="round" stroke-width="1"/>
        <text transform="translate(371.9678 1463.6238)" fill="black">
          <tspan font-family="Helvetica Neue" font-size="10" fill="black" x="19.737478" y="10">Incumbency</tspan>
        </text>
      </g>
      <g id="Line_1008">
        <line x1="419.1253" y1="1429.6" x2="419.1253" y2="1383.0276" marker-start="url(#StickArrow_Marker)" stroke="black" stroke-linecap="round" stroke-linejoin="round" stroke-width="1"/>
      </g>
      <g id="Graphic_1009">
        <rect x="326.2405" y="611.25896" width="64.45" height="22.28" fill="white"/>
        <text transform="translate(331.2405 616.25896)" fill="black">
          <tspan font-family="Helvetica Neue" font-size="10" fill="black" x="3659295e-19" y="10">formsPartOf</tspan>
        </text>
      </g>
      <g id="Line_1011">
        <path d="M 510.0312 597.4052 C 440.10974 576.4998 342.3413 525.32733 308.7681 543.9466 C 273.6409 563.42766 272.60053 701.9165 308.7681 717.0017 C 344.93563 732.08695 453.46 661.9759 525.7951 634.4671" marker-start="url(#StickArrow_Marker)" stroke="black" stroke-linecap="round" stroke-linejoin="round" stroke-width="1"/>
      </g>
      <g id="Graphic_1010">
        <rect x="246.63256" y="613.041" width="71.1" height="22.28" fill="white"/>
        <text transform="translate(251.63256 618.041)" fill="black">
          <tspan font-family="Helvetica Neue" font-size="10" fill="black" x="0" y="10">followsinTime</tspan>
        </text>
      </g>
      <g id="Line_1013">
        <path d="M 349.46055 1338.1702 C 321.50917 1330.3205 285.7552 1313.5509 272.92844 1323 C 258.57212 1333.5759 257.2627 1395.9916 272.92844 1404 C 288.59417 1412.0084 335.60076 1382.0358 366.9322 1371.0554" marker-start="url(#StickArrow_Marker)" stroke="black" stroke-linecap="round" stroke-linejoin="round" stroke-width="1"/>
      </g>
      <g id="Graphic_1012">
        <rect x="234.91124" y="1353.2109" width="53.52" height="22.28" fill="white"/>
        <text transform="translate(239.91124 1358.2109)" fill="black">
          <tspan font-family="Helvetica Neue" font-size="10" fill="black" x="21671553e-20" y="10">inReplyTo</tspan>
        </text>
      </g>
      <g id="Graphic_1014">
        <ellipse cx="788.1253" cy="1244.7638" rx="65.1969541919032" ry="29.7638269136949" fill="white"/>
        <ellipse cx="788.1253" cy="1244.7638" rx="65.1969541919032" ry="29.7638269136949" stroke="black" stroke-linecap="round" stroke-linejoin="round" stroke-width="1"/>
        <text transform="translate(740.9678 1238.6238)" fill="black">
          <tspan font-family="Helvetica Neue" font-size="10" fill="black" x="9.002478" y="10">ContributionType</tspan>
        </text>
      </g>
      <g id="Line_1015">
        <line x1="712.5284" y1="1244.7638" x2="651.2159" y2="1244.7638" marker-start="url(#StickArrow_Marker)" stroke="black" stroke-linecap="round" stroke-linejoin="round" stroke-width="1"/>
      </g>
      <g id="Graphic_1016">
        <ellipse cx="475.468" cy="431.2362" rx="65.1969541919033" ry="29.7638269136949" fill="white"/>
        <ellipse cx="475.468" cy="431.2362" rx="65.1969541919033" ry="29.7638269136949" stroke="black" stroke-linecap="round" stroke-linejoin="round" stroke-width="1"/>
        <text transform="translate(428.3105 418.9562)" fill="black">
          <tspan font-family="Helvetica Neue" font-size="10" fill="black" x="26.877478" y="10">Business</tspan>
          <tspan font-family="Helvetica Neue" font-size="10" fill="black" x="20.947478" y="22.28">WithDebate</tspan>
        </text>
      </g>
      <g id="Line_1017">
        <line x1="549.5638" y1="320.86157" x2="494.8542" y2="402.35806" marker-start="url(#StickArrow_Marker)" stroke="black" stroke-linecap="round" stroke-linejoin="round" stroke-dasharray="4.0,4.0" stroke-width="1"/>
      </g>
      <g id="Graphic_1018">
        <ellipse cx="682.468" cy="431.2362" rx="65.1969541919031" ry="29.7638269136949" fill="white"/>
        <ellipse cx="682.468" cy="431.2362" rx="65.1969541919031" ry="29.7638269136949" stroke="black" stroke-linecap="round" stroke-linejoin="round" stroke-width="1"/>
        <text transform="translate(635.3105 418.9562)" fill="black">
          <tspan font-family="Helvetica Neue" font-size="10" fill="black" x="26.877478" y="10">Business</tspan>
          <tspan font-family="Helvetica Neue" font-size="10" fill="black" x="13.722478" y="22.28">WithoutDebate</tspan>
        </text>
      </g>
      <g id="Line_1019">
        <line x1="601.28974" y1="320.3885" x2="661.49555" y2="402.59867" marker-start="url(#StickArrow_Marker)" stroke="black" stroke-linecap="round" stroke-linejoin="round" stroke-dasharray="4.0,4.0" stroke-width="1"/>
      </g>
      <g id="Line_1025">
        <path d="M 861.9654 1236.5312 C 876.8651 1233.6599 894.1003 1228.8117 900.6648 1233 C 908.7443 1238.1549 909.5088 1264.9052 900.6648 1269 C 891.8208 1273.0948 865.2834 1261.3804 847.5954 1257.5711" marker-start="url(#StickArrow_Marker)" stroke="black" stroke-linecap="round" stroke-linejoin="round" stroke-width="1"/>
      </g>
      <g id="Line_1033">
        <path d="M 353.61174 1334.1464 C 305.2745 1318.1955 239.53198 1281.3262 216.66482 1296 C 192.26557 1311.657 191.29594 1418.3055 216.66482 1431 C 242.0337 1443.6945 318.15558 1391.7812 368.89334 1372.1748" marker-start="url(#StickArrow_Marker)" stroke="black" stroke-linecap="round" stroke-linejoin="round" stroke-width="1"/>
      </g>
      <g id="Graphic_1032">
        <rect x="174.63656" y="1337.8124" width="47.98" height="22.28" fill="white"/>
        <text transform="translate(179.63656 1342.8124)" fill="black">
          <tspan font-family="Helvetica Neue" font-size="10" fill="black" x="0" y="10">resumes</tspan>
        </text>
      </g>
      <g id="Graphic_1034">
        <ellipse cx="587.8617" cy="1446.2362" rx="65.1969541919032" ry="29.7638269136949" fill="white"/>
        <ellipse cx="587.8617" cy="1446.2362" rx="65.1969541919032" ry="29.7638269136949" stroke="black" stroke-linecap="round" stroke-linejoin="round" stroke-width="1"/>
        <text transform="translate(540.7042 1427.8162)" fill="black">
          <tspan font-family="Helvetica Neue" font-size="10" fill="black" x="18.727478" y="10">CreditedOral</tspan>
          <tspan font-family="Helvetica Neue" font-size="10" fill="black" x="19.467478" y="22.28">Contribution</tspan>
          <tspan font-family="Helvetica Neue" font-size="10" fill="black" x="26.322478" y="34.559998">Presence</tspan>
        </text>
      </g>
      <g id="Graphic_1036">
        <ellipse cx="398.7013" cy="852.7104" rx="65.1969541919032" ry="29.7638269136949" fill="white"/>
        <ellipse cx="398.7013" cy="852.7104" rx="65.1969541919032" ry="29.7638269136949" stroke="black" stroke-linecap="round" stroke-linejoin="round" stroke-width="1"/>
        <text transform="translate(351.54383 846.5704)" fill="black">
          <tspan font-family="Helvetica Neue" font-size="10" fill="black" x="32.89748" y="10">Action</tspan>
        </text>
      </g>
      <g id="Line_1037">
        <line x1="549.0522" y1="651.7381" x2="420.0773" y2="824.1373" marker-start="url(#StickArrow_Marker)" stroke="black" stroke-linecap="round" stroke-linejoin="round" stroke-dasharray="4.0,4.0" stroke-width="1"/>
      </g>
      <g id="Graphic_1038">
        <rect x="213.50446" y="822.9466" width="111" height="57" fill="white"/>
        <rect x="213.50446" y="822.9466" width="111" height="57" stroke="black" stroke-linecap="round" stroke-linejoin="round" stroke-width="1"/>
        <text transform="translate(218.50446 832.9986)" fill="black">
          <tspan font-family="Helvetica Neue" font-size="16" fill="black" x="29.612" y="15">Stage </tspan>
          <tspan font-family="Helvetica Neue" font-size="16" fill="black" x="19.532" y="33.448">direction</tspan>
        </text>
      </g>
      <g id="Line_1040">
        <path d="M 515.7922 592.91134 C 419.18723 554.89916 281.404 463.5516 234.50446 489.9466 C 186.08593 517.19645 185.57843 735.6617 234.50446 759.9466 C 283.4305 784.2314 430.23797 677.0916 528.09004 635.6703" marker-start="url(#StickArrow_Marker)" stroke="black" stroke-linecap="round" stroke-linejoin="round" stroke-width="1"/>
      </g>
      <g id="Graphic_1039">
        <rect x="174.05127" y="609.2369" width="47.98" height="22.28" fill="white"/>
        <text transform="translate(179.05127 614.2369)" fill="black">
          <tspan font-family="Helvetica Neue" font-size="10" fill="black" x="0" y="10">resumes</tspan>
        </text>
      </g>
      <g id="Graphic_1041">
        <ellipse cx="574.468" cy="148.76378" rx="65.1969541919032" ry="29.7638269136949" fill="white"/>
        <ellipse cx="574.468" cy="148.76378" rx="65.1969541919032" ry="29.7638269136949" stroke="black" stroke-linecap="round" stroke-linejoin="round" stroke-width="1"/>
        <text transform="translate(527.3105 142.62378)" fill="black">
          <tspan font-family="Helvetica Neue" font-size="10" fill="black" x="16.412478" y="10">BusinessType</tspan>
        </text>
      </g>
      <g id="Line_1042">
        <line x1="574.468" y1="188.92757" x2="574.468" y2="253.5" marker-start="url(#StickArrow_Marker)" stroke="black" stroke-linecap="round" stroke-linejoin="round" stroke-width="1"/>
      </g>
      <g id="Graphic_1043">
        <rect x="654.6648" y="101" width="111" height="93" fill="white"/>
        <rect x="654.6648" y="101" width="111" height="93" stroke="black" stroke-linecap="round" stroke-linejoin="round" stroke-width="1"/>
        <text transform="translate(659.6648 92.15601)" fill="black">
          <tspan font-family="Helvetica Neue" font-size="16" fill="black" x="26.052" y="15">Public:</tspan>
          <tspan font-family="Helvetica Neue" font-size="16" fill="black" x=".86" y="33.448">- Government</tspan>
          <tspan font-family="Helvetica Neue" font-size="16" fill="black" x="5.892" y="51.895996">- Opposition</tspan>
          <tspan font-family="Helvetica Neue" font-size="16" fill="black" x="4.708" y="70.34399">- Backbench</tspan>
          <tspan font-family="Helvetica Neue" font-size="16" fill="black" x="25.764" y="88.79199">Private</tspan>
          <tspan font-family="Helvetica Neue" font-size="16" fill="black" x="26.796" y="107.23999">Hybrid</tspan>
        </text>
      </g>
      <g id="Line_1044">
        <path d="M 277.32538 266.78413 C 256.73738 259.5224 231.46826 245.91122 222.19163 254 C 211.42637 263.3868 210.50305 318.02567 222.19163 326 C 233.8802 333.97433 268.95296 309.89972 292.3301 301.8508" marker-start="url(#StickArrow_Marker)" stroke="black" stroke-linecap="round" stroke-linejoin="round" stroke-width="1"/>
      </g>
      <g id="Graphic_1045">
        <rect x="537.6648" y="1482" width="111" height="57" fill="white"/>
        <rect x="537.6648" y="1482" width="111" height="57" stroke="black" stroke-linecap="round" stroke-linejoin="round" stroke-width="1"/>
        <text transform="translate(542.6648 1492.052)" fill="black">
          <tspan font-family="Helvetica Neue" font-size="16" fill="black" x="28.276" y="15">Virtual</tspan>
          <tspan font-family="Helvetica Neue" font-size="16" fill="black" x="20.724" y="33.448">Physical</tspan>
        </text>
      </g>
      <g id="Line_1046">
        <line x1="537.2978" y1="1418.2261" x2="461.0291" y2="1375.9766" marker-start="url(#StickArrow_Marker)" stroke="black" stroke-linecap="round" stroke-linejoin="round" stroke-width="1"/>
      </g>
      <g id="Graphic_1048">
        <rect x="372.39317" y="27" width="184" height="92" fill="aqua"/>
        <rect x="372.39317" y="27" width="184" height="92" stroke="black" stroke-linecap="round" stroke-linejoin="round" stroke-width="1"/>
        <text transform="translate(377.39317 29.992004)" fill="black">
          <tspan font-family="Helvetica Neue" font-size="12" fill="black" x="27.768" y="11">Government Business</tspan>
          <tspan font-family="Helvetica Neue" font-size="12" fill="black" x="31.542" y="25.336">Opposition Business</tspan>
          <tspan font-family="Helvetica Neue" font-size="12" fill="black" x="30.654" y="39.671997">Backbench Business</tspan>
          <tspan font-family="Helvetica Neue" font-size="12" fill="black" x="42.444" y="54.007996">Private Business</tspan>
          <tspan font-family="Helvetica Neue" font-size="12" fill="black" x="23.988" y="68.343994">Committee of Selection</tspan>
          <tspan font-family="Helvetica Neue" font-size="12" fill="black" x="24.99" y="82.67999">Senior Deputy Speaker</tspan>
        </text>
      </g>
      <g id="Graphic_1047">
        <ellipse cx="301.279" cy="73" rx="66.6142792830315" ry="32.5984770959516" fill="white"/>
        <ellipse cx="301.279" cy="73" rx="66.6142792830315" ry="32.5984770959516" stroke="black" stroke-linecap="round" stroke-linejoin="round" stroke-width="1"/>
        <text transform="translate(252.98766 64.804)" fill="black">
          <tspan font-family="Helvetica Neue" font-size="14" fill="black" x="3.82034" y="13">SignatureType</tspan>
        </text>
      </g>
    </g>
  </g>
</svg>
