<?xml version="1.0" encoding="UTF-8" standalone="no"?>
<!DOCTYPE svg PUBLIC "-//W3C//DTD SVG 1.1//EN" "http://www.w3.org/Graphics/SVG/1.1/DTD/svg11.dtd">
<svg version="1.1" xmlns:dc="http://purl.org/dc/elements/1.1/" xmlns="http://www.w3.org/2000/svg" xmlns:xl="http://www.w3.org/1999/xlink" viewBox="66.5 124.5 1354.5 650" width="1354.5" height="650">
  <defs/>
  <g id="Canvas_1" stroke="none" stroke-dasharray="none" fill="none" fill-opacity="1" stroke-opacity="1">
    <title>Canvas 1</title>
    <rect fill="white" x="66.5" y="124.5" width="1354.5" height="650"/>
    <g id="Canvas_1_Layer_1">
      <title>Layer 1</title>
      <g id="Graphic_2">
        <path d="M 662.78 220.0441 C 799.0736 346.76914 799.0736 552.23086 662.78 678.9559 C 526.4871 805.6816 305.5129 805.6816 169.22 678.9559 C 32.926432 552.23086 32.926432 346.76914 169.22 220.0441 C 305.5129 93.31842 526.4871 93.31842 662.78 220.0441" fill="white"/>
        <path d="M 662.78 220.0441 C 799.0736 346.76914 799.0736 552.23086 662.78 678.9559 C 526.4871 805.6816 305.5129 805.6816 169.22 678.9559 C 32.926432 552.23086 32.926432 346.76914 169.22 220.0441 C 305.5129 93.31842 526.4871 93.31842 662.78 220.0441" stroke="black" stroke-linecap="round" stroke-linejoin="round" stroke-width="1"/>
      </g>
      <g id="Graphic_3">
        <path d="M 678.9186 251.56665 C 784.3606 352.32184 784.3606 515.67816 678.9186 616.43335 C 573.47714 717.18906 402.52286 717.18906 297.08138 616.43335 C 191.63936 515.67816 191.63936 352.32184 297.08138 251.56665 C 402.52286 150.81094 573.47714 150.81094 678.9186 251.56665" fill="white"/>
        <path d="M 678.9186 251.56665 C 784.3606 352.32184 784.3606 515.67816 678.9186 616.43335 C 573.47714 717.18906 402.52286 717.18906 297.08138 616.43335 C 191.63936 515.67816 191.63936 352.32184 297.08138 251.56665 C 402.52286 150.81094 573.47714 150.81094 678.9186 251.56665" stroke="black" stroke-linecap="round" stroke-linejoin="round" stroke-width="1"/>
      </g>
      <g id="Graphic_4">
        <rect x="594" y="435.5" width="86" height="36.5" fill="white"/>
        <rect x="594" y="435.5" width="86" height="36.5" stroke="black" stroke-linecap="round" stroke-linejoin="round" stroke-width="1"/>
        <text transform="translate(599 444.526)" fill="black">
          <tspan font-family="Helvetica Neue" font-size="16" fill="black" x="27.192" y="15">Bill</tspan>
        </text>
      </g>
      <g id="Graphic_5">
        <rect x="488" y="476" width="86" height="36.5" fill="white"/>
        <rect x="488" y="476" width="86" height="36.5" stroke="black" stroke-linecap="round" stroke-linejoin="round" stroke-width="1"/>
        <text transform="translate(493 485.026)" fill="black">
          <tspan font-family="Helvetica Neue" font-size="16" fill="black" x="30.744" y="15">SI</tspan>
        </text>
      </g>
      <g id="Graphic_6">
        <rect x="594" y="356" width="86" height="36.5" fill="white"/>
        <rect x="594" y="356" width="86" height="36.5" stroke="black" stroke-linecap="round" stroke-linejoin="round" stroke-width="1"/>
        <text transform="translate(599 365.026)" fill="black">
          <tspan font-family="Helvetica Neue" font-size="16" fill="black" x="16.512" y="15">Treaty</tspan>
        </text>
      </g>
      <g id="Graphic_7">
        <rect x="85.5" y="476" width="86" height="36.5" fill="white"/>
        <rect x="85.5" y="476" width="86" height="36.5" stroke="black" stroke-linecap="round" stroke-linejoin="round" stroke-width="1"/>
        <text transform="translate(90.5 485.026)" fill="black">
          <tspan font-family="Helvetica Neue" font-size="16" fill="black" x="14.304" y="15">IA (bill)</tspan>
        </text>
      </g>
      <g id="Graphic_8">
        <rect x="446.5" y="317.5" width="86" height="36.5" fill="white"/>
        <rect x="446.5" y="317.5" width="86" height="36.5" stroke="black" stroke-linecap="round" stroke-linejoin="round" stroke-width="1"/>
        <text transform="translate(451.5 326.526)" fill="black">
          <tspan font-family="Helvetica Neue" font-size="16" fill="black" x="17.12" y="15">IA (SI)</tspan>
        </text>
      </g>
      <g id="Graphic_10">
        <rect x="152.5" y="257" width="86" height="36.5" fill="white"/>
        <rect x="152.5" y="257" width="86" height="36.5" stroke="black" stroke-linecap="round" stroke-linejoin="round" stroke-width="1"/>
        <text transform="translate(157.5 256.802)" fill="black">
          <tspan font-family="Helvetica Neue" font-size="16" fill="black" x="4.368" y="15">Research </tspan>
          <tspan font-family="Helvetica Neue" font-size="16" fill="black" x="11.336" y="33.448">briefing</tspan>
        </text>
      </g>
      <g id="Graphic_11">
        <path d="M 1336.5126 321.19795 C 1448.496 394.1283 1448.496 512.3717 1336.5126 585.30205 C 1224.5299 658.2328 1042.9701 658.2328 930.9874 585.30205 C 819.004 512.3717 819.004 394.1283 930.9874 321.19795 C 1042.9701 248.26722 1224.5299 248.26722 1336.5126 321.19795" fill="white"/>
        <path d="M 1336.5126 321.19795 C 1448.496 394.1283 1448.496 512.3717 1336.5126 585.30205 C 1224.5299 658.2328 1042.9701 658.2328 930.9874 585.30205 C 819.004 512.3717 819.004 394.1283 930.9874 321.19795 C 1042.9701 248.26722 1224.5299 248.26722 1336.5126 321.19795" stroke="black" stroke-linecap="round" stroke-linejoin="round" stroke-width="1"/>
      </g>
      <g id="Graphic_12">
        <rect x="148" y="388" width="86" height="36.5" fill="yellow"/>
        <rect x="148" y="388" width="86" height="36.5" stroke="black" stroke-linecap="round" stroke-linejoin="round" stroke-width="1"/>
        <text transform="translate(153 397.026)" fill="black">
          <tspan font-family="Helvetica Neue" font-size="16" fill="black" x="10.44" y="15">Deposit</tspan>
        </text>
      </g>
      <g id="Graphic_13">
        <rect x="338" y="409" width="86" height="36.5" fill="white"/>
        <rect x="338" y="409" width="86" height="36.5" stroke="black" stroke-linecap="round" stroke-linejoin="round" stroke-width="1"/>
        <text transform="translate(343 418.026)" fill="black">
          <tspan font-family="Helvetica Neue" font-size="16" fill="black" x="27.336" y="15">EN</tspan>
        </text>
      </g>
      <g id="Graphic_14">
        <rect x="356.5" y="464.5" width="86" height="36.5" fill="white"/>
        <rect x="356.5" y="464.5" width="86" height="36.5" stroke="black" stroke-linecap="round" stroke-linejoin="round" stroke-width="1"/>
        <text transform="translate(361.5 473.526)" fill="black">
          <tspan font-family="Helvetica Neue" font-size="16" fill="black" x="26.144" y="15">EM</tspan>
        </text>
      </g>
      <g id="Graphic_15">
        <rect x="594" y="496" width="86" height="36.5" fill="white"/>
        <rect x="594" y="496" width="86" height="36.5" stroke="black" stroke-linecap="round" stroke-linejoin="round" stroke-width="1"/>
        <text transform="translate(599 505.026)" fill="black">
          <tspan font-family="Helvetica Neue" font-size="16" fill="black" x="19.784" y="15">PNSI</tspan>
        </text>
      </g>
      <g id="Graphic_16">
        <rect x="132" y="546.5" width="86" height="36.5" fill="white"/>
        <rect x="132" y="546.5" width="86" height="36.5" stroke="black" stroke-linecap="round" stroke-linejoin="round" stroke-width="1"/>
        <text transform="translate(137 546.302)" fill="black">
          <tspan font-family="Helvetica Neue" font-size="16" fill="black" x="2.584" y="15">Published </tspan>
          <tspan font-family="Helvetica Neue" font-size="16" fill="black" x="21.408" y="33.448">draft</tspan>
        </text>
      </g>
      <g id="Graphic_17">
        <rect x="488" y="404.5" width="86" height="36.5" fill="white"/>
        <rect x="488" y="404.5" width="86" height="36.5" stroke="black" stroke-linecap="round" stroke-linejoin="round" stroke-width="1"/>
        <text transform="translate(493 404.302)" fill="black">
          <tspan font-family="Helvetica Neue" font-size="16" fill="black" x="1.712" y="15">Notificatio</tspan>
          <tspan font-family="Helvetica Neue" font-size="16" fill="black" x="33.552" y="33.448">n</tspan>
        </text>
      </g>
      <g id="Graphic_9">
        <rect x="555" y="307.5" width="86" height="36.5" fill="white"/>
        <rect x="555" y="307.5" width="86" height="36.5" stroke="black" stroke-linecap="round" stroke-linejoin="round" stroke-width="1"/>
        <text transform="translate(560 316.526)" fill="black">
          <tspan font-family="Helvetica Neue" font-size="16" fill="black" x="10.888" y="15">Petition</tspan>
        </text>
      </g>
      <g id="Graphic_18">
        <rect x="926.5" y="449.5" width="86" height="36.5" fill="white"/>
        <rect x="926.5" y="449.5" width="86" height="36.5" stroke="black" stroke-linecap="round" stroke-linejoin="round" stroke-width="1"/>
        <text transform="translate(931.5 458.526)" fill="black">
          <tspan font-family="Helvetica Neue" font-size="16" fill="black" x="6.592" y="15">ePetition</tspan>
        </text>
      </g>
      <g id="Graphic_19">
        <rect x="468" y="615" width="86" height="36.5" fill="yellow"/>
        <rect x="468" y="615" width="86" height="36.5" stroke="black" stroke-linecap="round" stroke-linejoin="round" stroke-width="1"/>
        <text transform="translate(473 614.802)" fill="black">
          <tspan font-family="Helvetica Neue" font-size="16" fill="black" x="12.512" y="15">Written </tspan>
          <tspan font-family="Helvetica Neue" font-size="16" fill="black" x="2.28" y="33.448">statement</tspan>
        </text>
      </g>
      <g id="Graphic_20">
        <rect x="247" y="378" width="86" height="36.5" fill="yellow"/>
        <rect x="247" y="378" width="86" height="36.5" stroke="black" stroke-linecap="round" stroke-linejoin="round" stroke-width="1"/>
        <text transform="translate(252 377.802)" fill="black">
          <tspan font-family="Helvetica Neue" font-size="16" fill="black" x="12.512" y="15">Written </tspan>
          <tspan font-family="Helvetica Neue" font-size="16" fill="black" x="12.232" y="33.448">answer</tspan>
        </text>
      </g>
      <g id="Graphic_22">
        <rect x="400.5" y="247" width="86" height="36.5" fill="yellow"/>
        <rect x="400.5" y="247" width="86" height="36.5" stroke="black" stroke-linecap="round" stroke-linejoin="round" stroke-width="1"/>
        <text transform="translate(405.5 256.026)" fill="black">
          <tspan font-family="Helvetica Neue" font-size="16" fill="black" x="7.92" y="15">Hansard</tspan>
        </text>
      </g>
      <g id="Graphic_23">
        <rect x="338" y="337.5" width="86" height="36.5" fill="white"/>
        <rect x="338" y="337.5" width="86" height="36.5" stroke="black" stroke-linecap="round" stroke-linejoin="round" stroke-width="1"/>
        <text transform="translate(343 337.302)" fill="black">
          <tspan font-family="Helvetica Neue" font-size="16" fill="black" x="5.992" y="15">Standing </tspan>
          <tspan font-family="Helvetica Neue" font-size="16" fill="black" x="15.184" y="33.448">orders</tspan>
        </text>
      </g>
      <g id="Graphic_24">
        <rect x="451" y="546.5" width="86" height="36.5" fill="white"/>
        <rect x="451" y="546.5" width="86" height="36.5" stroke="black" stroke-linecap="round" stroke-linejoin="round" stroke-width="1"/>
        <text transform="translate(456 555.526)" fill="black">
          <tspan font-family="Helvetica Neue" font-size="16" fill="black" x="18.888" y="15">RMFI</tspan>
        </text>
      </g>
      <g id="Graphic_25">
        <rect x="252.5" y="451" width="86" height="36.5" fill="white"/>
        <rect x="252.5" y="451" width="86" height="36.5" stroke="black" stroke-linecap="round" stroke-linejoin="round" stroke-width="1"/>
        <text transform="translate(257.5 441.578)" fill="black">
          <tspan font-family="Helvetica Neue" font-size="16" fill="black" x="16.376" y="15">APPG </tspan>
          <tspan font-family="Helvetica Neue" font-size="16" fill="black" x="11.624" y="33.448">interest </tspan>
          <tspan font-family="Helvetica Neue" font-size="16" fill="black" x="11.336" y="51.895996">register</tspan>
        </text>
      </g>
      <g id="Graphic_26">
        <rect x="765" y="322.5" width="86" height="36.5" fill="white"/>
        <rect x="765" y="322.5" width="86" height="36.5" stroke="black" stroke-linecap="round" stroke-linejoin="round" stroke-width="1"/>
        <text transform="translate(770 322.302)" fill="black">
          <tspan font-family="Helvetica Neue" font-size="16" fill="black" x="21.384" y="15">Staff </tspan>
          <tspan font-family="Helvetica Neue" font-size="16" fill="black" x="11.336" y="33.448">register</tspan>
        </text>
      </g>
      <g id="Graphic_27">
        <rect x="491.5" y="257" width="86" height="36.5" fill="white"/>
        <rect x="491.5" y="257" width="86" height="36.5" stroke="black" stroke-linecap="round" stroke-linejoin="round" stroke-width="1"/>
        <text transform="translate(496.5 266.026)" fill="black">
          <tspan font-family="Helvetica Neue" font-size="16" fill="black" x="22.888" y="15">V&amp;P</tspan>
        </text>
      </g>
      <g id="Graphic_28">
        <rect x="308" y="291.5" width="86" height="36.5" fill="white"/>
        <rect x="308" y="291.5" width="86" height="36.5" stroke="black" stroke-linecap="round" stroke-linejoin="round" stroke-width="1"/>
        <text transform="translate(313 300.526)" fill="black">
          <tspan font-family="Helvetica Neue" font-size="16" fill="black" x="13.544" y="15">Minute</tspan>
        </text>
      </g>
      <g id="Graphic_29">
        <rect x="338" y="590.5" width="86" height="36.5" fill="white"/>
        <rect x="338" y="590.5" width="86" height="36.5" stroke="black" stroke-linecap="round" stroke-linejoin="round" stroke-width="1"/>
        <text transform="translate(343 590.302)" fill="black">
          <tspan font-family="Helvetica Neue" font-size="16" fill="black" x="2.872" y="15">Committe</tspan>
          <tspan font-family="Helvetica Neue" font-size="16" fill="black" x="10.144" y="33.448">e report</tspan>
        </text>
      </g>
      <g id="Graphic_30">
        <rect x="338" y="526.5" width="86" height="36.5" fill="white"/>
        <rect x="338" y="526.5" width="86" height="36.5" stroke="black" stroke-linecap="round" stroke-linejoin="round" stroke-width="1"/>
        <text transform="translate(343 526.302)" fill="black">
          <tspan font-family="Helvetica Neue" font-size="16" fill="black" x=".96" y="15">(Un)oppos</tspan>
          <tspan font-family="Helvetica Neue" font-size="16" fill="black" x="1.696" y="33.448">ed returns</tspan>
        </text>
      </g>
      <g id="Graphic_31">
        <rect x="564" y="590.5" width="86" height="36.5" fill="yellow"/>
        <rect x="564" y="590.5" width="86" height="36.5" stroke="black" stroke-linecap="round" stroke-linejoin="round" stroke-width="1"/>
        <text transform="translate(569 590.302)" fill="black">
          <tspan font-family="Helvetica Neue" font-size="16" fill="black" x="12.816" y="15">Papers </tspan>
          <tspan font-family="Helvetica Neue" font-size="16" fill="black" x="4.968" y="33.448">called for</tspan>
        </text>
      </g>
      <g id="Graphic_32">
        <rect x="765" y="266.5" width="86" height="36.5" fill="white"/>
        <rect x="765" y="266.5" width="86" height="36.5" stroke="black" stroke-linecap="round" stroke-linejoin="round" stroke-width="1"/>
        <text transform="translate(770 257.078)" fill="black">
          <tspan font-family="Helvetica Neue" font-size="16" fill="black" x="27.336" y="15">RA </tspan>
          <tspan font-family="Helvetica Neue" font-size="16" fill="black" x="11.624" y="33.448">interest </tspan>
          <tspan font-family="Helvetica Neue" font-size="16" fill="black" x="11.336" y="51.895996">register</tspan>
        </text>
      </g>
      <g id="Graphic_33">
        <rect x="235.5" y="655.5" width="86" height="36.5" fill="white"/>
        <rect x="235.5" y="655.5" width="86" height="36.5" stroke="black" stroke-linecap="round" stroke-linejoin="round" stroke-width="1"/>
        <text transform="translate(240.5 664.526)" fill="black">
          <tspan font-family="Helvetica Neue" font-size="16" fill="black" x="26" y="15">Act</tspan>
        </text>
      </g>
      <g id="Graphic_34">
        <rect x="356.5" y="699" width="86" height="36.5" fill="white"/>
        <rect x="356.5" y="699" width="86" height="36.5" stroke="black" stroke-linecap="round" stroke-linejoin="round" stroke-width="1"/>
        <text transform="translate(361.5 698.802)" fill="black">
          <tspan font-family="Helvetica Neue" font-size="16" fill="black" x="12.064" y="15">Church </tspan>
          <tspan font-family="Helvetica Neue" font-size="16" fill="black" x="7.176" y="33.448">Measure</tspan>
        </text>
      </g>
      <g id="Graphic_35">
        <rect x="496.5" y="196.5" width="86" height="36.5" fill="white"/>
        <rect x="496.5" y="196.5" width="86" height="36.5" stroke="black" stroke-linecap="round" stroke-linejoin="round" stroke-width="1"/>
        <text transform="translate(501.5 187.078)" fill="black">
          <tspan font-family="Helvetica Neue" font-size="16" fill="black" x="3.328" y="15">Proposed </tspan>
          <tspan font-family="Helvetica Neue" font-size="16" fill="black" x="13.544" y="33.448">church </tspan>
          <tspan font-family="Helvetica Neue" font-size="16" fill="black" x="7.32" y="51.895996">measure</tspan>
        </text>
      </g>
    </g>
  </g>
</svg>
