<?xml version="1.0" encoding="UTF-8" standalone="no"?>
<!DOCTYPE svg PUBLIC "-//W3C//DTD SVG 1.1//EN" "http://www.w3.org/Graphics/SVG/1.1/DTD/svg11.dtd">
<svg xmlns="http://www.w3.org/2000/svg" xmlns:xl="http://www.w3.org/1999/xlink" version="1.1" xmlns:dc="http://purl.org/dc/elements/1.1/" viewBox="115 150 1671 647" width="1671" height="647">
  <defs/>
  <g id="Canvas_1" stroke="none" fill="none" stroke-opacity="1" stroke-dasharray="none" fill-opacity="1">
    <title>Canvas 1</title>
    <rect fill="white" x="115" y="150" width="1671" height="647"/>
    <g id="Canvas_1_Layer_1">
      <title>Layer 1</title>
      <g id="Graphic_2">
        <path d="M 666.5417 245.45832 C 792.4863 371.4023 792.4863 575.5977 666.5417 701.5417 C 540.5977 827.4863 336.4023 827.4863 210.45832 701.5417 C 84.51368 575.5977 84.51368 371.4023 210.45832 245.45832 C 336.4023 119.51368 540.5977 119.51368 666.5417 245.45832" fill="white"/>
        <path d="M 666.5417 245.45832 C 792.4863 371.4023 792.4863 575.5977 666.5417 701.5417 C 540.5977 827.4863 336.4023 827.4863 210.45832 701.5417 C 84.51368 575.5977 84.51368 371.4023 210.45832 245.45832 C 336.4023 119.51368 540.5977 119.51368 666.5417 245.45832" stroke="black" stroke-linecap="round" stroke-linejoin="round" stroke-width="1"/>
      </g>
      <g id="Graphic_19">
        <path d="M 640.1465 266.5515 C 752.618 339.2866 752.618 457.2134 640.1465 529.9485 C 527.6756 602.68396 345.3244 602.68396 232.85347 529.9485 C 120.38198 457.2134 120.38198 339.2866 232.85347 266.5515 C 345.3244 193.81604 527.6756 193.81604 640.1465 266.5515" fill="white"/>
        <path d="M 640.1465 266.5515 C 752.618 339.2866 752.618 457.2134 640.1465 529.9485 C 527.6756 602.68396 345.3244 602.68396 232.85347 529.9485 C 120.38198 457.2134 120.38198 339.2866 232.85347 266.5515 C 345.3244 193.81604 527.6756 193.81604 640.1465 266.5515" stroke="black" stroke-linecap="round" stroke-linejoin="round" stroke-width="1"/>
      </g>
      <g id="Graphic_3">
        <text transform="translate(383.5 167.026)" fill="black">
          <tspan font-family="Helvetica Neue" font-size="16" fill="black" x="21.208" y="15" xml:space="preserve">Members</tspan>
        </text>
      </g>
      <g id="Graphic_7">
        <ellipse cx="543.25" cy="355.25" rx="144.250230497348" ry="71.2501138505101" stroke="black" stroke-linecap="round" stroke-linejoin="round" stroke-width="1"/>
      </g>
      <g id="Graphic_6">
        <text transform="translate(495.5 290.802)" fill="black">
          <tspan font-family="Helvetica Neue" font-size="16" fill="black" x="30.848" y="15" xml:space="preserve">Asking </tspan>
          <tspan font-family="Helvetica Neue" font-size="16" fill="black" x="21.208" y="33.448" xml:space="preserve">Members</tspan>
        </text>
      </g>
      <g id="Graphic_9">
        <ellipse cx="356.75" cy="440.625" rx="158.750253666926" ry="89.1251424130065" stroke="black" stroke-linecap="round" stroke-linejoin="round" stroke-width="1"/>
      </g>
      <g id="Graphic_8">
        <text transform="translate(290.25 461.026)" fill="black">
          <tspan font-family="Helvetica Neue" font-size="16" fill="black" x="1.2" y="15" xml:space="preserve">Lead Members</tspan>
        </text>
      </g>
      <g id="Graphic_11">
        <ellipse cx="432.25" cy="693.75" rx="124.750199338261" ry="71.2501138505102" fill="white"/>
        <ellipse cx="432.25" cy="693.75" rx="124.750199338261" ry="71.2501138505102" stroke="black" stroke-linecap="round" stroke-linejoin="round" stroke-width="1"/>
      </g>
      <g id="Graphic_10">
        <text transform="translate(369.5 675.302)" fill="black">
          <tspan font-family="Helvetica Neue" font-size="16" fill="black" x="17.528" y="15" xml:space="preserve">Answering </tspan>
          <tspan font-family="Helvetica Neue" font-size="16" fill="black" x="21.208" y="33.448" xml:space="preserve">Members</tspan>
        </text>
      </g>
      <g id="Graphic_12">
        <ellipse cx="657.5" cy="595" rx="60.0000958741138" ry="58.0000926783099" fill="#ff40ff"/>
        <ellipse cx="657.5" cy="595" rx="60.0000958741138" ry="58.0000926783099" stroke="black" stroke-linecap="round" stroke-linejoin="round" stroke-width="1"/>
      </g>
      <g id="Graphic_13">
        <rect x="802" y="219" width="983.5" height="120" fill="white"/>
        <rect x="802" y="219" width="983.5" height="120" stroke="black" stroke-linecap="round" stroke-linejoin="round" stroke-width="1"/>
        <text transform="translate(807 251.328)" fill="black">
          <tspan font-family="Helvetica Neue" font-size="16" fill="black" x="0" y="15" xml:space="preserve">Members</tspan>
          <tspan font-family="Helvetica Neue" font-size="16" fill="black" x="0" y="33.448" xml:space="preserve">Lead Members (tabling else asking else lead)</tspan>
          <tspan font-family="Helvetica Neue" font-size="16" fill="black" x="0" y="51.895996" xml:space="preserve">Answering Members</tspan>
        </text>
      </g>
      <g id="Graphic_14">
        <rect x="501.75" y="364.58596" width="97.5" height="40.5" fill="white"/>
        <text transform="translate(506.75 375.61197)" fill="black">
          <tspan font-family="Helvetica Neue" font-size="16" fill="black" x="3.718" y="15" xml:space="preserve">22,311,231</tspan>
        </text>
      </g>
      <g id="Graphic_16">
        <rect x="296.5" y="481.5" width="97.5" height="40.5" fill="white"/>
        <text transform="translate(301.5 492.526)" fill="black">
          <tspan font-family="Helvetica Neue" font-size="16" fill="black" x="8.166" y="15" xml:space="preserve">2,105,681</tspan>
        </text>
      </g>
      <g id="Graphic_17">
        <rect x="608.75" y="584.5" width="97.5" height="40.5" fill="white"/>
        <text transform="translate(613.75 595.526)" fill="black">
          <tspan font-family="Helvetica Neue" font-size="16" fill="black" x="8.166" y="15" xml:space="preserve">1,682,911</tspan>
        </text>
      </g>
      <g id="Graphic_18">
        <rect x="802" y="419" width="983.5" height="256.5" fill="white"/>
        <rect x="802" y="419" width="983.5" height="256.5" stroke="black" stroke-linecap="round" stroke-linejoin="round" stroke-width="1"/>
        <text transform="translate(807 455.458)" fill="black">
          <tspan font-family="Helvetica Neue" font-size="16" fill="black" x="0" y="15" xml:space="preserve">Everyone who’s a tabler is a lead</tspan>
          <tspan font-family="Helvetica Neue" font-size="16" fill="black" x="0" y="33.448" xml:space="preserve">Not all leads are tablers, for example: the person moving the motion in a debate is is a lead but not a tabler</tspan>
          <tspan font-family="Helvetica Neue" font-size="16" fill="black" x="0" y="51.895996" xml:space="preserve">Not all tablers are askers, for example: the tabler of an early day motion is a tabler but not an asker</tspan>
          <tspan font-family="Helvetica Neue" font-size="16" fill="black" x="0" y="70.34399" xml:space="preserve">Not all askers are tablers, for example: askers of oral supplementaries is an asker but not a tabler</tspan>
          <tspan font-family="Helvetica Neue" font-size="16" fill="black" x="0" y="88.79199" xml:space="preserve">Not all askers are leads [1], for example: askers of oral supplementaries is an asker but not a lead</tspan>
          <tspan font-family="Helvetica Neue" font-size="16" fill="black" x="0" y="107.23999" xml:space="preserve">Not all leads are askers,  for example: the person moving the motion in a debate is is a lead but not an asker</tspan>
          <tspan font-family="Helvetica Neue" font-size="16" fill="black" x="0" y="161.68799" xml:space="preserve">[1] 359,769 askers are not leads (supplementaries)</tspan>
          <tspan font-family="Helvetica Neue" font-size="16" fill="black" x="0" y="180.13599" xml:space="preserve">Some leads are neither askers nor tablers</tspan>
        </text>
      </g>
      <g id="Graphic_20">
        <text transform="translate(377.25 237.526)" fill="black">
          <tspan font-family="Helvetica Neue" font-size="16" fill="black" x="21.52" y="15" xml:space="preserve">Instigator</tspan>
        </text>
      </g>
      <g id="Graphic_4">
        <ellipse cx="368.5" cy="410.543" rx="116.00018535662" ry="45.9570909786652" stroke="black" stroke-linecap="round" stroke-linejoin="round" stroke-width="1"/>
      </g>
      <g id="Graphic_5">
        <text transform="translate(280.5 376.88797)" fill="black">
          <tspan font-family="Helvetica Neue" font-size="16" fill="black" x="14.68859" y="15" xml:space="preserve">Tabling </tspan>
          <tspan font-family="Helvetica Neue" font-size="16" fill="black" x="6.2325895" y="33.448" xml:space="preserve">Members</tspan>
        </text>
      </g>
      <g id="Graphic_15">
        <rect x="304.94877" y="422.88026" width="103.60246" height="24.239474" fill="white"/>
        <text transform="translate(309.94877 425.776)" fill="black">
          <tspan font-family="Helvetica Neue" font-size="16" fill="black" x="11.217231" y="15" xml:space="preserve">2,029,682</tspan>
        </text>
      </g>
    </g>
  </g>
</svg>
