<?xml version="1.0" encoding="UTF-8" standalone="no"?>
<!DOCTYPE svg PUBLIC "-//W3C//DTD SVG 1.1//EN" "http://www.w3.org/Graphics/SVG/1.1/DTD/svg11.dtd">
<svg xmlns:dc="http://purl.org/dc/elements/1.1/" xmlns="http://www.w3.org/2000/svg" xmlns:xl="http://www.w3.org/1999/xlink" version="1.1" viewBox="115 150 1671 647" width="1671" height="647">
  <defs/>
  <g id="Canvas_1" stroke-opacity="1" stroke-dasharray="none" fill="none" stroke="none" fill-opacity="1">
    <title>Canvas 1</title>
    <rect fill="white" x="115" y="150" width="1671" height="647"/>
    <g id="Canvas_1_Layer_1">
      <title>Layer 1</title>
      <g id="Graphic_2">
        <path d="M 666.5417 245.45832 C 792.4863 371.4023 792.4863 575.5977 666.5417 701.5417 C 540.5977 827.4863 336.4023 827.4863 210.45832 701.5417 C 84.51368 575.5977 84.51368 371.4023 210.45832 245.45832 C 336.4023 119.51368 540.5977 119.51368 666.5417 245.45832" fill="white"/>
        <path d="M 666.5417 245.45832 C 792.4863 371.4023 792.4863 575.5977 666.5417 701.5417 C 540.5977 827.4863 336.4023 827.4863 210.45832 701.5417 C 84.51368 575.5977 84.51368 371.4023 210.45832 245.45832 C 336.4023 119.51368 540.5977 119.51368 666.5417 245.45832" stroke="black" stroke-linecap="round" stroke-linejoin="round" stroke-width="1"/>
      </g>
      <g id="Graphic_19">
        <path d="M 640.1465 266.5515 C 752.618 339.2866 752.618 457.2134 640.1465 529.9485 C 527.6756 602.68396 345.3244 602.68396 232.85347 529.9485 C 120.38198 457.2134 120.38198 339.2866 232.85347 266.5515 C 345.3244 193.81604 527.6756 193.81604 640.1465 266.5515" fill="white"/>
        <path d="M 640.1465 266.5515 C 752.618 339.2866 752.618 457.2134 640.1465 529.9485 C 527.6756 602.68396 345.3244 602.68396 232.85347 529.9485 C 120.38198 457.2134 120.38198 339.2866 232.85347 266.5515 C 345.3244 193.81604 527.6756 193.81604 640.1465 266.5515" stroke="black" stroke-linecap="round" stroke-linejoin="round" stroke-width="1"/>
      </g>
      <g id="Graphic_3">
        <text transform="translate(383.5 167.026)" fill="black">
          <tspan font-family="Helvetica Neue" font-size="16" fill="black" x="21.208" y="15" xml:space="preserve">Members</tspan>
        </text>
      </g>
      <g id="Graphic_7">
        <path d="M 645.25004 304.8687 C 701.5834 332.69353 701.5834 377.80647 645.25004 405.6313 C 588.91695 433.4563 497.58305 433.4563 441.24996 405.6313 C 384.9166 377.80647 384.9166 332.69353 441.24996 304.8687 C 497.58305 277.04372 588.91695 277.04372 645.25004 304.8687" stroke="black" stroke-linecap="round" stroke-linejoin="round" stroke-dasharray="1.0,4.0" stroke-width="1"/>
      </g>
      <g id="Graphic_6">
        <text transform="translate(495.5 288.121)" fill="black">
          <tspan font-family="Helvetica Neue" font-size="16" fill="black" x="30.848" y="15" xml:space="preserve">Asking </tspan>
          <tspan font-family="Helvetica Neue" font-size="16" fill="black" x="21.208" y="33.448" xml:space="preserve">Members</tspan>
          <tspan font-family="Helvetica Neue" font-size="16" fill="black" x="46.408" y="51.895996" xml:space="preserve">[1]</tspan>
        </text>
      </g>
      <g id="Graphic_9">
        <path d="M 480.7531 381.7292 C 542.7491 416.53463 542.7491 472.96537 480.7531 507.7708 C 418.7574 542.57645 318.2426 542.57645 256.24692 507.7708 C 194.25092 472.96537 194.25092 416.53463 256.24692 381.7292 C 318.2426 346.92355 418.7574 346.92355 480.7531 381.7292" stroke="black" stroke-linecap="round" stroke-linejoin="round" stroke-dasharray="1.0,4.0" stroke-width="1"/>
      </g>
      <g id="Graphic_8">
        <text transform="translate(313.5 463.20435)" fill="black">
          <tspan font-family="Helvetica Neue" font-size="16" fill="black" x="1.2" y="15" xml:space="preserve">Lead Members</tspan>
          <tspan font-family="Helvetica Neue" font-size="16" fill="black" x="46.408" y="33.448" xml:space="preserve">[2]</tspan>
        </text>
      </g>
      <g id="Graphic_11">
        <ellipse cx="432.25" cy="693.75" rx="124.750199338261" ry="71.2501138505102" fill="white"/>
        <ellipse cx="432.25" cy="693.75" rx="124.750199338261" ry="71.2501138505102" stroke="black" stroke-linecap="round" stroke-linejoin="round" stroke-width="1"/>
      </g>
      <g id="Graphic_10">
        <text transform="translate(369.5 643.0559)" fill="black">
          <tspan font-family="Helvetica Neue" font-size="16" fill="black" x="17.528" y="15" xml:space="preserve">Answering </tspan>
          <tspan font-family="Helvetica Neue" font-size="16" fill="black" x="21.208" y="33.448" xml:space="preserve">Members</tspan>
        </text>
      </g>
      <g id="Graphic_12">
        <ellipse cx="648.9414" cy="608.96484" rx="60.0000958741138" ry="58.00009267831" fill="white"/>
        <path d="M 691.3678 567.9527 C 714.7993 590.6031 714.7993 627.3266 691.3678 649.977 C 667.9363 672.6275 629.9465 672.6275 606.51505 649.977 C 583.0835 627.3266 583.0835 590.6031 606.51505 567.9527 C 629.9465 545.3022 667.9363 545.3022 691.3678 567.9527" stroke="black" stroke-linecap="round" stroke-linejoin="round" stroke-dasharray="1.0,4.0" stroke-width="1"/>
      </g>
      <g id="Graphic_13">
        <rect x="802" y="219" width="983.5" height="120" fill="white"/>
        <rect x="802" y="219" width="983.5" height="120" stroke="black" stroke-linecap="round" stroke-linejoin="round" stroke-width="1"/>
        <text transform="translate(807 251.328)" fill="black">
          <tspan font-family="Helvetica Neue" font-size="16" fill="black" x="0" y="15" xml:space="preserve">Members</tspan>
          <tspan font-family="Helvetica Neue" font-size="16" fill="black" x="0" y="33.448" xml:space="preserve">Lead Members (tabling else asking else lead)</tspan>
          <tspan font-family="Helvetica Neue" font-size="16" fill="black" x="0" y="51.895996" xml:space="preserve">Answering Members</tspan>
        </text>
      </g>
      <g id="Graphic_14">
        <text transform="translate(506.75 375.61197)" fill="black">
          <tspan font-family="Helvetica Neue" font-size="16" fill="black" x="8.166" y="15" xml:space="preserve">2,311,231</tspan>
        </text>
      </g>
      <g id="Graphic_16">
        <text transform="translate(324.75 504.401)" fill="black">
          <tspan font-family="Helvetica Neue" font-size="16" fill="black" x="8.166" y="15" xml:space="preserve">2,105,681</tspan>
        </text>
      </g>
      <g id="Graphic_17">
        <text transform="translate(605.1914 609.49084)" fill="black">
          <tspan font-family="Helvetica Neue" font-size="16" fill="black" x="8.166" y="15" xml:space="preserve">1,682,911</tspan>
        </text>
      </g>
      <g id="Graphic_18">
        <rect x="802" y="419" width="983.5" height="256.5" fill="white"/>
        <rect x="802" y="419" width="983.5" height="256.5" stroke="black" stroke-linecap="round" stroke-linejoin="round" stroke-width="1"/>
        <text transform="translate(807 446.458)" fill="black">
          <tspan font-family="Helvetica Neue" font-size="16" fill="black" x="0" y="15" xml:space="preserve">Everyone who’s a tabler is a lead</tspan>
          <tspan font-family="Helvetica Neue" font-size="16" fill="black" x="0" y="33.448" xml:space="preserve">Not all tablers are askers, for example: the tabler of an early day motion is a tabler but not an asker</tspan>
          <tspan font-family="Helvetica Neue" font-size="16" fill="black" x="0" y="51.895996" xml:space="preserve">Not all leads are tablers, for example: the person moving the motion in a debate is is a lead but not a tabler</tspan>
          <tspan font-family="Helvetica Neue" font-size="16" fill="black" x="0" y="70.34399" xml:space="preserve">Not all leads are askers,  for example: the person moving the motion in a debate is is a lead but not an asker</tspan>
          <tspan font-family="Helvetica Neue" font-size="16" fill="black" x="0" y="88.79199" xml:space="preserve">Not all askers are tablers, for example: askers of oral supplementaries is an asker but not a tabler</tspan>
          <tspan font-family="Helvetica Neue" font-size="16" fill="black" x="0" y="107.23999" xml:space="preserve">Not all askers are leads [1], for example: askers of oral supplementaries is an asker but not a lead</tspan>
          <tspan font-family="Helvetica Neue" font-size="16" fill="black" x="0" y="179.68799" xml:space="preserve">[1] 359,769 askers are not leads (supplementaries)</tspan>
          <tspan font-family="Helvetica Neue" font-size="16" fill="black" x="0" y="198.13599" xml:space="preserve">[2] 75,992 leads are neither askers nor tablers</tspan>
        </text>
      </g>
      <g id="Graphic_20">
        <text transform="translate(377.25 228.302)" fill="black">
          <tspan font-family="Helvetica Neue" font-size="16" fill="black" x="24.04" y="15" xml:space="preserve">Principal </tspan>
          <tspan font-family="Helvetica Neue" font-size="16" fill="black" x="21.208" y="33.448" xml:space="preserve">Members</tspan>
        </text>
      </g>
      <g id="Graphic_4">
        <path d="M 450.5243 378.0465 C 495.8253 395.9938 495.8253 425.09215 450.5243 443.03947 C 405.2235 460.9869 331.7765 460.9869 286.4757 443.03947 C 241.1747 425.09215 241.1747 395.9938 286.4757 378.0465 C 331.7765 360.0991 405.2235 360.0991 450.5243 378.0465" stroke="black" stroke-linecap="round" stroke-linejoin="round" stroke-dasharray="1.0,4.0" stroke-width="1"/>
      </g>
      <g id="Graphic_5">
        <text transform="translate(280.5 376.88797)" fill="black">
          <tspan font-family="Helvetica Neue" font-size="16" fill="black" x="14.68859" y="15" xml:space="preserve">Tabling </tspan>
          <tspan font-family="Helvetica Neue" font-size="16" fill="black" x="6.2325895" y="33.448" xml:space="preserve">Members</tspan>
        </text>
      </g>
      <g id="Graphic_15">
        <rect x="304.94877" y="422.88026" width="103.60246" height="24.239474" fill="white"/>
        <text transform="translate(309.94877 425.776)" fill="black">
          <tspan font-family="Helvetica Neue" font-size="16" fill="black" x="11.217231" y="15" xml:space="preserve">2,029,682</tspan>
        </text>
      </g>
      <g id="Graphic_21">
        <text transform="translate(369.5 716.7682)" fill="black">
          <tspan font-family="Helvetica Neue" font-size="16" fill="black" x="19.416" y="15" xml:space="preserve">2,430,913</tspan>
        </text>
      </g>
      <g id="Graphic_22">
        <text transform="translate(593.9414 573.67444)" fill="black">
          <tspan font-family="Helvetica Neue" font-size="16" fill="black" x="8.168" y="15" xml:space="preserve">Member only</tspan>
        </text>
      </g>
    </g>
  </g>
</svg>
