<?xml version="1.0" encoding="UTF-8" standalone="no"?>
<!DOCTYPE svg PUBLIC "-//W3C//DTD SVG 1.1//EN" "http://www.w3.org/Graphics/SVG/1.1/DTD/svg11.dtd">
<!-- Generated by Microsoft Visio, SVG Export end-reasons.svg Page-1 -->
<svg xmlns="http://www.w3.org/2000/svg" xmlns:xlink="http://www.w3.org/1999/xlink" xmlns:ev="http://www.w3.org/2001/xml-events"
		xmlns:v="http://schemas.microsoft.com/visio/2003/SVGExtensions/" width="45.2717in" height="23.8031in"
		viewBox="0 0 3259.56 1713.83" xml:space="preserve" color-interpolation-filters="sRGB" class="st20">
	<v:documentProperties v:langID="2057" v:metric="true" v:viewMarkup="false">
		<v:userDefs>
			<v:ud v:nameU="msvNoAutoConnect" v:val="VT0(1):26"/>
		</v:userDefs>
	</v:documentProperties>

	<style type="text/css">
	<![CDATA[
		.st1 {fill:#a5a5a5;fill-opacity:0.6;stroke:#000000;stroke-linecap:round;stroke-linejoin:round;stroke-width:0.5}
		.st2 {fill:#a5a5a5;fill-opacity:0.8;stroke:#000000;stroke-linecap:round;stroke-linejoin:round;stroke-width:0.5}
		.st3 {fill:#d8d8d8;stroke:#000000;stroke-dasharray:0.75,0.75;stroke-width:0.25}
		.st4 {fill:#000000;font-family:Calibri;font-size:1.00001em}
		.st5 {font-size:0.666659em}
		.st6 {font-size:0.83333em}
		.st7 {fill:#7effff;stroke:#000000;stroke-dasharray:0.75,0.75;stroke-width:0.25}
		.st8 {fill:#ffffff;stroke:#000000;stroke-width:0.25}
		.st9 {fill:#000000;font-family:Calibri;font-size:0.75em}
		.st10 {fill:#000000;font-family:Calibri;font-size:0.666664em}
		.st11 {font-size:1em}
		.st12 {fill:#000000}
		.st13 {stroke:#000000;stroke-linecap:round;stroke-linejoin:round;stroke-width:0.2376}
		.st14 {marker-end:url(#mrkr4-112);stroke:#000000;stroke-dasharray:2.25,2.25;stroke-linecap:round;stroke-linejoin:round;stroke-width:0.75}
		.st15 {fill:#000000;fill-opacity:1;stroke:#000000;stroke-opacity:1;stroke-width:0.22935779816514}
		.st16 {fill:none;stroke:none;stroke-linecap:round;stroke-linejoin:round;stroke-width:0.75}
		.st17 {fill:#ffffff;font-family:Calibri;font-size:4.00001em;font-weight:bold}
		.st18 {fill:#000000;font-family:Calibri;font-size:3em}
		.st19 {fill:#ffffff;font-family:Calibri;font-size:4.00001em}
		.st20 {fill:none;fill-rule:evenodd;font-size:12px;overflow:visible;stroke-linecap:square;stroke-miterlimit:3}
	]]>
	</style>

	<defs id="Markers">
		<g id="lend4">
			<path d="M 2 1 L 0 0 L 2 -1 L 2 1 " style="stroke:none"/>
		</g>
		<marker id="mrkr4-112" class="st15" v:arrowType="4" v:arrowSize="2" v:setback="8.72" refX="-8.72" orient="auto"
				markerUnits="strokeWidth" overflow="visible">
			<use xlink:href="#lend4" transform="scale(-4.36,-4.36) "/>
		</marker>
	</defs>
	<g v:mID="0" v:index="1" v:groupContext="foregroundPage">
		<title>Page-1</title>
		<v:pageProperties v:drawingScale="0.0393701" v:pageScale="0.0393701" v:drawingUnits="24" v:shadowOffsetX="8.50394"
				v:shadowOffsetY="-8.50394"/>
		<v:layer v:name="Connector" v:index="0"/>
		<g id="shape167-1" v:mID="167" v:groupContext="shape" transform="translate(1712.98,-204.945)">
			<title>Circle.167</title>
			<v:userDefs>
				<v:ud v:nameU="visVersion" v:val="VT0(15):26"/>
			</v:userDefs>
			<path d="M0 1161.07 A666.142 552.756 0 1 1 1332.28 1161.07 A666.142 552.756 0 1 1 0 1161.07 Z" class="st1"/>
		</g>
		<g id="shape166-3" v:mID="166" v:groupContext="shape" transform="translate(522.425,-119.906)">
			<title>Circle</title>
			<v:userDefs>
				<v:ud v:nameU="visVersion" v:val="VT0(15):26"/>
			</v:userDefs>
			<path d="M0 1019.86 A744.094 693.968 0 1 1 1488.19 1019.86 A744.094 693.968 0 1 1 0 1019.86 Z" class="st2"/>
		</g>
		<g id="shape49-5" v:mID="49" v:groupContext="shape" transform="translate(754.165,-786.047)">
			<title>Step depth label.49</title>
			<desc>Recall MPs Act 2015 Section 15</desc>
			<v:userDefs>
				<v:ud v:nameU="visVersion" v:val="VT0(15):26"/>
			</v:userDefs>
			<v:textBlock v:margins="rect(4,4,4,4)" v:tabSpace="42.5197" v:verticalAlign="0"/>
			<v:textRect cx="57.1696" cy="1635.64" width="114.34" height="156.382"/>
			<path d="M0 1713.83 L114.34 1713.83 L114.34 1557.44 L0 1557.44 L0 1713.83 Z" class="st3"/>
			<text x="4" y="1572.24" class="st4" v:langID="2057"><v:paragraph/><v:tabList/>Recall MPs Act 2015<v:newlineChar/><v:paragraph/><tspan
						x="4" dy="1.575em" class="st5">   </tspan><tspan class="st6">Section 15</tspan></text>		</g>
		<g id="shape48-10" v:mID="48" v:groupContext="shape" transform="translate(1562.04,-1034.08)">
			<title>Step depth label.48</title>
			<desc>Election court</desc>
			<v:userDefs>
				<v:ud v:nameU="visVersion" v:val="VT0(15):26"/>
			</v:userDefs>
			<v:textBlock v:margins="rect(4,4,4,4)" v:tabSpace="42.5197" v:verticalAlign="0"/>
			<v:textRect cx="128.126" cy="1593.35" width="256.26" height="240.945"/>
			<path d="M0 1713.83 L256.25 1713.83 L256.25 1472.88 L0 1472.88 L0 1713.83 Z" class="st7"/>
			<text x="4" y="1487.68" class="st4" v:langID="2057"><v:paragraph/><v:tabList/>Election court</text>		</g>
		<g id="shape47-13" v:mID="47" v:groupContext="shape" transform="translate(735.024,-956.126)">
			<title>Step depth label.47</title>
			<desc>Resignation</desc>
			<v:userDefs>
				<v:ud v:nameU="visVersion" v:val="VT0(15):26"/>
			</v:userDefs>
			<v:textBlock v:margins="rect(4,4,4,4)" v:tabSpace="42.5197" v:verticalAlign="0"/>
			<v:textRect cx="75.1181" cy="1554.38" width="150.24" height="318.898"/>
			<path d="M0 1713.83 L150.24 1713.83 L150.24 1394.93 L0 1394.93 L0 1713.83 Z" class="st7"/>
			<text x="4" y="1409.73" class="st4" v:langID="2057"><v:paragraph/><v:tabList/>Resignation</text>		</g>
		<g id="shape3-16" v:mID="3" v:groupContext="shape" transform="translate(1824.59,-457.701)">
			<title>Business step</title>
			<desc>Incumbency</desc>
			<v:userDefs>
				<v:ud v:nameU="visVersion" v:val="VT0(15):26"/>
			</v:userDefs>
			<v:textBlock v:margins="rect(4,4,4,4)" v:tabSpace="42.5197"/>
			<v:textRect cx="44.2913" cy="1684.3" width="77.51" height="51.6732"/>
			<path d="M0 1684.3 A44.2913 29.5276 0 0 1 88.58 1684.3 A44.2913 29.5276 0 1 1 -0 1684.3 Z" class="st8"/>
			<text x="22.02" y="1687" class="st9" v:langID="2057"><v:paragraph v:horizAlign="1"/><v:tabList/>Incumbency</text>		</g>
		<g id="shape4-19" v:mID="4" v:groupContext="shape" transform="translate(1824.59,-556.913)">
			<title>Business step.4</title>
			<desc>Incumbency end reason</desc>
			<v:userDefs>
				<v:ud v:nameU="visVersion" v:val="VT0(15):26"/>
			</v:userDefs>
			<v:textBlock v:margins="rect(4,4,4,4)" v:tabSpace="42.5197"/>
			<v:textRect cx="44.2913" cy="1684.3" width="77.51" height="51.6732"/>
			<path d="M0 1684.3 A44.2913 29.5276 0 0 1 88.58 1684.3 A44.2913 29.5276 0 1 1 -0 1684.3 Z" class="st8"/>
			<text x="24.5" y="1681.9" class="st10" v:langID="2057"><v:paragraph v:horizAlign="1"/><v:tabList/>Incumbency <v:newlineChar/><tspan
						x="26.12" dy="1.2em" class="st11">end reason</tspan></text>		</g>
		<g id="shape5-23" v:mID="5" v:groupContext="shape" transform="translate(1822.82,-953.764)">
			<title>Business step.5</title>
			<desc>Death</desc>
			<v:userDefs>
				<v:ud v:nameU="visVersion" v:val="VT0(15):26"/>
			</v:userDefs>
			<v:textBlock v:margins="rect(4,4,4,4)" v:tabSpace="42.5197"/>
			<v:textRect cx="44.2913" cy="1684.3" width="77.51" height="51.6732"/>
			<path d="M0 1684.3 A44.2913 29.5276 0 0 1 88.58 1684.3 A44.2913 29.5276 0 1 1 -0 1684.3 Z" class="st8"/>
			<text x="34.48" y="1686.7" class="st10" v:langID="2057"><v:paragraph v:horizAlign="1"/><v:tabList/>Death</text>		</g>
		<g id="shape6-26" v:mID="6" v:groupContext="shape" transform="translate(767.043,-698.884)">
			<title>Business step.6</title>
			<desc>Dissolution</desc>
			<v:userDefs>
				<v:ud v:nameU="visVersion" v:val="VT0(15):26"/>
			</v:userDefs>
			<v:textBlock v:margins="rect(4,4,4,4)" v:tabSpace="42.5197"/>
			<v:textRect cx="44.2913" cy="1684.3" width="77.51" height="51.6732"/>
			<path d="M0 1684.3 A44.2913 29.5276 0 0 1 88.58 1684.3 A44.2913 29.5276 0 1 1 -0 1684.3 Z" class="st8"/>
			<text x="26.19" y="1686.7" class="st10" v:langID="2057"><v:paragraph v:horizAlign="1"/><v:tabList/>Dissolution</text>		</g>
		<g id="shape7-29" v:mID="7" v:groupContext="shape" transform="translate(767.043,-611.721)">
			<title>Business step.7</title>
			<desc>Elevation without resignation</desc>
			<v:userDefs>
				<v:ud v:nameU="visVersion" v:val="VT0(15):26"/>
			</v:userDefs>
			<v:textBlock v:margins="rect(4,4,4,4)" v:tabSpace="42.5197"/>
			<v:textRect cx="44.2913" cy="1684.3" width="77.51" height="51.6732"/>
			<path d="M0 1684.3 A44.2913 29.5276 0 0 1 88.58 1684.3 A44.2913 29.5276 0 1 1 -0 1684.3 Z" class="st8"/>
			<text x="15.57" y="1681.9" class="st10" v:langID="2057"><v:paragraph v:horizAlign="1"/><v:tabList/>Elevation without<v:newlineChar/><tspan
						x="26.06" dy="1.2em" class="st11">resignation</tspan></text>		</g>
		<g id="shape46-33" v:mID="46" v:groupContext="shape" transform="translate(890.929,-1034.08)">
			<title>Step depth label</title>
			<desc>Disqualification</desc>
			<v:userDefs>
				<v:ud v:nameU="visVersion" v:val="VT0(15):26"/>
			</v:userDefs>
			<v:textBlock v:margins="rect(4,4,4,4)" v:tabSpace="42.5197" v:verticalAlign="0"/>
			<v:textRect cx="333.071" cy="1593.35" width="666.15" height="240.945"/>
			<path d="M0 1713.83 L666.14 1713.83 L666.14 1472.88 L0 1472.88 L0 1713.83 Z" class="st7"/>
			<text x="4" y="1487.68" class="st4" v:langID="2057"><v:paragraph/><v:tabList/>Disqualification</text>		</g>
		<g id="shape51-36" v:mID="51" v:groupContext="shape" transform="translate(754.866,-970.776)">
			<title>Step depth label.51</title>
			<desc>House of Commons Disqualification Act 1975 Section 4 Section 1</desc>
			<v:userDefs>
				<v:ud v:nameU="visVersion" v:val="VT0(15):26"/>
			</v:userDefs>
			<v:textBlock v:margins="rect(4,4,4,4)" v:tabSpace="42.5197" v:verticalAlign="0"/>
			<v:textRect cx="117.638" cy="1593.35" width="235.28" height="240.945"/>
			<path d="M0 1713.83 L235.28 1713.83 L235.28 1472.88 L0 1472.88 L0 1713.83 Z" class="st3"/>
			<text x="4" y="1487.68" class="st4" v:langID="2057"><v:paragraph/><v:tabList/>House of Commons Disqualification Act 1975<v:newlineChar/><tspan
						x="4" dy="1.2em" class="st11">   </tspan><tspan class="st6">Section 4                                               Section 1                            </tspan>                            </text>		</g>
		<g id="shape54-41" v:mID="54" v:groupContext="shape" transform="translate(1212.66,-1055.34)">
			<title>Step depth label.54</title>
			<desc>Insolvency Act 1986 Section 426A Section 427</desc>
			<v:userDefs>
				<v:ud v:nameU="visVersion" v:val="VT0(15):26"/>
			</v:userDefs>
			<v:textBlock v:margins="rect(4,4,4,4)" v:tabSpace="42.5197" v:verticalAlign="0"/>
			<v:textRect cx="108.425" cy="1635.64" width="216.86" height="156.382"/>
			<path d="M0 1713.83 L216.85 1713.83 L216.85 1557.44 L0 1557.44 L0 1713.83 Z" class="st3"/>
			<text x="4" y="1572.24" class="st4" v:langID="2057"><v:paragraph/><v:tabList/>Insolvency Act 1986<v:newlineChar/><v:paragraph/><tspan
						x="4" dy="1.575em" class="st5">   </tspan><tspan class="st6">Section 426A                                Section 427</tspan></text>		</g>
		<g id="shape18-46" v:mID="18" v:groupContext="shape" transform="translate(1214.2,-1078.25)">
			<title>Business step.18</title>
			<desc>Bankruptcy</desc>
			<v:userDefs>
				<v:ud v:nameU="visVersion" v:val="VT0(15):26"/>
			</v:userDefs>
			<v:textBlock v:margins="rect(4,4,4,4)" v:tabSpace="42.5197"/>
			<v:textRect cx="44.2913" cy="1684.3" width="77.51" height="51.6732"/>
			<path d="M0 1684.3 A44.2913 29.5276 0 0 1 88.58 1684.3 A44.2913 29.5276 0 1 1 -0 1684.3 Z" class="st8"/>
			<text x="25.84" y="1686.7" class="st10" v:langID="2057"><v:paragraph v:horizAlign="1"/><v:tabList/>Bankruptcy</text>		</g>
		<g id="shape19-49" v:mID="19" v:groupContext="shape" transform="translate(1326.76,-1078.25)">
			<title>Business step.19</title>
			<desc>Sequestration</desc>
			<v:userDefs>
				<v:ud v:nameU="visVersion" v:val="VT0(15):26"/>
			</v:userDefs>
			<v:textBlock v:margins="rect(4,4,4,4)" v:tabSpace="42.5197"/>
			<v:textRect cx="44.2913" cy="1684.3" width="77.51" height="51.6732"/>
			<path d="M0 1684.3 A44.2913 29.5276 0 0 1 88.58 1684.3 A44.2913 29.5276 0 1 1 -0 1684.3 Z" class="st8"/>
			<text x="21.59" y="1686.7" class="st10" v:langID="2057"><v:paragraph v:horizAlign="1"/><v:tabList/>Sequestration</text>		</g>
		<g id="shape53-52" v:mID="53" v:groupContext="shape" transform="translate(998.646,-1054.86)">
			<title>Step depth label.53</title>
			<desc>Representation of the People Act 1981 Section 1</desc>
			<v:userDefs>
				<v:ud v:nameU="visVersion" v:val="VT0(15):26"/>
			</v:userDefs>
			<v:textBlock v:margins="rect(4,4,4,4)" v:tabSpace="42.5197" v:verticalAlign="0"/>
			<v:textRect cx="101.923" cy="1635.64" width="203.85" height="156.382"/>
			<path d="M0 1713.83 L203.85 1713.83 L203.85 1557.44 L0 1557.44 L0 1713.83 Z" class="st3"/>
			<text x="4" y="1572.24" class="st4" v:langID="2057"><v:paragraph/><v:tabList/>Representation of the People Act 1981<v:newlineChar/><v:paragraph/><tspan
						x="4" dy="1.575em" class="st5">   </tspan><tspan class="st6">Section 1</tspan></text>		</g>
		<g id="shape15-57" v:mID="15" v:groupContext="shape" transform="translate(1012.82,-1078.25)">
			<title>Business step.15</title>
			<desc>Disqualification following imprisonment for more than a year</desc>
			<v:userDefs>
				<v:ud v:nameU="visVersion" v:val="VT0(15):26"/>
			</v:userDefs>
			<v:textBlock v:margins="rect(4,4,4,4)" v:tabSpace="42.5197"/>
			<v:textRect cx="44.2913" cy="1684.3" width="77.51" height="51.6732"/>
			<path d="M0 1684.3 A44.2913 29.5276 0 0 1 88.58 1684.3 A44.2913 29.5276 0 1 1 -0 1684.3 Z" class="st8"/>
			<text x="19.18" y="1672.3" class="st10" v:langID="2057"><v:paragraph v:horizAlign="1"/><v:tabList/>Disqualification <tspan
						x="29.25" dy="1.2em" class="st11">following </tspan><tspan x="15.73" dy="1.2em" class="st11">imprisonment for </tspan><tspan
						x="16.4" dy="1.2em" class="st11">more than a year</tspan></text>		</g>
		<g id="shape55-63" v:mID="55" v:groupContext="shape" transform="translate(1445.1,-1054.39)">
			<title>Step depth label.55</title>
			<desc>Representation of the People Act 1983</desc>
			<v:userDefs>
				<v:ud v:nameU="visVersion" v:val="VT0(15):26"/>
			</v:userDefs>
			<v:textBlock v:margins="rect(4,4,4,4)" v:tabSpace="42.5197" v:verticalAlign="0"/>
			<v:textRect cx="172.913" cy="1635.64" width="345.83" height="156.382"/>
			<path d="M0 1713.83 L345.83 1713.83 L345.83 1557.44 L0 1557.44 L0 1713.83 Z" class="st3"/>
			<text x="4" y="1572.24" class="st4" v:langID="2057"><v:paragraph/><v:tabList/>Representation of the People Act 1983<v:newlineChar/><v:paragraph/>                                 </text>		</g>
		<g id="shape56-66" v:mID="56" v:groupContext="shape" transform="translate(1443.69,-1055.34)">
			<title>Step depth label.56</title>
			<desc>Elections Act 2022 Part 5</desc>
			<v:userDefs>
				<v:ud v:nameU="visVersion" v:val="VT0(15):26"/>
			</v:userDefs>
			<v:textBlock v:margins="rect(4,4,4,4)" v:tabSpace="42.5197" v:verticalAlign="0"/>
			<v:textRect cx="56.6929" cy="1657.13" width="113.39" height="113.386"/>
			<path d="M0 1713.83 L113.39 1713.83 L113.39 1600.44 L0 1600.44 L0 1713.83 Z" class="st3"/>
			<text x="4" y="1615.24" class="st4" v:langID="2057"><v:paragraph/><v:tabList/>Elections Act 2022<v:newlineChar/><v:paragraph/><tspan
						x="4" dy="1.575em" class="st5">   </tspan><tspan class="st6">Part 5</tspan></text>		</g>
		<g id="shape17-71" v:mID="17" v:groupContext="shape" transform="translate(1456.5,-1078.25)">
			<title>Business step.17</title>
			<desc>Disqualification following a verdict of corrupt or illegal pr...</desc>
			<v:userDefs>
				<v:ud v:nameU="visVersion" v:val="VT0(15):26"/>
			</v:userDefs>
			<v:textBlock v:margins="rect(4,4,4,4)" v:tabSpace="42.5197"/>
			<v:textRect cx="44.2913" cy="1684.3" width="77.51" height="51.6732"/>
			<path d="M0 1684.3 A44.2913 29.5276 0 0 1 88.58 1684.3 A44.2913 29.5276 0 1 1 -0 1684.3 Z" class="st8"/>
			<text x="19.18" y="1667.5" class="st10" v:langID="2057"><v:paragraph v:horizAlign="1"/><v:tabList/>Disqualification <tspan
						x="10.05" dy="1.2em" class="st11">following a verdict of </tspan><tspan x="17.39" dy="1.2em" class="st11">corrupt or illegal </tspan><tspan
						x="18.53" dy="1.2em" class="st11">practices by the </tspan><tspan x="20.13" dy="1.2em" class="st11">criminal courts </tspan> </text>		</g>
		<g id="shape22-78" v:mID="22" v:groupContext="shape" transform="translate(1698.8,-1078.25)">
			<title>Business step.22</title>
			<desc>Election return declared undue by the election court</desc>
			<v:userDefs>
				<v:ud v:nameU="visVersion" v:val="VT0(15):26"/>
			</v:userDefs>
			<v:textBlock v:margins="rect(4,4,4,4)" v:tabSpace="42.5197"/>
			<v:textRect cx="44.2913" cy="1684.3" width="77.51" height="51.6732"/>
			<path d="M0 1684.3 A44.2913 29.5276 0 0 1 88.58 1684.3 A44.2913 29.5276 0 1 1 -0 1684.3 Z" class="st8"/>
			<text x="20.04" y="1677.1" class="st10" v:langID="2057"><v:paragraph v:horizAlign="1"/><v:tabList/>Election return <tspan
						x="14.07" dy="1.2em" class="st11">declared undue by </tspan><tspan x="15.36" dy="1.2em" class="st11">the election court </tspan> </text>		</g>
		<g id="shape21-83" v:mID="21" v:groupContext="shape" transform="translate(1577.65,-1078.25)">
			<title>Business step.21</title>
			<desc>Election declared void by the election court</desc>
			<v:userDefs>
				<v:ud v:nameU="visVersion" v:val="VT0(15):26"/>
			</v:userDefs>
			<v:textBlock v:margins="rect(4,4,4,4)" v:tabSpace="42.5197"/>
			<v:textRect cx="44.2913" cy="1684.3" width="77.51" height="51.6732"/>
			<path d="M0 1684.3 A44.2913 29.5276 0 0 1 88.58 1684.3 A44.2913 29.5276 0 1 1 -0 1684.3 Z" class="st8"/>
			<text x="16.26" y="1677.1" class="st10" v:langID="2057"><v:paragraph v:horizAlign="1"/><v:tabList/>Election declared <tspan
						x="12.24" dy="1.2em" class="st11">void by the election </tspan><tspan x="35.65" dy="1.2em" class="st11">court</tspan></text>		</g>
		<g id="shape16-88" v:mID="16" v:groupContext="shape" transform="translate(895.181,-1078.25)">
			<title>Business step.16</title>
			<desc>Disqualification by office holding</desc>
			<v:userDefs>
				<v:ud v:nameU="visVersion" v:val="VT0(15):26"/>
			</v:userDefs>
			<v:textBlock v:margins="rect(4,4,4,4)" v:tabSpace="42.5197"/>
			<v:textRect cx="44.2913" cy="1684.3" width="77.51" height="51.6732"/>
			<path d="M0 1684.3 A44.2913 29.5276 0 0 1 88.58 1684.3 A44.2913 29.5276 0 1 1 -0 1684.3 Z" class="st8"/>
			<text x="14.36" y="1681.9" class="st10" v:langID="2057"><v:paragraph v:horizAlign="1"/><v:tabList/>Disqualification by <tspan
						x="22.1" dy="1.2em" class="st11">office holding</tspan></text>		</g>
		<g id="shape11-92" v:mID="11" v:groupContext="shape" transform="translate(777.543,-1078.25)">
			<title>Business step.11</title>
			<desc>Resignation (Chiltern)</desc>
			<v:userDefs>
				<v:ud v:nameU="visVersion" v:val="VT0(15):26"/>
			</v:userDefs>
			<v:textBlock v:margins="rect(4,4,4,4)" v:tabSpace="42.5197"/>
			<v:textRect cx="44.2913" cy="1684.3" width="77.51" height="51.6732"/>
			<path d="M0 1684.3 A44.2913 29.5276 0 0 1 88.58 1684.3 A44.2913 29.5276 0 1 1 -0 1684.3 Z" class="st8"/>
			<text x="25.28" y="1681.9" class="st10" v:langID="2057"><v:paragraph v:horizAlign="1"/><v:tabList/>Resignation <v:newlineChar/><tspan
						x="28.97" dy="1.2em" class="st11">(Chiltern)</tspan></text>		</g>
		<g id="shape12-96" v:mID="12" v:groupContext="shape" transform="translate(779.457,-998.646)">
			<title>Business step.12</title>
			<desc>Resignation (Northstead)</desc>
			<v:userDefs>
				<v:ud v:nameU="visVersion" v:val="VT0(15):26"/>
			</v:userDefs>
			<v:textBlock v:margins="rect(4,4,4,4)" v:tabSpace="42.5197"/>
			<v:textRect cx="44.2913" cy="1684.3" width="77.51" height="51.6732"/>
			<path d="M0 1684.3 A44.2913 29.5276 0 0 1 88.58 1684.3 A44.2913 29.5276 0 1 1 -0 1684.3 Z" class="st8"/>
			<text x="25.28" y="1681.9" class="st10" v:langID="2057"><v:paragraph v:horizAlign="1"/><v:tabList/>Resignation<v:newlineChar/><tspan
						x="23.43" dy="1.2em" class="st11">(Northstead)</tspan></text>		</g>
		<g id="shape20-100" v:mID="20" v:groupContext="shape" transform="translate(767.043,-809.437)">
			<title>Business step.20</title>
			<desc>Recall</desc>
			<v:userDefs>
				<v:ud v:nameU="visVersion" v:val="VT0(15):26"/>
			</v:userDefs>
			<v:textBlock v:margins="rect(4,4,4,4)" v:tabSpace="42.5197"/>
			<v:textRect cx="44.2913" cy="1684.3" width="77.51" height="51.6732"/>
			<path d="M0 1684.3 A44.2913 29.5276 0 0 1 88.58 1684.3 A44.2913 29.5276 0 1 1 -0 1684.3 Z" class="st8"/>
			<text x="34.69" y="1686.7" class="st10" v:langID="2057"><v:paragraph v:horizAlign="1"/><v:tabList/>Recall</text>		</g>
		<g id="shape60-103" v:mID="60" v:groupContext="shape" transform="translate(155.055,1197.07) rotate(-90)">
			<title>Line Arrow</title>
			<v:userDefs>
				<v:ud v:nameU="Scale" v:val="VT0(1):26"/>
				<v:ud v:nameU="AntiScale" v:val="VT0(1):26"/>
				<v:ud v:nameU="visVersion" v:val="VT0(17):26"/>
			</v:userDefs>
			<path d="M33.77 1710.63 L33.77 1717.02 L40.16 1713.83 L33.77 1710.63 Z" class="st12"/>
			<path d="M33.77 1710.63 L33.77 1717.02 L40.16 1713.83 L33.77 1710.63" class="st13"/>
			<path d="M0 1713.83 L33.77 1713.83" class="st13"/>
		</g>
		<g id="shape61-107" v:mID="61" v:groupContext="shape" v:layerMember="0" transform="translate(1860.91,-953.764)">
			<title>Connectors</title>
			<path d="M6.2 1713.83 L7.94 2045.08" class="st14"/>
		</g>
		<g id="shape62-113" v:mID="62" v:groupContext="shape" v:layerMember="0" transform="translate(1743.09,-1078.25)">
			<title>Connectors.62</title>
			<path d="M0 1713.83 L116.72 2170.19" class="st14"/>
		</g>
		<g id="shape63-118" v:mID="63" v:groupContext="shape" v:layerMember="0" transform="translate(1635.28,-1079.62)">
			<title>Connectors.63</title>
			<path d="M0 1713.83 L217.47 2172.94" class="st14"/>
		</g>
		<g id="shape64-123" v:mID="64" v:groupContext="shape" v:layerMember="0" transform="translate(1519.65,-1081.06)">
			<title>Connectors.64</title>
			<path d="M0 1713.83 L326.59 2176.39" class="st14"/>
		</g>
		<g id="shape65-128" v:mID="65" v:groupContext="shape" v:layerMember="0" transform="translate(1394.83,-1082.87)">
			<title>Connectors.65</title>
			<path d="M0 1713.83 L445.75 2180.62" class="st14"/>
		</g>
		<g id="shape66-133" v:mID="66" v:groupContext="shape" v:layerMember="0" transform="translate(1285.74,-1084.5)">
			<title>Connectors.66</title>
			<path d="M0 1713.83 L550.92 2184.37" class="st14"/>
		</g>
		<g id="shape67-138" v:mID="67" v:groupContext="shape" v:layerMember="0" transform="translate(1089.01,-1087.29)">
			<title>Connectors.67</title>
			<path d="M0 1713.83 L742.47 2190.66" class="st14"/>
		</g>
		<g id="shape68-143" v:mID="68" v:groupContext="shape" v:layerMember="0" transform="translate(973.363,-1088.77)">
			<title>Connectors.68</title>
			<path d="M0 1713.83 L855.92 2193.94" class="st14"/>
		</g>
		<g id="shape69-148" v:mID="69" v:groupContext="shape" v:layerMember="0" transform="translate(857.321,-1090.11)">
			<title>Connectors.69</title>
			<path d="M0 1713.83 L970.22 2196.91" class="st14"/>
		</g>
		<g id="shape76-153" v:mID="76" v:groupContext="shape" v:layerMember="0" transform="translate(861.155,-1012.36)">
			<title>Connectors.76</title>
			<path d="M0 1713.83 L964.3 2121.39" class="st14"/>
		</g>
		<g id="shape79-158" v:mID="79" v:groupContext="shape" v:layerMember="0" transform="translate(855.626,-838.965)">
			<title>Connectors.79</title>
			<path d="M0 1713.83 L965.42 1954.43" class="st14"/>
		</g>
		<g id="shape80-163" v:mID="80" v:groupContext="shape" v:layerMember="0" transform="translate(854.71,-722.437)">
			<title>Connectors.80</title>
			<path d="M0 1713.83 L963.55 1846.54" class="st14"/>
		</g>
		<g id="shape81-168" v:mID="81" v:groupContext="shape" v:layerMember="0" transform="translate(855.626,-641.248)">
			<title>Connectors.81</title>
			<path d="M0 1713.83 L962.58 1765.89" class="st14"/>
		</g>
		<g id="shape84-173" v:mID="84" v:groupContext="shape" transform="translate(975.968,-1296.28)">
			<title>Commons label</title>
			<desc>Commons</desc>
			<v:textBlock v:margins="rect(4,4,4,4)" v:tabSpace="42.5197"/>
			<v:textRect cx="226.772" cy="1657.13" width="453.55" height="113.386"/>
			<rect x="0" y="1600.44" width="453.543" height="113.386" class="st16"/>
			<text x="126.76" y="1671.53" class="st17" v:langID="2057"><v:paragraph v:horizAlign="1"/><v:tabList/>Commons</text>		</g>
		<g id="shape85-176" v:mID="85" v:groupContext="shape" transform="translate(600.378,-1560.19)">
			<title>Procedure title</title>
			<desc>House membership end reasons sketch</desc>
			<v:textBlock v:margins="rect(4,4,4,4)" v:tabSpace="42.5197"/>
			<v:textRect cx="304.724" cy="1689.87" width="609.45" height="47.9055"/>
			<rect x="0" y="1665.92" width="609.449" height="47.9055" class="st16"/>
			<text x="4" y="1700.67" class="st18" v:langID="2057"><v:paragraph/><v:tabList/>House membership end reasons sketch</text>		</g>
		<g id="shape87-179" v:mID="87" v:groupContext="shape" transform="translate(1990.77,-1049.41)">
			<title>Step depth label.87</title>
			<desc>House of Lords Reform Act 2014 Section 1 Section 2 Section 3</desc>
			<v:userDefs>
				<v:ud v:nameU="visVersion" v:val="VT0(15):26"/>
			</v:userDefs>
			<v:textBlock v:margins="rect(4,4,4,4)" v:tabSpace="42.5197" v:verticalAlign="0"/>
			<v:textRect cx="180" cy="1635.64" width="360" height="156.382"/>
			<path d="M0 1713.83 L360 1713.83 L360 1557.44 L0 1557.44 L0 1713.83 Z" class="st3"/>
			<text x="4" y="1572.24" class="st4" v:langID="2057"><v:paragraph/><v:tabList/>House of Lords Reform Act 2014<v:newlineChar/><tspan
						x="4" dy="1.26em" class="st6">   </tspan><tspan class="st6">Section 1                                       Section 2                                       Section 3</tspan><v:newlineChar/><v:paragraph/>                                 </text>		</g>
		<g id="shape26-184" v:mID="26" v:groupContext="shape" transform="translate(2007.07,-1078.25)">
			<title>Business step.26</title>
			<desc>Retired</desc>
			<v:userDefs>
				<v:ud v:nameU="visVersion" v:val="VT0(15):26"/>
			</v:userDefs>
			<v:textBlock v:margins="rect(4,4,4,4)" v:tabSpace="42.5197"/>
			<v:textRect cx="44.2913" cy="1684.3" width="77.51" height="51.6732"/>
			<path d="M0 1684.3 A44.2913 29.5276 0 0 1 88.58 1684.3 A44.2913 29.5276 0 1 1 -0 1684.3 Z" class="st8"/>
			<text x="32.39" y="1686.7" class="st10" v:langID="2057"><v:paragraph v:horizAlign="1"/><v:tabList/>Retired</text>		</g>
		<g id="shape27-187" v:mID="27" v:groupContext="shape" transform="translate(2127.76,-1078.25)">
			<title>Business step.27</title>
			<desc>Non-attendence</desc>
			<v:userDefs>
				<v:ud v:nameU="visVersion" v:val="VT0(15):26"/>
			</v:userDefs>
			<v:textBlock v:margins="rect(4,4,4,4)" v:tabSpace="42.5197"/>
			<v:textRect cx="44.2913" cy="1684.3" width="77.51" height="51.6732"/>
			<path d="M0 1684.3 A44.2913 29.5276 0 0 1 88.58 1684.3 A44.2913 29.5276 0 1 1 -0 1684.3 Z" class="st8"/>
			<text x="17.71" y="1686.7" class="st10" v:langID="2057"><v:paragraph v:horizAlign="1"/><v:tabList/>Non-attendence</text>		</g>
		<g id="shape28-190" v:mID="28" v:groupContext="shape" transform="translate(2248.44,-1078.25)">
			<title>Business step.28</title>
			<desc>Convicted of a serious offence</desc>
			<v:userDefs>
				<v:ud v:nameU="visVersion" v:val="VT0(15):26"/>
			</v:userDefs>
			<v:textBlock v:margins="rect(4,4,4,4)" v:tabSpace="42.5197"/>
			<v:textRect cx="44.2913" cy="1684.3" width="77.51" height="51.6732"/>
			<path d="M0 1684.3 A44.2913 29.5276 0 0 1 88.58 1684.3 A44.2913 29.5276 0 1 1 -0 1684.3 Z" class="st8"/>
			<text x="21.05" y="1681.9" class="st10" v:langID="2057"><v:paragraph v:horizAlign="1"/><v:tabList/>Convicted of a <tspan
						x="19.42" dy="1.2em" class="st11">serious offence</tspan></text>		</g>
		<g id="shape88-194" v:mID="88" v:groupContext="shape" transform="translate(2506.68,-707.856)">
			<title>Step depth label.88</title>
			<desc>House of Lords Act 1999 Section 1</desc>
			<v:userDefs>
				<v:ud v:nameU="visVersion" v:val="VT0(15):26"/>
			</v:userDefs>
			<v:textBlock v:margins="rect(4,4,4,4)" v:tabSpace="42.5197" v:verticalAlign="0"/>
			<v:textRect cx="68.7757" cy="1635.64" width="137.56" height="156.382"/>
			<path d="M0 1713.83 L137.55 1713.83 L137.55 1557.44 L0 1557.44 L0 1713.83 Z" class="st3"/>
			<text x="4" y="1572.24" class="st4" v:langID="2057"><v:paragraph/><v:tabList/>House of Lords  Act 1999<v:newlineChar/><tspan
						x="4" dy="1.26em" class="st6">   </tspan><tspan class="st6">Section 1                                    </tspan>                                    <v:newlineChar/><v:paragraph/>                                 </text>		</g>
		<g id="shape30-199" v:mID="30" v:groupContext="shape" transform="translate(2531.16,-742.346)">
			<title>Business step.30</title>
			<desc>Excluded</desc>
			<v:userDefs>
				<v:ud v:nameU="visVersion" v:val="VT0(15):26"/>
			</v:userDefs>
			<v:textBlock v:margins="rect(4,4,4,4)" v:tabSpace="42.5197"/>
			<v:textRect cx="44.2913" cy="1684.3" width="77.51" height="51.6732"/>
			<path d="M0 1684.3 A44.2913 29.5276 0 0 1 88.58 1684.3 A44.2913 29.5276 0 1 1 -0 1684.3 Z" class="st8"/>
			<text x="29.7" y="1686.7" class="st10" v:langID="2057"><v:paragraph v:horizAlign="1"/><v:tabList/>Excluded</text>		</g>
		<g id="shape89-202" v:mID="89" v:groupContext="shape" transform="translate(2360.62,-1048.01)">
			<title>Step depth label.89</title>
			<desc>Bishoprics Act 1878 Section 5</desc>
			<v:userDefs>
				<v:ud v:nameU="visVersion" v:val="VT0(15):26"/>
			</v:userDefs>
			<v:textBlock v:margins="rect(4,4,4,4)" v:tabSpace="42.5197" v:verticalAlign="0"/>
			<v:textRect cx="68.7757" cy="1635.64" width="137.56" height="156.382"/>
			<path d="M0 1713.83 L137.55 1713.83 L137.55 1557.44 L0 1557.44 L0 1713.83 Z" class="st3"/>
			<text x="4" y="1572.24" class="st4" v:langID="2057"><v:paragraph/><v:tabList/>Bishoprics Act 1878<v:newlineChar/><tspan
						x="4" dy="1.26em" class="st6">   </tspan><tspan class="st6">Section 5                                    </tspan>                                    <v:newlineChar/><v:paragraph/>                                 </text>		</g>
		<g id="shape33-207" v:mID="33" v:groupContext="shape" transform="translate(2385.11,-1078.25)">
			<title>Business step.33</title>
			<desc>Translation</desc>
			<v:userDefs>
				<v:ud v:nameU="visVersion" v:val="VT0(15):26"/>
			</v:userDefs>
			<v:textBlock v:margins="rect(4,4,4,4)" v:tabSpace="42.5197"/>
			<v:textRect cx="44.2913" cy="1684.3" width="77.51" height="51.6732"/>
			<path d="M0 1684.3 A44.2913 29.5276 0 0 1 88.58 1684.3 A44.2913 29.5276 0 1 1 -0 1684.3 Z" class="st8"/>
			<text x="26.06" y="1686.7" class="st10" v:langID="2057"><v:paragraph v:horizAlign="1"/><v:tabList/>Translation</text>		</g>
		<g id="shape90-210" v:mID="90" v:groupContext="shape" transform="translate(2506.68,-1048.01)">
			<title>Step depth label.90</title>
			<desc>Ecclesiastical Office (Terms of Service) Measures 2009 Section3</desc>
			<v:userDefs>
				<v:ud v:nameU="visVersion" v:val="VT0(15):26"/>
			</v:userDefs>
			<v:textBlock v:margins="rect(4,4,4,4)" v:tabSpace="42.5197" v:verticalAlign="0"/>
			<v:textRect cx="128.126" cy="1635.64" width="256.26" height="156.382"/>
			<path d="M0 1713.83 L256.25 1713.83 L256.25 1557.44 L0 1557.44 L0 1713.83 Z" class="st3"/>
			<text x="4" y="1572.24" class="st4" v:langID="2057"><v:paragraph/><v:tabList/>Ecclesiastical Office (Terms of Service) Measures <tspan
						x="4" dy="1.2em" class="st11">2009<v:newlineChar/></tspan><tspan x="4" dy="1.26em" class="st6">   </tspan><tspan
						class="st6">Section 3                                    </tspan>                                    <v:newlineChar/><v:paragraph/>                                 </text>		</g>
		<g id="shape35-216" v:mID="35" v:groupContext="shape" transform="translate(2531.48,-1078.25)">
			<title>Business step.35</title>
			<desc>Retirement (Bishop)</desc>
			<v:userDefs>
				<v:ud v:nameU="visVersion" v:val="VT0(15):26"/>
			</v:userDefs>
			<v:textBlock v:margins="rect(4,4,4,4)" v:tabSpace="42.5197"/>
			<v:textRect cx="44.2913" cy="1684.3" width="77.51" height="51.6732"/>
			<path d="M0 1684.3 A44.2913 29.5276 0 0 1 88.58 1684.3 A44.2913 29.5276 0 1 1 -0 1684.3 Z" class="st8"/>
			<text x="11.56" y="1686.7" class="st10" v:langID="2057"><v:paragraph v:horizAlign="1"/><v:tabList/>Retirement (Bishop)</text>		</g>
		<g id="shape144-219" v:mID="144" v:groupContext="shape" transform="translate(2506.68,-877.935)">
			<title>Step depth label.144</title>
			<desc>House of Lords (Expulsion and Suspension Act) 2015 Section 1 ...</desc>
			<v:userDefs>
				<v:ud v:nameU="visVersion" v:val="VT0(15):26"/>
			</v:userDefs>
			<v:textBlock v:margins="rect(4,4,4,4)" v:tabSpace="42.5197" v:verticalAlign="0"/>
			<v:textRect cx="128.126" cy="1635.64" width="256.26" height="156.382"/>
			<path d="M0 1713.83 L256.25 1713.83 L256.25 1557.44 L0 1557.44 L0 1713.83 Z" class="st3"/>
			<text x="4" y="1572.24" class="st4" v:langID="2057"><v:paragraph/><v:tabList/>House of Lords (Expulsion and Suspension Act) <tspan
						x="4" dy="1.2em" class="st11">2015<v:newlineChar/></tspan><tspan x="4" dy="1.26em" class="st6">   </tspan><tspan
						class="st6">Section 1 (2)                                    </tspan>                                    <v:newlineChar/><v:paragraph/>                                 </text>		</g>
		<g id="shape36-225" v:mID="36" v:groupContext="shape" transform="translate(2531.16,-911.244)">
			<title>Business step.36</title>
			<desc>Expulsion from the House of Lords</desc>
			<v:userDefs>
				<v:ud v:nameU="visVersion" v:val="VT0(15):26"/>
			</v:userDefs>
			<v:textBlock v:margins="rect(4,4,4,4)" v:tabSpace="42.5197"/>
			<v:textRect cx="44.2913" cy="1684.3" width="77.51" height="51.6732"/>
			<path d="M0 1684.3 A44.2913 29.5276 0 0 1 88.58 1684.3 A44.2913 29.5276 0 1 1 -0 1684.3 Z" class="st8"/>
			<text x="13.63" y="1681.9" class="st10" v:langID="2057"><v:paragraph v:horizAlign="1"/><v:tabList/>Expulsion from the <tspan
						x="20.04" dy="1.2em" class="st11">House of Lords</tspan></text>		</g>
		<g id="shape145-229" v:mID="145" v:groupContext="shape" v:layerMember="0" transform="translate(2041.3,-1079.02)">
			<title>Connectors.145</title>
			<path d="M0 1713.83 L-160.19 2171.48" class="st14"/>
		</g>
		<g id="shape146-234" v:mID="146" v:groupContext="shape" v:layerMember="0" transform="translate(2156.04,-1080.25)">
			<title>Connectors.146</title>
			<path d="M0 1713.83 L-267.86 2174.45" class="st14"/>
		</g>
		<g id="shape147-239" v:mID="147" v:groupContext="shape" v:layerMember="0" transform="translate(2271.63,-1081.82)">
			<title>Connectors.147</title>
			<path d="M0 1713.83 L-377.51 2178.17" class="st14"/>
		</g>
		<g id="shape148-244" v:mID="148" v:groupContext="shape" v:layerMember="0" transform="translate(2403.59,-1083.78)">
			<title>Connectors.148</title>
			<path d="M0 1713.83 L-504.12 2182.71" class="st14"/>
		</g>
		<g id="shape149-249" v:mID="149" v:groupContext="shape" v:layerMember="0" transform="translate(2546.07,-1085.87)">
			<title>Connectors.149</title>
			<path d="M0 1713.83 L-642.22 2187.47" class="st14"/>
		</g>
		<g id="shape150-254" v:mID="150" v:groupContext="shape" v:layerMember="0" transform="translate(2531.16,-940.772)">
			<title>Connectors.150</title>
			<path d="M0 1713.83 L-621.97 2046.59" class="st14"/>
		</g>
		<g id="shape151-259" v:mID="151" v:groupContext="shape" v:layerMember="0" transform="translate(2531.16,-771.874)">
			<title>Connectors.151</title>
			<path d="M0 1713.83 L-611.72 1897.38" class="st14"/>
		</g>
		<g id="shape156-264" v:mID="156" v:groupContext="shape" transform="translate(2435.89,-1275.39)">
			<title>Lords label</title>
			<desc>Lords</desc>
			<v:textBlock v:margins="rect(4,4,4,4)" v:tabSpace="42.5197"/>
			<v:textRect cx="269.211" cy="1625.43" width="538.43" height="176.795"/>
			<rect x="0" y="1537.03" width="538.422" height="176.795" class="st16"/>
			<text x="216.1" y="1639.83" class="st19" v:langID="2057"><v:paragraph v:horizAlign="1"/><v:tabList/>Lords</text>		</g>
		<g id="shape176-267" v:mID="176" v:groupContext="shape" transform="translate(2109.91,-357.492)">
			<title>Lords label.176</title>
			<desc>Lords</desc>
			<v:textBlock v:margins="rect(4,4,4,4)" v:tabSpace="42.5197"/>
			<v:textRect cx="269.211" cy="1625.43" width="538.43" height="176.795"/>
			<rect x="0" y="1537.03" width="538.422" height="176.795" class="st16"/>
			<text x="216.1" y="1639.83" class="st19" v:langID="2057"><v:paragraph v:horizAlign="1"/><v:tabList/>Lords</text>		</g>
		<g id="shape177-270" v:mID="177" v:groupContext="shape" transform="translate(774,-514.394)">
			<title>Business step.177</title>
			<desc>Expulsion from the House of Commons</desc>
			<v:userDefs>
				<v:ud v:nameU="visVersion" v:val="VT0(15):26"/>
			</v:userDefs>
			<v:textBlock v:margins="rect(4,4,4,4)" v:tabSpace="42.5197"/>
			<v:textRect cx="44.2913" cy="1684.3" width="77.51" height="51.6732"/>
			<path d="M0 1684.3 A44.2913 29.5276 0 0 1 88.58 1684.3 A44.2913 29.5276 0 1 1 -0 1684.3 Z" class="st8"/>
			<text x="13.63" y="1681.9" class="st10" v:langID="2057"><v:paragraph v:horizAlign="1"/><v:tabList/>Expulsion from the <tspan
						x="12.49" dy="1.2em" class="st11">House of Commons</tspan></text>		</g>
		<g id="shape178-274" v:mID="178" v:groupContext="shape" v:layerMember="0" transform="translate(862.501,-545.711)">
			<title>Connectors.178</title>
			<path d="M0 1713.83 L955.64 1675.15" class="st14"/>
		</g>
	</g>
</svg>
