<?xml version="1.0" encoding="UTF-8" standalone="no"?>
<!DOCTYPE svg PUBLIC "-//W3C//DTD SVG 1.1//EN" "http://www.w3.org/Graphics/SVG/1.1/DTD/svg11.dtd">
<svg xmlns="http://www.w3.org/2000/svg" xmlns:dc="http://purl.org/dc/elements/1.1/" version="1.1" xmlns:xl="http://www.w3.org/1999/xlink" viewBox="-336 -448 1737 1669" width="1737" height="1669">
  <defs>
    <marker orient="auto" overflow="visible" markerUnits="strokeWidth" id="StickArrow_Marker" stroke-linejoin="miter" stroke-miterlimit="10" viewBox="-9 -4 10 8" markerWidth="10" markerHeight="8" color="black">
      <g>
        <path d="M -8 0 L 0 0 M 0 3 L -8 0 L 0 -3" fill="none" stroke="currentColor" stroke-width="1"/>
      </g>
    </marker>
    <marker orient="auto" overflow="visible" markerUnits="strokeWidth" id="StickArrow_Marker_2" stroke-linejoin="miter" stroke-miterlimit="10" viewBox="-1 -4 10 8" markerWidth="10" markerHeight="8" color="black">
      <g>
        <path d="M 8 0 L 0 0 M 0 -3 L 8 0 L 0 3" fill="none" stroke="currentColor" stroke-width="1"/>
      </g>
    </marker>
  </defs>
  <g id="Canvas_1" stroke-opacity="1" fill="none" fill-opacity="1" stroke-dasharray="none" stroke="none">
    <title>Canvas 1</title>
    <rect fill="white" x="-336" y="-448" width="1737" height="1669"/>
    <g id="Canvas_1_Layer_1">
      <title>Layer 1</title>
      <g id="Group_4">
        <g id="Graphic_2">
          <path d="M 24.503906 149.35154 L 40.15183 118.0557 L 55.79975 149.35154 Z" fill="white"/>
          <path d="M 24.503906 149.35154 L 40.15183 118.0557 L 55.79975 149.35154 Z" stroke="black" stroke-linecap="round" stroke-linejoin="round" stroke-width="1"/>
        </g>
        <g id="Graphic_3">
          <circle cx="40.15183" cy="119.99946" r="15.6479467642351" fill="white"/>
          <circle cx="40.15183" cy="119.99946" r="15.6479467642351" stroke="black" stroke-linecap="round" stroke-linejoin="round" stroke-width="1"/>
        </g>
      </g>
      <g id="Graphic_5">
        <rect x="95.89844" y="88.5449" width="62.5" height="89.44141" fill="red"/>
        <path d="M 95.89844 88.5449 L 158.39844 88.5449 L 158.39844 177.9863 L 95.89844 177.9863 Z" stroke="black" stroke-linecap="round" stroke-linejoin="round" stroke-dasharray="4.0,4.0" stroke-width="1"/>
        <text transform="translate(100.89844 114.8176)" fill="black">
          <tspan font-family="Helvetica Neue" font-size="16" fill="black" x="10.25" y="15" xml:space="preserve">SSD</tspan>
          <tspan font-family="Helvetica Neue" font-size="16" fill="black" x="7.434" y="33.448" xml:space="preserve">Book</tspan>
        </text>
      </g>
      <g id="Line_6">
        <line x1="57.85602" y1="133.61448" x2="95.89844" y2="133.42294" marker-start="url(#StickArrow_Marker)" stroke="black" stroke-linecap="round" stroke-linejoin="round" stroke-dasharray="4.0,4.0" stroke-width="1"/>
      </g>
      <g id="Graphic_13">
        <rect x="584.6848" y="-447" width="287.5" height="985" fill="white"/>
        <rect x="584.6848" y="-447" width="287.5" height="985" stroke="black" stroke-linecap="round" stroke-linejoin="round" stroke-width="1"/>
      </g>
      <g id="Graphic_14">
        <text transform="translate(589.6848 -426.455)" fill="black">
          <tspan font-family="Helvetica Neue" font-size="16" fill="black" x="93.558" y="15" xml:space="preserve">Data Graphs</tspan>
        </text>
      </g>
      <g id="Graphic_15">
        <circle cx="728.4348" cy="125.36979" r="60.0000958741138" fill="lime"/>
        <circle cx="728.4348" cy="125.36979" r="60.0000958741138" stroke="black" stroke-linecap="round" stroke-linejoin="round" stroke-width="1"/>
        <text transform="translate(685.4348 116.14579)" fill="black">
          <tspan font-family="Helvetica Neue" font-size="16" fill="black" x="27" y="15" xml:space="preserve">SSD</tspan>
        </text>
      </g>
      <g id="Group_16">
        <g id="Graphic_18">
          <path d="M 712.7869 258.76042 L 728.4348 227.46457 L 744.08275 258.76042 Z" fill="white"/>
          <path d="M 712.7869 258.76042 L 728.4348 227.46457 L 744.08275 258.76042 Z" stroke="black" stroke-linecap="round" stroke-linejoin="round" stroke-dasharray="4.0,4.0" stroke-width="1"/>
        </g>
        <g id="Graphic_17">
          <circle cx="728.4348" cy="229.40834" r="15.647946764235" fill="white"/>
          <path d="M 739.4996 218.3436 C 745.6105 224.4545 745.6105 234.3622 739.4996 240.47308 C 733.3887 246.584 723.481 246.584 717.3701 240.47308 C 711.2592 234.3622 711.2592 224.4545 717.3701 218.3436 C 723.481 212.23268 733.3887 212.23268 739.4996 218.3436" stroke="black" stroke-linecap="round" stroke-linejoin="round" stroke-dasharray="4.0,4.0" stroke-width="1"/>
        </g>
      </g>
      <g id="Graphic_19">
        <rect x="274.83737" y="88.5449" width="62.5" height="89.44141" fill="red"/>
        <path d="M 274.83737 88.5449 L 337.33737 88.5449 L 337.33737 177.9863 L 274.83737 177.9863 Z" stroke="black" stroke-linecap="round" stroke-linejoin="round" stroke-dasharray="4.0,4.0" stroke-width="1"/>
        <text transform="translate(279.83737 124.0416)" fill="black">
          <tspan font-family="Helvetica Neue" font-size="16" fill="black" x="5.954" y="15" xml:space="preserve">CSV?</tspan>
        </text>
      </g>
      <g id="Line_20">
        <line x1="728.4348" y1="195.26982" x2="728.4348" y2="213.7604" marker-start="url(#StickArrow_Marker)" stroke="black" stroke-linecap="round" stroke-linejoin="round" stroke-width="1"/>
      </g>
      <g id="Line_21">
        <line x1="347.23565" y1="132.49633" x2="668.4452" y2="126.4913" marker-start="url(#StickArrow_Marker)" stroke="black" stroke-linecap="round" stroke-linejoin="round" stroke-dasharray="4.0,4.0" stroke-width="1"/>
      </g>
      <g id="Line_22">
        <line x1="168.29844" y1="133.2656" x2="185.3679" y2="133.2656" marker-start="url(#StickArrow_Marker)" stroke="black" stroke-linecap="round" stroke-linejoin="round" stroke-dasharray="4.0,4.0" stroke-width="1"/>
      </g>
      <g id="Graphic_24">
        <rect x="185.3679" y="88.5449" width="62.5" height="89.44141" fill="red"/>
        <path d="M 185.3679 88.5449 L 247.8679 88.5449 L 247.8679 177.9863 L 185.3679 177.9863 Z" stroke="black" stroke-linecap="round" stroke-linejoin="round" stroke-dasharray="4.0,4.0" stroke-width="1"/>
        <text transform="translate(190.3679 114.8176)" fill="black">
          <tspan font-family="Helvetica Neue" font-size="16" fill="black" x="9.658" y="15" xml:space="preserve">Print </tspan>
          <tspan font-family="Helvetica Neue" font-size="16" fill="black" x="8.914" y="33.448" xml:space="preserve">spec</tspan>
        </text>
      </g>
      <g id="Line_25">
        <line x1="257.7679" y1="133.2656" x2="274.83737" y2="133.2656" marker-start="url(#StickArrow_Marker)" stroke="black" stroke-linecap="round" stroke-linejoin="round" stroke-dasharray="4.0,4.0" stroke-width="1"/>
      </g>
      <g id="Graphic_26">
        <circle cx="1175.3059" cy="400.1133" r="60.0000958741138" fill="lime"/>
        <circle cx="1175.3059" cy="400.1133" r="60.0000958741138" stroke="black" stroke-linecap="round" stroke-linejoin="round" stroke-width="1"/>
        <text transform="translate(1132.3059 390.8893)" fill="black">
          <tspan font-family="Helvetica Neue" font-size="16" fill="black" x="18.408" y="15" xml:space="preserve">Mirage</tspan>
        </text>
      </g>
      <g id="Line_27">
        <line x1="778.56095" y1="174.08724" x2="967.714" y2="357.92463" marker-start="url(#StickArrow_Marker)" stroke="black" stroke-linecap="round" stroke-linejoin="round" stroke-width="1"/>
      </g>
      <g id="Graphic_28">
        <circle cx="1339.8711" cy="399.7422" r="60.0000958741137" fill="lime"/>
        <circle cx="1339.8711" cy="399.7422" r="60.0000958741137" stroke="black" stroke-linecap="round" stroke-linejoin="round" stroke-width="1"/>
        <text transform="translate(1296.8711 390.5182)" fill="black">
          <tspan font-family="Helvetica Neue" font-size="16" fill="black" x="27.744" y="15" xml:space="preserve">SES</tspan>
        </text>
      </g>
      <g id="Graphic_29">
        <circle cx="1339.8711" cy="236.46094" r="60.0000958741137" fill="lime"/>
        <circle cx="1339.8711" cy="236.46094" r="60.0000958741137" stroke="black" stroke-linecap="round" stroke-linejoin="round" stroke-width="1"/>
        <text transform="translate(1296.8711 218.01294)" fill="black">
          <tspan font-family="Helvetica Neue" font-size="16" fill="black" x="10.4" y="15" xml:space="preserve">Ontology </tspan>
          <tspan font-family="Helvetica Neue" font-size="16" fill="black" x="11.584" y="33.448" xml:space="preserve">manager</tspan>
        </text>
      </g>
      <g id="Line_30">
        <line x1="1339.8711" y1="329.84216" x2="1339.8711" y2="296.46097" marker-start="url(#StickArrow_Marker)" stroke="black" stroke-linecap="round" stroke-linejoin="round" stroke-width="1"/>
      </g>
      <g id="Line_31">
        <line x1="1245.2058" y1="399.95566" x2="1279.8712" y2="399.8775" marker-start="url(#StickArrow_Marker)" stroke="black" stroke-linecap="round" stroke-linejoin="round" stroke-width="1"/>
      </g>
      <g id="Graphic_32">
        <rect x="668.4348" y="268.88542" width="120" height="32.5" fill="red"/>
        <path d="M 668.4348 268.88542 L 788.4348 268.88542 L 788.4348 301.3854 L 668.4348 301.3854 Z" stroke="black" stroke-linecap="round" stroke-linejoin="round" stroke-dasharray="4.0,4.0" stroke-width="1"/>
        <text transform="translate(673.4348 275.91142)" fill="black">
          <tspan font-family="Helvetica Neue" font-size="16" fill="black" x="26.112" y="15" xml:space="preserve">Trigger?</tspan>
        </text>
      </g>
      <g id="Graphic_33">
        <circle cx="728.4348" cy="-96.41146" r="60.0000958741138" fill="lime"/>
        <circle cx="728.4348" cy="-96.41146" r="60.0000958741138" stroke="black" stroke-linecap="round" stroke-linejoin="round" stroke-width="1"/>
        <text transform="translate(685.4348 -105.63546)" fill="black">
          <tspan font-family="Helvetica Neue" font-size="16" fill="black" x="19.592" y="15" xml:space="preserve">OASiS</tspan>
        </text>
      </g>
      <g id="Line_34">
        <line x1="763.0106" y1="-35.644404" x2="981.0609" y2="347.57977" marker-start="url(#StickArrow_Marker)" stroke="black" stroke-linecap="round" stroke-linejoin="round" stroke-width="1"/>
      </g>
      <g id="Group_36">
        <g id="Graphic_38">
          <path d="M 712.7869 38.26886 L 728.4348 6.973016 L 744.08275 38.26886 Z" fill="white"/>
          <path d="M 712.7869 38.26886 L 728.4348 6.973016 L 744.08275 38.26886 Z" stroke="black" stroke-linecap="round" stroke-linejoin="round" stroke-width="1"/>
        </g>
        <g id="Graphic_37">
          <circle cx="728.4348" cy="8.916781" r="15.647946764235" fill="white"/>
          <circle cx="728.4348" cy="8.916781" r="15.647946764235" stroke="black" stroke-linecap="round" stroke-linejoin="round" stroke-width="1"/>
        </g>
      </g>
      <g id="Line_35">
        <line x1="728.4348" y1="-26.511428" x2="728.4348" y2="-6.731149" marker-start="url(#StickArrow_Marker)" stroke="black" stroke-linecap="round" stroke-linejoin="round" stroke-width="1"/>
      </g>
      <g id="Graphic_43">
        <circle cx="728.4348" cy="-318.1927" r="60.0000958741138" fill="#80ffff"/>
        <path d="M 770.8612 -360.61907 C 794.29275 -337.18763 794.29275 -299.1978 770.8612 -275.76635 C 747.42975 -252.3348 709.4399 -252.3348 686.0085 -275.76635 C 662.5769 -299.1978 662.5769 -337.18763 686.0085 -360.61907 C 709.4399 -384.05063 747.42975 -384.05063 770.8612 -360.61907" stroke="black" stroke-linecap="round" stroke-linejoin="round" stroke-dasharray="4.0,4.0" stroke-width="1"/>
        <text transform="translate(685.4348 -336.6407)" fill="black">
          <tspan font-family="Helvetica Neue" font-size="16" fill="black" x="6.104" y="15" xml:space="preserve">Procedure </tspan>
          <tspan font-family="Helvetica Neue" font-size="16" fill="black" x="22.408" y="33.448" xml:space="preserve">editor</tspan>
        </text>
      </g>
      <g id="Group_40">
        <g id="Graphic_42">
          <path d="M 712.7869 -184.80208 L 728.4348 -216.09793 L 744.08275 -184.80208 Z" fill="white"/>
          <path d="M 712.7869 -184.80208 L 728.4348 -216.09793 L 744.08275 -184.80208 Z" stroke="black" stroke-linecap="round" stroke-linejoin="round" stroke-width="1"/>
        </g>
        <g id="Graphic_41">
          <circle cx="728.4348" cy="-214.15416" r="15.647946764235" fill="white"/>
          <circle cx="728.4348" cy="-214.15416" r="15.647946764235" stroke="black" stroke-linecap="round" stroke-linejoin="round" stroke-width="1"/>
        </g>
      </g>
      <g id="Line_39">
        <line x1="728.4348" y1="-248.29268" x2="728.4348" y2="-229.8021" marker-start="url(#StickArrow_Marker)" stroke="black" stroke-linecap="round" stroke-linejoin="round" stroke-width="1"/>
      </g>
      <g id="Group_44">
        <g id="Graphic_46">
          <path d="M 1324.2232 142.98437 L 1339.8711 111.68853 L 1355.519 142.98437 Z" fill="#40ff40"/>
          <path d="M 1324.2232 142.98437 L 1339.8711 111.68853 L 1355.519 142.98437 Z" stroke="black" stroke-linecap="round" stroke-linejoin="round" stroke-width="1"/>
        </g>
        <g id="Graphic_45">
          <circle cx="1339.8711" cy="113.6323" r="15.6479467642351" fill="#40ff40"/>
          <circle cx="1339.8711" cy="113.6323" r="15.6479467642351" stroke="black" stroke-linecap="round" stroke-linejoin="round" stroke-width="1"/>
        </g>
      </g>
      <g id="Line_47">
        <line x1="1339.8711" y1="166.5609" x2="1339.8711" y2="142.98437" marker-start="url(#StickArrow_Marker)" stroke="black" stroke-linecap="round" stroke-linejoin="round" stroke-width="1"/>
      </g>
      <g id="Graphic_48">
        <circle cx="1010.7408" cy="399.7422" r="60.0000958741138" fill="lime"/>
        <circle cx="1010.7408" cy="399.7422" r="60.0000958741138" stroke="black" stroke-linecap="round" stroke-linejoin="round" stroke-width="1"/>
        <text transform="translate(967.7408 381.2942)" fill="black">
          <tspan font-family="Helvetica Neue" font-size="16" fill="black" x="10.552" y="15" xml:space="preserve">Message </tspan>
          <tspan font-family="Helvetica Neue" font-size="16" fill="black" x="16.768" y="33.448" xml:space="preserve">queues</tspan>
        </text>
      </g>
      <g id="Line_49">
        <line x1="1080.6406" y1="399.8998" x2="1115.306" y2="399.978" marker-start="url(#StickArrow_Marker)" stroke="black" stroke-linecap="round" stroke-linejoin="round" stroke-width="1"/>
      </g>
      <g id="Graphic_50">
        <circle cx="732" cy="689.7383" r="60.0000958741138" fill="lime"/>
        <circle cx="732" cy="689.7383" r="60.0000958741138" stroke="black" stroke-linecap="round" stroke-linejoin="round" stroke-width="1"/>
        <text transform="translate(689 680.5143)" fill="black">
          <tspan font-family="Helvetica Neue" font-size="16" fill="black" x="19.88" y="15" xml:space="preserve">Illumin</tspan>
        </text>
      </g>
      <g id="Line_51">
        <line x1="798.3189" y1="395.19514" x2="950.7544" y2="398.45813" marker-start="url(#StickArrow_Marker)" stroke="black" stroke-linecap="round" stroke-linejoin="round" stroke-dasharray="4.0,4.0" stroke-width="1"/>
      </g>
      <g id="Group_53">
        <g id="Graphic_55">
          <path d="M 859.6724 712.2383 L 875.3203 680.9424 L 890.9682 712.2383 Z" fill="white"/>
          <path d="M 859.6724 712.2383 L 875.3203 680.9424 L 890.9682 712.2383 Z" stroke="black" stroke-linecap="round" stroke-linejoin="round" stroke-width="1"/>
        </g>
        <g id="Graphic_54">
          <circle cx="875.3203" cy="682.8862" r="15.647946764235" fill="white"/>
          <circle cx="875.3203" cy="682.8862" r="15.647946764235" stroke="black" stroke-linecap="round" stroke-linejoin="round" stroke-width="1"/>
        </g>
      </g>
      <g id="Line_52">
        <line x1="801.8989" y1="689.3341" x2="859.6724" y2="689" marker-start="url(#StickArrow_Marker)" stroke="black" stroke-linecap="round" stroke-linejoin="round" stroke-width="1"/>
      </g>
      <g id="Graphic_59">
        <circle cx="732" cy="846.3789" r="60.0000958741138" fill="yellow"/>
        <circle cx="732" cy="846.3789" r="60.0000958741138" stroke="black" stroke-linecap="round" stroke-linejoin="round" stroke-width="1"/>
        <text transform="translate(689 827.9309)" fill="black">
          <tspan font-family="Helvetica Neue" font-size="16" fill="black" x="9.368" y="15" xml:space="preserve">Research </tspan>
          <tspan font-family="Helvetica Neue" font-size="16" fill="black" x=".328" y="33.448" xml:space="preserve">briefing app</tspan>
        </text>
      </g>
      <g id="Group_66">
        <g id="Graphic_68">
          <path d="M 859.6724 868.8789 L 875.3203 837.5831 L 890.9682 868.8789 Z" fill="white"/>
          <path d="M 859.6724 868.8789 L 875.3203 837.5831 L 890.9682 868.8789 Z" stroke="black" stroke-linecap="round" stroke-linejoin="round" stroke-width="1"/>
        </g>
        <g id="Graphic_67">
          <circle cx="875.3203" cy="839.5268" r="15.647946764235" fill="white"/>
          <circle cx="875.3203" cy="839.5268" r="15.647946764235" stroke="black" stroke-linecap="round" stroke-linejoin="round" stroke-width="1"/>
        </g>
      </g>
      <g id="Line_65">
        <line x1="801.8989" y1="845.9747" x2="859.6724" y2="845.6406" marker-start="url(#StickArrow_Marker)" stroke="black" stroke-linecap="round" stroke-linejoin="round" stroke-width="1"/>
      </g>
      <g id="Graphic_73">
        <circle cx="732" cy="1003.0195" r="60.0000958741138" fill="yellow"/>
        <circle cx="732" cy="1003.0195" r="60.0000958741138" stroke="black" stroke-linecap="round" stroke-linejoin="round" stroke-width="1"/>
        <text transform="translate(689 993.7955)" fill="black">
          <tspan font-family="Helvetica Neue" font-size="16" fill="black" x="6.408" y="15" xml:space="preserve">Catalogue</tspan>
        </text>
      </g>
      <g id="Group_70">
        <g id="Graphic_72">
          <path d="M 859.6724 1025.5195 L 875.3203 994.2237 L 890.9682 1025.5195 Z" fill="white"/>
          <path d="M 859.6724 1025.5195 L 875.3203 994.2237 L 890.9682 1025.5195 Z" stroke="black" stroke-linecap="round" stroke-linejoin="round" stroke-width="1"/>
        </g>
        <g id="Graphic_71">
          <circle cx="875.3203" cy="996.1675" r="15.647946764235" fill="white"/>
          <circle cx="875.3203" cy="996.1675" r="15.647946764235" stroke="black" stroke-linecap="round" stroke-linejoin="round" stroke-width="1"/>
        </g>
      </g>
      <g id="Line_69">
        <line x1="801.8989" y1="1002.6153" x2="859.6724" y2="1002.2813" marker-start="url(#StickArrow_Marker)" stroke="black" stroke-linecap="round" stroke-linejoin="round" stroke-width="1"/>
      </g>
      <g id="Graphic_74">
        <circle cx="404.6836" cy="846.3789" r="60.0000958741138" fill="yellow"/>
        <circle cx="404.6836" cy="846.3789" r="60.0000958741138" stroke="black" stroke-linecap="round" stroke-linejoin="round" stroke-width="1"/>
        <text transform="translate(361.6836 837.1549)" fill="black">
          <tspan font-family="Helvetica Neue" font-size="16" fill="black" x="14.416" y="15" xml:space="preserve">Website</tspan>
        </text>
      </g>
      <g id="Graphic_75">
        <circle cx="-32.910156" cy="363.57813" r="60.0000958741138" fill="red"/>
        <path d="M 9.516204 321.15176 C 32.947764 344.5832 32.947764 382.57304 9.516204 406.0045 C -13.915236 429.43604 -51.905076 429.43604 -75.33652 406.0045 C -98.76808 382.57304 -98.76808 344.5832 -75.33652 321.15176 C -51.905076 297.7202 -13.915236 297.7202 9.516204 321.15176" stroke="black" stroke-linecap="round" stroke-linejoin="round" stroke-dasharray="4.0,4.0" stroke-width="1"/>
        <text transform="translate(-75.91016 335.90613)" fill="black">
          <tspan font-family="Helvetica Neue" font-size="16" fill="black" x="27.744" y="15" xml:space="preserve">SSV</tspan>
          <tspan font-family="Helvetica Neue" font-size="16" fill="black" x="7" y="33.448" xml:space="preserve">Internal tg </tspan>
          <tspan font-family="Helvetica Neue" font-size="16" fill="black" x="18.408" y="51.895996" xml:space="preserve">Library</tspan>
        </text>
      </g>
      <g id="Line_76">
        <line x1="33.81248" y1="342.70206" x2="671.1605" y2="143.28968" marker-start="url(#StickArrow_Marker)" stroke="black" stroke-linecap="round" stroke-linejoin="round" stroke-dasharray="4.0,4.0" stroke-width="1"/>
      </g>
      <g id="Line_77">
        <line x1="36.935524" y1="366.34143" x2="668.4814" y2="391.3273" marker-start="url(#StickArrow_Marker)" stroke="black" stroke-linecap="round" stroke-linejoin="round" stroke-dasharray="4.0,4.0" stroke-width="1"/>
      </g>
      <g id="Line_78">
        <path d="M 6.910079 421.0269 C 58.98887 490.5311 160.8736 609.5294 305 700.5 C 451.29944 792.8422 594.6793 826.9899 672.4012 839.4313" marker-start="url(#StickArrow_Marker)" stroke="black" stroke-linecap="round" stroke-linejoin="round" stroke-dasharray="4.0,4.0" stroke-width="1"/>
      </g>
      <g id="Line_79">
        <line x1="474.5836" y1="846.3789" x2="672" y2="846.3789" marker-start="url(#StickArrow_Marker)" stroke="black" stroke-linecap="round" stroke-linejoin="round" stroke-width="1"/>
      </g>
      <g id="Graphic_80">
        <circle cx="584.9883" cy="921.7227" r="60.0000958741138" fill="yellow"/>
        <circle cx="584.9883" cy="921.7227" r="60.0000958741138" stroke="black" stroke-linecap="round" stroke-linejoin="round" stroke-width="1"/>
        <text transform="translate(541.9883 912.4987)" fill="black">
          <tspan font-family="Helvetica Neue" font-size="16" fill="black" x="4.632" y="15" xml:space="preserve">Wordpress</tspan>
        </text>
      </g>
      <g id="Line_81">
        <line x1="469.19365" y1="873.3357" x2="529.6128" y2="898.583" marker-start="url(#StickArrow_Marker)" stroke="black" stroke-linecap="round" stroke-linejoin="round" stroke-width="1"/>
      </g>
      <g id="Line_82">
        <path d="M -10.811143 429.89784 C 27.262065 533.07515 116.4819 733.64186 271.8203 863.5 C 422.6756 989.6104 586.5058 1007.7526 672.14035 1007.134" marker-start="url(#StickArrow_Marker)" stroke="black" stroke-linecap="round" stroke-linejoin="round" stroke-dasharray="4.0,4.0" stroke-width="1"/>
      </g>
      <g id="Group_84">
        <g id="Graphic_86">
          <path d="M -324.85156 376.97266 L -309.20364 345.6768 L -293.55572 376.97266 Z" fill="white"/>
          <path d="M -324.85156 376.97266 L -309.20364 345.6768 L -293.55572 376.97266 Z" stroke="black" stroke-linecap="round" stroke-linejoin="round" stroke-width="1"/>
        </g>
        <g id="Graphic_85">
          <circle cx="-309.20364" cy="347.62058" r="15.647946764235" fill="white"/>
          <circle cx="-309.20364" cy="347.62058" r="15.647946764235" stroke="black" stroke-linecap="round" stroke-linejoin="round" stroke-width="1"/>
        </g>
      </g>
      <g id="Line_83">
        <line x1="-291.49945" y1="361.2356" x2="-222.20703" y2="360.8867" marker-start="url(#StickArrow_Marker)" stroke="black" stroke-linecap="round" stroke-linejoin="round" stroke-width="1"/>
      </g>
      <g id="Graphic_87">
        <rect x="-229" y="318.85742" width="72.27344" height="89.44141" fill="red"/>
        <path d="M -229 318.85742 L -156.72656 318.85742 L -156.72656 408.29883 L -229 408.29883 Z" stroke="black" stroke-linecap="round" stroke-linejoin="round" stroke-dasharray="4.0,4.0" stroke-width="1"/>
        <text transform="translate(-224 335.90613)" fill="black">
          <tspan font-family="Helvetica Neue" font-size="16" fill="black" x="15.880719" y="15" xml:space="preserve">SSV</tspan>
          <tspan font-family="Helvetica Neue" font-size="16" fill="black" x="4.472719" y="33.448" xml:space="preserve">Internal</tspan>
          <tspan font-family="Helvetica Neue" font-size="16" fill="black" x="16.464719" y="51.895996" xml:space="preserve">App</tspan>
        </text>
      </g>
      <g id="Line_88">
        <line x1="-146.82656" y1="363.57812" x2="-92.91019" y2="363.57812" marker-start="url(#StickArrow_Marker)" stroke="black" stroke-linecap="round" stroke-linejoin="round" stroke-dasharray="4.0,4.0" stroke-width="1"/>
      </g>
      <g id="Graphic_89">
        <circle cx="-15.710938" cy="846.3789" r="60.0000958741138" fill="red"/>
        <path d="M 26.715423 803.9525 C 50.14698 827.384 50.14698 865.3738 26.715423 888.8053 C 3.2839825 912.2368 -34.705857 912.2368 -58.1373 888.8053 C -81.56886 865.3738 -81.56886 827.384 -58.1373 803.9525 C -34.705857 780.521 3.2839825 780.521 26.715423 803.9525" stroke="black" stroke-linecap="round" stroke-linejoin="round" stroke-dasharray="4.0,4.0" stroke-width="1"/>
        <text transform="translate(-58.71094 818.7069)" fill="black">
          <tspan font-family="Helvetica Neue" font-size="16" fill="black" x="27.744" y="15" xml:space="preserve">SSV</tspan>
          <tspan font-family="Helvetica Neue" font-size="16" fill="black" x="4.488" y="33.448" xml:space="preserve">External to </tspan>
          <tspan font-family="Helvetica Neue" font-size="16" fill="black" x="18.408" y="51.895996" xml:space="preserve">Library</tspan>
        </text>
      </g>
      <g id="Line_90">
        <path d="M 46.37197 814.2371 C 78.10842 799.2527 120.2717 781.2325 168.723 765.2136 C 167.02521 759.9822 177.49015 756.58595 179.18793 761.81735 C 228.97074 745.9647 284.8574 732.5166 342.59343 726.6509 C 342.0841 721.1745 353.03836 720.1557 353.5477 725.6321 C 369.93744 724.2497 386.4536 723.5 403 723.5 C 536.75556 723.5 632.76985 772.492 685.3761 808.6061" marker-start="url(#StickArrow_Marker)" stroke="black" stroke-linecap="round" stroke-linejoin="round" stroke-dasharray="4.0,4.0" stroke-width="1"/>
      </g>
      <g id="Line_91">
        <path d="M 28.490153 900.5092 C 81.1476 957.3424 179.47036 1042.3535 315.9883 1070.9531 C 461.1393 1101.3613 602.699 1058.1998 677.43616 1028.0143" marker-start="url(#StickArrow_Marker)" stroke="black" stroke-linecap="round" stroke-linejoin="round" stroke-dasharray="4.0,4.0" stroke-width="1"/>
      </g>
      <g id="Line_92">
        <path d="M 52.23727 830.0166 C 85.33324 819.6737 128.70727 803.152 178.2482 777.1068 C 175.65731 772.2552 185.35972 767.0738 187.9506 771.9254 C 200.43028 765.1569 213.27285 757.78935 226.41562 749.7718 C 223.5225 745.0942 232.8785 739.30745 235.7716 743.985 C 255.73742 731.4663 276.34823 717.4512 297.39098 701.7664 C 294.0788 697.37555 302.8617 690.75025 306.1739 695.1411 C 335.53095 672.73124 365.66267 647.0608 396 617.6667 C 468.4321 547.4866 530.33414 467.41864 580.3918 392.5414 C 575.8099 389.499 581.89426 380.33586 586.47615 383.37827 C 640.14914 301.99638 679.5965 227.55819 703.0998 179.77654" marker-start="url(#StickArrow_Marker)" stroke="black" stroke-linecap="round" stroke-linejoin="round" stroke-dasharray="4.0,4.0" stroke-width="1"/>
      </g>
      <g id="Group_96">
        <g id="Graphic_98">
          <path d="M -334.7422 859.7734 L -319.09427 828.4776 L -303.44634 859.7734 Z" fill="white"/>
          <path d="M -334.7422 859.7734 L -319.09427 828.4776 L -303.44634 859.7734 Z" stroke="black" stroke-linecap="round" stroke-linejoin="round" stroke-width="1"/>
        </g>
        <g id="Graphic_97">
          <circle cx="-319.09427" cy="830.4214" r="15.6479467642351" fill="white"/>
          <circle cx="-319.09427" cy="830.4214" r="15.6479467642351" stroke="black" stroke-linecap="round" stroke-linejoin="round" stroke-width="1"/>
        </g>
      </g>
      <g id="Line_95">
        <line x1="-301.39008" y1="844.0364" x2="-232.09766" y2="843.6875" marker-start="url(#StickArrow_Marker)" stroke="black" stroke-linecap="round" stroke-linejoin="round" stroke-dasharray="4.0,4.0" stroke-width="1"/>
      </g>
      <g id="Graphic_94">
        <rect x="-238.89062" y="801.6582" width="72.27344" height="89.44141" fill="red"/>
        <path d="M -238.89062 801.6582 L -166.61719 801.6582 L -166.61719 891.0996 L -238.89062 891.0996 Z" stroke="black" stroke-linecap="round" stroke-linejoin="round" stroke-dasharray="4.0,4.0" stroke-width="1"/>
        <text transform="translate(-233.89062 818.7069)" fill="black">
          <tspan font-family="Helvetica Neue" font-size="16" fill="black" x="15.880719" y="15" xml:space="preserve">SSV</tspan>
          <tspan font-family="Helvetica Neue" font-size="16" fill="black" x="1.9607187" y="33.448" xml:space="preserve">External</tspan>
          <tspan font-family="Helvetica Neue" font-size="16" fill="black" x="16.464719" y="51.895996" xml:space="preserve">App</tspan>
        </text>
      </g>
      <g id="Line_93">
        <line x1="-156.71719" y1="846.3789" x2="-75.71097" y2="846.3789" marker-start="url(#StickArrow_Marker)" stroke="black" stroke-linecap="round" stroke-linejoin="round" stroke-dasharray="4.0,4.0" stroke-width="1"/>
      </g>
      <g id="Line_99">
        <line x1="795.3697" y1="816.8395" x2="1276.5014" y2="592.5628" marker-end="url(#StickArrow_Marker_2)" marker-start="url(#StickArrow_Marker)" stroke="black" stroke-linecap="round" stroke-linejoin="round" stroke-dasharray="4.0,4.0" stroke-width="1"/>
      </g>
      <g id="Line_100">
        <path d="M 796.3308 975.6691 C 873.0977 938.7185 997.6953 864.0233 1050.5 749.7383 C 1059.1112 731.1012 1065.3715 712.36695 1069.6914 693.7783 C 1064.3119 692.6333 1066.6025 681.8716 1071.982 683.0166 C 1089.5855 592.0612 1062.3134 505.74855 1038.7418 452.82567" marker-start="url(#StickArrow_Marker)" stroke="black" stroke-linecap="round" stroke-linejoin="round" stroke-dasharray="4.0,4.0" stroke-width="1"/>
      </g>
      <g id="Graphic_101">
        <circle cx="1339.8711" cy="563.02344" r="60.0000958741137" fill="lime"/>
        <circle cx="1339.8711" cy="563.02344" r="60.0000958741137" stroke="black" stroke-linecap="round" stroke-linejoin="round" stroke-width="1"/>
        <text transform="translate(1296.8711 544.57544)" fill="black">
          <tspan font-family="Helvetica Neue" font-size="16" fill="black" x="2.248" y="15" xml:space="preserve">Search and </tspan>
          <tspan font-family="Helvetica Neue" font-size="16" fill="black" x="12.48" y="33.448" xml:space="preserve">Indexing</tspan>
        </text>
      </g>
      <g id="Line_102">
        <line x1="1339.4187" y1="493.86574" x2="1339.5827" y2="459.74153" marker-start="url(#StickArrow_Marker)" stroke="black" stroke-linecap="round" stroke-linejoin="round" stroke-width="1"/>
      </g>
      <g id="Graphic_103">
        <circle cx="736" cy="1159.6602" r="60.0000958741138" fill="yellow"/>
        <circle cx="736" cy="1159.6602" r="60.0000958741138" stroke="black" stroke-linecap="round" stroke-linejoin="round" stroke-width="1"/>
        <text transform="translate(693 1141.2122)" fill="black">
          <tspan font-family="Helvetica Neue" font-size="16" fill="black" x="16.328" y="15" xml:space="preserve">Current </tspan>
          <tspan font-family="Helvetica Neue" font-size="16" fill="black" x="4.784" y="33.448" xml:space="preserve">awareness</tspan>
        </text>
      </g>
      <g id="Group_105">
        <g id="Graphic_107">
          <path d="M 859.6724 1182.1602 L 875.3203 1150.8643 L 890.9682 1182.1602 Z" fill="white"/>
          <path d="M 859.6724 1182.1602 L 875.3203 1150.8643 L 890.9682 1182.1602 Z" stroke="black" stroke-linecap="round" stroke-linejoin="round" stroke-width="1"/>
        </g>
        <g id="Graphic_106">
          <circle cx="875.3203" cy="1152.8081" r="15.647946764235" fill="white"/>
          <circle cx="875.3203" cy="1152.8081" r="15.647946764235" stroke="black" stroke-linecap="round" stroke-linejoin="round" stroke-width="1"/>
        </g>
      </g>
      <g id="Line_104">
        <line x1="805.8988" y1="1159.2429" x2="859.6724" y2="1158.9219" marker-start="url(#StickArrow_Marker)" stroke="black" stroke-linecap="round" stroke-linejoin="round" stroke-width="1"/>
      </g>
      <g id="Line_108">
        <path d="M 802.1415 1137.032 C 897.3189 1099.7108 1067.512 1013.8164 1122.5 861.7227 C 1146.0194 796.6692 1145.1209 728.7484 1132.4136 665.6329 C 1137.7932 664.4884 1135.5049 653.7322 1130.1253 654.8767 C 1111.2767 570.7576 1072.3674 496.1234 1044.0774 449.6425" marker-start="url(#StickArrow_Marker)" stroke="black" stroke-linecap="round" stroke-linejoin="round" stroke-dasharray="4.0,4.0" stroke-width="1"/>
      </g>
      <g id="Line_109">
        <path d="M 22.136383 905.1516 C 70.051636 971.3876 163.53536 1077.377 303 1135.5 C 448.6984 1196.2209 597.7074 1185.166 677.3019 1172.125" marker-start="url(#StickArrow_Marker)" stroke="black" stroke-linecap="round" stroke-linejoin="round" stroke-dasharray="4.0,4.0" stroke-width="1"/>
      </g>
      <g id="Line_110">
        <path d="M -15.525244 431.281 C 14.677957 533.395 88.98565 731.8646 243.33333 891.6667 C 399.5306 1053.3837 585.0314 1120.9735 677.5038 1146.2758" marker-start="url(#StickArrow_Marker)" stroke="black" stroke-linecap="round" stroke-linejoin="round" stroke-dasharray="4.0,4.0" stroke-width="1"/>
      </g>
      <g id="Graphic_111">
        <circle cx="-156.99102" cy="-207.20707" r="60.0000958741138" fill="lime"/>
        <circle cx="-156.99102" cy="-207.20707" r="60.0000958741138" stroke="black" stroke-linecap="round" stroke-linejoin="round" stroke-width="1"/>
        <text transform="translate(-199.99102 -216.43107)" fill="black">
          <tspan font-family="Helvetica Neue" font-size="16" fill="black" x="24.032" y="15" xml:space="preserve">Done</tspan>
        </text>
      </g>
      <g id="Graphic_112">
        <circle cx="-19.99623" cy="-207.20707" r="60.0000958741138" fill="yellow"/>
        <circle cx="-19.99623" cy="-207.20707" r="60.0000958741138" stroke="black" stroke-linecap="round" stroke-linejoin="round" stroke-width="1"/>
        <text transform="translate(-62.99623 -225.65507)" fill="black">
          <tspan font-family="Helvetica Neue" font-size="16" fill="black" x="9.376" y="15" xml:space="preserve">Not fit for </tspan>
          <tspan font-family="Helvetica Neue" font-size="16" fill="black" x="13.512" y="33.448" xml:space="preserve">purpose</tspan>
        </text>
      </g>
      <g id="Graphic_113">
        <circle cx="116.99856" cy="-207.20707" r="60.0000958741138" fill="#80ffff"/>
        <circle cx="116.99856" cy="-207.20707" r="60.0000958741138" stroke="black" stroke-linecap="round" stroke-linejoin="round" stroke-width="1"/>
        <text transform="translate(73.99856 -216.43107)" fill="black">
          <tspan font-family="Helvetica Neue" font-size="16" fill="black" x="2.992" y="15" xml:space="preserve">In progress</tspan>
        </text>
      </g>
      <g id="Graphic_114">
        <circle cx="253.99335" cy="-207.20707" r="60.0000958741138" fill="red"/>
        <circle cx="253.99335" cy="-207.20707" r="60.0000958741138" stroke="black" stroke-linecap="round" stroke-linejoin="round" stroke-width="1"/>
        <text transform="translate(210.99335 -216.43107)" fill="black">
          <tspan font-family="Helvetica Neue" font-size="16" fill="black" x="23.144" y="15" xml:space="preserve">To do</tspan>
        </text>
      </g>
      <g id="Graphic_116">
        <circle cx="728.4348" cy="393.6992" r="60.0000958741138" fill="red"/>
        <circle cx="728.4348" cy="393.6992" r="60.0000958741138" stroke="black" stroke-linecap="round" stroke-linejoin="round" stroke-width="1"/>
        <text transform="translate(685.4348 366.0272)" fill="black">
          <tspan font-family="Helvetica Neue" font-size="16" fill="black" x="13.216" y="15" xml:space="preserve">Request </tspan>
          <tspan font-family="Helvetica Neue" font-size="16" fill="black" x="4.04" y="33.448" xml:space="preserve">knowledge </tspan>
          <tspan font-family="Helvetica Neue" font-size="16" fill="black" x="25.664" y="51.895996" xml:space="preserve">base</tspan>
        </text>
      </g>
      <g id="Line_117">
        <path d="M 777.656 443.24494 C 798.2236 469.6783 817.5315 504.76034 818 543.66667 C 818.5055 585.6394 796.966 622.1855 775.3199 648.2243" marker-start="url(#StickArrow_Marker)" stroke="black" stroke-linecap="round" stroke-linejoin="round" stroke-dasharray="4.0,4.0" stroke-width="1"/>
      </g>
      <g id="Group_119">
        <g id="Graphic_121">
          <path d="M 712.7869 527.08984 L 728.4348 495.794 L 744.08275 527.08984 Z" fill="white"/>
          <path d="M 712.7869 527.08984 L 728.4348 495.794 L 744.08275 527.08984 Z" stroke="black" stroke-linecap="round" stroke-linejoin="round" stroke-dasharray="4.0,4.0" stroke-width="1"/>
        </g>
        <g id="Graphic_120">
          <circle cx="728.4348" cy="497.73777" r="15.647946764235" fill="white"/>
          <path d="M 739.4996 486.673 C 745.6105 492.7839 745.6105 502.6916 739.4996 508.8025 C 733.3887 514.9134 723.481 514.9134 717.3701 508.8025 C 711.2592 502.6916 711.2592 492.7839 717.3701 486.673 C 723.481 480.5621 733.3887 480.5621 739.4996 486.673" stroke="black" stroke-linecap="round" stroke-linejoin="round" stroke-dasharray="4.0,4.0" stroke-width="1"/>
        </g>
      </g>
      <g id="Line_118">
        <line x1="728.4348" y1="463.59925" x2="728.4348" y2="482.08984" marker-start="url(#StickArrow_Marker)" stroke="black" stroke-linecap="round" stroke-linejoin="round" stroke-width="1"/>
      </g>
    </g>
  </g>
</svg>
