<?xml version="1.0" encoding="UTF-8" standalone="no"?>
<!DOCTYPE svg PUBLIC "-//W3C//DTD SVG 1.1//EN" "http://www.w3.org/Graphics/SVG/1.1/DTD/svg11.dtd">
<svg xmlns:xl="http://www.w3.org/1999/xlink" xmlns="http://www.w3.org/2000/svg" xmlns:dc="http://purl.org/dc/elements/1.1/" version="1.1" viewBox="-396.87613 -144.25 1710.3761 1133.25" width="1710.3761" height="1133.25">
  <defs>
    <filter id="Shadow" filterUnits="userSpaceOnUse" x="-567.91374" y="-257.575">
      <feGaussianBlur in="SourceAlpha" result="blur" stdDeviation="1.3030978"/>
      <feOffset in="blur" result="offset" dx="0" dy="2"/>
      <feFlood flood-color="black" flood-opacity=".2" result="flood"/>
      <feComposite in="flood" in2="offset" operator="in" result="color"/>
      <feMerge>
        <feMergeNode in="color"/>
        <feMergeNode in="SourceGraphic"/>
      </feMerge>
    </filter>
    <marker orient="auto" overflow="visible" markerUnits="strokeWidth" id="StickArrow_Marker" stroke-linejoin="miter" stroke-miterlimit="10" viewBox="-1 -4 10 8" markerWidth="10" markerHeight="8" color="black">
      <g>
        <path d="M 8 0 L 0 0 M 0 -3 L 8 0 L 0 3" fill="none" stroke="currentColor" stroke-width="1"/>
      </g>
    </marker>
  </defs>
  <g id="Canvas_1" fill-opacity="1" stroke="none" stroke-opacity="1" stroke-dasharray="none" fill="none">
    <title>Canvas 1</title>
    <rect fill="white" x="-396.87613" y="-144.25" width="1710.3761" height="1133.25"/>
    <g id="Canvas_1_Layer_1">
      <title>Layer 1</title>
      <g id="Graphic_2">
        <rect x="38" y="322" width="1275" height="506" fill="white"/>
        <rect x="38" y="322" width="1275" height="506" stroke="black" stroke-linecap="round" stroke-linejoin="round" stroke-width="1"/>
      </g>
      <g id="Graphic_65" filter="url(#Shadow)">
        <rect x="-155" y="391" width="705" height="417" fill="lime"/>
        <rect x="-155" y="391" width="705" height="417" stroke="black" stroke-linecap="round" stroke-linejoin="round" stroke-width="1"/>
      </g>
      <g id="Graphic_10">
        <rect x="68" y="465.5" width="462" height="308" fill="white"/>
        <rect x="68" y="465.5" width="462" height="308" stroke="black" stroke-linecap="round" stroke-linejoin="round" stroke-width="1"/>
      </g>
      <g id="Graphic_59" filter="url(#Shadow)">
        <rect x="81" y="528" width="120" height="226" fill="aqua"/>
        <rect x="81" y="528" width="120" height="226" stroke="black" stroke-linecap="round" stroke-linejoin="round" stroke-width="1"/>
      </g>
      <g id="Graphic_3">
        <rect x="38" y="322" width="120" height="50" fill="white"/>
        <rect x="38" y="322" width="120" height="50" stroke="black" stroke-linecap="round" stroke-linejoin="round" stroke-width="1"/>
        <text transform="translate(43 337.776)" fill="black">
          <tspan font-family="Helvetica Neue" font-size="16" fill="black" x="34.712" y="15">Azure</tspan>
        </text>
      </g>
      <g id="Graphic_5">
        <rect x="38" y="-22" width="1275" height="308" fill="white"/>
        <rect x="38" y="-22" width="1275" height="308" stroke="black" stroke-linecap="round" stroke-linejoin="round" stroke-width="1"/>
      </g>
      <g id="Graphic_4">
        <rect x="38" y="-22" width="120" height="50" fill="white"/>
        <rect x="38" y="-22" width="120" height="50" stroke="black" stroke-linecap="round" stroke-linejoin="round" stroke-width="1"/>
        <text transform="translate(43 -6.223999)" fill="black">
          <tspan font-family="Helvetica Neue" font-size="16" fill="black" x="29.216" y="15">Heroku</tspan>
        </text>
      </g>
      <g id="Graphic_6">
        <path d="M 299 152 L 376 152 C 380.97056 152 385 156.02944 385 161 L 385 235.5 C 385 240.47056 380.97056 244.5 376 244.5 L 299 244.5 C 294.02944 244.5 290 240.47056 290 235.5 L 290 161 C 290 156.02944 294.02944 152 299 152 Z" fill="#ccc"/>
        <path d="M 299 152 L 376 152 C 380.97056 152 385 156.02944 385 161 L 385 235.5 C 385 240.47056 380.97056 244.5 376 244.5 L 299 244.5 C 294.02944 244.5 290 240.47056 290 235.5 L 290 161 C 290 156.02944 294.02944 152 299 152 Z" stroke="black" stroke-linecap="round" stroke-linejoin="round" stroke-width="1"/>
        <text transform="translate(295 170.578)" fill="black">
          <tspan font-family="Helvetica Neue" font-size="16" fill="black" x="17.46" y="15">Search </tspan>
          <tspan font-family="Helvetica Neue" font-size="16" fill="black" x="22.636" y="33.448">mock </tspan>
          <tspan font-family="Helvetica Neue" font-size="16" fill="black" x="3.236" y="51.895996">application</tspan>
        </text>
      </g>
      <g id="Graphic_7">
        <path d="M 299 .5 L 376 .5 C 380.97056 .5 385 4.529437 385 9.5 L 385 84 C 385 88.97056 380.97056 93 376 93 L 299 93 C 294.02944 93 290 88.97056 290 84 L 290 9.5 C 290 4.529437 294.02944 .5 299 .5 Z" fill="white"/>
        <path d="M 299 .5 L 376 .5 C 380.97056 .5 385 4.529437 385 9.5 L 385 84 C 385 88.97056 380.97056 93 376 93 L 299 93 C 294.02944 93 290 88.97056 290 84 L 290 9.5 C 290 4.529437 294.02944 .5 299 .5 Z" stroke="black" stroke-linecap="round" stroke-linejoin="round" stroke-width="1"/>
        <text transform="translate(295 19.078003)" fill="black">
          <tspan font-family="Helvetica Neue" font-size="16" fill="black" x="17.46" y="15">Search </tspan>
          <tspan font-family="Helvetica Neue" font-size="16" fill="black" x="7.972" y="33.448">prototype </tspan>
          <tspan font-family="Helvetica Neue" font-size="16" fill="black" x="3.236" y="51.895996">application</tspan>
        </text>
      </g>
      <g id="Graphic_9">
        <rect x="68" y="465.5" width="159.5" height="50" fill="white"/>
        <rect x="68" y="465.5" width="159.5" height="50" stroke="black" stroke-linecap="round" stroke-linejoin="round" stroke-width="1"/>
        <text transform="translate(73 481.276)" fill="black">
          <tspan font-family="Helvetica Neue" font-size="16" fill="black" x="16.374" y="15">Data developers</tspan>
        </text>
      </g>
      <g id="Graphic_11">
        <path d="M 417.5 532.5 L 494.5 532.5 C 499.47056 532.5 503.5 536.52944 503.5 541.5 L 503.5 616 C 503.5 620.97056 499.47056 625 494.5 625 L 417.5 625 C 412.52944 625 408.5 620.97056 408.5 616 L 408.5 541.5 C 408.5 536.52944 412.52944 532.5 417.5 532.5 Z" fill="white"/>
        <path d="M 417.5 532.5 L 494.5 532.5 C 499.47056 532.5 503.5 536.52944 503.5 541.5 L 503.5 616 C 503.5 620.97056 499.47056 625 494.5 625 L 417.5 625 C 412.52944 625 408.5 620.97056 408.5 616 L 408.5 541.5 C 408.5 536.52944 412.52944 532.5 417.5 532.5 Z" stroke="black" stroke-linecap="round" stroke-linejoin="round" stroke-width="1"/>
        <text transform="translate(413.5 569.526)" fill="black">
          <tspan font-family="Helvetica Neue" font-size="16" fill="black" x="14.94" y="15">Solr 3.5</tspan>
        </text>
      </g>
      <g id="Graphic_12">
        <path d="M 278 651.5 L 355 651.5 C 359.97056 651.5 364 655.5294 364 660.5 L 364 735 C 364 739.9706 359.97056 744 355 744 L 278 744 C 273.02944 744 269 739.9706 269 735 L 269 660.5 C 269 655.5294 273.02944 651.5 278 651.5 Z" fill="white"/>
        <path d="M 278 651.5 L 355 651.5 C 359.97056 651.5 364 655.5294 364 660.5 L 364 735 C 364 739.9706 359.97056 744 355 744 L 278 744 C 273.02944 744 269 739.9706 269 735 L 269 660.5 C 269 655.5294 273.02944 651.5 278 651.5 Z" stroke="black" stroke-linecap="round" stroke-linejoin="round" stroke-width="1"/>
        <text transform="translate(274 688.526)" fill="black">
          <tspan font-family="Helvetica Neue" font-size="16" fill="black" x="21.612" y="15">Solr 9</tspan>
        </text>
      </g>
      <g id="Graphic_13">
        <path d="M 417.5 651.5 L 494.5 651.5 C 499.47056 651.5 503.5 655.5294 503.5 660.5 L 503.5 735 C 503.5 739.9706 499.47056 744 494.5 744 L 417.5 744 C 412.52944 744 408.5 739.9706 408.5 735 L 408.5 660.5 C 408.5 655.5294 412.52944 651.5 417.5 651.5 Z" fill="white"/>
        <path d="M 417.5 651.5 L 494.5 651.5 C 499.47056 651.5 503.5 655.5294 503.5 660.5 L 503.5 735 C 503.5 739.9706 499.47056 744 494.5 744 L 417.5 744 C 412.52944 744 408.5 739.9706 408.5 735 L 408.5 660.5 C 408.5 655.5294 412.52944 651.5 417.5 651.5 Z" stroke="black" stroke-linecap="round" stroke-linejoin="round" stroke-width="1"/>
        <text transform="translate(413.5 688.526)" fill="black">
          <tspan font-family="Helvetica Neue" font-size="16" fill="black" x="27.244" y="15">SES</tspan>
        </text>
      </g>
      <g id="Graphic_15">
        <rect x="650.5" y="465.5" width="287" height="308" fill="white"/>
        <rect x="650.5" y="465.5" width="287" height="308" stroke="black" stroke-linecap="round" stroke-linejoin="round" stroke-width="1"/>
      </g>
      <g id="Graphic_14">
        <rect x="650.5" y="465.5" width="159.5" height="50" fill="white"/>
        <rect x="650.5" y="465.5" width="159.5" height="50" stroke="black" stroke-linecap="round" stroke-linejoin="round" stroke-width="1"/>
        <text transform="translate(655.5 481.276)" fill="black">
          <tspan font-family="Helvetica Neue" font-size="16" fill="black" x="30.59" y="15">Lift and shift</tspan>
        </text>
      </g>
      <g id="Graphic_16">
        <path d="M 278 532.5 L 355 532.5 C 359.97056 532.5 364 536.52944 364 541.5 L 364 616 C 364 620.97056 359.97056 625 355 625 L 278 625 C 273.02944 625 269 620.97056 269 616 L 269 541.5 C 269 536.52944 273.02944 532.5 278 532.5 Z" fill="white"/>
        <path d="M 278 532.5 L 355 532.5 C 359.97056 532.5 364 536.52944 364 541.5 L 364 616 C 364 620.97056 359.97056 625 355 625 L 278 625 C 273.02944 625 269 620.97056 269 616 L 269 541.5 C 269 536.52944 273.02944 532.5 278 532.5 Z" stroke="black" stroke-linecap="round" stroke-linejoin="round" stroke-width="1"/>
        <text transform="translate(274 560.302)" fill="black">
          <tspan font-family="Helvetica Neue" font-size="16" fill="black" x="17.46" y="15">Search </tspan>
          <tspan font-family="Helvetica Neue" font-size="16" fill="black" x="14.052" y="33.448">material</tspan>
        </text>
      </g>
      <g id="Line_17">
        <line x1="408.9676" y1="657.62915" x2="371.0643" y2="625.2959" marker-end="url(#StickArrow_Marker)" stroke="black" stroke-linecap="round" stroke-linejoin="round" stroke-width="1"/>
      </g>
      <g id="Line_18">
        <line x1="408.5" y1="578.75" x2="373.9" y2="578.75" marker-end="url(#StickArrow_Marker)" stroke="black" stroke-linecap="round" stroke-linejoin="round" stroke-width="1"/>
      </g>
      <g id="Graphic_19">
        <path d="M 676 528 L 753 528 C 757.9706 528 762 532.02944 762 537 L 762 611.5 C 762 616.47056 757.9706 620.5 753 620.5 L 676 620.5 C 671.0294 620.5 667 616.47056 667 611.5 L 667 537 C 667 532.02944 671.0294 528 676 528 Z" fill="white"/>
        <path d="M 676 528 L 753 528 C 757.9706 528 762 532.02944 762 537 L 762 611.5 C 762 616.47056 757.9706 620.5 753 620.5 L 676 620.5 C 671.0294 620.5 667 616.47056 667 611.5 L 667 537 C 667 532.02944 671.0294 528 676 528 Z" stroke="black" stroke-linecap="round" stroke-linejoin="round" stroke-width="1"/>
        <text transform="translate(672 555.802)" fill="black">
          <tspan font-family="Helvetica Neue" font-size="16" fill="black" x="17.46" y="15">Search</tspan>
          <tspan font-family="Helvetica Neue" font-size="16" fill="black" x="4.42" y="33.448">Parliament</tspan>
        </text>
      </g>
      <g id="Graphic_20">
        <circle cx="500.25" cy="537.25" r="9.25001478059255" fill="blue"/>
        <circle cx="500.25" cy="537.25" r="9.25001478059255" stroke="black" stroke-linecap="round" stroke-linejoin="round" stroke-width="1"/>
      </g>
      <g id="Graphic_21">
        <circle cx="500.25" cy="656.75" r="9.25001478059256" fill="blue"/>
        <circle cx="500.25" cy="656.75" r="9.25001478059256" stroke="black" stroke-linecap="round" stroke-linejoin="round" stroke-width="1"/>
      </g>
      <g id="Graphic_22">
        <circle cx="359.75" cy="537.25" r="9.25001478059256" fill="blue"/>
        <circle cx="359.75" cy="537.25" r="9.25001478059256" stroke="black" stroke-linecap="round" stroke-linejoin="round" stroke-width="1"/>
      </g>
      <g id="Graphic_24">
        <circle cx="761.75" cy="532.75" r="9.25001478059252" fill="red"/>
        <circle cx="761.75" cy="532.75" r="9.25001478059252" stroke="black" stroke-linecap="round" stroke-linejoin="round" stroke-width="1"/>
      </g>
      <g id="Graphic_25">
        <circle cx="381.25" cy="155.25" r="9.25001478059253" fill="blue"/>
        <circle cx="381.25" cy="155.25" r="9.25001478059253" stroke="black" stroke-linecap="round" stroke-linejoin="round" stroke-width="1"/>
      </g>
      <g id="Graphic_26">
        <circle cx="381.25" cy="3" r="9.25001478059252" fill="blue"/>
        <circle cx="381.25" cy="3" r="9.25001478059252" stroke="black" stroke-linecap="round" stroke-linejoin="round" stroke-width="1"/>
      </g>
      <g id="Line_28">
        <line x1="503.5" y1="577.9231" x2="657.1015" y2="575.2492" marker-end="url(#StickArrow_Marker)" stroke="black" stroke-linecap="round" stroke-linejoin="round" stroke-width="1"/>
      </g>
      <g id="Line_29">
        <line x1="503.5" y1="577.9231" x2="657.1015" y2="575.2492" marker-end="url(#StickArrow_Marker)" stroke="black" stroke-linecap="round" stroke-linejoin="round" stroke-width="1"/>
      </g>
      <g id="Line_30">
        <line x1="503.5" y1="675.0566" x2="658.0671" y2="601.2112" marker-end="url(#StickArrow_Marker)" stroke="black" stroke-linecap="round" stroke-linejoin="round" stroke-width="1"/>
      </g>
      <g id="Graphic_32">
        <rect x="993" y="465.5" width="287" height="308" fill="white"/>
        <rect x="993" y="465.5" width="287" height="308" stroke="black" stroke-linecap="round" stroke-linejoin="round" stroke-width="1"/>
      </g>
      <g id="Graphic_31">
        <rect x="993" y="465.5" width="159.5" height="50" fill="white"/>
        <rect x="993" y="465.5" width="159.5" height="50" stroke="black" stroke-linecap="round" stroke-linejoin="round" stroke-width="1"/>
        <text transform="translate(998 481.276)" fill="black">
          <tspan font-family="Helvetica Neue" font-size="16" fill="black" x="6.15" y="15">Development (new)</tspan>
        </text>
      </g>
      <g id="Graphic_33">
        <path d="M 1015.5 647 L 1092.5 647 C 1097.4706 647 1101.5 651.0294 1101.5 656 L 1101.5 730.5 C 1101.5 735.4706 1097.4706 739.5 1092.5 739.5 L 1015.5 739.5 C 1010.5294 739.5 1006.5 735.4706 1006.5 730.5 L 1006.5 656 C 1006.5 651.0294 1010.5294 647 1015.5 647 Z" fill="#ccc"/>
        <path d="M 1015.5 647 L 1092.5 647 C 1097.4706 647 1101.5 651.0294 1101.5 656 L 1101.5 730.5 C 1101.5 735.4706 1097.4706 739.5 1092.5 739.5 L 1015.5 739.5 C 1010.5294 739.5 1006.5 735.4706 1006.5 730.5 L 1006.5 656 C 1006.5 651.0294 1010.5294 647 1015.5 647 Z" stroke="black" stroke-linecap="round" stroke-linejoin="round" stroke-width="1"/>
        <text transform="translate(1011.5 684.026)" fill="black">
          <tspan font-family="Helvetica Neue" font-size="16" fill="black" x="21.612" y="15">Solr 9</tspan>
        </text>
      </g>
      <g id="Graphic_34">
        <path d="M 1155 647 L 1232 647 C 1236.9706 647 1241 651.0294 1241 656 L 1241 730.5 C 1241 735.4706 1236.9706 739.5 1232 739.5 L 1155 739.5 C 1150.0294 739.5 1146 735.4706 1146 730.5 L 1146 656 C 1146 651.0294 1150.0294 647 1155 647 Z" fill="#ccc"/>
        <path d="M 1155 647 L 1232 647 C 1236.9706 647 1241 651.0294 1241 656 L 1241 730.5 C 1241 735.4706 1236.9706 739.5 1232 739.5 L 1155 739.5 C 1150.0294 739.5 1146 735.4706 1146 730.5 L 1146 656 C 1146 651.0294 1150.0294 647 1155 647 Z" stroke="black" stroke-linecap="round" stroke-linejoin="round" stroke-width="1"/>
        <text transform="translate(1151 684.026)" fill="black">
          <tspan font-family="Helvetica Neue" font-size="16" fill="black" x="27.244" y="15">SES</tspan>
        </text>
      </g>
      <g id="Graphic_35">
        <path d="M 1018 528 L 1095 528 C 1099.9706 528 1104 532.02944 1104 537 L 1104 611.5 C 1104 616.47056 1099.9706 620.5 1095 620.5 L 1018 620.5 C 1013.0294 620.5 1009 616.47056 1009 611.5 L 1009 537 C 1009 532.02944 1013.0294 528 1018 528 Z" fill="#ccc"/>
        <path d="M 1018 528 L 1095 528 C 1099.9706 528 1104 532.02944 1104 537 L 1104 611.5 C 1104 616.47056 1099.9706 620.5 1095 620.5 L 1018 620.5 C 1013.0294 620.5 1009 616.47056 1009 611.5 L 1009 537 C 1009 532.02944 1013.0294 528 1018 528 Z" stroke="black" stroke-linecap="round" stroke-linejoin="round" stroke-width="1"/>
        <text transform="translate(1014 537.354)" fill="black">
          <tspan font-family="Helvetica Neue" font-size="16" fill="black" x="17.46" y="15">Search </tspan>
          <tspan font-family="Helvetica Neue" font-size="16" fill="black" x="7.972" y="33.448">prototype </tspan>
          <tspan font-family="Helvetica Neue" font-size="16" fill="black" x="3.236" y="51.895996">application</tspan>
          <tspan font-family="Helvetica Neue" font-size="16" fill="black" x="12.724" y="70.34399">(Docker)</tspan>
        </text>
      </g>
      <g id="Graphic_36">
        <circle cx="1105.75" cy="532.75" r="9.2500147805925" fill="red"/>
        <circle cx="1105.75" cy="532.75" r="9.2500147805925" stroke="black" stroke-linecap="round" stroke-linejoin="round" stroke-width="1"/>
      </g>
      <g id="Graphic_37">
        <circle cx="1100.25" cy="652.25" r="9.25001478059251" fill="red"/>
        <circle cx="1100.25" cy="652.25" r="9.25001478059251" stroke="black" stroke-linecap="round" stroke-linejoin="round" stroke-width="1"/>
      </g>
      <g id="Graphic_38">
        <circle cx="1237.75" cy="652.25" r="9.25001478059254" fill="red"/>
        <circle cx="1237.75" cy="652.25" r="9.25001478059254" stroke="black" stroke-linecap="round" stroke-linejoin="round" stroke-width="1"/>
      </g>
      <g id="Graphic_39">
        <path d="M 819 651.5 L 896 651.5 C 900.9706 651.5 905 655.5294 905 660.5 L 905 735 C 905 739.9706 900.9706 744 896 744 L 819 744 C 814.0294 744 810 739.9706 810 735 L 810 660.5 C 810 655.5294 814.0294 651.5 819 651.5 Z" fill="white"/>
        <path d="M 819 651.5 L 896 651.5 C 900.9706 651.5 905 655.5294 905 660.5 L 905 735 C 905 739.9706 900.9706 744 896 744 L 819 744 C 814.0294 744 810 739.9706 810 735 L 810 660.5 C 810 655.5294 814.0294 651.5 819 651.5 Z" stroke="black" stroke-linecap="round" stroke-linejoin="round" stroke-width="1"/>
        <text transform="translate(815 670.078)" fill="black">
          <tspan font-family="Helvetica Neue" font-size="16" fill="black" x="22.212" y="15">Poller </tspan>
          <tspan font-family="Helvetica Neue" font-size="16" fill="black" x="18.196" y="33.448">(queue </tspan>
          <tspan font-family="Helvetica Neue" font-size="16" fill="black" x="4.724" y="51.895996">processor)</tspan>
        </text>
      </g>
      <g id="Graphic_41">
        <path d="M 417.5 896 L 494.5 896 C 499.47056 896 503.5 900.0294 503.5 905 L 503.5 979.5 C 503.5 984.4706 499.47056 988.5 494.5 988.5 L 417.5 988.5 C 412.52944 988.5 408.5 984.4706 408.5 979.5 L 408.5 905 C 408.5 900.0294 412.52944 896 417.5 896 Z" fill="white"/>
        <path d="M 417.5 896 L 494.5 896 C 499.47056 896 503.5 900.0294 503.5 905 L 503.5 979.5 C 503.5 984.4706 499.47056 988.5 494.5 988.5 L 417.5 988.5 C 412.52944 988.5 408.5 984.4706 408.5 979.5 L 408.5 905 C 408.5 900.0294 412.52944 896 417.5 896 Z" stroke="black" stroke-linecap="round" stroke-linejoin="round" stroke-width="1"/>
        <text transform="translate(413.5 933.026)" fill="black">
          <tspan font-family="Helvetica Neue" font-size="16" fill="black" x="9.316" y="15">Peersync</tspan>
        </text>
      </g>
      <g id="Line_42">
        <line x1="456" y1="896" x2="456" y2="753.9" marker-end="url(#StickArrow_Marker)" stroke="black" stroke-linecap="round" stroke-linejoin="round" stroke-width="1"/>
      </g>
      <g id="Graphic_43">
        <path d="M 1098 755.5 L 1175 755.5 C 1179.9706 755.5 1184 759.5294 1184 764.5 L 1184 785.5 C 1184 790.4706 1179.9706 794.5 1175 794.5 L 1098 794.5 C 1093.0294 794.5 1089 790.4706 1089 785.5 L 1089 764.5 C 1089 759.5294 1093.0294 755.5 1098 755.5 Z" fill="white"/>
        <path d="M 1098 755.5 L 1175 755.5 C 1179.9706 755.5 1184 759.5294 1184 764.5 L 1184 785.5 C 1184 790.4706 1179.9706 794.5 1175 794.5 L 1098 794.5 C 1093.0294 794.5 1089 790.4706 1089 785.5 L 1089 764.5 C 1089 759.5294 1093.0294 755.5 1098 755.5 Z" stroke="black" stroke-linecap="round" stroke-linejoin="round" stroke-dasharray="4.0,4.0" stroke-width="1"/>
        <text transform="translate(1094 765.776)" fill="black">
          <tspan font-family="Helvetica Neue" font-size="16" fill="black" x="15.388" y="15">Bastion</tspan>
        </text>
      </g>
      <g id="Line_44">
        <line x1="503.5" y1="930.5757" x2="1079.4597" y2="789.0191" marker-end="url(#StickArrow_Marker)" stroke="black" stroke-linecap="round" stroke-linejoin="round" stroke-width="1"/>
      </g>
      <g id="Line_45">
        <path d="M 855.8243 744 C 862.1062 757.2562 876.2635 770.2844 905.3333 778.3333 C 953.1475 791.5722 1027.7046 787.5744 1079.1534 782.34905" marker-end="url(#StickArrow_Marker)" stroke="black" stroke-linecap="round" stroke-linejoin="round" stroke-width="1"/>
      </g>
      <g id="Line_46">
        <line x1="1116.8211" y1="755.5" x2="1105.4592" y2="744.24135" marker-end="url(#StickArrow_Marker)" stroke="black" stroke-linecap="round" stroke-linejoin="round" stroke-width="1"/>
      </g>
      <g id="Line_47">
        <line x1="1150.0963" y1="755.5" x2="1155.59" y2="747.6209" marker-end="url(#StickArrow_Marker)" stroke="black" stroke-linecap="round" stroke-linejoin="round" stroke-width="1"/>
      </g>
      <g id="Line_49">
        <line x1="1054.9716" y1="647" x2="1055.3204" y2="630.3978" marker-end="url(#StickArrow_Marker)" stroke="black" stroke-linecap="round" stroke-linejoin="round" stroke-width="1"/>
      </g>
      <g id="Line_50">
        <line x1="1146.674" y1="652.5764" x2="1110.8" y2="621.41575" marker-end="url(#StickArrow_Marker)" stroke="black" stroke-linecap="round" stroke-linejoin="round" stroke-width="1"/>
      </g>
      <g id="Graphic_51">
        <circle cx="47.25" cy="-125.25" r="9.25001478059254" fill="blue"/>
        <circle cx="47.25" cy="-125.25" r="9.25001478059254" stroke="black" stroke-linecap="round" stroke-linejoin="round" stroke-width="1"/>
      </g>
      <g id="Graphic_52">
        <circle cx="47.25" cy="-78.75" r="9.25001478059254" fill="red"/>
        <circle cx="47.25" cy="-78.75" r="9.25001478059254" stroke="black" stroke-linecap="round" stroke-linejoin="round" stroke-width="1"/>
      </g>
      <g id="Graphic_53">
        <rect x="72.5" y="-144.25" width="120" height="38" fill="white"/>
        <text transform="translate(77.5 -134.474)" fill="black">
          <tspan font-family="Helvetica Neue" font-size="16" fill="black" x="0" y="15">Public IP</tspan>
        </text>
      </g>
      <g id="Graphic_54">
        <rect x="72.5" y="-97.75" width="120" height="38" fill="white"/>
        <text transform="translate(77.5 -87.974)" fill="black">
          <tspan font-family="Helvetica Neue" font-size="16" fill="black" x="0" y="15">Private IP</tspan>
        </text>
      </g>
      <g id="Graphic_55">
        <circle cx="903.5" cy="656.75" r="9.25001478059257" fill="red"/>
        <circle cx="903.5" cy="656.75" r="9.25001478059257" stroke="black" stroke-linecap="round" stroke-linejoin="round" stroke-width="1"/>
      </g>
      <g id="Line_40">
        <path d="M 832.4768 744 C 808.0579 777.8816 764.7291 814.7777 698 795 C 638.987 777.5092 576.0695 719.9606 529.183 668.62686 C 533.26515 664.94095 525.89267 656.7759 521.8105 660.4618 C 513.1482 650.7587 505.11604 641.3758 497.8552 632.6406" marker-end="url(#StickArrow_Marker)" stroke="black" stroke-linecap="round" stroke-linejoin="round" stroke-width="1"/>
      </g>
      <g id="Line_56">
        <line x1="337.5" y1="152" x2="337.5" y2="102.9" marker-end="url(#StickArrow_Marker)" stroke="black" stroke-linecap="round" stroke-linejoin="round" stroke-dasharray="4.0,4.0" stroke-width="1"/>
      </g>
      <g id="Line_58">
        <path d="M 97 706.15336 C -38.71898 670.9039 -438.98903 552.66955 -392.66667 394.66667 C -346.93063 238.66372 116.49463 104.16101 280.42136 61.127936" marker-end="url(#StickArrow_Marker)" stroke="black" stroke-linecap="round" stroke-linejoin="round" stroke-width="1"/>
      </g>
      <g id="Graphic_60" filter="url(#Shadow)">
        <text transform="translate(102 553.25)" fill="black">
          <tspan font-family="Helvetica" font-size="12" fill="black" x="23.326172" y="11">Azure</tspan>
          <tspan font-family="Helvetica" font-size="12" fill="black" x="29.3291" y="25">API</tspan>
          <tspan font-family="Helvetica" font-size="12" fill="black" x="3.9785156" y="39">Management</tspan>
        </text>
      </g>
      <g id="Graphic_61" filter="url(#Shadow)">
        <rect x="97" y="628" width="88" height="54" fill="white"/>
        <rect x="97" y="628" width="88" height="54" stroke="black" stroke-linecap="round" stroke-linejoin="round" stroke-width="1"/>
        <text transform="translate(102 648)" fill="black">
          <tspan font-family="Helvetica" font-size="12" fill="black" x="28.330078" y="11">Solr</tspan>
        </text>
      </g>
      <g id="Graphic_62" filter="url(#Shadow)">
        <rect x="97" y="690" width="88" height="54" fill="white"/>
        <rect x="97" y="690" width="88" height="54" stroke="black" stroke-linecap="round" stroke-linejoin="round" stroke-width="1"/>
        <text transform="translate(102 710)" fill="black">
          <tspan font-family="Helvetica" font-size="12" fill="black" x="26.99414" y="11">SES</tspan>
        </text>
      </g>
      <g id="Line_57">
        <path d="M 97 640.0345 C 2.7365984 605.15364 -206.7575 511.08266 -163.33333 376.66667 C -120.02296 242.60287 159.03734 117.45102 280.8099 68.489276" marker-end="url(#StickArrow_Marker)" stroke="black" stroke-linecap="round" stroke-linejoin="round" stroke-width="1"/>
      </g>
      <g id="Line_63">
        <line x1="269" y1="686.1795" x2="194.61874" y2="668.061" marker-end="url(#StickArrow_Marker)" stroke="black" stroke-linecap="round" stroke-linejoin="round" stroke-width="1"/>
      </g>
      <g id="Line_64">
        <path d="M 417.24223 743.9964 C 391.0586 769.2049 352.9349 795.8595 307 798.6667 C 255.53087 801.812 208.2137 774.1643 177.37955 750.1966" marker-end="url(#StickArrow_Marker)" stroke="black" stroke-linecap="round" stroke-linejoin="round" stroke-width="1"/>
      </g>
      <g id="Graphic_66">
        <text transform="translate(-150 406.776)" fill="black">
          <tspan font-family="Helvetica Neue" font-size="16" fill="black" x="34.908" y="15">Cloudflare</tspan>
        </text>
      </g>
      <g id="Graphic_67">
        <circle cx="359.75" cy="656.75" r="9.25001478059257" fill="red"/>
        <circle cx="359.75" cy="656.75" r="9.25001478059257" stroke="black" stroke-linecap="round" stroke-linejoin="round" stroke-width="1"/>
      </g>
      <g id="Graphic_69">
        <path d="M 672.125 653.5 L 749.125 653.5 C 754.0956 653.5 758.125 657.5294 758.125 662.5 L 758.125 737 C 758.125 741.9706 754.0956 746 749.125 746 L 672.125 746 C 667.1544 746 663.125 741.9706 663.125 737 L 663.125 662.5 C 663.125 657.5294 667.1544 653.5 672.125 653.5 Z" fill="white"/>
        <path d="M 672.125 653.5 L 749.125 653.5 C 754.0956 653.5 758.125 657.5294 758.125 662.5 L 758.125 737 C 758.125 741.9706 754.0956 746 749.125 746 L 672.125 746 C 667.1544 746 663.125 741.9706 663.125 737 L 663.125 662.5 C 663.125 657.5294 667.1544 653.5 672.125 653.5 Z" stroke="black" stroke-linecap="round" stroke-linejoin="round" stroke-width="1"/>
        <text transform="translate(668.125 681.302)" fill="black">
          <tspan font-family="Helvetica Neue" font-size="16" fill="black" x="22.212" y="15">Poller </tspan>
          <tspan font-family="Helvetica Neue" font-size="16" fill="black" x="18.948" y="33.448">(clone)</tspan>
        </text>
      </g>
      <g id="Graphic_68">
        <circle cx="756.625" cy="658.75" r="9.25001478059255" fill="red"/>
        <circle cx="756.625" cy="658.75" r="9.25001478059255" stroke="black" stroke-linecap="round" stroke-linejoin="round" stroke-width="1"/>
      </g>
      <g id="Line_71">
        <path d="M 678.4859 746 C 672.1958 754.0042 665.0874 762.53845 657.2556 771.1661 C 653.2318 767.4167 645.7326 775.4646 649.7565 779.2141 C 613.6134 816.9819 564.22155 853.9444 509.5 853.6667 C 492.60574 853.5809 476.4055 849.9518 461.076 843.8534 C 463.2827 838.8155 453.2069 834.402 451.0002 839.4399 C 422.5605 825.8403 397.42077 804.1507 376.80164 781.78995 C 380.89914 778.1211 373.5607 769.9253 369.4632 773.5941 C 363.0894 766.2673 357.21457 758.9653 351.8813 751.9475" marker-end="url(#StickArrow_Marker)" stroke="black" stroke-linecap="round" stroke-linejoin="round" stroke-width="1"/>
      </g>
    </g>
  </g>
</svg>
