<?xml version="1.0" encoding="UTF-8" standalone="no"?>
<!DOCTYPE svg PUBLIC "-//W3C//DTD SVG 1.1//EN" "http://www.w3.org/Graphics/SVG/1.1/DTD/svg11.dtd">
<svg xmlns:xl="http://www.w3.org/1999/xlink" xmlns="http://www.w3.org/2000/svg" xmlns:dc="http://purl.org/dc/elements/1.1/" version="1.1" viewBox="204 -148.5 644 742" width="644" height="742">
  <defs>
    <marker orient="auto" overflow="visible" markerUnits="strokeWidth" id="CrowBall_Marker" stroke-linejoin="miter" stroke-miterlimit="10" viewBox="-1 -5 20 10" markerWidth="20" markerHeight="10" color="black">
      <g>
        <path d="M 18 0 L 6 0 M 18 4 L 8 0 L 18 -4 M .87868 2.12132 C -.29289 .949747 -.29289 -.949747 .87868 -2.12132 C 2.05025 -3.29289 3.94975 -3.29289 5.12132 -2.12132 C 6.292893 -.949747 6.292893 .949747 5.12132 2.12132 C 3.94975 3.29289 2.05025 3.29289 .87868 2.12132" fill="none" stroke="currentColor" stroke-width="1"/>
      </g>
    </marker>
    <marker orient="auto" overflow="visible" markerUnits="strokeWidth" id="DoubleBar_Marker" stroke-linejoin="miter" stroke-miterlimit="10" viewBox="-15 -5 16 10" markerWidth="16" markerHeight="10" color="black">
      <g>
        <path d="M -14 0 L 0 0 M -5 -4 L -5 4 M 0 -4 L 0 4" fill="none" stroke="currentColor" stroke-width="1"/>
      </g>
    </marker>
  </defs>
  <g id="Canvas_1" stroke-opacity="1" stroke="none" stroke-dasharray="none" fill="none" fill-opacity="1">
    <title>Canvas 1</title>
    <rect fill="white" x="204" y="-148.5" width="644" height="742"/>
    <g id="Canvas_1_Layer_1">
      <title>Layer 1</title>
      <g id="Group_2">
        <title>Class with Attributes</title>
        <g id="Graphic_4">
          <title>Attributes</title>
          <rect x="205" y="305" width="247" height="74" stroke="#b9c0c1" stroke-linecap="round" stroke-linejoin="round" stroke-width="2"/>
          <text transform="translate(211 311)" fill="#515556">
            <tspan font-family="Avenir" font-size="13" fill="#515556" x="0" y="13">id</tspan>
            <tspan font-family="Avenir" font-size="13" fill="#515556" x="0" y="35">preferred_label</tspan>
            <tspan font-family="Avenir" font-size="13" fill="#515556" x="0" y="57">scheme_id</tspan>
          </text>
        </g>
        <g id="Graphic_3">
          <title>Class Name</title>
          <rect x="205" y="279" width="247" height="26" stroke="#b9c0c1" stroke-linecap="round" stroke-linejoin="round" stroke-width="2"/>
          <text transform="translate(211 283)" fill="#515556">
            <tspan font-family="Avenir" font-weight="bold" font-size="13" fill="#515556" x="100.054" y="13">terms</tspan>
          </text>
        </g>
      </g>
      <g id="Group_6">
        <title>Class with Attributes</title>
        <g id="Graphic_8">
          <title>Attributes</title>
          <rect x="600" y="305" width="247" height="74" stroke="#b9c0c1" stroke-linecap="round" stroke-linejoin="round" stroke-width="2"/>
          <text transform="translate(606 311)" fill="#515556">
            <tspan font-family="Avenir" font-size="13" fill="#515556" x="0" y="13">id</tspan>
            <tspan font-family="Avenir" font-size="13" fill="#515556" x="0" y="35">non_preferred_label</tspan>
            <tspan font-family="Avenir" font-size="13" fill="#515556" x="0" y="57">term_id</tspan>
          </text>
        </g>
        <g id="Graphic_7">
          <title>Class Name</title>
          <rect x="600" y="279" width="247" height="26" stroke="#b9c0c1" stroke-linecap="round" stroke-linejoin="round" stroke-width="2"/>
          <text transform="translate(606 283)" fill="#515556">
            <tspan font-family="Avenir" font-weight="bold" font-size="13" fill="#515556" x="52.968" y="13">non_preferred_labels</tspan>
          </text>
        </g>
      </g>
      <g id="Line_9">
        <line x1="467.5" y1="342" x2="580.5" y2="342" marker-end="url(#CrowBall_Marker)" marker-start="url(#DoubleBar_Marker)" stroke="black" stroke-linecap="round" stroke-linejoin="round" stroke-width="1"/>
      </g>
      <g id="Group_10">
        <title>Class with Attributes</title>
        <g id="Graphic_12">
          <title>Attributes</title>
          <rect x="205" y="108.5" width="247" height="74" stroke="#b9c0c1" stroke-linecap="round" stroke-linejoin="round" stroke-width="2"/>
          <text transform="translate(211 114.5)" fill="#515556">
            <tspan font-family="Avenir" font-size="13" fill="#515556" x="0" y="13">id</tspan>
            <tspan font-family="Avenir" font-size="13" fill="#515556" x="0" y="35">parent_term_id</tspan>
            <tspan font-family="Avenir" font-size="13" fill="#515556" x="0" y="57">child_term_id</tspan>
          </text>
        </g>
        <g id="Graphic_11">
          <title>Class Name</title>
          <rect x="205" y="82.5" width="247" height="26" stroke="#b9c0c1" stroke-linecap="round" stroke-linejoin="round" stroke-width="2"/>
          <text transform="translate(211 86.5)" fill="#515556">
            <tspan font-family="Avenir" font-weight="bold" font-size="13" fill="#515556" x="38.1415" y="13">parent_child_relationships</tspan>
          </text>
        </g>
      </g>
      <g id="Line_13">
        <path d="M 302.09344 266.9378 C 294.3899 256.2882 288 242.48585 288 226 C 288 217.24571 289.80183 208.60302 292.64538 200.41432" marker-end="url(#CrowBall_Marker)" marker-start="url(#DoubleBar_Marker)" stroke="black" stroke-linecap="round" stroke-linejoin="round" stroke-width="1"/>
      </g>
      <g id="Line_14">
        <path d="M 356.98406 267.24373 C 364.7178 257.10436 371 243.95705 371 228 C 371 218.55143 368.7974 209.1292 365.39503 200.211" marker-end="url(#CrowBall_Marker)" marker-start="url(#DoubleBar_Marker)" stroke="black" stroke-linecap="round" stroke-linejoin="round" stroke-width="1"/>
      </g>
      <g id="Graphic_15">
        <rect x="205" y="447.5" width="247" height="145.5" fill="aqua"/>
        <rect x="205" y="447.5" width="247" height="145.5" stroke="black" stroke-linecap="round" stroke-linejoin="round" stroke-width="1"/>
        <text transform="translate(210 492.578)" fill="black">
          <tspan font-family="Helvetica Neue" font-size="16" fill="black" x="0" y="15">You need this bit if you want to </tspan>
          <tspan font-family="Helvetica Neue" font-size="16" fill="black" x="0" y="33.448">integrate with the taxonomy in </tspan>
          <tspan font-family="Helvetica Neue" font-size="16" fill="black" x="0" y="51.895996">any fashion whatsoever</tspan>
        </text>
      </g>
      <g id="Graphic_17">
        <path d="M 338.5 433.25 L 318.5 433.25 L 318.5 413.25 L 308.5 413.25 L 328.5 393.25 L 348.5 413.25 L 338.5 413.25 Z" fill="aqua"/>
        <path d="M 338.5 433.25 L 318.5 433.25 L 318.5 413.25 L 308.5 413.25 L 328.5 393.25 L 348.5 413.25 L 338.5 413.25 Z" stroke="#c01b00" stroke-linecap="round" stroke-linejoin="round" stroke-width="1"/>
      </g>
      <g id="Graphic_18">
        <rect x="600" y="447.5" width="247" height="145.5" fill="aqua"/>
        <rect x="600" y="447.5" width="247" height="145.5" stroke="black" stroke-linecap="round" stroke-linejoin="round" stroke-width="1"/>
        <text transform="translate(605 474.13)" fill="black">
          <tspan font-family="Helvetica Neue" font-size="16" fill="black" x="0" y="15">You need this bit if you want to </tspan>
          <tspan font-family="Helvetica Neue" font-size="16" fill="black" x="0" y="33.448">retrieve - search, browse, report  </tspan>
          <tspan font-family="Helvetica Neue" font-size="16" fill="black" x="0" y="51.895996">- by synonyms AND the </tspan>
          <tspan font-family="Helvetica Neue" font-size="16" fill="black" x="0" y="70.34399">downstream system is capable </tspan>
          <tspan font-family="Helvetica Neue" font-size="16" fill="black" x="0" y="88.79199">of synonym search</tspan>
        </text>
      </g>
      <g id="Graphic_19">
        <path d="M 733.5 433.25 L 713.5 433.25 L 713.5 413.25 L 703.5 413.25 L 723.5 393.25 L 743.5 413.25 L 733.5 413.25 Z" fill="aqua"/>
        <path d="M 733.5 433.25 L 713.5 433.25 L 713.5 413.25 L 703.5 413.25 L 723.5 393.25 L 743.5 413.25 L 733.5 413.25 Z" stroke="#c01b00" stroke-linecap="round" stroke-linejoin="round" stroke-width="1"/>
      </g>
      <g id="Graphic_20">
        <path d="M 318.5 25 L 338.5 25 L 338.5 45 L 348.5 45 L 328.5 65 L 308.5 45 L 318.5 45 Z" fill="aqua"/>
        <path d="M 318.5 25 L 338.5 25 L 338.5 45 L 348.5 45 L 328.5 65 L 308.5 45 L 318.5 45 Z" stroke="#c01b00" stroke-linecap="round" stroke-linejoin="round" stroke-width="1"/>
      </g>
      <g id="Graphic_21">
        <rect x="205" y="-148" width="247" height="149.5" fill="aqua"/>
        <rect x="205" y="-148" width="247" height="149.5" stroke="black" stroke-linecap="round" stroke-linejoin="round" stroke-width="1"/>
        <text transform="translate(210 -137.818)" fill="black">
          <tspan font-family="Helvetica Neue" font-size="16" fill="black" x="0" y="15">You need this bit if you want to </tspan>
          <tspan font-family="Helvetica Neue" font-size="16" fill="black" x="0" y="33.448">retrieve - search, browse, report </tspan>
          <tspan font-family="Helvetica Neue" font-size="16" fill="black" x="0" y="51.895996">on - records indexed with </tspan>
          <tspan font-family="Helvetica Neue" font-size="16" fill="black" x="0" y="70.34399">narrower terms in the taxonomic </tspan>
          <tspan font-family="Helvetica Neue" font-size="16" fill="black" x="0" y="88.79199">hierarchy AND the downstream </tspan>
          <tspan font-family="Helvetica Neue" font-size="16" fill="black" x="0" y="107.23999">system is capable of transitive </tspan>
          <tspan font-family="Helvetica Neue" font-size="16" fill="black" x="0" y="125.68799">retrieval</tspan>
        </text>
      </g>
    </g>
  </g>
</svg>
