<?xml version="1.0" encoding="UTF-8" standalone="no"?>
<!DOCTYPE svg PUBLIC "-//W3C//DTD SVG 1.1//EN" "http://www.w3.org/Graphics/SVG/1.1/DTD/svg11.dtd">
<svg xmlns:dc="http://purl.org/dc/elements/1.1/" xmlns="http://www.w3.org/2000/svg" version="1.1" xmlns:xl="http://www.w3.org/1999/xlink" viewBox="150.8 326 2056.8172 1352.3242" width="2056.8172" height="1352.3242">
  <defs>
    <marker orient="auto" overflow="visible" markerUnits="strokeWidth" id="StickArrow_Marker" stroke-linejoin="miter" stroke-miterlimit="10" viewBox="-1 -4 10 8" markerWidth="10" markerHeight="8" color="black">
      <g>
        <path d="M 8 0 L 0 0 M 0 -3 L 8 0 L 0 3" fill="none" stroke="currentColor" stroke-width="1"/>
      </g>
    </marker>
  </defs>
  <g id="Canvas_1" stroke-dasharray="none" fill="none" stroke="none" stroke-opacity="1" fill-opacity="1">
    <title>Canvas 1</title>
    <rect fill="white" x="150.8" y="326" width="2056.8172" height="1352.3242"/>
    <g id="Canvas_1_Layer_1">
      <title>Layer 1</title>
      <g id="Group_4">
        <g id="Graphic_2">
          <path d="M 194 411 L 210.8 377.4 L 227.6 411 Z" fill="white"/>
          <path d="M 194 411 L 210.8 377.4 L 227.6 411 Z" stroke="black" stroke-linecap="round" stroke-linejoin="round" stroke-width="1"/>
        </g>
        <g id="Graphic_3">
          <circle cx="210.8" cy="378.8" r="16.8000268447519" fill="white"/>
          <circle cx="210.8" cy="378.8" r="16.8000268447519" stroke="black" stroke-linecap="round" stroke-linejoin="round" stroke-width="1"/>
        </g>
      </g>
      <g id="Graphic_5">
        <rect x="150.8" y="421.28906" width="120" height="49" fill="white"/>
        <text transform="translate(155.8 427.34106)" fill="black">
          <tspan font-family="Helvetica Neue" font-size="16" fill="black" x="27.152" y="15" xml:space="preserve">Clerk of </tspan>
          <tspan font-family="Helvetica Neue" font-size="16" fill="black" x="29.816" y="33.448" xml:space="preserve">Papers</tspan>
        </text>
      </g>
      <g id="Graphic_6">
        <path d="M 309.8789 507.01953 L 411.8789 507.01953 C 416.84947 507.01953 420.8789 511.04897 420.8789 516.01953 L 420.8789 618.0195 C 420.8789 622.9901 416.84947 627.0195 411.8789 627.0195 L 309.8789 627.0195 C 304.90834 627.0195 300.8789 622.9901 300.8789 618.0195 L 300.8789 516.01953 C 300.8789 511.04897 304.90834 507.01953 309.8789 507.01953 Z" fill="white"/>
        <path d="M 309.8789 507.01953 L 411.8789 507.01953 C 416.84947 507.01953 420.8789 511.04897 420.8789 516.01953 L 420.8789 618.0195 C 420.8789 622.9901 416.84947 627.0195 411.8789 627.0195 L 309.8789 627.0195 C 304.90834 627.0195 300.8789 622.9901 300.8789 618.0195 L 300.8789 516.01953 C 300.8789 511.04897 304.90834 507.01953 309.8789 507.01953 Z" stroke="black" stroke-linecap="round" stroke-linejoin="round" stroke-width="1"/>
        <text transform="translate(305.8789 548.57153)" fill="black">
          <tspan font-family="Helvetica Neue" font-size="16" fill="black" x="10.696" y="15" xml:space="preserve">Paper’s Laid</tspan>
          <tspan font-family="Helvetica Neue" font-size="16" fill="black" x="20.92" y="33.448" xml:space="preserve">Database</tspan>
        </text>
      </g>
      <g id="Graphic_7">
        <circle cx="360.8789" cy="386.5" r="60.0000958741138" fill="white"/>
        <circle cx="360.8789" cy="386.5" r="60.0000958741138" stroke="black" stroke-linecap="round" stroke-linejoin="round" stroke-width="1"/>
        <text transform="translate(317.8789 368.052)" fill="black">
          <tspan font-family="Helvetica Neue" font-size="16" fill="black" x="16.184" y="15" xml:space="preserve">Paper’s </tspan>
          <tspan font-family="Helvetica Neue" font-size="16" fill="black" x="27.736" y="33.448" xml:space="preserve">Laid</tspan>
        </text>
      </g>
      <g id="Line_8">
        <line x1="227.6" y1="387" x2="290.97937" y2="386.76223" marker-end="url(#StickArrow_Marker)" stroke="black" stroke-linecap="round" stroke-linejoin="round" stroke-width="1"/>
      </g>
      <g id="Line_9">
        <line x1="360.8789" y1="446.50003" x2="360.8789" y2="497.11953" marker-end="url(#StickArrow_Marker)" stroke="black" stroke-linecap="round" stroke-linejoin="round" stroke-width="1"/>
      </g>
      <g id="Graphic_10">
        <path d="M 516 507.01953 L 600 507.01953 C 609.936 507.01953 618 533.8995 618 567.0195 C 618 600.1395 609.936 627.0195 600 627.0195 L 516 627.0195 C 506.064 627.0195 498 600.1395 498 567.0195 C 498 533.8995 506.064 507.01953 516 507.01953 Z" fill="white"/>
        <path d="M 516 507.01953 L 600 507.01953 C 609.936 507.01953 618 533.8995 618 567.0195 C 618 600.1395 609.936 627.0195 600 627.0195 L 516 627.0195 C 506.064 627.0195 498 600.1395 498 567.0195 C 498 533.8995 506.064 507.01953 516 507.01953 Z" stroke="black" stroke-linecap="round" stroke-linejoin="round" stroke-width="1"/>
        <text transform="translate(515 548.57153)" fill="black">
          <tspan font-family="Helvetica Neue" font-size="16" fill="black" x="1.368" y="15" xml:space="preserve">Paper’s laid </tspan>
          <tspan font-family="Helvetica Neue" font-size="16" fill="black" x="27.296" y="33.448" xml:space="preserve">feed</tspan>
        </text>
      </g>
      <g id="Line_11">
        <line x1="420.8789" y1="567.0195" x2="488.1" y2="567.0195" marker-end="url(#StickArrow_Marker)" stroke="black" stroke-linecap="round" stroke-linejoin="round" stroke-width="1"/>
      </g>
      <g id="Graphic_12">
        <path d="M 701.8867 507.01953 L 785.8867 507.01953 C 795.8227 507.01953 803.8867 533.8995 803.8867 567.0195 C 803.8867 600.1395 795.8227 627.0195 785.8867 627.0195 L 701.8867 627.0195 C 691.9507 627.0195 683.8867 600.1395 683.8867 567.0195 C 683.8867 533.8995 691.9507 507.01953 701.8867 507.01953 Z" fill="#40ff40"/>
        <path d="M 701.8867 507.01953 L 785.8867 507.01953 C 795.8227 507.01953 803.8867 533.8995 803.8867 567.0195 C 803.8867 600.1395 795.8227 627.0195 785.8867 627.0195 L 701.8867 627.0195 C 691.9507 627.0195 683.8867 600.1395 683.8867 567.0195 C 683.8867 533.8995 691.9507 507.01953 701.8867 507.01953 Z" stroke="black" stroke-linecap="round" stroke-linejoin="round" stroke-width="1"/>
        <text transform="translate(700.8867 557.7955)" fill="black">
          <tspan font-family="Helvetica Neue" font-size="16" fill="black" x="8.488" y="15" xml:space="preserve">Harvester</tspan>
        </text>
      </g>
      <g id="Line_13">
        <line x1="618" y1="567.0195" x2="673.9867" y2="567.0195" marker-end="url(#StickArrow_Marker)" stroke="black" stroke-linecap="round" stroke-linejoin="round" stroke-width="1"/>
      </g>
      <g id="Graphic_14">
        <path d="M 878.7734 507.01953 L 980.7734 507.01953 C 985.744 507.01953 989.7734 511.04897 989.7734 516.01953 L 989.7734 618.0195 C 989.7734 622.9901 985.744 627.0195 980.7734 627.0195 L 878.7734 627.0195 C 873.8029 627.0195 869.7734 622.9901 869.7734 618.0195 L 869.7734 516.01953 C 869.7734 511.04897 873.8029 507.01953 878.7734 507.01953 Z" fill="white"/>
        <path d="M 878.7734 507.01953 L 980.7734 507.01953 C 985.744 507.01953 989.7734 511.04897 989.7734 516.01953 L 989.7734 618.0195 C 989.7734 622.9901 985.744 627.0195 980.7734 627.0195 L 878.7734 627.0195 C 873.8029 627.0195 869.7734 622.9901 869.7734 618.0195 L 869.7734 516.01953 C 869.7734 511.04897 873.8029 507.01953 878.7734 507.01953 Z" stroke="black" stroke-linecap="round" stroke-linejoin="round" stroke-width="1"/>
        <text transform="translate(874.7734 539.34753)" fill="black">
          <tspan font-family="Helvetica Neue" font-size="16" fill="black" x="14.248" y="15" xml:space="preserve">Search and </tspan>
          <tspan font-family="Helvetica Neue" font-size="16" fill="black" x="24.48" y="33.448" xml:space="preserve">Indexing </tspan>
          <tspan font-family="Helvetica Neue" font-size="16" fill="black" x="17.96" y="51.895996" xml:space="preserve">Triplestore</tspan>
        </text>
      </g>
      <g id="Line_15">
        <line x1="803.8867" y1="567.0195" x2="859.8734" y2="567.0195" marker-end="url(#StickArrow_Marker)" stroke="black" stroke-linecap="round" stroke-linejoin="round" stroke-width="1"/>
      </g>
      <g id="Group_17">
        <g id="Graphic_19">
          <path d="M 912.9734 895.3125 L 929.7734 861.7125 L 946.5734 895.3125 Z" fill="white"/>
          <path d="M 912.9734 895.3125 L 929.7734 861.7125 L 946.5734 895.3125 Z" stroke="black" stroke-linecap="round" stroke-linejoin="round" stroke-width="1"/>
        </g>
        <g id="Graphic_18">
          <circle cx="929.7734" cy="863.1125" r="16.8000268447518" fill="white"/>
          <circle cx="929.7734" cy="863.1125" r="16.8000268447518" stroke="black" stroke-linecap="round" stroke-linejoin="round" stroke-width="1"/>
        </g>
      </g>
      <g id="Graphic_16">
        <rect x="869.7734" y="905.6016" width="120" height="49" fill="white"/>
        <text transform="translate(874.7734 920.8776)" fill="black">
          <tspan font-family="Helvetica Neue" font-size="16" fill="black" x="35.144" y="15" xml:space="preserve">IDMS</tspan>
        </text>
      </g>
      <g id="Graphic_20">
        <circle cx="929.7734" cy="731.8281" r="60.0000958741138" fill="white"/>
        <circle cx="929.7734" cy="731.8281" r="60.0000958741138" stroke="black" stroke-linecap="round" stroke-linejoin="round" stroke-width="1"/>
        <text transform="translate(886.7734 722.6041)" fill="black">
          <tspan font-family="Helvetica Neue" font-size="16" fill="black" x="12.48" y="15" xml:space="preserve">Indexing</tspan>
        </text>
      </g>
      <g id="Line_21">
        <line x1="929.7734" y1="671.8281" x2="929.7734" y2="636.9195" marker-end="url(#StickArrow_Marker)" stroke="black" stroke-linecap="round" stroke-linejoin="round" stroke-width="1"/>
      </g>
      <g id="Line_22">
        <line x1="929.7734" y1="846.3125" x2="929.7734" y2="801.7282" marker-end="url(#StickArrow_Marker)" stroke="black" stroke-linecap="round" stroke-linejoin="round" stroke-width="1"/>
      </g>
      <g id="Graphic_23">
        <path d="M 1073.6602 507.01953 L 1157.6602 507.01953 C 1167.5962 507.01953 1175.6602 533.8995 1175.6602 567.0195 C 1175.6602 600.1395 1167.5962 627.0195 1157.6602 627.0195 L 1073.6602 627.0195 C 1063.7242 627.0195 1055.6602 600.1395 1055.6602 567.0195 C 1055.6602 533.8995 1063.7242 507.01953 1073.6602 507.01953 Z" fill="#40ff40"/>
        <path d="M 1073.6602 507.01953 L 1157.6602 507.01953 C 1167.5962 507.01953 1175.6602 533.8995 1175.6602 567.0195 C 1175.6602 600.1395 1167.5962 627.0195 1157.6602 627.0195 L 1073.6602 627.0195 C 1063.7242 627.0195 1055.6602 600.1395 1055.6602 567.0195 C 1055.6602 533.8995 1063.7242 507.01953 1073.6602 507.01953 Z" stroke="black" stroke-linecap="round" stroke-linejoin="round" stroke-width="1"/>
        <text transform="translate(1072.6602 557.7955)" fill="black">
          <tspan font-family="Helvetica Neue" font-size="16" fill="black" x="22.712" y="15" xml:space="preserve">Poller</tspan>
        </text>
      </g>
      <g id="Line_24">
        <line x1="989.7734" y1="567.0195" x2="1045.7602" y2="567.0195" marker-end="url(#StickArrow_Marker)" stroke="black" stroke-linecap="round" stroke-linejoin="round" stroke-width="1"/>
      </g>
      <g id="Graphic_25">
        <path d="M 1250.5469 507.01953 L 1352.5469 507.01953 C 1357.5174 507.01953 1361.5469 511.04897 1361.5469 516.01953 L 1361.5469 618.0195 C 1361.5469 622.9901 1357.5174 627.0195 1352.5469 627.0195 L 1250.5469 627.0195 C 1245.5763 627.0195 1241.5469 622.9901 1241.5469 618.0195 L 1241.5469 516.01953 C 1241.5469 511.04897 1245.5763 507.01953 1250.5469 507.01953 Z" fill="white"/>
        <path d="M 1250.5469 507.01953 L 1352.5469 507.01953 C 1357.5174 507.01953 1361.5469 511.04897 1361.5469 516.01953 L 1361.5469 618.0195 C 1361.5469 622.9901 1357.5174 627.0195 1352.5469 627.0195 L 1250.5469 627.0195 C 1245.5763 627.0195 1241.5469 622.9901 1241.5469 618.0195 L 1241.5469 516.01953 C 1241.5469 511.04897 1245.5763 507.01953 1250.5469 507.01953 Z" stroke="black" stroke-linecap="round" stroke-linejoin="round" stroke-width="1"/>
        <text transform="translate(1246.5469 557.7955)" fill="black">
          <tspan font-family="Helvetica Neue" font-size="16" fill="black" x="40.784" y="15" xml:space="preserve">Solr</tspan>
        </text>
      </g>
      <g id="Line_26">
        <line x1="1175.6602" y1="567.0195" x2="1231.6469" y2="567.0195" marker-end="url(#StickArrow_Marker)" stroke="black" stroke-linecap="round" stroke-linejoin="round" stroke-width="1"/>
      </g>
      <g id="Graphic_27">
        <circle cx="1487.4336" cy="567.0195" r="60.0000958741138" fill="white"/>
        <circle cx="1487.4336" cy="567.0195" r="60.0000958741138" stroke="black" stroke-linecap="round" stroke-linejoin="round" stroke-width="1"/>
        <text transform="translate(1444.4336 548.57153)" fill="black">
          <tspan font-family="Helvetica Neue" font-size="16" fill="black" x=".624" y="15" xml:space="preserve">Parliamenta</tspan>
          <tspan font-family="Helvetica Neue" font-size="16" fill="black" x="10.256" y="33.448" xml:space="preserve">ry search</tspan>
        </text>
      </g>
      <g id="Line_28">
        <line x1="1361.5469" y1="567.0195" x2="1417.5336" y2="567.0195" marker-end="url(#StickArrow_Marker)" stroke="black" stroke-linecap="round" stroke-linejoin="round" stroke-width="1"/>
      </g>
      <g id="Graphic_29">
        <path d="M 1250.5469 827.7227 L 1352.5469 827.7227 C 1357.5174 827.7227 1361.5469 831.7521 1361.5469 836.7227 L 1361.5469 938.7227 C 1361.5469 943.6932 1357.5174 947.7227 1352.5469 947.7227 L 1250.5469 947.7227 C 1245.5763 947.7227 1241.5469 943.6932 1241.5469 938.7227 L 1241.5469 836.7227 C 1241.5469 831.7521 1245.5763 827.7227 1250.5469 827.7227 Z" fill="white"/>
        <path d="M 1250.5469 827.7227 L 1352.5469 827.7227 C 1357.5174 827.7227 1361.5469 831.7521 1361.5469 836.7227 L 1361.5469 938.7227 C 1361.5469 943.6932 1357.5174 947.7227 1352.5469 947.7227 L 1250.5469 947.7227 C 1245.5763 947.7227 1241.5469 943.6932 1241.5469 938.7227 L 1241.5469 836.7227 C 1241.5469 831.7521 1245.5763 827.7227 1250.5469 827.7227 Z" stroke="black" stroke-linecap="round" stroke-linejoin="round" stroke-width="1"/>
        <text transform="translate(1246.5469 860.0507)" fill="black">
          <tspan font-family="Helvetica Neue" font-size="16" fill="black" x="18.104" y="15" xml:space="preserve">Procedure </tspan>
          <tspan font-family="Helvetica Neue" font-size="16" fill="black" x="34.408" y="33.448" xml:space="preserve">editor </tspan>
          <tspan font-family="Helvetica Neue" font-size="16" fill="black" x="21.808" y="51.895996" xml:space="preserve">database</tspan>
        </text>
      </g>
      <g id="Line_30">
        <line x1="1301.5469" y1="627.0195" x2="1301.5469" y2="661.9281" marker-end="url(#StickArrow_Marker)" stroke="black" stroke-linecap="round" stroke-linejoin="round" stroke-width="1"/>
      </g>
      <g id="Graphic_31">
        <circle cx="1301.5469" cy="1062.207" r="60.0000958741137" fill="white"/>
        <circle cx="1301.5469" cy="1062.207" r="60.0000958741137" stroke="black" stroke-linecap="round" stroke-linejoin="round" stroke-width="1"/>
        <text transform="translate(1258.5469 1043.759)" fill="black">
          <tspan font-family="Helvetica Neue" font-size="16" fill="black" x="6.104" y="15" xml:space="preserve">Procedure </tspan>
          <tspan font-family="Helvetica Neue" font-size="16" fill="black" x="22.408" y="33.448" xml:space="preserve">editor</tspan>
        </text>
      </g>
      <g id="Group_33">
        <g id="Graphic_35">
          <path d="M 1284.7469 1220.289 L 1301.5469 1186.689 L 1318.3469 1220.289 Z" fill="white"/>
          <path d="M 1284.7469 1220.289 L 1301.5469 1186.689 L 1318.3469 1220.289 Z" stroke="black" stroke-linecap="round" stroke-linejoin="round" stroke-width="1"/>
        </g>
        <g id="Graphic_34">
          <circle cx="1301.5469" cy="1188.089" r="16.800026844752" fill="white"/>
          <circle cx="1301.5469" cy="1188.089" r="16.800026844752" stroke="black" stroke-linecap="round" stroke-linejoin="round" stroke-width="1"/>
        </g>
      </g>
      <g id="Graphic_32">
        <rect x="1241.5469" y="1227.8164" width="120" height="32.683594" fill="white"/>
        <text transform="translate(1246.5469 1234.9342)" fill="black">
          <tspan font-family="Helvetica Neue" font-size="16" fill="black" x="35.144" y="15" xml:space="preserve">IDMS</tspan>
        </text>
      </g>
      <g id="Line_36">
        <line x1="1301.5469" y1="1171.289" x2="1301.5469" y2="1132.107" marker-end="url(#StickArrow_Marker)" stroke="black" stroke-linecap="round" stroke-linejoin="round" stroke-width="1"/>
      </g>
      <g id="Line_37">
        <line x1="1301.5469" y1="1002.207" x2="1301.5469" y2="957.6227" marker-end="url(#StickArrow_Marker)" stroke="black" stroke-linecap="round" stroke-linejoin="round" stroke-width="1"/>
      </g>
      <g id="Graphic_38">
        <path d="M 1445.4336 827.7227 L 1529.4336 827.7227 C 1539.3696 827.7227 1547.4336 854.6027 1547.4336 887.7227 C 1547.4336 920.8427 1539.3696 947.7227 1529.4336 947.7227 L 1445.4336 947.7227 C 1435.4976 947.7227 1427.4336 920.8427 1427.4336 887.7227 C 1427.4336 854.6027 1435.4976 827.7227 1445.4336 827.7227 Z" fill="#40ff40"/>
        <path d="M 1445.4336 827.7227 L 1529.4336 827.7227 C 1539.3696 827.7227 1547.4336 854.6027 1547.4336 887.7227 C 1547.4336 920.8427 1539.3696 947.7227 1529.4336 947.7227 L 1445.4336 947.7227 C 1435.4976 947.7227 1427.4336 920.8427 1427.4336 887.7227 C 1427.4336 854.6027 1435.4976 827.7227 1445.4336 827.7227 Z" stroke="black" stroke-linecap="round" stroke-linejoin="round" stroke-width="1"/>
        <text transform="translate(1444.4336 850.8267)" fill="black">
          <tspan font-family="Helvetica Neue" font-size="16" fill="black" x="3.584" y="15" xml:space="preserve">Orchestrati</tspan>
          <tspan font-family="Helvetica Neue" font-size="16" fill="black" x="33.96" y="33.448" xml:space="preserve">on</tspan>
          <tspan font-family="Helvetica Neue" font-size="16" fill="black" x="21.224" y="51.895996" xml:space="preserve">(Logic </tspan>
          <tspan font-family="Helvetica Neue" font-size="16" fill="black" x="23.144" y="70.34399" xml:space="preserve">apps)</tspan>
        </text>
      </g>
      <g id="Line_39">
        <line x1="1361.5469" y1="887.7227" x2="1417.5336" y2="887.7227" marker-end="url(#StickArrow_Marker)" stroke="black" stroke-linecap="round" stroke-linejoin="round" stroke-width="1"/>
      </g>
      <g id="Graphic_40">
        <path d="M 1259.5469 671.8281 L 1343.5469 671.8281 C 1353.4829 671.8281 1361.5469 698.7081 1361.5469 731.8281 C 1361.5469 764.9481 1353.4829 791.8281 1343.5469 791.8281 L 1259.5469 791.8281 C 1249.6109 791.8281 1241.5469 764.9481 1241.5469 731.8281 C 1241.5469 698.7081 1249.6109 671.8281 1259.5469 671.8281 Z" fill="#40ff40"/>
        <path d="M 1259.5469 671.8281 L 1343.5469 671.8281 C 1353.4829 671.8281 1361.5469 698.7081 1361.5469 731.8281 C 1361.5469 764.9481 1353.4829 791.8281 1343.5469 791.8281 L 1259.5469 791.8281 C 1249.6109 791.8281 1241.5469 764.9481 1241.5469 731.8281 C 1241.5469 698.7081 1249.6109 671.8281 1259.5469 671.8281 Z" stroke="black" stroke-linecap="round" stroke-linejoin="round" stroke-width="1"/>
        <text transform="translate(1258.5469 722.6041)" fill="black">
          <tspan font-family="Helvetica Neue" font-size="16" fill="black" x="38.552" y="15" xml:space="preserve">?</tspan>
        </text>
      </g>
      <g id="Line_41">
        <line x1="1301.5469" y1="791.8281" x2="1301.5469" y2="817.8227" marker-end="url(#StickArrow_Marker)" stroke="black" stroke-linecap="round" stroke-linejoin="round" stroke-width="1"/>
      </g>
      <g id="Graphic_42">
        <path d="M 1635.2422 827.7227 L 1737.2422 827.7227 C 1742.2128 827.7227 1746.2422 831.7521 1746.2422 836.7227 L 1746.2422 938.7227 C 1746.2422 943.6932 1742.2128 947.7227 1737.2422 947.7227 L 1635.2422 947.7227 C 1630.2716 947.7227 1626.2422 943.6932 1626.2422 938.7227 L 1626.2422 836.7227 C 1626.2422 831.7521 1630.2716 827.7227 1635.2422 827.7227 Z" fill="white"/>
        <path d="M 1635.2422 827.7227 L 1737.2422 827.7227 C 1742.2128 827.7227 1746.2422 831.7521 1746.2422 836.7227 L 1746.2422 938.7227 C 1746.2422 943.6932 1742.2128 947.7227 1737.2422 947.7227 L 1635.2422 947.7227 C 1630.2716 947.7227 1626.2422 943.6932 1626.2422 938.7227 L 1626.2422 836.7227 C 1626.2422 831.7521 1630.2716 827.7227 1635.2422 827.7227 Z" stroke="black" stroke-linecap="round" stroke-linejoin="round" stroke-width="1"/>
        <text transform="translate(1631.2422 869.2747)" fill="black">
          <tspan font-family="Helvetica Neue" font-size="16" fill="black" x=".624" y="15" xml:space="preserve">Data developer </tspan>
          <tspan font-family="Helvetica Neue" font-size="16" fill="black" x="19.296" y="33.448" xml:space="preserve">triplestore</tspan>
        </text>
      </g>
      <g id="Line_43">
        <line x1="1547.4336" y1="887.7227" x2="1616.3422" y2="887.7227" marker-end="url(#StickArrow_Marker)" stroke="black" stroke-linecap="round" stroke-linejoin="round" stroke-width="1"/>
      </g>
      <g id="Graphic_44">
        <circle cx="1892.5664" cy="887.7227" r="60.0000958741138" fill="white"/>
        <circle cx="1892.5664" cy="887.7227" r="60.0000958741138" stroke="black" stroke-linecap="round" stroke-linejoin="round" stroke-width="1"/>
        <text transform="translate(1849.5664 869.2747)" fill="black">
          <tspan font-family="Helvetica Neue" font-size="16" fill="black" x="12.032" y="15" xml:space="preserve">SPARQL </tspan>
          <tspan font-family="Helvetica Neue" font-size="16" fill="black" x="11.432" y="33.448" xml:space="preserve">endpoint</tspan>
        </text>
      </g>
      <g id="Line_45">
        <line x1="1746.2422" y1="887.7227" x2="1822.6664" y2="887.7227" marker-end="url(#StickArrow_Marker)" stroke="black" stroke-linecap="round" stroke-linejoin="round" stroke-width="1"/>
      </g>
      <g id="Graphic_46">
        <circle cx="2147.1172" cy="887.7227" r="60.0000958741138" fill="white"/>
        <circle cx="2147.1172" cy="887.7227" r="60.0000958741138" stroke="black" stroke-linecap="round" stroke-linejoin="round" stroke-width="1"/>
        <text transform="translate(2104.1172 878.4987)" fill="black">
          <tspan font-family="Helvetica Neue" font-size="16" fill="black" x="5.824" y="15" xml:space="preserve">SI website</tspan>
        </text>
      </g>
      <g id="Graphic_47">
        <circle cx="2147.1172" cy="1042.8672" r="60.0000958741138" fill="white"/>
        <circle cx="2147.1172" cy="1042.8672" r="60.0000958741138" stroke="black" stroke-linecap="round" stroke-linejoin="round" stroke-width="1"/>
        <text transform="translate(2104.1172 1024.4192)" fill="black">
          <tspan font-family="Helvetica Neue" font-size="16" fill="black" x="21.512" y="15" xml:space="preserve">Treaty </tspan>
          <tspan font-family="Helvetica Neue" font-size="16" fill="black" x="15.304" y="33.448" xml:space="preserve">website</tspan>
        </text>
      </g>
      <g id="Line_48">
        <line x1="1952.5664" y1="887.7227" x2="2077.2172" y2="887.7227" marker-end="url(#StickArrow_Marker)" stroke="black" stroke-linecap="round" stroke-linejoin="round" stroke-width="1"/>
      </g>
      <g id="Line_49">
        <line x1="1943.8122" y1="918.9561" x2="2087.4178" y2="1006.4814" marker-end="url(#StickArrow_Marker)" stroke="black" stroke-linecap="round" stroke-linejoin="round" stroke-width="1"/>
      </g>
      <g id="Graphic_50">
        <circle cx="2147.1172" cy="732.5781" r="60.0000958741138" fill="white"/>
        <circle cx="2147.1172" cy="732.5781" r="60.0000958741138" stroke="black" stroke-linecap="round" stroke-linejoin="round" stroke-width="1"/>
        <text transform="translate(2104.1172 714.1301)" fill="black">
          <tspan font-family="Helvetica Neue" font-size="16" fill="black" x="6.104" y="15" xml:space="preserve">Procedure </tspan>
          <tspan font-family="Helvetica Neue" font-size="16" fill="black" x="14.12" y="33.448" xml:space="preserve">browser</tspan>
        </text>
      </g>
      <g id="Line_51">
        <line x1="1943.8122" y1="856.4892" x2="2087.4178" y2="768.9639" marker-end="url(#StickArrow_Marker)" stroke="black" stroke-linecap="round" stroke-linejoin="round" stroke-width="1"/>
      </g>
      <g id="Graphic_52">
        <circle cx="929.7734" cy="1474.2227" r="60.0000958741137" fill="white"/>
        <circle cx="929.7734" cy="1474.2227" r="60.0000958741137" stroke="black" stroke-linecap="round" stroke-linejoin="round" stroke-width="1"/>
        <text transform="translate(886.7734 1455.7747)" fill="black">
          <tspan font-family="Helvetica Neue" font-size="16" fill="black" x="17.08" y="15" xml:space="preserve">Google </tspan>
          <tspan font-family="Helvetica Neue" font-size="16" fill="black" x="12.184" y="33.448" xml:space="preserve">calendar</tspan>
        </text>
      </g>
      <g id="Group_54">
        <g id="Graphic_56">
          <path d="M 912.9734 1637.3242 L 929.7734 1603.7242 L 946.5734 1637.3242 Z" fill="white"/>
          <path d="M 912.9734 1637.3242 L 929.7734 1603.7242 L 946.5734 1637.3242 Z" stroke="black" stroke-linecap="round" stroke-linejoin="round" stroke-width="1"/>
        </g>
        <g id="Graphic_55">
          <circle cx="929.7734" cy="1605.1242" r="16.8000268447518" fill="white"/>
          <circle cx="929.7734" cy="1605.1242" r="16.8000268447518" stroke="black" stroke-linecap="round" stroke-linejoin="round" stroke-width="1"/>
        </g>
      </g>
      <g id="Graphic_53">
        <rect x="869.7734" y="1645.6406" width="120" height="32.683594" fill="white"/>
        <text transform="translate(874.7734 1652.7584)" fill="black">
          <tspan font-family="Helvetica Neue" font-size="16" fill="black" x="35.144" y="15" xml:space="preserve">IDMS</tspan>
        </text>
      </g>
      <g id="Line_57">
        <line x1="929.7734" y1="1588.3242" x2="929.7734" y2="1544.1227" marker-end="url(#StickArrow_Marker)" stroke="black" stroke-linecap="round" stroke-linejoin="round" stroke-width="1"/>
      </g>
      <g id="Graphic_58">
        <path d="M 887.7734 1240.1211 L 971.7734 1240.1211 C 981.7094 1240.1211 989.7734 1267.0011 989.7734 1300.1211 C 989.7734 1333.2411 981.7094 1360.1211 971.7734 1360.1211 L 887.7734 1360.1211 C 877.8374 1360.1211 869.7734 1333.2411 869.7734 1300.1211 C 869.7734 1267.0011 877.8374 1240.1211 887.7734 1240.1211 Z" fill="#40ff40"/>
        <path d="M 887.7734 1240.1211 L 971.7734 1240.1211 C 981.7094 1240.1211 989.7734 1267.0011 989.7734 1300.1211 C 989.7734 1333.2411 981.7094 1360.1211 971.7734 1360.1211 L 887.7734 1360.1211 C 877.8374 1360.1211 869.7734 1333.2411 869.7734 1300.1211 C 869.7734 1267.0011 877.8374 1240.1211 887.7734 1240.1211 Z" stroke="black" stroke-linecap="round" stroke-linejoin="round" stroke-width="1"/>
        <text transform="translate(886.7734 1281.6731)" fill="black">
          <tspan font-family="Helvetica Neue" font-size="16" fill="black" x="10.704" y="15" xml:space="preserve">Calendar </tspan>
          <tspan font-family="Helvetica Neue" font-size="16" fill="black" x="14.848" y="33.448" xml:space="preserve">syncher</tspan>
        </text>
      </g>
      <g id="Line_59">
        <line x1="929.7734" y1="1414.2226" x2="929.7734" y2="1370.0211" marker-end="url(#StickArrow_Marker)" stroke="black" stroke-linecap="round" stroke-linejoin="round" stroke-width="1"/>
      </g>
      <g id="Graphic_60">
        <path d="M 878.7734 1056.0195 L 980.7734 1056.0195 C 985.744 1056.0195 989.7734 1060.049 989.7734 1065.0195 L 989.7734 1167.0195 C 989.7734 1171.9901 985.744 1176.0195 980.7734 1176.0195 L 878.7734 1176.0195 C 873.8029 1176.0195 869.7734 1171.9901 869.7734 1167.0195 L 869.7734 1065.0195 C 869.7734 1060.049 873.8029 1056.0195 878.7734 1056.0195 Z" fill="white"/>
        <path d="M 878.7734 1056.0195 L 980.7734 1056.0195 C 985.744 1056.0195 989.7734 1060.049 989.7734 1065.0195 L 989.7734 1167.0195 C 989.7734 1171.9901 985.744 1176.0195 980.7734 1176.0195 L 878.7734 1176.0195 C 873.8029 1176.0195 869.7734 1171.9901 869.7734 1167.0195 L 869.7734 1065.0195 C 869.7734 1060.049 873.8029 1056.0195 878.7734 1056.0195 Z" stroke="black" stroke-linecap="round" stroke-linejoin="round" stroke-width="1"/>
        <text transform="translate(874.7734 1097.5715)" fill="black">
          <tspan font-family="Helvetica Neue" font-size="16" fill="black" x="20.624" y="15" xml:space="preserve">Egg timer </tspan>
          <tspan font-family="Helvetica Neue" font-size="16" fill="black" x="21.808" y="33.448" xml:space="preserve">database</tspan>
        </text>
      </g>
      <g id="Line_61">
        <line x1="929.7734" y1="1240.1211" x2="929.7734" y2="1185.9195" marker-end="url(#StickArrow_Marker)" stroke="black" stroke-linecap="round" stroke-linejoin="round" stroke-width="1"/>
      </g>
      <g id="Graphic_62">
        <circle cx="1115.6602" cy="1116.0195" r="60.0000958741137" fill="white"/>
        <circle cx="1115.6602" cy="1116.0195" r="60.0000958741137" stroke="black" stroke-linecap="round" stroke-linejoin="round" stroke-width="1"/>
        <text transform="translate(1072.6602 1088.3475)" fill="black">
          <tspan font-family="Helvetica Neue" font-size="16" fill="black" x="8.624" y="15" xml:space="preserve">Egg timer</tspan>
          <tspan font-family="Helvetica Neue" font-size="16" fill="black" x="12.12" y="33.448" xml:space="preserve">(HTML + </tspan>
          <tspan font-family="Helvetica Neue" font-size="16" fill="black" x="19.736" y="51.895996" xml:space="preserve">JSON)</tspan>
        </text>
      </g>
      <g id="Line_63">
        <line x1="989.7734" y1="1116.0195" x2="1045.7601" y2="1116.0195" marker-end="url(#StickArrow_Marker)" stroke="black" stroke-linecap="round" stroke-linejoin="round" stroke-width="1"/>
      </g>
      <g id="Graphic_66">
        <path d="M 1073.6602 827.7227 L 1157.6602 827.7227 C 1167.5962 827.7227 1175.6602 854.6027 1175.6602 887.7227 C 1175.6602 920.8427 1167.5962 947.7227 1157.6602 947.7227 L 1073.6602 947.7227 C 1063.7242 947.7227 1055.6602 920.8427 1055.6602 887.7227 C 1055.6602 854.6027 1063.7242 827.7227 1073.6602 827.7227 Z" fill="#40ff40"/>
        <path d="M 1073.6602 827.7227 L 1157.6602 827.7227 C 1167.5962 827.7227 1175.6602 854.6027 1175.6602 887.7227 C 1175.6602 920.8427 1167.5962 947.7227 1157.6602 947.7227 L 1073.6602 947.7227 C 1063.7242 947.7227 1055.6602 920.8427 1055.6602 887.7227 C 1055.6602 854.6027 1063.7242 827.7227 1073.6602 827.7227 Z" stroke="black" stroke-linecap="round" stroke-linejoin="round" stroke-width="1"/>
        <text transform="translate(1072.6602 878.4987)" fill="black">
          <tspan font-family="Helvetica Neue" font-size="16" fill="black" x="38.552" y="15" xml:space="preserve">?</tspan>
        </text>
      </g>
      <g id="Line_67">
        <line x1="1115.6602" y1="1056.0195" x2="1115.6602" y2="957.6227" marker-end="url(#StickArrow_Marker)" stroke="black" stroke-linecap="round" stroke-linejoin="round" stroke-width="1"/>
      </g>
      <g id="Line_68">
        <line x1="1175.6602" y1="887.7227" x2="1231.6469" y2="887.7227" marker-end="url(#StickArrow_Marker)" stroke="black" stroke-linecap="round" stroke-linejoin="round" stroke-width="1"/>
      </g>
    </g>
  </g>
</svg>
