<?xml version="1.0" encoding="UTF-8" standalone="no"?>
<!DOCTYPE svg PUBLIC "-//W3C//DTD SVG 1.1//EN" "http://www.w3.org/Graphics/SVG/1.1/DTD/svg11.dtd">
<svg xmlns:xl="http://www.w3.org/1999/xlink" xmlns:dc="http://purl.org/dc/elements/1.1/" version="1.1" xmlns="http://www.w3.org/2000/svg" viewBox="-152 0 1578 1337" width="1578" height="1337">
  <defs>
    <marker orient="auto" overflow="visible" markerUnits="strokeWidth" id="FilledArrow_Marker" stroke-linejoin="miter" stroke-miterlimit="10" viewBox="-1 -4 10 8" markerWidth="10" markerHeight="8" color="black">
      <g>
        <path d="M 8 0 L 0 -3 L 0 3 Z" fill="currentColor" stroke="currentColor" stroke-width="1"/>
      </g>
    </marker>
  </defs>
  <g id="Canvas_1" fill-opacity="1" stroke-dasharray="none" stroke="none" stroke-opacity="1" fill="none">
    <title>Canvas 1</title>
    <rect fill="white" x="-152" y="0" width="1578" height="1337"/>
    <g id="Canvas_1_Layer_1">
      <title>Layer 1</title>
      <g id="Graphic_2">
        <ellipse cx="324.32812" cy="617" rx="103.99552750251" ry="19.2857451023936" fill="white"/>
        <ellipse cx="324.32812" cy="617" rx="103.99552750251" ry="19.2857451023936" stroke="black" stroke-linecap="round" stroke-linejoin="round" stroke-width="1"/>
        <text transform="translate(246.13184 608.5)" fill="black">
          <tspan font-family="Helvetica" font-size="14" fill="black" x="1.9448242" y="14">LROLCC AF Summation </tspan>
        </text>
      </g>
      <g id="Graphic_3">
        <ellipse cx="912.3281" cy="842" rx="70.4481106158647" ry="19.2857451023936" fill="white"/>
        <ellipse cx="912.3281" cy="842" rx="70.4481106158647" ry="19.2857451023936" stroke="black" stroke-linecap="round" stroke-linejoin="round" stroke-width="1"/>
        <text transform="translate(860.9697 833.5)" fill="black">
          <tspan font-family="Helvetica" font-size="14" fill="black" x="1.9448242" y="14">LROLD AJ AND </tspan>
        </text>
      </g>
      <g id="Line_4">
        <path d="M 399.96547 630.2361 C 419.83625 633.71875 436.1191 636.5675 437.24605 636.7407 C 558.67405 655.1871 598.90765 623.1471 711.22765 672.7407 C 772.8028 699.8975 845.5146 770.1815 888.6346 816.0395" marker-end="url(#FilledArrow_Marker)" stroke="black" stroke-linecap="round" stroke-linejoin="round" stroke-width="1"/>
      </g>
      <g id="Graphic_5">
        <ellipse cx="468.3281" cy="692" rx="71.4179607984002" ry="19.2857451023937" fill="white"/>
        <ellipse cx="468.3281" cy="692" rx="71.4179607984002" ry="19.2857451023937" stroke="black" stroke-linecap="round" stroke-linejoin="round" stroke-width="1"/>
        <text transform="translate(416.19385 683.5)" fill="black">
          <tspan font-family="Helvetica" font-size="14" fill="black" x="1.9448242" y="14">LROLD AF AND </tspan>
        </text>
      </g>
      <g id="Line_6">
        <path d="M 359.21956 635.1726 C 379.6982 645.83876 405.17294 659.1071 426.6661 670.30156" marker-end="url(#FilledArrow_Marker)" stroke="black" stroke-linecap="round" stroke-linejoin="round" stroke-width="1"/>
      </g>
      <g id="Graphic_7">
        <ellipse cx="305.32813" cy="692" rx="72.87914477385" ry="19.2857451023937" fill="white"/>
        <ellipse cx="305.32813" cy="692" rx="72.87914477385" ry="19.2857451023937" stroke="black" stroke-linecap="round" stroke-linejoin="round" stroke-width="1"/>
        <text transform="translate(252.0249 683.5)" fill="black">
          <tspan font-family="Helvetica" font-size="14" fill="black" x="1.9448242" y="14">LROLD AG AND </tspan>
        </text>
      </g>
      <g id="Line_8">
        <path d="M 319.44783 636.2646 C 317.36672 644.4801 314.9173 654.1496 312.63493 663.1594" marker-end="url(#FilledArrow_Marker)" stroke="black" stroke-linecap="round" stroke-linejoin="round" stroke-width="1"/>
      </g>
      <g id="Graphic_9">
        <ellipse cx="513.3281" cy="431" rx="151.172116557826" ry="55.7143747402485" stroke="black" stroke-linecap="round" stroke-linejoin="round" stroke-width="2"/>
        <text transform="translate(397.39062 397)" fill="black">
          <tspan font-family="Helvetica" font-size="14" fill="black" x="52.120605" y="14">Instrument has been</tspan>
          <tspan font-family="Helvetica" font-size="14" fill="black" x="53.29297" y="31">determined to follow</tspan>
          <tspan font-family="Helvetica" font-size="14" fill="black" x="44.331055" y="48">the negative procedure</tspan>
          <tspan font-family="Helvetica" font-size="14" fill="black" x="0" y="65">(House of Commons,House of Lords)</tspan>
        </text>
      </g>
      <g id="Graphic_10">
        <ellipse cx="513.3281" cy="542" rx="72.3920834487001" ry="19.2857451023936" fill="white"/>
        <ellipse cx="513.3281" cy="542" rx="72.3920834487001" ry="19.2857451023936" stroke="black" stroke-linecap="round" stroke-linejoin="round" stroke-width="1"/>
        <text transform="translate(460.41455 533.5)" fill="black">
          <tspan font-family="Helvetica" font-size="14" fill="black" x="1.9448242" y="14">LROLD AH AND </tspan>
        </text>
      </g>
      <g id="Line_11">
        <path d="M 513.3281 487.71433 C 513.3281 496.40024 513.3281 505.04513 513.3281 512.81515" marker-end="url(#FilledArrow_Marker)" stroke="black" stroke-linecap="round" stroke-linejoin="round" stroke-width="1"/>
      </g>
      <g id="Graphic_12">
        <ellipse cx="750.3281" cy="617" rx="87.9524110469122" ry="19.2857451023936" fill="white"/>
        <ellipse cx="750.3281" cy="617" rx="87.9524110469122" ry="19.2857451023936" stroke="black" stroke-linecap="round" stroke-linejoin="round" stroke-width="1"/>
        <text transform="translate(684.9663 608.5)" fill="black">
          <tspan font-family="Helvetica" font-size="14" fill="black" x="1.9448242" y="14">LRO AO Summation </tspan>
        </text>
      </g>
      <g id="Graphic_13">
        <ellipse cx="751.3281" cy="842" rx="72.7125185310355" ry="19.2857451023936" fill="white"/>
        <ellipse cx="751.3281" cy="842" rx="72.7125185310355" ry="19.2857451023936" stroke="black" stroke-linecap="round" stroke-linejoin="round" stroke-width="1"/>
        <text transform="translate(698.1582 833.5)" fill="black">
          <tspan font-family="Helvetica" font-size="14" fill="black" x="1.9448242" y="14">LROLD AC NOT </tspan>
        </text>
      </g>
      <g id="Line_14">
        <path d="M 750.4252 636.2857 C 750.6342 680.0417 750.9765 761.87575 751.1983 812.8185" marker-end="url(#FilledArrow_Marker)" stroke="black" stroke-linecap="round" stroke-linejoin="round" stroke-width="1"/>
      </g>
      <g id="Graphic_15">
        <ellipse cx="630.3281" cy="692" rx="72.2297296736501" ry="19.2857451023937" fill="white"/>
        <ellipse cx="630.3281" cy="692" rx="72.2297296736501" ry="19.2857451023937" stroke="black" stroke-linecap="round" stroke-linejoin="round" stroke-width="1"/>
        <text transform="translate(577.5444 683.5)" fill="black">
          <tspan font-family="Helvetica" font-size="14" fill="black" x="1.9448242" y="14">LROLD AB NOT </tspan>
        </text>
      </g>
      <g id="Line_16">
        <path d="M 721.2308 635.20445 C 704.8371 645.45414 684.5781 658.1154 667.1289 669.0175" marker-end="url(#FilledArrow_Marker)" stroke="black" stroke-linecap="round" stroke-linejoin="round" stroke-width="1"/>
      </g>
      <g id="Graphic_17">
        <ellipse cx="203.32813" cy="542" rx="87.4653497217623" ry="19.2857451023936" fill="white"/>
        <ellipse cx="203.32813" cy="542" rx="87.4653497217623" ry="19.2857451023936" stroke="black" stroke-linecap="round" stroke-linejoin="round" stroke-width="1"/>
        <text transform="translate(138.35596 533.5)" fill="black">
          <tspan font-family="Helvetica" font-size="14" fill="black" x="1.9448242" y="14">LRO AU Summation </tspan>
        </text>
      </g>
      <g id="Line_18">
        <path d="M 201.64506 561.2822 C 200.1523 585.5694 200.46331 619.5804 211.24525 636.7407 C 215.69245 643.8207 240.66343 657.80724 264.01663 670.1408" marker-end="url(#FilledArrow_Marker)" stroke="black" stroke-linecap="round" stroke-linejoin="round" stroke-width="1"/>
      </g>
      <g id="Graphic_19">
        <ellipse cx="97.32813" cy="617" rx="66.5473475469004" ry="19.2857451023936" fill="white"/>
        <ellipse cx="97.32813" cy="617" rx="66.5473475469004" ry="19.2857451023936" stroke="black" stroke-linecap="round" stroke-linejoin="round" stroke-width="1"/>
        <text transform="translate(49.09033 608.5)" fill="black">
          <tspan font-family="Helvetica" font-size="14" fill="black" x="1.9448242" y="14">LROLD AF OR </tspan>
        </text>
      </g>
      <g id="Line_20">
        <path d="M 177.30713 560.4166 C 163.13812 570.4415 145.75307 582.7399 130.63964 593.4316" marker-end="url(#FilledArrow_Marker)" stroke="black" stroke-linecap="round" stroke-linejoin="round" stroke-width="1"/>
      </g>
      <g id="Graphic_21">
        <ellipse cx="238.32813" cy="431" rx="86.3374182319413" ry="19.2857451023937" fill="white"/>
        <ellipse cx="238.32813" cy="431" rx="86.3374182319413" ry="19.2857451023937" stroke="black" stroke-linecap="round" stroke-linejoin="round" stroke-width="1"/>
        <text transform="translate(174.2583 422.5)" fill="black">
          <tspan font-family="Helvetica" font-size="14" fill="black" x="1.9448242" y="14">LRO AV Summation </tspan>
        </text>
      </g>
      <g id="Line_22">
        <path d="M 273.40276 448.6282 C 301.41047 462.6214 336.0141 479.62005 353.24365 486.7143 C 371.22677 494.1487 418.964 510.3983 458.8232 523.7698" marker-end="url(#FilledArrow_Marker)" stroke="black" stroke-linecap="round" stroke-linejoin="round" stroke-width="1"/>
      </g>
      <g id="Line_23">
        <path d="M 204.79801 448.77744 C 168.3215 468.98197 120.3239 498.7168 106.24045 522.7143 C 98.68613 535.6154 96.8782 564.26126 96.75235 587.81736" marker-end="url(#FilledArrow_Marker)" stroke="black" stroke-linecap="round" stroke-linejoin="round" stroke-width="1"/>
      </g>
      <g id="Graphic_24">
        <ellipse cx="-61.671875" cy="767" rx="89.0846150044978" ry="19.2857451023937" fill="white"/>
        <ellipse cx="-61.671875" cy="767" rx="89.0846150044978" ry="19.2857451023937" stroke="black" stroke-linecap="round" stroke-linejoin="round" stroke-width="1"/>
        <text transform="translate(-127.93945 758.5)" fill="black">
          <tspan font-family="Helvetica" font-size="14" fill="black" x="1.9448242" y="14">LRO AW Summation </tspan>
        </text>
      </g>
      <g id="Graphic_25">
        <ellipse cx="118.32812" cy="842" rx="72.3920834487001" ry="19.2857451023936" fill="white"/>
        <ellipse cx="118.32812" cy="842" rx="72.3920834487001" ry="19.2857451023936" stroke="black" stroke-linecap="round" stroke-linejoin="round" stroke-width="1"/>
        <text transform="translate(65.41455 833.5)" fill="black">
          <tspan font-family="Helvetica" font-size="14" fill="black" x="1.9448242" y="14">LROLD AN AND </tspan>
        </text>
      </g>
      <g id="Line_26">
        <path d="M -20.586815 784.118 C 6.6813246 795.4799 41.66094 810.0554 70.18886 821.9423" marker-end="url(#FilledArrow_Marker)" stroke="black" stroke-linecap="round" stroke-linejoin="round" stroke-width="1"/>
      </g>
      <g id="Graphic_27">
        <ellipse cx="1024.3281" cy="20" rx="86.9825608643768" ry="19.2857451023937" fill="white"/>
        <ellipse cx="1024.3281" cy="20" rx="86.9825608643768" ry="19.2857451023937" stroke="black" stroke-linecap="round" stroke-linejoin="round" stroke-width="1"/>
        <text transform="translate(959.7422 11.5)" fill="black">
          <tspan font-family="Helvetica" font-size="14" fill="black" x="1.9448242" y="14">LRO AX Summation </tspan>
        </text>
      </g>
      <g id="Graphic_28">
        <ellipse cx="1120.3281" cy="95" rx="66.5601649501939" ry="19.2857451023937" fill="white"/>
        <ellipse cx="1120.3281" cy="95" rx="66.5601649501939" ry="19.2857451023937" stroke="black" stroke-linecap="round" stroke-linejoin="round" stroke-width="1"/>
        <text transform="translate(1072.0801 86.5)" fill="black">
          <tspan font-family="Helvetica" font-size="14" fill="black" x="1.9448242" y="14">LROLD AA OR </tspan>
        </text>
      </g>
      <g id="Line_29">
        <path d="M 1048.0695 38.557044 C 1060.6202 48.36391 1075.9289 60.32358 1089.3661 70.81982" marker-end="url(#FilledArrow_Marker)" stroke="black" stroke-linecap="round" stroke-linejoin="round" stroke-width="1"/>
      </g>
      <g id="Graphic_30">
        <ellipse cx="1151.3281" cy="245" rx="86.1836093924202" ry="19.2857451023937" fill="white"/>
        <ellipse cx="1151.3281" cy="245" rx="86.1836093924202" ry="19.2857451023937" stroke="black" stroke-linecap="round" stroke-linejoin="round" stroke-width="1"/>
        <text transform="translate(1087.3813 236.5)" fill="black">
          <tspan font-family="Helvetica" font-size="14" fill="black" x="1.9448242" y="14">LRO AY Summation </tspan>
        </text>
      </g>
      <g id="Graphic_31">
        <ellipse cx="975.3281" cy="320" rx="71.4307782016937" ry="19.2857451023937" fill="white"/>
        <ellipse cx="975.3281" cy="320" rx="71.4307782016937" ry="19.2857451023937" stroke="black" stroke-linecap="round" stroke-linejoin="round" stroke-width="1"/>
        <text transform="translate(923.1836 311.5)" fill="black">
          <tspan font-family="Helvetica" font-size="14" fill="black" x="1.9448242" y="14">LROLD AA AND </tspan>
        </text>
      </g>
      <g id="Line_32">
        <path d="M 1111.2716 262.08186 C 1084.6856 273.41036 1050.5579 287.94564 1022.674 299.82357" marker-end="url(#FilledArrow_Marker)" stroke="black" stroke-linecap="round" stroke-linejoin="round" stroke-width="1"/>
      </g>
      <g id="Graphic_33">
        <ellipse cx="1265.3281" cy="320" rx="71.9092945913146" ry="19.2857451023937" fill="white"/>
        <ellipse cx="1265.3281" cy="320" rx="71.9092945913146" ry="19.2857451023937" stroke="black" stroke-linecap="round" stroke-linejoin="round" stroke-width="1"/>
        <text transform="translate(1212.8008 311.5)" fill="black">
          <tspan font-family="Helvetica" font-size="14" fill="black" x="1.9448242" y="14">LROLD AB AND </tspan>
        </text>
      </g>
      <g id="Line_34">
        <path d="M 1179.0842 263.26272 C 1194.4833 273.40024 1213.4519 285.88966 1229.873 296.69614" marker-end="url(#FilledArrow_Marker)" stroke="black" stroke-linecap="round" stroke-linejoin="round" stroke-width="1"/>
      </g>
      <g id="Graphic_35">
        <ellipse cx="1216.3281" cy="20" rx="86.4912270714624" ry="19.2857451023937" fill="white"/>
        <ellipse cx="1216.3281" cy="20" rx="86.4912270714624" ry="19.2857451023937" stroke="black" stroke-linecap="round" stroke-linejoin="round" stroke-width="1"/>
        <text transform="translate(1152.1353 11.5)" fill="black">
          <tspan font-family="Helvetica" font-size="14" fill="black" x="1.9448242" y="14">LRO AZ Summation </tspan>
        </text>
      </g>
      <g id="Line_36">
        <path d="M 1192.6262 38.55106 C 1180.0741 48.360204 1164.7524 60.324274 1151.3033 70.82355" marker-end="url(#FilledArrow_Marker)" stroke="black" stroke-linecap="round" stroke-linejoin="round" stroke-width="1"/>
      </g>
      <g id="Graphic_37">
        <ellipse cx="1142.3281" cy="542" rx="87.9438661113832" ry="19.2857451023936" fill="white"/>
        <ellipse cx="1142.3281" cy="542" rx="87.9438661113832" ry="19.2857451023936" stroke="black" stroke-linecap="round" stroke-linejoin="round" stroke-width="1"/>
        <text transform="translate(1076.9731 533.5)" fill="black">
          <tspan font-family="Helvetica" font-size="14" fill="black" x="1.9448242" y="14">LRO BH Summation </tspan>
        </text>
      </g>
      <g id="Graphic_38">
        <ellipse cx="1142.3281" cy="617" rx="68.5041377830291" ry="19.2857451023936" fill="white"/>
        <ellipse cx="1142.3281" cy="617" rx="68.5041377830291" ry="19.2857451023936" stroke="black" stroke-linecap="round" stroke-linejoin="round" stroke-width="1"/>
        <text transform="translate(1092.5249 608.5)" fill="black">
          <tspan font-family="Helvetica" font-size="14" fill="black" x="1.9448242" y="14">LROLD AI AND </tspan>
        </text>
      </g>
      <g id="Line_39">
        <path d="M 1142.3281 561.2857 C 1142.3281 575.9311 1142.3281 595.1954 1142.3281 607.0979" marker-end="url(#FilledArrow_Marker)" stroke="black" stroke-linecap="round" stroke-linejoin="round" stroke-width="1"/>
      </g>
      <g id="Graphic_40">
        <ellipse cx="1120.3281" cy="431" rx="87.4610772539981" ry="19.2857451023937" fill="white"/>
        <ellipse cx="1120.3281" cy="431" rx="87.4610772539981" ry="19.2857451023937" stroke="black" stroke-linecap="round" stroke-linejoin="round" stroke-width="1"/>
        <text transform="translate(1055.3594 422.5)" fill="black">
          <tspan font-family="Helvetica" font-size="14" fill="black" x="1.9448242" y="14">LRO BK Summation </tspan>
        </text>
      </g>
      <g id="Graphic_41">
        <ellipse cx="916.3281" cy="542" rx="72.3920834487001" ry="19.2857451023936" fill="white"/>
        <ellipse cx="916.3281" cy="542" rx="72.3920834487001" ry="19.2857451023936" stroke="black" stroke-linecap="round" stroke-linejoin="round" stroke-width="1"/>
        <text transform="translate(863.4146 533.5)" fill="black">
          <tspan font-family="Helvetica" font-size="14" fill="black" x="1.9448242" y="14">LROLD AC AND </tspan>
        </text>
      </g>
      <g id="Line_42">
        <path d="M 1089.2457 449.03183 C 1065.6284 462.71586 1036.9773 479.23645 1023.2757 486.7143 C 1011.9707 492.8921 983.7795 507.4312 958.5581 520.3703" marker-end="url(#FilledArrow_Marker)" stroke="black" stroke-linecap="round" stroke-linejoin="round" stroke-width="1"/>
      </g>
      <g id="Graphic_43">
        <ellipse cx="1324.3281" cy="542" rx="72.3920834486999" ry="19.2857451023936" fill="white"/>
        <ellipse cx="1324.3281" cy="542" rx="72.3920834486999" ry="19.2857451023936" stroke="black" stroke-linecap="round" stroke-linejoin="round" stroke-width="1"/>
        <text transform="translate(1271.4146 533.5)" fill="black">
          <tspan font-family="Helvetica" font-size="14" fill="black" x="1.9448242" y="14">LROLD AD AND </tspan>
        </text>
      </g>
      <g id="Line_44">
        <path d="M 1151.3327 449.03833 C 1174.894 462.7211 1203.4978 479.23763 1217.2437 486.7143 C 1228.551 492.8934 1256.7982 507.4373 1282.0626 520.3784" marker-end="url(#FilledArrow_Marker)" stroke="black" stroke-linecap="round" stroke-linejoin="round" stroke-width="1"/>
      </g>
      <g id="Graphic_45">
        <ellipse cx="916.3281" cy="431" rx="98.1678814717683" ry="19.2857451023937" fill="white"/>
        <ellipse cx="916.3281" cy="431" rx="98.1678814717683" ry="19.2857451023937" stroke="black" stroke-linecap="round" stroke-linejoin="round" stroke-width="1"/>
        <text transform="translate(842.7939 422.5)" fill="black">
          <tspan font-family="Helvetica" font-size="14" fill="black" x="1.9448242" y="14">LROLD AB Summation </tspan>
        </text>
      </g>
      <g id="Line_46">
        <path d="M 965.1932 339.09176 C 955.567 357.19994 941.9581 382.7676 931.1591 403.0749" marker-end="url(#FilledArrow_Marker)" stroke="black" stroke-linecap="round" stroke-linejoin="round" stroke-width="1"/>
      </g>
      <g id="Graphic_47">
        <ellipse cx="1324.3281" cy="431" rx="98.6506703291538" ry="19.2857451023937" fill="white"/>
        <ellipse cx="1324.3281" cy="431" rx="98.6506703291538" ry="19.2857451023937" stroke="black" stroke-linecap="round" stroke-linejoin="round" stroke-width="1"/>
        <text transform="translate(1250.4077 422.5)" fill="black">
          <tspan font-family="Helvetica" font-size="14" fill="black" x="1.9448242" y="14">LROLD AC Summation </tspan>
        </text>
      </g>
      <g id="Line_48">
        <path d="M 1275.4847 339.0935 C 1285.1091 357.2015 1298.6877 382.768 1309.4783 403.0746" marker-end="url(#FilledArrow_Marker)" stroke="black" stroke-linecap="round" stroke-linejoin="round" stroke-width="1"/>
      </g>
      <g id="Graphic_49">
        <ellipse cx="545.3281" cy="617" rx="98.6506703291538" ry="19.2857451023936" fill="white"/>
        <ellipse cx="545.3281" cy="617" rx="98.6506703291538" ry="19.2857451023936" stroke="black" stroke-linecap="round" stroke-linejoin="round" stroke-width="1"/>
        <text transform="translate(471.4077 608.5)" fill="black">
          <tspan font-family="Helvetica" font-size="14" fill="black" x="1.9448242" y="14">LROLD AD Summation </tspan>
        </text>
      </g>
      <g id="Line_50">
        <path d="M 858.6441 553.6563 C 793.72315 566.78054 695.4221 586.6611 623.62384 601.1768" marker-end="url(#FilledArrow_Marker)" stroke="black" stroke-linecap="round" stroke-linejoin="round" stroke-width="1"/>
      </g>
      <g id="Graphic_51">
        <ellipse cx="1327.3281" cy="617" rx="98.1678814717684" ry="19.2857451023936" fill="white"/>
        <ellipse cx="1327.3281" cy="617" rx="98.1678814717684" ry="19.2857451023936" stroke="black" stroke-linecap="round" stroke-linejoin="round" stroke-width="1"/>
        <text transform="translate(1253.794 608.5)" fill="black">
          <tspan font-family="Helvetica" font-size="14" fill="black" x="1.9448242" y="14">LROLD AE Summation </tspan>
        </text>
      </g>
      <g id="Line_52">
        <path d="M 1325.0997 561.2846 C 1325.429 569.392 1325.8171 578.915 1326.1778 587.821" marker-end="url(#FilledArrow_Marker)" stroke="black" stroke-linecap="round" stroke-linejoin="round" stroke-width="1"/>
      </g>
      <g id="Graphic_53">
        <ellipse cx="574.3281" cy="767" rx="71.9092945913145" ry="19.2857451023937" fill="white"/>
        <ellipse cx="574.3281" cy="767" rx="71.9092945913145" ry="19.2857451023937" stroke="black" stroke-linecap="round" stroke-linejoin="round" stroke-width="1"/>
        <text transform="translate(521.8008 758.5)" fill="black">
          <tspan font-family="Helvetica" font-size="14" fill="black" x="1.9448242" y="14">LROLD AE AND </tspan>
        </text>
      </g>
      <g id="Graphic_54">
        <ellipse cx="574.3281" cy="842" rx="70.6190093264435" ry="19.2857451023936" fill="white"/>
        <ellipse cx="574.3281" cy="842" rx="70.6190093264435" ry="19.2857451023936" stroke="black" stroke-linecap="round" stroke-linejoin="round" stroke-width="1"/>
        <text transform="translate(522.833 833.5)" fill="black">
          <tspan font-family="Helvetica" font-size="14" fill="black" x="1.9448242" y="14">LROLD AL AND </tspan>
        </text>
      </g>
      <g id="Line_55">
        <path d="M 574.3281 786.2857 C 574.3281 794.3906 574.3281 803.9105 574.3281 812.8139" marker-end="url(#FilledArrow_Marker)" stroke="black" stroke-linecap="round" stroke-linejoin="round" stroke-width="1"/>
      </g>
      <g id="Line_56">
        <path d="M 493.7993 710.0226 C 507.98355 720.0588 525.5017 732.4538 540.7488 743.2418" marker-end="url(#FilledArrow_Marker)" stroke="black" stroke-linecap="round" stroke-linejoin="round" stroke-width="1"/>
      </g>
      <g id="Graphic_57">
        <ellipse cx="354.32813" cy="767" rx="87.4696221895268" ry="19.2857451023937" fill="white"/>
        <ellipse cx="354.32813" cy="767" rx="87.4696221895268" ry="19.2857451023937" stroke="black" stroke-linecap="round" stroke-linejoin="round" stroke-width="1"/>
        <text transform="translate(289.35254 758.5)" fill="black">
          <tspan font-family="Helvetica" font-size="14" fill="black" x="1.9448242" y="14">LROLD AB Decision </tspan>
        </text>
      </g>
      <g id="Line_58">
        <path d="M 317.747 711.0053 C 323.44577 719.7266 330.23092 730.11085 336.4457 739.623" marker-end="url(#FilledArrow_Marker)" stroke="black" stroke-linecap="round" stroke-linejoin="round" stroke-width="1"/>
      </g>
      <g id="Line_59">
        <path d="M 582.6789 547.54416 C 706.9274 558.85854 921.6796 583.24355 1073.0718 605.9387" marker-end="url(#FilledArrow_Marker)" stroke="black" stroke-linecap="round" stroke-linejoin="round" stroke-width="1"/>
      </g>
      <g id="Graphic_60">
        <ellipse cx="1142.3281" cy="692" rx="94.7627246634831" ry="19.2857451023937" fill="white"/>
        <ellipse cx="1142.3281" cy="692" rx="94.7627246634831" ry="19.2857451023937" stroke="black" stroke-linecap="round" stroke-linejoin="round" stroke-width="1"/>
        <text transform="translate(1071.5181 683.5)" fill="black">
          <tspan font-family="Helvetica" font-size="14" fill="black" x="1.9448242" y="14">LROLD AI Summation </tspan>
        </text>
      </g>
      <g id="Line_61">
        <path d="M 1142.3281 617 C 1142.3281 621.5981 1142.3281 643.6347 1142.3281 662.8121" marker-end="url(#FilledArrow_Marker)" stroke="black" stroke-linecap="round" stroke-linejoin="round" stroke-width="1"/>
      </g>
      <g id="Graphic_62">
        <ellipse cx="751.3281" cy="917" rx="71.9092945913146" ry="19.2857451023937" fill="white"/>
        <ellipse cx="751.3281" cy="917" rx="71.9092945913146" ry="19.2857451023937" stroke="black" stroke-linecap="round" stroke-linejoin="round" stroke-width="1"/>
        <text transform="translate(698.8008 908.5)" fill="black">
          <tspan font-family="Helvetica" font-size="14" fill="black" x="1.9448242" y="14">LROLD AK AND </tspan>
        </text>
      </g>
      <g id="Line_63">
        <path d="M 876.6147 858.6293 C 852.65 869.7899 821.716 884.1982 796.1739 896.098" marker-end="url(#FilledArrow_Marker)" stroke="black" stroke-linecap="round" stroke-linejoin="round" stroke-width="1"/>
      </g>
      <g id="Graphic_64">
        <ellipse cx="730.3281" cy="992" rx="96.7066974963184" ry="19.2857451023936" fill="white"/>
        <ellipse cx="730.3281" cy="992" rx="96.7066974963184" ry="19.2857451023936" stroke="black" stroke-linecap="round" stroke-linejoin="round" stroke-width="1"/>
        <text transform="translate(657.9629 983.5)" fill="black">
          <tspan font-family="Helvetica" font-size="14" fill="black" x="1.9448242" y="14">LROLD AJ Summation </tspan>
        </text>
      </g>
      <g id="Line_65">
        <path d="M 745.9394 936.2318 C 743.6337 944.47 740.9186 954.1747 738.3901 963.2114" marker-end="url(#FilledArrow_Marker)" stroke="black" stroke-linecap="round" stroke-linejoin="round" stroke-width="1"/>
      </g>
      <g id="Graphic_66">
        <ellipse cx="1120.3281" cy="169" rx="97.6893650821473" ry="19.2857451023937" fill="white"/>
        <ellipse cx="1120.3281" cy="169" rx="97.6893650821473" ry="19.2857451023937" stroke="black" stroke-linecap="round" stroke-linejoin="round" stroke-width="1"/>
        <text transform="translate(1047.1768 160.5)" fill="black">
          <tspan font-family="Helvetica" font-size="14" fill="black" x="1.9448242" y="14">LROLD AA Summation </tspan>
        </text>
      </g>
      <g id="Line_67">
        <path d="M 1120.3281 114.28572 C 1120.3281 122.10665 1120.3281 131.23181 1120.3281 139.8097" marker-end="url(#FilledArrow_Marker)" stroke="black" stroke-linecap="round" stroke-linejoin="round" stroke-width="1"/>
      </g>
      <g id="Graphic_68">
        <ellipse cx="307.32813" cy="992" rx="67.5214701972004" ry="19.2857451023936" fill="white"/>
        <ellipse cx="307.32813" cy="992" rx="67.5214701972004" ry="19.2857451023936" stroke="black" stroke-linecap="round" stroke-linejoin="round" stroke-width="1"/>
        <text transform="translate(258.31104 983.5)" fill="black">
          <tspan font-family="Helvetica" font-size="14" fill="black" x="1.9448242" y="14">LROLD AC OR </tspan>
        </text>
      </g>
      <g id="Graphic_69">
        <ellipse cx="307.32813" cy="1067" rx="86.9911057999058" ry="19.2857451023937" fill="white"/>
        <ellipse cx="307.32813" cy="1067" rx="86.9911057999058" ry="19.2857451023937" stroke="black" stroke-linecap="round" stroke-linejoin="round" stroke-width="1"/>
        <text transform="translate(242.73535 1058.5)" fill="black">
          <tspan font-family="Helvetica" font-size="14" fill="black" x="1.9448242" y="14">LROLD AA Decision </tspan>
        </text>
      </g>
      <g id="Line_70">
        <path d="M 307.32812 1011.2857 C 307.32812 1019.3906 307.32812 1028.9105 307.32812 1037.814" marker-end="url(#FilledArrow_Marker)" stroke="black" stroke-linecap="round" stroke-linejoin="round" stroke-width="1"/>
      </g>
      <g id="Graphic_71">
        <ellipse cx="497.3281" cy="1229" rx="67.5214701972004" ry="19.2857451023938" fill="white"/>
        <ellipse cx="497.3281" cy="1229" rx="67.5214701972004" ry="19.2857451023938" stroke="black" stroke-linecap="round" stroke-linejoin="round" stroke-width="1"/>
        <text transform="translate(448.31104 1220.5)" fill="black">
          <tspan font-family="Helvetica" font-size="14" fill="black" x="1.9448242" y="14">LROLD AD OR </tspan>
        </text>
      </g>
      <g id="Graphic_72">
        <ellipse cx="497.3281" cy="1316" rx="139.029763171192" ry="19.2857451023938" stroke="black" stroke-linecap="round" stroke-linejoin="round" stroke-width="2"/>
        <text transform="translate(391.1045 1307.5)" fill="black">
          <tspan font-family="Helvetica" font-size="14" fill="black" x="0" y="14">Chamber debate (House of Lords)</tspan>
        </text>
      </g>
      <g id="Line_73">
        <path d="M 497.3281 1248.2857 C 497.3281 1259.4129 497.3281 1273.3389 497.3281 1285.8177" marker-end="url(#FilledArrow_Marker)" stroke="black" stroke-linecap="round" stroke-linejoin="round" stroke-width="1"/>
      </g>
      <g id="Graphic_74">
        <ellipse cx="955.3281" cy="767" rx="67.0386813398148" ry="19.2857451023937" fill="white"/>
        <ellipse cx="955.3281" cy="767" rx="67.0386813398148" ry="19.2857451023937" stroke="black" stroke-linecap="round" stroke-linejoin="round" stroke-width="1"/>
        <text transform="translate(906.6973 758.5)" fill="black">
          <tspan font-family="Helvetica" font-size="14" fill="black" x="1.9448242" y="14">LROLD AE OR </tspan>
        </text>
      </g>
      <g id="Line_75">
        <path d="M 944.4203 786.0302 C 939.4706 794.6625 933.5849 804.9257 928.1774 814.3555" marker-end="url(#FilledArrow_Marker)" stroke="black" stroke-linecap="round" stroke-linejoin="round" stroke-width="1"/>
      </g>
      <g id="Graphic_76">
        <ellipse cx="975.3281" cy="245" rx="71.751213284029" ry="19.2857451023937" fill="white"/>
        <ellipse cx="975.3281" cy="245" rx="71.751213284029" ry="19.2857451023937" stroke="black" stroke-linecap="round" stroke-linejoin="round" stroke-width="1"/>
        <text transform="translate(922.9272 236.5)" fill="black">
          <tspan font-family="Helvetica" font-size="14" fill="black" x="1.9448242" y="14">LROLD AA NOT </tspan>
        </text>
      </g>
      <g id="Line_77">
        <path d="M 975.3281 264.28572 C 975.3281 278.9311 975.3281 298.1954 975.3281 310.0979" marker-end="url(#FilledArrow_Marker)" stroke="black" stroke-linecap="round" stroke-linejoin="round" stroke-width="1"/>
      </g>
      <g id="Line_78">
        <path d="M 616.1888 710.9147 C 609.53935 719.819 601.5911 730.4674 594.3601 740.1563" marker-end="url(#FilledArrow_Marker)" stroke="black" stroke-linecap="round" stroke-linejoin="round" stroke-width="1"/>
      </g>
      <g id="Line_79">
        <path d="M 751.3281 861.2857 C 751.3281 869.3908 751.3281 878.9106 751.3281 887.814" marker-end="url(#FilledArrow_Marker)" stroke="black" stroke-linecap="round" stroke-linejoin="round" stroke-width="1"/>
      </g>
      <g id="Graphic_80">
        <ellipse cx="307.32813" cy="1142" rx="98.6506703291538" ry="19.2857451023937" fill="white"/>
        <ellipse cx="307.32813" cy="1142" rx="98.6506703291538" ry="19.2857451023937" stroke="black" stroke-linecap="round" stroke-linejoin="round" stroke-width="1"/>
        <text transform="translate(233.40771 1133.5)" fill="black">
          <tspan font-family="Helvetica" font-size="14" fill="black" x="1.9448242" y="14">LROLD AH Summation </tspan>
        </text>
      </g>
      <g id="Line_81">
        <path d="M 307.32812 1067 C 307.32812 1071.5981 307.32812 1093.6347 307.32812 1112.8121" marker-end="url(#FilledArrow_Marker)" stroke="black" stroke-linecap="round" stroke-linejoin="round" stroke-width="1"/>
      </g>
      <g id="Line_82">
        <path d="M 1085.8303 187.04822 C 1064.9784 197.98741 1038.8358 211.72136 1016.8893 223.23949" marker-end="url(#FilledArrow_Marker)" stroke="black" stroke-linecap="round" stroke-linejoin="round" stroke-width="1"/>
      </g>
      <g id="Line_83">
        <path d="M 1164.6671 186.19064 C 1198.0617 199.13325 1238.1263 215.638 1246.2597 225.71429 C 1255.9914 237.85494 1260.8181 266.9045 1263.2271 290.8601" marker-end="url(#FilledArrow_Marker)" stroke="black" stroke-linecap="round" stroke-linejoin="round" stroke-width="1"/>
      </g>
      <g id="Line_84">
        <path d="M 916.3281 431 C 916.3281 442.9191 916.3281 483.1323 916.3281 512.8154" marker-end="url(#FilledArrow_Marker)" stroke="black" stroke-linecap="round" stroke-linejoin="round" stroke-width="1"/>
      </g>
      <g id="Line_85">
        <path d="M 1324.3281 431 C 1324.3281 442.9191 1324.3281 483.1323 1324.3281 512.8154" marker-end="url(#FilledArrow_Marker)" stroke="black" stroke-linecap="round" stroke-linejoin="round" stroke-width="1"/>
      </g>
      <g id="Line_86">
        <path d="M 525.9131 635.9106 C 516.3398 645.2359 504.8165 656.46094 494.5067 666.5035" marker-end="url(#FilledArrow_Marker)" stroke="black" stroke-linecap="round" stroke-linejoin="round" stroke-width="1"/>
      </g>
      <g id="Graphic_87">
        <ellipse cx="955.3281" cy="692" rx="73.3619336312354" ry="19.2857451023937" fill="white"/>
        <ellipse cx="955.3281" cy="692" rx="73.3619336312354" ry="19.2857451023937" stroke="black" stroke-linecap="round" stroke-linejoin="round" stroke-width="1"/>
        <text transform="translate(901.6387 683.5)" fill="black">
          <tspan font-family="Helvetica" font-size="14" fill="black" x="1.9448242" y="14">LROLD AM AND </tspan>
        </text>
      </g>
      <g id="Line_88">
        <path d="M 1257.8765 630.6298 C 1188.2079 644.51775 1089.8982 664.44844 1022.83 678.1383" marker-end="url(#FilledArrow_Marker)" stroke="black" stroke-linecap="round" stroke-linejoin="round" stroke-width="1"/>
      </g>
      <g id="Graphic_89">
        <ellipse cx="346.32813" cy="917" rx="97.6765476788539" ry="19.2857451023937" fill="white"/>
        <ellipse cx="346.32813" cy="917" rx="97.6765476788539" ry="19.2857451023937" stroke="black" stroke-linecap="round" stroke-linejoin="round" stroke-width="1"/>
        <text transform="translate(273.187 908.5)" fill="black">
          <tspan font-family="Helvetica" font-size="14" fill="black" x="1.9448242" y="14">LROLD AF Summation </tspan>
        </text>
      </g>
      <g id="Line_90">
        <path d="M 336.3525 936.1855 C 331.91597 944.7189 326.66205 954.8245 321.81963 964.1378" marker-end="url(#FilledArrow_Marker)" stroke="black" stroke-linecap="round" stroke-linejoin="round" stroke-width="1"/>
      </g>
      <g id="Graphic_91">
        <ellipse cx="127.32813" cy="917" rx="99.1377316543038" ry="19.2857451023937" fill="white"/>
        <ellipse cx="127.32813" cy="917" rx="99.1377316543038" ry="19.2857451023937" stroke="black" stroke-linecap="round" stroke-linejoin="round" stroke-width="1"/>
        <text transform="translate(53.018066 908.5)" fill="black">
          <tspan font-family="Helvetica" font-size="14" fill="black" x="1.9448242" y="14">LROLD AG Summation </tspan>
        </text>
      </g>
      <g id="Line_92">
        <path d="M 169.28081 934.4796 C 196.68297 945.8973 231.63168 960.4599 260.00632 972.2829" marker-end="url(#FilledArrow_Marker)" stroke="black" stroke-linecap="round" stroke-linejoin="round" stroke-width="1"/>
      </g>
      <g id="Line_93">
        <path d="M 346.07633 1159.7413 C 377.4731 1174.1176 419.7627 1193.4825 452.58437 1208.5118" marker-end="url(#FilledArrow_Marker)" stroke="black" stroke-linecap="round" stroke-linejoin="round" stroke-width="1"/>
      </g>
      <g id="Graphic_94">
        <ellipse cx="307.32813" cy="1229" rx="104.495406230953" ry="31.4286216483454" stroke="black" stroke-linecap="round" stroke-linejoin="round" stroke-width="2"/>
        <text transform="translate(228.73193 1212)" fill="black">
          <tspan font-family="Helvetica" font-size="14" fill="black" x="0" y="14">Grand Committee debate</tspan>
          <tspan font-family="Helvetica" font-size="14" fill="black" x="26.461914" y="31">(House of Lords)</tspan>
        </text>
      </g>
      <g id="Line_95">
        <path d="M 307.32812 1161.2857 C 307.32812 1168.8499 307.32812 1177.7886 307.32812 1186.6713" marker-end="url(#FilledArrow_Marker)" stroke="black" stroke-linecap="round" stroke-linejoin="round" stroke-width="1"/>
      </g>
      <g id="Line_96">
        <path d="M 1099.4211 709.2014 C 1070.562 720.7758 1033.4674 735.6572 1003.5987 747.6391" marker-end="url(#FilledArrow_Marker)" stroke="black" stroke-linecap="round" stroke-linejoin="round" stroke-width="1"/>
      </g>
      <g id="Graphic_97">
        <ellipse cx="497.3281" cy="1067" rx="68.0085315223503" ry="19.2857451023937" fill="white"/>
        <ellipse cx="497.3281" cy="1067" rx="68.0085315223503" ry="19.2857451023937" stroke="black" stroke-linecap="round" stroke-linejoin="round" stroke-width="1"/>
        <text transform="translate(447.9214 1058.5)" fill="black">
          <tspan font-family="Helvetica" font-size="14" fill="black" x="1.9448242" y="14">LROLD AG OR </tspan>
        </text>
      </g>
      <g id="Line_98">
        <path d="M 679.40566 1008.4005 C 641.2377 1020.6887 590.70185 1036.9543 551.71695 1049.5001" marker-end="url(#FilledArrow_Marker)" stroke="black" stroke-linecap="round" stroke-linejoin="round" stroke-width="1"/>
      </g>
      <g id="Graphic_99">
        <ellipse cx="956.3281" cy="617" rx="99.6247929794538" ry="19.2857451023936" fill="white"/>
        <ellipse cx="956.3281" cy="617" rx="99.6247929794538" ry="19.2857451023936" stroke="black" stroke-linecap="round" stroke-linejoin="round" stroke-width="1"/>
        <text transform="translate(881.6284 608.5)" fill="black">
          <tspan font-family="Helvetica" font-size="14" fill="black" x="1.9448242" y="14">DPRRC AA Summation </tspan>
        </text>
      </g>
      <g id="Line_100">
        <path d="M 925.2211 635.32585 C 847.1255 681.3291 697.3132 769.5549 612.5702 819.4719" marker-end="url(#FilledArrow_Marker)" stroke="black" stroke-linecap="round" stroke-linejoin="round" stroke-width="1"/>
      </g>
      <g id="Line_101">
        <path d="M 956.0767 636.28566 C 955.9651 644.39074 955.8319 653.9106 955.7088 662.8141" marker-end="url(#FilledArrow_Marker)" stroke="black" stroke-linecap="round" stroke-linejoin="round" stroke-width="1"/>
      </g>
      <g id="Line_102">
        <path d="M 529.21636 856.8394 C 493.4083 868.6186 444.8384 884.5961 406.01487 897.367" marker-end="url(#FilledArrow_Marker)" stroke="black" stroke-linecap="round" stroke-linejoin="round" stroke-width="1"/>
      </g>
      <g id="Line_103">
        <path d="M 955.3281 711.2857 C 955.3281 719.3906 955.3281 728.9105 955.3281 737.81395" marker-end="url(#FilledArrow_Marker)" stroke="black" stroke-linecap="round" stroke-linejoin="round" stroke-width="1"/>
      </g>
      <g id="Line_104">
        <path d="M 120.63837 861.276 C 121.61354 869.4054 122.76002 878.9594 123.83167 887.8875" marker-end="url(#FilledArrow_Marker)" stroke="black" stroke-linecap="round" stroke-linejoin="round" stroke-width="1"/>
      </g>
      <g id="Graphic_105">
        <ellipse cx="118.32813" cy="767" rx="72.7125185310356" ry="19.2857451023937" fill="white"/>
        <ellipse cx="118.32813" cy="767" rx="72.7125185310356" ry="19.2857451023937" stroke="black" stroke-linecap="round" stroke-linejoin="round" stroke-width="1"/>
        <text transform="translate(65.1582 758.5)" fill="black">
          <tspan font-family="Helvetica" font-size="14" fill="black" x="1.9448242" y="14">LROLD AD NOT </tspan>
        </text>
      </g>
      <g id="Line_106">
        <path d="M 118.32812 786.2857 C 118.32812 794.3906 118.32812 803.9105 118.32812 812.8139" marker-end="url(#FilledArrow_Marker)" stroke="black" stroke-linecap="round" stroke-linejoin="round" stroke-width="1"/>
      </g>
      <g id="Graphic_107">
        <ellipse cx="116.32813" cy="692" rx="98.1678814717683" ry="19.2857451023937" fill="white"/>
        <ellipse cx="116.32813" cy="692" rx="98.1678814717683" ry="19.2857451023937" stroke="black" stroke-linecap="round" stroke-linejoin="round" stroke-width="1"/>
        <text transform="translate(42.793945 683.5)" fill="black">
          <tspan font-family="Helvetica" font-size="14" fill="black" x="1.9448242" y="14">LROLD AK Summation </tspan>
        </text>
      </g>
      <g id="Line_108">
        <path d="M 116.8422 711.28546 C 117.05827 719.3905 117.31207 728.9106 117.54948 737.81425" marker-end="url(#FilledArrow_Marker)" stroke="black" stroke-linecap="round" stroke-linejoin="round" stroke-width="1"/>
      </g>
      <g id="Line_109">
        <path d="M 102.20073 636.2343 C 104.28218 644.4511 106.73303 654.1263 109.01698 663.1423" marker-end="url(#FilledArrow_Marker)" stroke="black" stroke-linecap="round" stroke-linejoin="round" stroke-width="1"/>
      </g>
      <g id="Graphic_110">
        <ellipse cx="494.3281" cy="992" rx="96.8775962068973" ry="19.2857451023936" fill="white"/>
        <ellipse cx="494.3281" cy="992" rx="96.8775962068973" ry="19.2857451023936" stroke="black" stroke-linecap="round" stroke-linejoin="round" stroke-width="1"/>
        <text transform="translate(421.82617 983.5)" fill="black">
          <tspan font-family="Helvetica" font-size="14" fill="black" x="1.9448242" y="14">LROLD AL Summation </tspan>
        </text>
      </g>
      <g id="Line_111">
        <path d="M 370.06654 785.9727 C 394.97224 816.4145 432.58274 864.2785 452.24365 897.7407 C 460.44084 911.6951 472.9788 940.3772 482.70685 963.632" marker-end="url(#FilledArrow_Marker)" stroke="black" stroke-linecap="round" stroke-linejoin="round" stroke-width="1"/>
      </g>
      <g id="Line_112">
        <path d="M 495.09764 1011.2851 C 495.4218 1019.3926 495.8029 1028.916 496.1594 1037.822" marker-end="url(#FilledArrow_Marker)" stroke="black" stroke-linecap="round" stroke-linejoin="round" stroke-width="1"/>
      </g>
      <g id="Line_113">
        <path d="M 497.3281 1086.2857 C 497.3281 1116.2491 497.3281 1165.325 497.3281 1199.8153" marker-end="url(#FilledArrow_Marker)" stroke="black" stroke-linecap="round" stroke-linejoin="round" stroke-width="1"/>
      </g>
    </g>
  </g>
</svg>
