<?xml version="1.0" encoding="UTF-8" standalone="no"?>
<!DOCTYPE svg PUBLIC "-//W3C//DTD SVG 1.1//EN" "http://www.w3.org/Graphics/SVG/1.1/DTD/svg11.dtd">
<svg xmlns:xl="http://www.w3.org/1999/xlink" xmlns:dc="http://purl.org/dc/elements/1.1/" version="1.1" xmlns="http://www.w3.org/2000/svg" viewBox="-264.54026 -825.5 1206.5403 997" width="1206.5403" height="997">
  <defs>
    <linearGradient x1="0" x2="1" id="Gradient" gradientUnits="userSpaceOnUse">
      <stop offset="0" stop-color="#9ddaff"/>
      <stop offset=".45238096" stop-color="#7fc7f3"/>
      <stop offset="1" stop-color="#5db3e6"/>
    </linearGradient>
    <linearGradient id="Obj_Gradient" xl:href="#Gradient" gradientTransform="translate(59 -253.74868) rotate(89.34146) scale(40)"/>
  </defs>
  <g id="Canvas_1" stroke-opacity="1" stroke-dasharray="none" fill="none" fill-opacity="1" stroke="none">
    <title>Canvas 1</title>
    <rect fill="white" x="-264.54026" y="-825.5" width="1206.5403" height="997"/>
    <g id="Canvas_1_Layer_1">
      <title>Layer 1</title>
      <g id="Graphic_109">
        <circle cx="811.75" cy="111.90353" r="9.25001478059255" fill="yellow"/>
        <circle cx="811.75" cy="111.90353" r="9.25001478059255" stroke="black" stroke-linecap="round" stroke-linejoin="round" stroke-width="1"/>
      </g>
      <g id="Graphic_51">
        <rect x="122" y="-675.5" width="718" height="846.5" fill="white"/>
        <rect x="122" y="-675.5" width="718" height="846.5" stroke="black" stroke-linecap="round" stroke-linejoin="round" stroke-width="1"/>
      </g>
      <g id="Graphic_59">
        <rect x="122" y="-496" width="718" height="589" fill="aqua"/>
        <rect x="122" y="-496" width="718" height="589" stroke="black" stroke-linecap="round" stroke-linejoin="round" stroke-width="1"/>
      </g>
      <g id="Graphic_21">
        <circle cx="139.25" cy="-782" r="9.25001478059254" fill="yellow"/>
        <circle cx="139.25" cy="-782" r="9.25001478059254" stroke="black" stroke-linecap="round" stroke-linejoin="round" stroke-width="1"/>
      </g>
      <g id="Graphic_22">
        <rect x="163.5" y="-796.5" width="120" height="29" fill="white"/>
        <text transform="translate(168.5 -791.224)" fill="black">
          <tspan font-family="Helvetica Neue" font-size="16" fill="black" x="0" y="15" xml:space="preserve">Can be many</tspan>
        </text>
      </g>
      <g id="Graphic_23">
        <rect x="122" y="-763" width="34.5" height="37" fill="#ccc"/>
        <rect x="122" y="-763" width="34.5" height="37" stroke="black" stroke-linecap="round" stroke-linejoin="round" stroke-width="1"/>
      </g>
      <g id="Graphic_24">
        <rect x="163.5" y="-759" width="120" height="29" fill="white"/>
        <text transform="translate(168.5 -753.724)" fill="black">
          <tspan font-family="Helvetica Neue" font-size="16" fill="black" x="0" y="15" xml:space="preserve">Can be null</tspan>
        </text>
      </g>
      <g id="Graphic_50">
        <rect x="122" y="-675.5" width="718" height="37" fill="white"/>
        <rect x="122" y="-675.5" width="718" height="37" stroke="black" stroke-linecap="round" stroke-linejoin="round" stroke-width="1"/>
        <text transform="translate(127 -666.224)" fill="black">
          <tspan font-family="Helvetica Neue" font-size="16" fill="black" x="0" y="15" xml:space="preserve">Title</tspan>
        </text>
      </g>
      <g id="Graphic_49">
        <rect x="122" y="-628" width="718" height="37" fill="#ccc"/>
        <rect x="122" y="-628" width="718" height="37" stroke="black" stroke-linecap="round" stroke-linejoin="round" stroke-width="1"/>
        <text transform="translate(127 -618.724)" fill="black">
          <tspan font-family="Helvetica Neue" font-size="16" fill="black" x="0" y="15" xml:space="preserve">Content</tspan>
        </text>
      </g>
      <g id="Graphic_48">
        <rect x="122" y="-580.5" width="234" height="37" fill="#ccc"/>
        <rect x="122" y="-580.5" width="234" height="37" stroke="black" stroke-linecap="round" stroke-linejoin="round" stroke-width="1"/>
        <text transform="translate(127 -571.224)" fill="black">
          <tspan font-family="Helvetica Neue" font-size="16" fill="black" x="0" y="15" xml:space="preserve">Primary person</tspan>
        </text>
      </g>
      <g id="Graphic_47">
        <rect x="364" y="-580.5" width="234" height="37" fill="#ccc"/>
        <rect x="364" y="-580.5" width="234" height="37" stroke="black" stroke-linecap="round" stroke-linejoin="round" stroke-width="1"/>
        <text transform="translate(369 -571.224)" fill="black">
          <tspan font-family="Helvetica Neue" font-size="16" fill="black" x="0" y="15" xml:space="preserve">Secondary person</tspan>
        </text>
      </g>
      <g id="Graphic_46">
        <rect x="606" y="-580.5" width="234" height="37" fill="#ccc"/>
        <rect x="606" y="-580.5" width="234" height="37" stroke="black" stroke-linecap="round" stroke-linejoin="round" stroke-width="1"/>
        <text transform="translate(611 -571.224)" fill="black">
          <tspan font-family="Helvetica Neue" font-size="16" fill="black" x="0" y="15" xml:space="preserve">Primary group</tspan>
        </text>
      </g>
      <g id="Graphic_42">
        <rect x="122" y="-533" width="234" height="37" fill="white"/>
        <rect x="122" y="-533" width="234" height="37" stroke="black" stroke-linecap="round" stroke-linejoin="round" stroke-width="1"/>
        <text transform="translate(127 -523.724)" fill="black">
          <tspan font-family="Helvetica Neue" font-size="16" fill="black" x="0" y="15" xml:space="preserve">Type</tspan>
        </text>
      </g>
      <g id="Graphic_41">
        <rect x="364" y="-533" width="234" height="37" fill="#ccc"/>
        <rect x="364" y="-533" width="234" height="37" stroke="black" stroke-linecap="round" stroke-linejoin="round" stroke-width="1"/>
        <text transform="translate(369 -523.724)" fill="black">
          <tspan font-family="Helvetica Neue" font-size="16" fill="black" x="0" y="15" xml:space="preserve">Status</tspan>
        </text>
      </g>
      <g id="Graphic_40">
        <rect x="606" y="-533" width="234" height="37" fill="#ccc"/>
        <rect x="606" y="-533" width="234" height="37" stroke="black" stroke-linecap="round" stroke-linejoin="round" stroke-width="1"/>
        <text transform="translate(611 -523.724)" fill="black">
          <tspan font-family="Helvetica Neue" font-size="16" fill="black" x="0" y="15" xml:space="preserve">Secondary group</tspan>
        </text>
      </g>
      <g id="Graphic_52">
        <rect x="122" y="-485.5" width="354.5" height="37" fill="#ccc"/>
        <rect x="122" y="-485.5" width="354.5" height="37" stroke="black" stroke-linecap="round" stroke-linejoin="round" stroke-width="1"/>
        <text transform="translate(127 -476.224)" fill="black">
          <tspan font-family="Helvetica Neue" font-size="16" fill="black" x="0" y="15" xml:space="preserve">Legislative stage</tspan>
        </text>
      </g>
      <g id="Graphic_53">
        <rect x="122" y="-438" width="176" height="37" fill="#ccc"/>
        <rect x="122" y="-438" width="176" height="37" stroke="black" stroke-linecap="round" stroke-linejoin="round" stroke-width="1"/>
        <text transform="translate(127 -428.724)" fill="black">
          <tspan font-family="Helvetica Neue" font-size="16" fill="black" x="0" y="15" xml:space="preserve">Specific date 1</tspan>
        </text>
      </g>
      <g id="Graphic_56">
        <rect x="301.5" y="-438" width="176" height="37" fill="#ccc"/>
        <rect x="301.5" y="-438" width="176" height="37" stroke="black" stroke-linecap="round" stroke-linejoin="round" stroke-width="1"/>
        <text transform="translate(306.5 -428.724)" fill="black">
          <tspan font-family="Helvetica Neue" font-size="16" fill="black" x="0" y="15" xml:space="preserve">Specific date 2</tspan>
        </text>
      </g>
      <g id="Graphic_57">
        <rect x="482.75" y="-438" width="176" height="37" fill="#ccc"/>
        <rect x="482.75" y="-438" width="176" height="37" stroke="black" stroke-linecap="round" stroke-linejoin="round" stroke-width="1"/>
        <text transform="translate(487.75 -428.724)" fill="black">
          <tspan font-family="Helvetica Neue" font-size="16" fill="black" x="0" y="15" xml:space="preserve">Specific date 3</tspan>
        </text>
      </g>
      <g id="Graphic_60">
        <rect x="664" y="-438" width="176" height="37" fill="#ccc"/>
        <rect x="664" y="-438" width="176" height="37" stroke="black" stroke-linecap="round" stroke-linejoin="round" stroke-width="1"/>
        <text transform="translate(669 -428.724)" fill="black">
          <tspan font-family="Helvetica Neue" font-size="16" fill="black" x="0" y="15" xml:space="preserve">Specific date 4</tspan>
        </text>
      </g>
      <g id="Graphic_61">
        <rect x="122" y="-391.5" width="718" height="37" fill="#ccc"/>
        <rect x="122" y="-391.5" width="718" height="37" stroke="black" stroke-linecap="round" stroke-linejoin="round" stroke-width="1"/>
        <text transform="translate(127 -382.224)" fill="black">
          <tspan font-family="Helvetica Neue" font-size="16" fill="black" x="0" y="15" xml:space="preserve">Coming into force</tspan>
        </text>
      </g>
      <g id="Graphic_63">
        <rect x="122" y="-208.5" width="718" height="37" fill="#ccc"/>
        <rect x="122" y="-208.5" width="718" height="37" stroke="black" stroke-linecap="round" stroke-linejoin="round" stroke-width="1"/>
        <text transform="translate(127 -199.224)" fill="black">
          <tspan font-family="Helvetica Neue" font-size="16" fill="black" x="0" y="15" xml:space="preserve">Legislation</tspan>
        </text>
      </g>
      <g id="Graphic_64">
        <rect x="122" y="-113.5" width="718" height="37" fill="#ccc"/>
        <rect x="122" y="-113.5" width="718" height="37" stroke="black" stroke-linecap="round" stroke-linejoin="round" stroke-width="1"/>
        <text transform="translate(127 -104.224)" fill="black">
          <tspan font-family="Helvetica Neue" font-size="16" fill="black" x="0" y="15" xml:space="preserve">Subject</tspan>
        </text>
      </g>
      <g id="Graphic_65">
        <rect x="122" y="-66" width="718" height="37" fill="#ccc"/>
        <rect x="122" y="-66" width="718" height="37" stroke="black" stroke-linecap="round" stroke-linejoin="round" stroke-width="1"/>
        <text transform="translate(127 -56.724)" fill="black">
          <tspan font-family="Helvetica Neue" font-size="16" fill="black" x="0" y="15" xml:space="preserve">Topics</tspan>
        </text>
      </g>
      <g id="Graphic_66">
        <rect x="122" y="-18.5" width="718" height="37" fill="#ccc"/>
        <rect x="122" y="-18.5" width="718" height="37" stroke="black" stroke-linecap="round" stroke-linejoin="round" stroke-width="1"/>
        <text transform="translate(127 -9.223999)" fill="black">
          <tspan font-family="Helvetica Neue" font-size="16" fill="black" x="0" y="15" xml:space="preserve">Note</tspan>
        </text>
      </g>
      <g id="Graphic_67">
        <rect x="122" y="29" width="355.5" height="37" fill="#ccc"/>
        <rect x="122" y="29" width="355.5" height="37" stroke="black" stroke-linecap="round" stroke-linejoin="round" stroke-width="1"/>
        <text transform="translate(127 38.276)" fill="black">
          <tspan font-family="Helvetica Neue" font-size="16" fill="black" x="0" y="15" xml:space="preserve">Commons library location</tspan>
        </text>
      </g>
      <g id="Graphic_68">
        <rect x="849.5" y="-496" width="92" height="589" fill="aqua"/>
        <rect x="849.5" y="-496" width="92" height="589" stroke="black" stroke-linecap="round" stroke-linejoin="round" stroke-width="1"/>
        <text transform="translate(854.5 -229.172)" fill="black">
          <tspan font-family="Helvetica Neue" font-size="16" fill="black" x="0" y="15" xml:space="preserve">Detailed </tspan>
          <tspan font-family="Helvetica Neue" font-size="16" fill="black" x="0" y="33.448" xml:space="preserve">view</tspan>
          <tspan font-family="Helvetica Neue" font-size="16" fill="black" x="0" y="51.895996" xml:space="preserve">Only</tspan>
        </text>
      </g>
      <g id="Graphic_98">
        <rect x="482.75" y="-485.5" width="354.5" height="37" fill="#ccc"/>
        <rect x="482.75" y="-485.5" width="354.5" height="37" stroke="black" stroke-linecap="round" stroke-linejoin="round" stroke-width="1"/>
        <text transform="translate(487.75 -476.224)" fill="black">
          <tspan font-family="Helvetica Neue" font-size="16" fill="black" x="0" y="15" xml:space="preserve">Procedure</tspan>
        </text>
      </g>
      <g id="Graphic_99">
        <rect x="122" y="-161" width="718" height="37" fill="#ccc"/>
        <rect x="122" y="-161" width="718" height="37" stroke="black" stroke-linecap="round" stroke-linejoin="round" stroke-width="1"/>
        <text transform="translate(127 -151.724)" fill="black">
          <tspan font-family="Helvetica Neue" font-size="16" fill="black" x="0" y="15" xml:space="preserve">Witnesses</tspan>
        </text>
      </g>
      <g id="Graphic_100">
        <rect x="122" y="-252.5" width="355.5" height="37" fill="#ccc"/>
        <rect x="122" y="-252.5" width="355.5" height="37" stroke="black" stroke-linecap="round" stroke-linejoin="round" stroke-width="1"/>
        <text transform="translate(127 -243.224)" fill="black">
          <tspan font-family="Helvetica Neue" font-size="16" fill="black" x="0" y="15" xml:space="preserve">Amending Member</tspan>
        </text>
      </g>
      <g id="Graphic_101">
        <rect x="484.5" y="-252.5" width="355.5" height="37" fill="#ccc"/>
        <rect x="484.5" y="-252.5" width="355.5" height="37" stroke="black" stroke-linecap="round" stroke-linejoin="round" stroke-width="1"/>
        <text transform="translate(489.5 -243.224)" fill="black">
          <tspan font-family="Helvetica Neue" font-size="16" fill="black" x="0" y="15" xml:space="preserve">Amendment date</tspan>
        </text>
      </g>
      <g id="Graphic_102">
        <rect x="122" y="-344" width="718" height="37" fill="#ccc"/>
        <rect x="122" y="-344" width="718" height="37" stroke="black" stroke-linecap="round" stroke-linejoin="round" stroke-width="1"/>
        <text transform="translate(127 -334.724)" fill="black">
          <tspan font-family="Helvetica Neue" font-size="16" fill="black" x="0" y="15" xml:space="preserve">Supplementary content</tspan>
        </text>
      </g>
      <g id="Graphic_103">
        <rect x="122" y="-296.5" width="718" height="37" fill="#ccc"/>
        <rect x="122" y="-296.5" width="718" height="37" stroke="black" stroke-linecap="round" stroke-linejoin="round" stroke-width="1"/>
        <text transform="translate(127 -287.224)" fill="black">
          <tspan font-family="Helvetica Neue" font-size="16" fill="black" x="0" y="15" xml:space="preserve">Corrected?</tspan>
        </text>
      </g>
      <g id="Graphic_15">
        <circle cx="331.25" cy="-562" r="9.25001478059254" fill="yellow"/>
        <circle cx="331.25" cy="-562" r="9.25001478059254" stroke="black" stroke-linecap="round" stroke-linejoin="round" stroke-width="1"/>
      </g>
      <g id="Graphic_105">
        <circle cx="580.25" cy="-562" r="9.25001478059256" fill="yellow"/>
        <circle cx="580.25" cy="-562" r="9.25001478059256" stroke="black" stroke-linecap="round" stroke-linejoin="round" stroke-width="1"/>
      </g>
      <g id="Graphic_106">
        <circle cx="817.25" cy="-562" r="9.25001478059256" fill="yellow"/>
        <circle cx="817.25" cy="-562" r="9.25001478059256" stroke="black" stroke-linecap="round" stroke-linejoin="round" stroke-width="1"/>
      </g>
      <g id="Graphic_107">
        <circle cx="331.25" cy="-514.5" r="9.25001478059254" fill="yellow"/>
        <circle cx="331.25" cy="-514.5" r="9.25001478059254" stroke="black" stroke-linecap="round" stroke-linejoin="round" stroke-width="1"/>
      </g>
      <g id="Graphic_108">
        <circle cx="817.25" cy="-514.5" r="9.25001478059256" fill="yellow"/>
        <circle cx="817.25" cy="-514.5" r="9.25001478059256" stroke="black" stroke-linecap="round" stroke-linejoin="round" stroke-width="1"/>
      </g>
      <g id="Graphic_110">
        <circle cx="461.25" cy="-467" r="9.25001478059254" fill="yellow"/>
        <circle cx="461.25" cy="-467" r="9.25001478059254" stroke="black" stroke-linecap="round" stroke-linejoin="round" stroke-width="1"/>
      </g>
      <g id="Graphic_111">
        <circle cx="817.25" cy="-467" r="9.25001478059256" fill="yellow"/>
        <circle cx="817.25" cy="-467" r="9.25001478059256" stroke="black" stroke-linecap="round" stroke-linejoin="round" stroke-width="1"/>
      </g>
      <g id="Graphic_115">
        <circle cx="117.25" cy="-234" r="9.25001478059255" fill="yellow"/>
        <circle cx="117.25" cy="-234" r="9.25001478059255" stroke="black" stroke-linecap="round" stroke-linejoin="round" stroke-width="1"/>
      </g>
      <g id="Graphic_116">
        <circle cx="314.75" cy="-190" r="9.25001478059255" fill="yellow"/>
        <circle cx="314.75" cy="-190" r="9.25001478059255" stroke="black" stroke-linecap="round" stroke-linejoin="round" stroke-width="1"/>
      </g>
      <g id="Graphic_117">
        <circle cx="314.75" cy="-142.5" r="9.25001478059255" fill="yellow"/>
        <circle cx="314.75" cy="-142.5" r="9.25001478059255" stroke="black" stroke-linecap="round" stroke-linejoin="round" stroke-width="1"/>
      </g>
      <g id="Graphic_118">
        <circle cx="314.75" cy="-95" r="9.25001478059255" fill="yellow"/>
        <circle cx="314.75" cy="-95" r="9.25001478059255" stroke="black" stroke-linecap="round" stroke-linejoin="round" stroke-width="1"/>
      </g>
      <g id="Graphic_119">
        <circle cx="314.75" cy="-47.5" r="9.25001478059254" fill="yellow"/>
        <circle cx="314.75" cy="-47.5" r="9.25001478059254" stroke="black" stroke-linecap="round" stroke-linejoin="round" stroke-width="1"/>
      </g>
      <g id="Graphic_138">
        <circle cx="453.45703" cy="46.5" r="9.25001478059254" fill="yellow"/>
        <circle cx="453.45703" cy="46.5" r="9.25001478059254" stroke="black" stroke-linecap="round" stroke-linejoin="round" stroke-width="1"/>
        <text transform="translate(451.05703 28.5)" fill="black"/>
      </g>
      <g id="Graphic_139">
        <rect x="484.5" y="28.475884" width="355.5" height="37" fill="#ccc"/>
        <rect x="484.5" y="28.475884" width="355.5" height="37" stroke="black" stroke-linecap="round" stroke-linejoin="round" stroke-width="1"/>
        <text transform="translate(489.5 37.751885)" fill="black">
          <tspan font-family="Helvetica Neue" font-size="16" fill="black" x="0" y="15" xml:space="preserve">Lords library location</tspan>
        </text>
      </g>
      <g id="Graphic_140">
        <circle cx="811.75" cy="46.5" r="9.25001478059254" fill="yellow"/>
        <circle cx="811.75" cy="46.5" r="9.25001478059254" stroke="black" stroke-linecap="round" stroke-linejoin="round" stroke-width="1"/>
      </g>
    </g>
    <g id="Canvas_1_Layer_2">
      <title>Layer 2</title>
      <g id="Graphic_157">
        <rect x="478.5" y="93.40353" width="184.5" height="77.59647" fill="aqua"/>
        <rect x="478.5" y="93.40353" width="184.5" height="77.59647" stroke="black" stroke-linecap="round" stroke-linejoin="round" stroke-width="1"/>
        <text transform="translate(483.5 104.97777)" fill="black">
          <tspan font-family="Helvetica Neue" font-size="16" fill="black" x="0" y="51" xml:space="preserve">Detailed view only</tspan>
        </text>
      </g>
      <g id="Graphic_153">
        <rect x="664" y="93.40353" width="176" height="37" fill="#ccc"/>
        <rect x="664" y="93.40353" width="176" height="37" stroke="black" stroke-linecap="round" stroke-linejoin="round" stroke-width="1"/>
        <text transform="translate(669 102.67954)" fill="black">
          <tspan font-family="Helvetica Neue" font-size="16" fill="black" x="0" y="15" xml:space="preserve">House</tspan>
        </text>
      </g>
      <g id="Graphic_142">
        <rect x="-264.04026" y="-294" width="260.5" height="120" fill="white"/>
        <rect x="-264.04026" y="-294" width="260.5" height="120" stroke="black" stroke-linecap="round" stroke-linejoin="round" stroke-width="1"/>
        <text transform="translate(-259.04026 -261.672)" fill="black">
          <tspan font-family="Helvetica Neue" font-size="16" fill="black" x="4.178" y="15" xml:space="preserve">Multiple amendments will result in </tspan>
          <tspan font-family="Helvetica Neue" font-size="16" fill="black" x="30.858" y="33.448" xml:space="preserve">multiple rows of amending </tspan>
          <tspan font-family="Helvetica Neue" font-size="16" fill="black" x="16.89" y="51.895996" xml:space="preserve">member and amendment date </tspan>
        </text>
      </g>
      <g id="Graphic_143">
        <path d="M 15.844805 -223.25066 L 15.614935 -243.24934 L 82.61625 -244.01947 L 82.50132 -254.0188 L 102.72987 -234.25 L 82.96106 -214.02145 L 82.84612 -224.0208 Z" fill="url(#Obj_Gradient)"/>
        <path d="M 15.844805 -223.25066 L 15.614935 -243.24934 L 82.61625 -244.01947 L 82.50132 -254.0188 L 102.72987 -234.25 L 82.96106 -214.02145 L 82.84612 -224.0208 Z" stroke="#008ad5" stroke-linecap="round" stroke-linejoin="round" stroke-width="1"/>
      </g>
      <g id="Graphic_144">
        <circle cx="139.25" cy="-811" r="9.25001478059256" fill="#40ffff"/>
        <circle cx="139.25" cy="-811" r="9.25001478059256" stroke="black" stroke-linecap="round" stroke-linejoin="round" stroke-width="1"/>
      </g>
      <g id="Graphic_145">
        <rect x="163.5" y="-825.5" width="407.5" height="29" fill="white"/>
        <text transform="translate(168.5 -820.224)" fill="black">
          <tspan font-family="Helvetica Neue" font-size="16" fill="black" x="0" y="15" xml:space="preserve">Subject to change with switch to detailed</tspan>
        </text>
      </g>
      <g id="Graphic_146">
        <circle cx="817.25" cy="-609.5" r="9.25001478059254" fill="#40ffff"/>
        <circle cx="817.25" cy="-609.5" r="9.25001478059254" stroke="black" stroke-linecap="round" stroke-linejoin="round" stroke-width="1"/>
      </g>
      <g id="Graphic_147">
        <circle cx="299.25" cy="-562" r="9.25001478059255" fill="#40ffff"/>
        <circle cx="299.25" cy="-562" r="9.25001478059255" stroke="black" stroke-linecap="round" stroke-linejoin="round" stroke-width="1"/>
      </g>
      <g id="Graphic_148">
        <circle cx="545.25" cy="-562" r="9.25001478059254" fill="#40ffff"/>
        <circle cx="545.25" cy="-562" r="9.25001478059254" stroke="black" stroke-linecap="round" stroke-linejoin="round" stroke-width="1"/>
      </g>
      <g id="Graphic_149">
        <circle cx="790.75" cy="-562" r="9.25001478059254" fill="#40ffff"/>
        <circle cx="790.75" cy="-562" r="9.25001478059254" stroke="black" stroke-linecap="round" stroke-linejoin="round" stroke-width="1"/>
      </g>
      <g id="Graphic_150">
        <circle cx="790.75" cy="-514.5" r="9.25001478059254" fill="#40ffff"/>
        <circle cx="790.75" cy="-514.5" r="9.25001478059254" stroke="black" stroke-linecap="round" stroke-linejoin="round" stroke-width="1"/>
      </g>
      <g id="Graphic_152">
        <rect x="122" y="93.40353" width="176" height="37" fill="white"/>
        <rect x="122" y="93.40353" width="176" height="37" stroke="black" stroke-linecap="round" stroke-linejoin="round" stroke-width="1"/>
        <text transform="translate(127 102.67954)" fill="black">
          <tspan font-family="Helvetica Neue" font-size="16" fill="black" x="0" y="15" xml:space="preserve">Significant date</tspan>
        </text>
      </g>
      <g id="Graphic_155">
        <rect x="301.5" y="93.40353" width="176" height="37" fill="#ccc"/>
        <rect x="301.5" y="93.40353" width="176" height="37" stroke="black" stroke-linecap="round" stroke-linejoin="round" stroke-width="1"/>
        <text transform="translate(306.5 102.67954)" fill="black">
          <tspan font-family="Helvetica Neue" font-size="16" fill="black" x="0" y="15" xml:space="preserve">Reference</tspan>
        </text>
      </g>
      <g id="Graphic_154">
        <rect x="482.75" y="93.40353" width="176" height="37" fill="#ccc"/>
        <rect x="482.75" y="93.40353" width="176" height="37" stroke="black" stroke-linecap="round" stroke-linejoin="round" stroke-width="1"/>
        <text transform="translate(487.75 102.67954)" fill="black">
          <tspan font-family="Helvetica Neue" font-size="16" fill="black" x="0" y="15" xml:space="preserve">Chamber / committee</tspan>
        </text>
      </g>
      <g id="Graphic_156">
        <circle cx="811.75" cy="111.90353" r="9.25001478059255" fill="yellow"/>
        <circle cx="811.75" cy="111.90353" r="9.25001478059255" stroke="black" stroke-linecap="round" stroke-linejoin="round" stroke-width="1"/>
      </g>
    </g>
  </g>
</svg>
