<?xml version="1.0" encoding="UTF-8" standalone="no"?>
<!DOCTYPE svg PUBLIC "-//W3C//DTD SVG 1.1//EN" "http://www.w3.org/Graphics/SVG/1.1/DTD/svg11.dtd">
<svg xmlns:dc="http://purl.org/dc/elements/1.1/" version="1.1" xmlns:xl="http://www.w3.org/1999/xlink" xmlns="http://www.w3.org/2000/svg" viewBox="200.75984 475.72047 727.6142 754.9489" width="727.6142" height="754.9489">
  <defs>
    <marker orient="auto" overflow="visible" markerUnits="strokeWidth" id="StickArrow_Marker" stroke-linejoin="miter" stroke-miterlimit="10" viewBox="-1 -4 10 8" markerWidth="10" markerHeight="8" color="black">
      <g>
        <path d="M 8 0 L 0 0 M 0 -3 L 8 0 L 0 3" fill="none" stroke="currentColor" stroke-width="1"/>
      </g>
    </marker>
  </defs>
  <g id="Canvas_1" stroke-dasharray="none" stroke="none" stroke-opacity="1" fill="none" fill-opacity="1">
    <title>Canvas 1</title>
    <rect fill="white" x="200.75984" y="475.72047" width="727.6142" height="754.9489"/>
    <g id="Canvas_1_Layer_1">
      <title>Layer 1</title>
      <g id="Graphic_228">
        <ellipse cx="589.13386" cy="934.0157" rx="66.6142792830315" ry="32.5984770959516" fill="white"/>
        <ellipse cx="589.13386" cy="934.0157" rx="66.6142792830315" ry="32.5984770959516" stroke="black" stroke-linecap="round" stroke-linejoin="round" stroke-width="1"/>
        <text transform="translate(540.8425 917.6237)" fill="black">
          <tspan font-family="Helvetica Neue" font-size="14" fill="black" x="10.31634" y="13">PaperSeries</tspan>
          <tspan font-family="Helvetica Neue" font-size="14" fill="black" x="34.54334" y="29.392">Item</tspan>
        </text>
      </g>
      <g id="Line_259">
        <line x1="588.35364" y1="777.1928" x2="588.9199" y2="891.0175" marker-end="url(#StickArrow_Marker)" stroke="black" stroke-linecap="round" stroke-linejoin="round" stroke-width="1"/>
      </g>
      <g id="Graphic_258">
        <rect x="554.74063" y="821.7283" width="67.78" height="22.28" fill="white"/>
        <text transform="translate(559.74063 826.7283)" fill="black">
          <tspan font-family="Helvetica Neue" font-size="10" fill="black" x="0" y="10">asSeriesItem</tspan>
        </text>
      </g>
      <g id="Graphic_304">
        <ellipse cx="846.1417" cy="744.0945" rx="66.6142792830315" ry="32.5984770959516" fill="white"/>
        <ellipse cx="846.1417" cy="744.0945" rx="66.6142792830315" ry="32.5984770959516" stroke="black" stroke-linecap="round" stroke-linejoin="round" stroke-width="1"/>
        <text transform="translate(797.8504 727.7025)" fill="black">
          <tspan font-family="Helvetica Neue" font-size="14" fill="black" x="29.75534" y="13">Paper</tspan>
          <tspan font-family="Helvetica Neue" font-size="14" fill="black" x="26.24834" y="29.392">Bundle</tspan>
        </text>
      </g>
      <g id="Line_306">
        <line x1="655.3032" y1="744.0945" x2="769.1275" y2="744.0945" marker-end="url(#StickArrow_Marker)" stroke="black" stroke-linecap="round" stroke-linejoin="round" stroke-width="1"/>
      </g>
      <g id="Graphic_305">
        <rect x="683.4426" y="732.9545" width="64.45" height="22.28" fill="white"/>
        <text transform="translate(688.4426 737.9545)" fill="black">
          <tspan font-family="Helvetica Neue" font-size="10" fill="black" x="3659295e-19" y="10">formsPartOf</tspan>
        </text>
      </g>
      <g id="Graphic_361">
        <ellipse cx="846.1417" cy="508.8189" rx="66.6142792830315" ry="32.5984770959517" fill="white"/>
        <ellipse cx="846.1417" cy="508.8189" rx="66.6142792830315" ry="32.5984770959517" stroke="black" stroke-linecap="round" stroke-linejoin="round" stroke-width="1"/>
        <text transform="translate(797.8504 500.6229)" fill="black">
          <tspan font-family="Helvetica Neue" font-size="14" fill="black" x="15.10434" y="13">PaperType</tspan>
        </text>
      </g>
      <g id="Line_363">
        <line x1="655.3032" y1="508.8189" x2="769.1275" y2="508.8189" marker-end="url(#StickArrow_Marker)" stroke="black" stroke-linecap="round" stroke-linejoin="round" stroke-width="1"/>
      </g>
      <g id="Graphic_362">
        <rect x="688.8252" y="497.6789" width="46.86" height="22.28" fill="white"/>
        <text transform="translate(693.8252 502.6789)" fill="black">
          <tspan font-family="Helvetica Neue" font-size="10" fill="black" x="29132252e-20" y="10">hasType</tspan>
        </text>
      </g>
      <g id="Graphic_364">
        <ellipse cx="589.13386" cy="1104.0945" rx="66.6142792830315" ry="32.5984770959515" fill="white"/>
        <ellipse cx="589.13386" cy="1104.0945" rx="66.6142792830315" ry="32.5984770959515" stroke="black" stroke-linecap="round" stroke-linejoin="round" stroke-width="1"/>
        <text transform="translate(540.8425 1095.8985)" fill="black">
          <tspan font-family="Helvetica Neue" font-size="14" fill="black" x="10.31634" y="13">PaperSeries</tspan>
        </text>
      </g>
      <g id="Line_366">
        <line x1="589.13386" y1="967.1142" x2="589.13386" y2="1061.096" marker-end="url(#StickArrow_Marker)" stroke="black" stroke-linecap="round" stroke-linejoin="round" stroke-width="1"/>
      </g>
      <g id="Graphic_365">
        <rect x="566.35886" y="1002.7205" width="45.55" height="22.28" fill="white"/>
        <text transform="translate(571.35886 1007.7205)" fill="black">
          <tspan font-family="Helvetica Neue" font-size="10" fill="black" x="0" y="10">inSeries</tspan>
        </text>
      </g>
      <g id="Line_368">
        <path d="M 607.96375 1135.8363 C 618.2215 1153.128 651.0898 1179.5431 638.74015 1187.7165 C 626.3905 1195.89 545.69765 1193.5962 533.85827 1184.8819 C 523.75663 1177.4467 547.3164 1158.6956 561.4555 1143.1127" marker-end="url(#StickArrow_Marker)" stroke="black" stroke-linecap="round" stroke-linejoin="round" stroke-width="1"/>
      </g>
      <g id="Graphic_367">
        <rect x="547.1108" y="1181.6245" width="92.78" height="22.28" fill="white"/>
        <text transform="translate(552.1108 1186.6245)" fill="black">
          <tspan font-family="Helvetica Neue" font-size="10" fill="black" x="0" y="10">paperSeriesParent</tspan>
        </text>
      </g>
      <g id="Line_370">
        <path d="M 612.6364 1138.8128 C 631.72944 1162.6707 688.246 1198.4647 669.92126 1210.3937 C 651.59655 1222.3226 520.29925 1222.9951 502.67716 1210.3937 C 486.69855 1198.9675 533.40816 1166.814 557.541 1142.1274" marker-end="url(#StickArrow_Marker)" stroke="black" stroke-linecap="round" stroke-linejoin="round" stroke-width="1"/>
      </g>
      <g id="Graphic_369">
        <rect x="544.9364" y="1208.3894" width="97.94" height="22.28" fill="white"/>
        <text transform="translate(549.9364 1213.3894)" fill="black">
          <tspan font-family="Helvetica Neue" font-size="10" fill="black" x="0" y="10">paperSeriesFollows</tspan>
        </text>
      </g>
      <g id="Line_372">
        <path d="M 869.2908 539.84855 C 883.7777 559.2672 926.7702 587.9285 912.7559 598.1102 C 898.7416 608.2919 799.7639 610.58625 785.1968 600.9449 C 772.4151 592.48514 802.6715 567.7201 819.3195 548.1122" marker-end="url(#StickArrow_Marker)" stroke="black" stroke-linecap="round" stroke-linejoin="round" stroke-width="1"/>
      </g>
      <g id="Graphic_371">
        <rect x="814.8133" y="595.5499" width="85.94" height="22.28" fill="white"/>
        <text transform="translate(819.8133 600.5499)" fill="black">
          <tspan font-family="Helvetica Neue" font-size="10" fill="black" x="0" y="10">paperTypeParent</tspan>
        </text>
      </g>
      <g id="Graphic_373">
        <ellipse cx="861.2598" cy="1104.0945" rx="66.6142792830315" ry="32.5984770959515" fill="white"/>
        <ellipse cx="861.2598" cy="1104.0945" rx="66.6142792830315" ry="32.5984770959515" stroke="black" stroke-linecap="round" stroke-linejoin="round" stroke-width="1"/>
        <text transform="translate(812.9685 1095.8985)" fill="black">
          <tspan font-family="Helvetica Neue" font-size="14" fill="black" x="23.53234" y="13">Session</tspan>
        </text>
      </g>
      <g id="Line_375">
        <line x1="656.2481" y1="1104.0945" x2="784.2456" y2="1104.0945" marker-end="url(#StickArrow_Marker)" stroke="black" stroke-linecap="round" stroke-linejoin="round" stroke-width="1"/>
      </g>
      <g id="Graphic_374">
        <rect x="690.3363" y="1092.9545" width="55.93" height="22.28" fill="white"/>
        <text transform="translate(695.3363 1097.9545)" fill="black">
          <tspan font-family="Helvetica Neue" font-size="10" fill="black" x="14210855e-20" y="10">belongsTo</tspan>
        </text>
      </g>
      <g id="Graphic_384">
        <rect x="209.76378" y="1045.9842" width="120" height="28.346457" fill="white"/>
        <rect x="209.76378" y="1045.9842" width="120" height="28.346457" stroke="black" stroke-linecap="round" stroke-linejoin="round" stroke-width="1"/>
        <text transform="translate(214.76378 1052.9895)" fill="black">
          <tspan font-family="Helvetica Neue" font-size="12" fill="black" x="26.776" y="11">rdfs:Literal</tspan>
        </text>
      </g>
      <g id="Line_383">
        <line x1="524.4989" y1="1095.2024" x2="340.06674" y2="1069.8293" marker-end="url(#StickArrow_Marker)" stroke="black" stroke-linecap="round" stroke-linejoin="round" stroke-width="1"/>
      </g>
      <g id="Graphic_382">
        <rect x="411.9998" y="1070.9799" width="34.81" height="22.28" fill="white"/>
        <text transform="translate(416.9998 1075.9799)" fill="black">
          <tspan font-family="Helvetica Neue" font-size="10" fill="black" x="6554757e-19" y="10">prefix</tspan>
        </text>
      </g>
      <g id="Graphic_387">
        <rect x="209.76378" y="1150.8661" width="120" height="28.346457" fill="white"/>
        <rect x="209.76378" y="1150.8661" width="120" height="28.346457" stroke="black" stroke-linecap="round" stroke-linejoin="round" stroke-width="1"/>
        <text transform="translate(214.76378 1157.8714)" fill="black">
          <tspan font-family="Helvetica Neue" font-size="12" fill="black" x="22.108" y="11">xsd:boolean</tspan>
        </text>
      </g>
      <g id="Line_386">
        <line x1="526.5647" y1="1116.0345" x2="339.97944" y2="1151.6402" marker-end="url(#StickArrow_Marker)" stroke="black" stroke-linecap="round" stroke-linejoin="round" stroke-width="1"/>
      </g>
      <g id="Graphic_385">
        <rect x="392.63716" y="1124.3566" width="63.88" height="22.28" fill="white"/>
        <text transform="translate(397.63716 1129.3566)" fill="black">
          <tspan font-family="Helvetica Neue" font-size="10" fill="black" x="50803806e-20" y="10">hasPrivilege</tspan>
        </text>
      </g>
      <g id="Graphic_390">
        <rect x="201.25984" y="668.9764" width="120" height="28.346457" fill="white"/>
        <rect x="201.25984" y="668.9764" width="120" height="28.346457" stroke="black" stroke-linecap="round" stroke-linejoin="round" stroke-width="1"/>
        <text transform="translate(206.25984 675.9816)" fill="black">
          <tspan font-family="Helvetica Neue" font-size="12" fill="black" x="31.774" y="11">xsd:date</tspan>
        </text>
      </g>
      <g id="Line_389">
        <line x1="525.4316" y1="732.3955" x2="331.4837" y2="696.2405" marker-end="url(#StickArrow_Marker)" stroke="black" stroke-linecap="round" stroke-linejoin="round" stroke-width="1"/>
      </g>
      <g id="Graphic_388">
        <rect x="388.11993" y="701.52955" width="62.99" height="22.28" fill="white"/>
        <text transform="translate(393.11993 706.52955)" fill="black">
          <tspan font-family="Helvetica Neue" font-size="10" fill="black" x="7993606e-19" y="10">authoredOn</tspan>
        </text>
      </g>
      <g id="Graphic_391">
        <rect x="201.25984" y="773.8583" width="120" height="28.346457" fill="white"/>
        <rect x="201.25984" y="773.8583" width="120" height="28.346457" stroke="black" stroke-linecap="round" stroke-linejoin="round" stroke-width="1"/>
        <text transform="translate(206.25984 780.8635)" fill="black">
          <tspan font-family="Helvetica Neue" font-size="12" fill="black" x="18.886" y="11">rdf:langString</tspan>
        </text>
      </g>
      <g id="Line_393">
        <line x1="523.4465" y1="752.7954" x2="331.56717" y2="778.5827" marker-end="url(#StickArrow_Marker)" stroke="black" stroke-linecap="round" stroke-linejoin="round" stroke-width="1"/>
      </g>
      <g id="Graphic_392">
        <rect x="356.48456" y="757.4973" width="98.17" height="22.28" fill="white"/>
        <text transform="translate(361.48456 762.4973)" fill="black">
          <tspan font-family="Helvetica Neue" font-size="10" fill="black" x="0" y="10">copyrightStatement</tspan>
        </text>
      </g>
      <g id="Graphic_394">
        <rect x="201.25984" y="720" width="120" height="28.346457" fill="white"/>
        <rect x="201.25984" y="720" width="120" height="28.346457" stroke="black" stroke-linecap="round" stroke-linejoin="round" stroke-width="1"/>
        <text transform="translate(206.25984 727.0052)" fill="black">
          <tspan font-family="Helvetica Neue" font-size="12" fill="black" x="25.222" y="11">xsd:integer</tspan>
        </text>
      </g>
      <g id="Line_396">
        <line x1="521.2019" y1="742.0616" x2="331.65506" y2="736.3095" marker-end="url(#StickArrow_Marker)" stroke="black" stroke-linecap="round" stroke-linejoin="round" stroke-width="1"/>
      </g>
      <g id="Graphic_395">
        <rect x="387.76696" y="727.77726" width="59.64" height="22.28" fill="white"/>
        <text transform="translate(392.76696 732.77726)" fill="black">
          <tspan font-family="Helvetica Neue" font-size="10" fill="black" x="0" y="10">pageCount</tspan>
        </text>
      </g>
      <g id="Graphic_397">
        <rect x="201.25984" y="824.8819" width="120" height="28.346457" fill="white"/>
        <rect x="201.25984" y="824.8819" width="120" height="28.346457" stroke="black" stroke-linecap="round" stroke-linejoin="round" stroke-width="1"/>
        <text transform="translate(206.25984 831.8871)" fill="black">
          <tspan font-family="Helvetica Neue" font-size="12" fill="black" x="22.108" y="11">xsd:boolean</tspan>
        </text>
      </g>
      <g id="Line_399">
        <line x1="530.41166" y1="760.8766" x2="320.04246" y2="821.981" marker-end="url(#StickArrow_Marker)" stroke="black" stroke-linecap="round" stroke-linejoin="round" stroke-width="1"/>
      </g>
      <g id="Graphic_398">
        <rect x="371.64077" y="782.9164" width="89.08" height="22.28" fill="white"/>
        <text transform="translate(376.64077 787.9164)" fill="black">
          <tspan font-family="Helvetica Neue" font-size="10" fill="black" x="8668621e-19" y="10">containsStatistics</tspan>
        </text>
      </g>
      <g id="Graphic_400">
        <ellipse cx="588.189" cy="508.8189" rx="66.6142792830315" ry="32.5984770959516" fill="white"/>
        <ellipse cx="588.189" cy="508.8189" rx="66.6142792830315" ry="32.5984770959516" stroke="black" stroke-linecap="round" stroke-linejoin="round" stroke-width="1"/>
        <text transform="translate(539.89763 492.4269)" fill="black">
          <tspan font-family="Helvetica Neue" font-size="14" fill="black" x="29.75534" y="13">Paper</tspan>
          <tspan font-family="Helvetica Neue" font-size="14" fill="black" x="32.22634" y="29.392">Work</tspan>
        </text>
      </g>
      <g id="Graphic_402">
        <ellipse cx="588.189" cy="744.0945" rx="66.6142792830315" ry="32.5984770959516" fill="white"/>
        <ellipse cx="588.189" cy="744.0945" rx="66.6142792830315" ry="32.5984770959516" stroke="black" stroke-linecap="round" stroke-linejoin="round" stroke-width="1"/>
        <text transform="translate(539.89763 727.7025)" fill="black">
          <tspan font-family="Helvetica Neue" font-size="14" fill="black" x="29.75534" y="13">Paper</tspan>
          <tspan font-family="Helvetica Neue" font-size="14" fill="black" x="13.80934" y="29.392">Expression</tspan>
        </text>
      </g>
      <g id="Line_405">
        <line x1="588.189" y1="710.99604" x2="588.189" y2="551.81734" marker-end="url(#StickArrow_Marker)" stroke="black" stroke-linecap="round" stroke-linejoin="round" stroke-width="1"/>
      </g>
      <g id="Graphic_404">
        <rect x="553.649" y="623.77144" width="69.08" height="22.28" fill="white"/>
        <text transform="translate(558.649 628.77144)" fill="black">
          <tspan font-family="Helvetica Neue" font-size="10" fill="black" x="8704149e-19" y="10">expressionOf</tspan>
        </text>
      </g>
      <g id="Graphic_408">
        <rect x="201.25984" y="873.0709" width="120" height="28.346457" fill="white"/>
        <rect x="201.25984" y="873.0709" width="120" height="28.346457" stroke="black" stroke-linecap="round" stroke-linejoin="round" stroke-width="1"/>
        <text transform="translate(206.25984 880.0761)" fill="black">
          <tspan font-family="Helvetica Neue" font-size="12" fill="black" x="26.776" y="11">rdfs:Literal</tspan>
        </text>
      </g>
      <g id="Line_407">
        <line x1="538.0866" y1="766.0324" x2="303.15583" y2="868.8995" marker-end="url(#StickArrow_Marker)" stroke="black" stroke-linecap="round" stroke-linejoin="round" stroke-width="1"/>
      </g>
      <g id="Graphic_406">
        <rect x="413.788" y="802.6089" width="29" height="23" fill="white"/>
        <text transform="translate(418.933 807.6089)" fill="black">
          <tspan font-family="Helvetica Neue" font-size="10" fill="black" x="0" y="10">isbn</tspan>
        </text>
      </g>
      <g id="Graphic_409">
        <rect x="201.25984" y="617.95275" width="120" height="28.346457" fill="white"/>
        <rect x="201.25984" y="617.95275" width="120" height="28.346457" stroke="black" stroke-linecap="round" stroke-linejoin="round" stroke-width="1"/>
        <text transform="translate(206.25984 624.958)" fill="black">
          <tspan font-family="Helvetica Neue" font-size="12" fill="black" x="31.774" y="11">xsd:date</tspan>
        </text>
      </g>
      <g id="Line_411">
        <line x1="533.1309" y1="725.2379" x2="312.48223" y2="649.6689" marker-end="url(#StickArrow_Marker)" stroke="black" stroke-linecap="round" stroke-linejoin="round" stroke-width="1"/>
      </g>
      <g id="Graphic_410">
        <rect x="379.7379" y="673.17155" width="67.79" height="22.28" fill="white"/>
        <text transform="translate(384.7379 678.17155)" fill="black">
          <tspan font-family="Helvetica Neue" font-size="10" fill="black" x="43343107e-20" y="10">originatedOn</tspan>
        </text>
      </g>
    </g>
  </g>
</svg>
