<?xml version="1.0" encoding="UTF-8" standalone="no"?>
<!DOCTYPE svg PUBLIC "-//W3C//DTD SVG 1.1//EN" "http://www.w3.org/Graphics/SVG/1.1/DTD/svg11.dtd">
<svg xmlns:xl="http://www.w3.org/1999/xlink" version="1.1" xmlns="http://www.w3.org/2000/svg" xmlns:dc="http://purl.org/dc/elements/1.1/" viewBox="492.72834 535.248 701.0927 678.41345" width="701.0927" height="678.41345">
  <defs>
    <marker orient="auto" overflow="visible" markerUnits="strokeWidth" id="StickArrow_Marker" stroke-linejoin="miter" stroke-miterlimit="10" viewBox="-1 -4 10 8" markerWidth="10" markerHeight="8" color="black">
      <g>
        <path d="M 8 0 L 0 0 M 0 -3 L 8 0 L 0 3" fill="none" stroke="currentColor" stroke-width="1"/>
      </g>
    </marker>
  </defs>
  <g id="Canvas_1" stroke-dasharray="none" stroke="none" fill="none" fill-opacity="1" stroke-opacity="1">
    <title>Canvas 1</title>
    <rect fill="white" x="492.72834" y="535.248" width="701.0927" height="678.41345"/>
    <g id="Canvas_1_Layer_1">
      <title>Layer 1</title>
      <g id="Graphic_228">
        <ellipse cx="846.1417" cy="917.0079" rx="66.6142792830315" ry="32.5984770959516" fill="white"/>
        <ellipse cx="846.1417" cy="917.0079" rx="66.6142792830315" ry="32.5984770959516" stroke="black" stroke-linecap="round" stroke-linejoin="round" stroke-width="1"/>
        <text transform="translate(797.8504 900.6159)" fill="black">
          <tspan font-family="Helvetica Neue" font-size="14" fill="black" x="10.31634" y="13">PaperSeries</tspan>
          <tspan font-family="Helvetica Neue" font-size="14" fill="black" x="34.54334" y="29.392">Item</tspan>
        </text>
      </g>
      <g id="Graphic_255">
        <ellipse cx="846.1417" cy="744.0945" rx="66.6142792830314" ry="32.5984770959516" fill="white"/>
        <ellipse cx="846.1417" cy="744.0945" rx="66.6142792830314" ry="32.5984770959516" stroke="black" stroke-linecap="round" stroke-linejoin="round" stroke-width="1"/>
        <text transform="translate(797.8504 719.5065)" fill="black">
          <tspan font-family="Helvetica Neue" font-size="14" fill="black" x="5.38134" y="13">Parliamentary</tspan>
          <tspan font-family="Helvetica Neue" font-size="14" fill="black" x="29.75534" y="29.392">Paper</tspan>
          <tspan font-family="Helvetica Neue" font-size="14" fill="black" x="13.80934" y="45.783997">Expression</tspan>
        </text>
      </g>
      <g id="Line_259">
        <line x1="846.1417" y1="777.1929" x2="846.1417" y2="874.0094" marker-end="url(#StickArrow_Marker)" stroke="black" stroke-linecap="round" stroke-linejoin="round" stroke-width="1"/>
      </g>
      <g id="Graphic_258">
        <rect x="812.2517" y="814.0748" width="67.78" height="22.28" fill="white"/>
        <text transform="translate(817.2517 819.0748)" fill="black">
          <tspan font-family="Helvetica Neue" font-size="10" fill="black" x="0" y="10">asSeriesItem</tspan>
        </text>
      </g>
      <g id="Graphic_304">
        <ellipse cx="559.8425" cy="744.0945" rx="66.6142792830315" ry="32.5984770959516" fill="white"/>
        <ellipse cx="559.8425" cy="744.0945" rx="66.6142792830315" ry="32.5984770959516" stroke="black" stroke-linecap="round" stroke-linejoin="round" stroke-width="1"/>
        <text transform="translate(511.5512 727.7025)" fill="black">
          <tspan font-family="Helvetica Neue" font-size="14" fill="black" x="29.75534" y="13">Paper</tspan>
          <tspan font-family="Helvetica Neue" font-size="14" fill="black" x="26.24834" y="29.392">Bundle</tspan>
        </text>
      </g>
      <g id="Line_306">
        <line x1="779.0275" y1="744.0945" x2="636.8567" y2="744.0945" marker-end="url(#StickArrow_Marker)" stroke="black" stroke-linecap="round" stroke-linejoin="round" stroke-width="1"/>
      </g>
      <g id="Graphic_305">
        <rect x="663.2015" y="732.9545" width="64.45" height="22.28" fill="white"/>
        <text transform="translate(668.2015 737.9545)" fill="black">
          <tspan font-family="Helvetica Neue" font-size="10" fill="black" x="3659295e-19" y="10">formsPartOf</tspan>
        </text>
      </g>
      <g id="Graphic_361">
        <ellipse cx="1123.937" cy="744.0945" rx="66.6142792830314" ry="32.5984770959516" fill="white"/>
        <ellipse cx="1123.937" cy="744.0945" rx="66.6142792830314" ry="32.5984770959516" stroke="black" stroke-linecap="round" stroke-linejoin="round" stroke-width="1"/>
        <text transform="translate(1075.6457 735.8985)" fill="black">
          <tspan font-family="Helvetica Neue" font-size="14" fill="black" x="15.10434" y="13">PaperType</tspan>
        </text>
      </g>
      <g id="Line_363">
        <line x1="913.2559" y1="744.0945" x2="1046.9228" y2="744.0945" marker-end="url(#StickArrow_Marker)" stroke="black" stroke-linecap="round" stroke-linejoin="round" stroke-width="1"/>
      </g>
      <g id="Graphic_362">
        <rect x="968.7519" y="732.9545" width="46.86" height="22.28" fill="white"/>
        <text transform="translate(973.7519 737.9545)" fill="black">
          <tspan font-family="Helvetica Neue" font-size="10" fill="black" x="29132252e-20" y="10">hasType</tspan>
        </text>
      </g>
      <g id="Graphic_364">
        <ellipse cx="846.1417" cy="1087.0866" rx="66.6142792830315" ry="32.5984770959516" fill="white"/>
        <ellipse cx="846.1417" cy="1087.0866" rx="66.6142792830315" ry="32.5984770959516" stroke="black" stroke-linecap="round" stroke-linejoin="round" stroke-width="1"/>
        <text transform="translate(797.8504 1078.8906)" fill="black">
          <tspan font-family="Helvetica Neue" font-size="14" fill="black" x="10.31634" y="13">PaperSeries</tspan>
        </text>
      </g>
      <g id="Line_366">
        <line x1="846.1417" y1="950.1063" x2="846.1417" y2="1044.0882" marker-end="url(#StickArrow_Marker)" stroke="black" stroke-linecap="round" stroke-linejoin="round" stroke-width="1"/>
      </g>
      <g id="Graphic_365">
        <rect x="823.3667" y="985.7126" width="45.55" height="22.28" fill="white"/>
        <text transform="translate(828.3667 990.7126)" fill="black">
          <tspan font-family="Helvetica Neue" font-size="10" fill="black" x="0" y="10">inSeries</tspan>
        </text>
      </g>
      <g id="Line_368">
        <path d="M 864.9716 1118.8284 C 875.2294 1136.1201 908.0977 1162.5352 895.748 1170.7087 C 883.3983 1178.8821 802.7055 1176.5883 790.8661 1167.874 C 780.7645 1160.4388 804.3243 1141.6878 818.4634 1126.1048" marker-end="url(#StickArrow_Marker)" stroke="black" stroke-linecap="round" stroke-linejoin="round" stroke-width="1"/>
      </g>
      <g id="Graphic_367">
        <rect x="804.1187" y="1164.6166" width="92.78" height="22.28" fill="white"/>
        <text transform="translate(809.1187 1169.6166)" fill="black">
          <tspan font-family="Helvetica Neue" font-size="10" fill="black" x="0" y="10">paperSeriesParent</tspan>
        </text>
      </g>
      <g id="Line_370">
        <path d="M 869.6443 1121.805 C 888.7373 1145.6629 945.2538 1181.4569 926.9291 1193.3858 C 908.6044 1205.3148 777.3071 1205.9872 759.685 1193.3858 C 743.7064 1181.9596 790.416 1149.8061 814.5489 1125.1195" marker-end="url(#StickArrow_Marker)" stroke="black" stroke-linecap="round" stroke-linejoin="round" stroke-width="1"/>
      </g>
      <g id="Graphic_369">
        <rect x="801.94425" y="1191.3815" width="97.94" height="22.28" fill="white"/>
        <text transform="translate(806.9443 1196.3815)" fill="black">
          <tspan font-family="Helvetica Neue" font-size="10" fill="black" x="0" y="10">paperSeriesFollows</tspan>
        </text>
      </g>
      <g id="Line_372">
        <path d="M 1147.0861 775.1241 C 1161.573 794.5428 1204.5654 823.2041 1190.5512 833.3858 C 1176.5369 843.5675 1077.5592 845.8618 1062.9921 836.2205 C 1050.2104 827.7607 1080.4668 802.9957 1097.1148 783.3878" marker-end="url(#StickArrow_Marker)" stroke="black" stroke-linecap="round" stroke-linejoin="round" stroke-width="1"/>
      </g>
      <g id="Graphic_371">
        <rect x="1092.6086" y="830.8255" width="85.94" height="22.28" fill="white"/>
        <text transform="translate(1097.6086 835.8255)" fill="black">
          <tspan font-family="Helvetica Neue" font-size="10" fill="black" x="0" y="10">paperTypeParent</tspan>
        </text>
      </g>
      <g id="Graphic_373">
        <ellipse cx="1123.937" cy="1087.0866" rx="66.6142792830314" ry="32.5984770959516" fill="white"/>
        <ellipse cx="1123.937" cy="1087.0866" rx="66.6142792830314" ry="32.5984770959516" stroke="black" stroke-linecap="round" stroke-linejoin="round" stroke-width="1"/>
        <text transform="translate(1075.6457 1078.8906)" fill="black">
          <tspan font-family="Helvetica Neue" font-size="14" fill="black" x="23.53234" y="13">Session</tspan>
        </text>
      </g>
      <g id="Line_375">
        <line x1="913.2559" y1="1087.0866" x2="1046.9228" y2="1087.0866" marker-end="url(#StickArrow_Marker)" stroke="black" stroke-linecap="round" stroke-linejoin="round" stroke-width="1"/>
      </g>
      <g id="Graphic_374">
        <rect x="949.8953" y="1075.9466" width="55.93" height="22.28" fill="white"/>
        <text transform="translate(954.8953 1080.9466)" fill="black">
          <tspan font-family="Helvetica Neue" font-size="10" fill="black" x="14210855e-20" y="10">belongsTo</tspan>
        </text>
      </g>
      <g id="Graphic_379">
        <ellipse cx="846.1417" cy="588.189" rx="66.6142792830315" ry="32.5984770959516" fill="white"/>
        <ellipse cx="846.1417" cy="588.189" rx="66.6142792830315" ry="32.5984770959516" stroke="black" stroke-linecap="round" stroke-linejoin="round" stroke-width="1"/>
        <text transform="translate(797.8504 571.797)" fill="black">
          <tspan font-family="Helvetica Neue" font-size="14" fill="black" x="5.38134" y="13">Parliamentary</tspan>
          <tspan font-family="Helvetica Neue" font-size="14" fill="black" x="13.69034" y="29.392">PaperWork</tspan>
        </text>
      </g>
      <g id="Line_381">
        <line x1="846.1417" y1="710.99604" x2="846.1417" y2="631.1874" marker-end="url(#StickArrow_Marker)" stroke="black" stroke-linecap="round" stroke-linejoin="round" stroke-width="1"/>
      </g>
      <g id="Graphic_380">
        <rect x="811.6017" y="659.4876" width="69.08" height="22.28" fill="white"/>
        <text transform="translate(816.6017 664.4876)" fill="black">
          <tspan font-family="Helvetica Neue" font-size="10" fill="black" x="8704149e-19" y="10">expressionOf</tspan>
        </text>
      </g>
      <g id="Graphic_384">
        <rect x="493.22834" y="1028.9764" width="120" height="28.346457" fill="white"/>
        <rect x="493.22834" y="1028.9764" width="120" height="28.346457" stroke="black" stroke-linecap="round" stroke-linejoin="round" stroke-width="1"/>
        <text transform="translate(498.22834 1035.9816)" fill="black">
          <tspan font-family="Helvetica Neue" font-size="12" fill="black" x="26.776" y="11">rdfs:Literal</tspan>
        </text>
      </g>
      <g id="Line_383">
        <line x1="781.9452" y1="1077.4571" x2="623.5133" y2="1053.6923" marker-end="url(#StickArrow_Marker)" stroke="black" stroke-linecap="round" stroke-linejoin="round" stroke-width="1"/>
      </g>
      <g id="Graphic_382">
        <rect x="682.1835" y="1053.9636" width="34.81" height="22.28" fill="white"/>
        <text transform="translate(687.1835 1058.9636)" fill="black">
          <tspan font-family="Helvetica Neue" font-size="10" fill="black" x="6554757e-19" y="10">prefix</tspan>
        </text>
      </g>
      <g id="Graphic_387">
        <rect x="493.22834" y="1133.8583" width="120" height="28.346457" fill="white"/>
        <rect x="493.22834" y="1133.8583" width="120" height="28.346457" stroke="black" stroke-linecap="round" stroke-linejoin="round" stroke-width="1"/>
        <text transform="translate(498.22834 1140.8635)" fill="black">
          <tspan font-family="Helvetica Neue" font-size="12" fill="black" x="22.108" y="11">xsd:boolean</tspan>
        </text>
      </g>
      <g id="Line_386">
        <line x1="784.33275" y1="1099.9469" x2="623.4103" y2="1133.4291" marker-end="url(#StickArrow_Marker)" stroke="black" stroke-linecap="round" stroke-linejoin="round" stroke-width="1"/>
      </g>
      <g id="Graphic_385">
        <rect x="663.7543" y="1107.2494" width="63.88" height="22.28" fill="white"/>
        <text transform="translate(668.7543 1112.2494)" fill="black">
          <tspan font-family="Helvetica Neue" font-size="10" fill="black" x="50803806e-20" y="10">hasPrivilege</tspan>
        </text>
      </g>
      <g id="Graphic_390">
        <rect x="1057.3228" y="535.748" width="120" height="28.346457" fill="white"/>
        <rect x="1057.3228" y="535.748" width="120" height="28.346457" stroke="black" stroke-linecap="round" stroke-linejoin="round" stroke-width="1"/>
        <text transform="translate(1062.3228 542.75326)" fill="black">
          <tspan font-family="Helvetica Neue" font-size="12" fill="black" x="31.774" y="11">xsd:date</tspan>
        </text>
      </g>
      <g id="Line_389">
        <line x1="884.142" y1="716.8852" x2="1089.0727" y2="570.1491" marker-end="url(#StickArrow_Marker)" stroke="black" stroke-linecap="round" stroke-linejoin="round" stroke-width="1"/>
      </g>
      <g id="Graphic_388">
        <rect x="963.2952" y="626.51805" width="62.99" height="22.28" fill="white"/>
        <text transform="translate(968.2952 631.51805)" fill="black">
          <tspan font-family="Helvetica Neue" font-size="10" fill="black" x="7993606e-19" y="10">authoredOn</tspan>
        </text>
      </g>
      <g id="Graphic_391">
        <rect x="1057.3228" y="623.62204" width="120" height="28.346457" fill="white"/>
        <rect x="1057.3228" y="623.62204" width="120" height="28.346457" stroke="black" stroke-linecap="round" stroke-linejoin="round" stroke-width="1"/>
        <text transform="translate(1062.3228 630.6273)" fill="black">
          <tspan font-family="Helvetica Neue" font-size="12" fill="black" x="18.886" y="11">rdf:langString</tspan>
        </text>
      </g>
      <g id="Line_393">
        <line x1="898.6029" y1="723.5304" x2="1071.4827" y2="655.764" marker-end="url(#StickArrow_Marker)" stroke="black" stroke-linecap="round" stroke-linejoin="round" stroke-width="1"/>
      </g>
      <g id="Graphic_392">
        <rect x="955.9432" y="670.6732" width="98.17" height="22.28" fill="white"/>
        <text transform="translate(960.9432 675.6732)" fill="black">
          <tspan font-family="Helvetica Neue" font-size="10" fill="black" x="0" y="10">copyrightStatement</tspan>
        </text>
      </g>
      <g id="Graphic_394">
        <rect x="1057.3228" y="875.9055" width="120" height="28.346457" fill="white"/>
        <rect x="1057.3228" y="875.9055" width="120" height="28.346457" stroke="black" stroke-linecap="round" stroke-linejoin="round" stroke-width="1"/>
        <text transform="translate(1062.3228 882.9107)" fill="black">
          <tspan font-family="Helvetica Neue" font-size="12" fill="black" x="25.222" y="11">xsd:integer</tspan>
        </text>
      </g>
      <g id="Line_396">
        <line x1="891.3911" y1="768.4534" x2="1081.8372" y2="870.9758" marker-end="url(#StickArrow_Marker)" stroke="black" stroke-linecap="round" stroke-linejoin="round" stroke-width="1"/>
      </g>
      <g id="Graphic_395">
        <rect x="965.041" y="813.0142" width="59.64" height="22.28" fill="white"/>
        <text transform="translate(970.041 818.0142)" fill="black">
          <tspan font-family="Helvetica Neue" font-size="10" fill="black" x="0" y="10">pageCount</tspan>
        </text>
      </g>
      <g id="Graphic_397">
        <rect x="1057.3228" y="952.4409" width="120" height="28.346457" fill="white"/>
        <rect x="1057.3228" y="952.4409" width="120" height="28.346457" stroke="black" stroke-linecap="round" stroke-linejoin="round" stroke-width="1"/>
        <text transform="translate(1062.3228 959.4462)" fill="black">
          <tspan font-family="Helvetica Neue" font-size="12" fill="black" x="22.108" y="11">xsd:boolean</tspan>
        </text>
      </g>
      <g id="Line_399">
        <line x1="880.6566" y1="772.4159" x2="1092.0104" y2="945.8438" marker-end="url(#StickArrow_Marker)" stroke="black" stroke-linecap="round" stroke-linejoin="round" stroke-width="1"/>
      </g>
      <g id="Graphic_398">
        <rect x="949.8959" y="854.6384" width="89.08" height="22.28" fill="white"/>
        <text transform="translate(954.8959 859.6384)" fill="black">
          <tspan font-family="Helvetica Neue" font-size="10" fill="black" x="8668621e-19" y="10">containsStatistics</tspan>
        </text>
      </g>
    </g>
  </g>
</svg>
