<?xml version="1.0" encoding="UTF-8" standalone="no"?>
<!DOCTYPE svg PUBLIC "-//W3C//DTD SVG 1.1//EN" "http://www.w3.org/Graphics/SVG/1.1/DTD/svg11.dtd">
<svg xmlns="http://www.w3.org/2000/svg" xmlns:dc="http://purl.org/dc/elements/1.1/" version="1.1" xmlns:xl="http://www.w3.org/1999/xlink" viewBox="-150 -2 1539 1765" width="1539" height="1765">
  <defs>
    <marker orient="auto" overflow="visible" markerUnits="strokeWidth" id="FilledArrow_Marker" stroke-linejoin="miter" stroke-miterlimit="10" viewBox="-1 -4 10 8" markerWidth="10" markerHeight="8" color="black">
      <g>
        <path d="M 8 0 L 0 -3 L 0 3 Z" fill="currentColor" stroke="currentColor" stroke-width="1"/>
      </g>
    </marker>
  </defs>
  <g id="Canvas_1" fill="none" fill-opacity="1" stroke="none" stroke-dasharray="none" stroke-opacity="1">
    <title>Canvas 1</title>
    <rect fill="white" x="-150" y="-2" width="1539" height="1765"/>
    <g id="Canvas_1_Layer_1">
      <title>Layer 1</title>
      <g id="Graphic_2">
        <ellipse cx="679.28516" cy="43" rx="89.4007776190689" ry="43.5714981942969" stroke="black" stroke-linecap="round" stroke-linejoin="round" stroke-width="2"/>
        <text transform="translate(612.76465 17.5)" fill="black">
          <tspan font-family="Helvetica" font-size="14" fill="black" x="19.817383" y="14">Laid before the</tspan>
          <tspan font-family="Helvetica" font-size="14" fill="black" x="4.6621094" y="31">House of Commons</tspan>
          <tspan font-family="Helvetica" font-size="14" fill="black" x="0" y="48">(House of Commons)</tspan>
        </text>
      </g>
      <g id="Graphic_3">
        <ellipse cx="686.28516" cy="155" rx="72.725335934329" ry="31.4286216483453" fill="white"/>
        <ellipse cx="686.28516" cy="155" rx="72.725335934329" ry="31.4286216483453" stroke="black" stroke-linecap="round" stroke-linejoin="round" stroke-width="1"/>
        <text transform="translate(633.105 138)" fill="black">
          <tspan font-family="Helvetica" font-size="14" fill="black" x="0" y="14">TREATY BAT AC</tspan>
          <tspan font-family="Helvetica" font-size="14" fill="black" x="38.40088" y="31">AND </tspan>
        </text>
      </g>
      <g id="Line_4">
        <path d="M 682.0662 87.55059 C 682.60676 96.18043 683.17075 105.18099 683.70465 113.70313" marker-end="url(#FilledArrow_Marker)" stroke="black" stroke-linecap="round" stroke-linejoin="round" stroke-width="1"/>
      </g>
      <g id="Graphic_5">
        <ellipse cx="1116.2852" cy="155" rx="80.9797436552919" ry="19.2857451023937" fill="white"/>
        <ellipse cx="1116.2852" cy="155" rx="80.9797436552919" ry="19.2857451023937" stroke="black" stroke-linecap="round" stroke-linejoin="round" stroke-width="1"/>
        <text transform="translate(1056.5015 146.5)" fill="black">
          <tspan font-family="Helvetica" font-size="14" fill="black" x="1.9448242" y="14">CT BE Summation </tspan>
        </text>
      </g>
      <g id="Graphic_6">
        <ellipse cx="1295.2852" cy="254" rx="72.2425470769434" ry="31.4286216483453" fill="white"/>
        <ellipse cx="1295.2852" cy="254" rx="72.2425470769434" ry="31.4286216483453" stroke="black" stroke-linecap="round" stroke-linejoin="round" stroke-width="1"/>
        <text transform="translate(1242.4912 237)" fill="black">
          <tspan font-family="Helvetica" font-size="14" fill="black" x="0" y="14">TREATY BAT AA</tspan>
          <tspan font-family="Helvetica" font-size="14" fill="black" x="25.94922" y="31">Decision </tspan>
        </text>
      </g>
      <g id="Line_7">
        <path d="M 1148.2593 172.72431 C 1174.6098 187.30975 1211.2537 207.56976 1241.9209 224.51864" marker-end="url(#FilledArrow_Marker)" stroke="black" stroke-linecap="round" stroke-linejoin="round" stroke-width="1"/>
      </g>
      <g id="Graphic_8">
        <ellipse cx="1112.2852" cy="254" rx="72.2425470769434" ry="31.4286216483453" fill="white"/>
        <ellipse cx="1112.2852" cy="254" rx="72.2425470769434" ry="31.4286216483453" stroke="black" stroke-linecap="round" stroke-linejoin="round" stroke-width="1"/>
        <text transform="translate(1059.4912 237)" fill="black">
          <tspan font-family="Helvetica" font-size="14" fill="black" x="0" y="14">TREATY BAT AA</tspan>
          <tspan font-family="Helvetica" font-size="14" fill="black" x="38.01465" y="31">AND </tspan>
        </text>
      </g>
      <g id="Line_9">
        <path d="M 1115.5148 174.28485 C 1115.0735 185.32564 1114.5114 199.36733 1113.9755 212.68098" marker-end="url(#FilledArrow_Marker)" stroke="black" stroke-linecap="round" stroke-linejoin="round" stroke-width="1"/>
      </g>
      <g id="Graphic_10">
        <ellipse cx="945.2852" cy="254" rx="72.2425470769435" ry="31.4286216483453" fill="white"/>
        <ellipse cx="945.2852" cy="254" rx="72.2425470769435" ry="31.4286216483453" stroke="black" stroke-linecap="round" stroke-linejoin="round" stroke-width="1"/>
        <text transform="translate(892.4912 237)" fill="black">
          <tspan font-family="Helvetica" font-size="14" fill="black" x="0" y="14">TREATY BAT AB</tspan>
          <tspan font-family="Helvetica" font-size="14" fill="black" x="38.01465" y="31">AND </tspan>
        </text>
      </g>
      <g id="Line_11">
        <path d="M 1085.479 172.84114 C 1060.6066 187.23832 1026.235 207.12736 997.2465 223.90633" marker-end="url(#FilledArrow_Marker)" stroke="black" stroke-linecap="round" stroke-linejoin="round" stroke-width="1"/>
      </g>
      <g id="Graphic_12">
        <ellipse cx="1295.2852" cy="376" rx="92.3359629732621" ry="55.7143747402485" stroke="black" stroke-linecap="round" stroke-linejoin="round" stroke-width="2"/>
        <text transform="translate(1226.4165 342)" fill="black">
          <tspan font-family="Helvetica" font-size="14" fill="black" x="0" y="14">Oral evidence session</tspan>
          <tspan font-family="Helvetica" font-size="14" fill="black" x="19.45166" y="31">by the Business</tspan>
          <tspan font-family="Helvetica" font-size="14" fill="black" x="1.5517578" y="48">and Trade Committee</tspan>
          <tspan font-family="Helvetica" font-size="14" fill="black" x="2.3481445" y="65">(House of Commons)</tspan>
        </text>
      </g>
      <g id="Line_13">
        <path d="M 1295.2852 254 C 1295.2852 257.74022 1295.2852 284.07568 1295.2852 311.38212" marker-end="url(#FilledArrow_Marker)" stroke="black" stroke-linecap="round" stroke-linejoin="round" stroke-dasharray="1.0,4.0" stroke-width="1"/>
      </g>
      <g id="Graphic_14">
        <ellipse cx="1112.2852" cy="376" rx="72.2425470769434" ry="31.4286216483453" fill="white"/>
        <ellipse cx="1112.2852" cy="376" rx="72.2425470769434" ry="31.4286216483453" stroke="black" stroke-linecap="round" stroke-linejoin="round" stroke-width="1"/>
        <text transform="translate(1059.4912 359)" fill="black">
          <tspan font-family="Helvetica" font-size="14" fill="black" x="0" y="14">TREATY BAT AB</tspan>
          <tspan font-family="Helvetica" font-size="14" fill="black" x="25.94922" y="31">Decision </tspan>
        </text>
      </g>
      <g id="Graphic_15">
        <ellipse cx="1164.2852" cy="524" rx="134.133515113106" ry="55.7143747402485" stroke="black" stroke-linecap="round" stroke-linejoin="round" stroke-width="2"/>
        <text transform="translate(1061.9785 490)" fill="black">
          <tspan font-family="Helvetica" font-size="14" fill="black" x="50.168945" y="14">Call for evidence</tspan>
          <tspan font-family="Helvetica" font-size="14" fill="black" x="57.93457" y="31">opened by the</tspan>
          <tspan font-family="Helvetica" font-size="14" fill="black" x="40.427734" y="48">Business and Trade</tspan>
          <tspan font-family="Helvetica" font-size="14" fill="black" x="0" y="65">Committee (House of Commons)</tspan>
        </text>
      </g>
      <g id="Line_16">
        <path d="M 1123.1935 407.07034 C 1128.4883 422.1515 1134.9857 440.65663 1141.2688 458.5456" marker-end="url(#FilledArrow_Marker)" stroke="black" stroke-linecap="round" stroke-linejoin="round" stroke-dasharray="1.0,4.0" stroke-width="1"/>
      </g>
      <g id="Graphic_17">
        <ellipse cx="882.2852" cy="376" rx="72.7253359343291" ry="31.4286216483453" fill="white"/>
        <ellipse cx="882.2852" cy="376" rx="72.7253359343291" ry="31.4286216483453" stroke="black" stroke-linecap="round" stroke-linejoin="round" stroke-width="1"/>
        <text transform="translate(829.105 359)" fill="black">
          <tspan font-family="Helvetica" font-size="14" fill="black" x="0" y="14">TREATY BAT AC</tspan>
          <tspan font-family="Helvetica" font-size="14" fill="black" x="26.33545" y="31">Decision </tspan>
        </text>
      </g>
      <g id="Graphic_18">
        <ellipse cx="895.2852" cy="43" rx="108.387624364389" ry="43.5714981942969" stroke="black" stroke-linecap="round" stroke-linejoin="round" stroke-width="2"/>
        <text transform="translate(813.5752 17.5)" fill="black">
          <tspan font-family="Helvetica" font-size="14" fill="black" x="19.831055" y="14">Business and Trade</tspan>
          <tspan font-family="Helvetica" font-size="14" fill="black" x="0" y="31">Committee inquiry opened</tspan>
          <tspan font-family="Helvetica" font-size="14" fill="black" x="15.189453" y="48">(House of Commons)</tspan>
        </text>
      </g>
      <g id="Line_19">
        <path d="M 875.4971 344.7078 C 870.8894 322.84865 865.7713 297.01653 864.5101 284.40457 C 857.5261 212.76457 851.2621 193.18057 864.5101 122.40457 C 865.1239 119.20167 869.1062 108.64873 874.0256 96.19517" marker-end="url(#FilledArrow_Marker)" stroke="black" stroke-linecap="round" stroke-linejoin="round" stroke-dasharray="1.0,4.0" stroke-width="1"/>
      </g>
      <g id="Graphic_20">
        <ellipse cx="412.28516" cy="376" rx="72.725335934329" ry="31.4286216483453" fill="white"/>
        <ellipse cx="412.28516" cy="376" rx="72.725335934329" ry="31.4286216483453" stroke="black" stroke-linecap="round" stroke-linejoin="round" stroke-width="1"/>
        <text transform="translate(359.105 359)" fill="black">
          <tspan font-family="Helvetica" font-size="14" fill="black" x="0" y="14">TREATY BAT AD</tspan>
          <tspan font-family="Helvetica" font-size="14" fill="black" x="26.33545" y="31">Decision </tspan>
        </text>
      </g>
      <g id="Graphic_21">
        <ellipse cx="304.28516" cy="524" rx="134.133515113106" ry="43.5714981942969" stroke="black" stroke-linecap="round" stroke-linejoin="round" stroke-width="2"/>
        <text transform="translate(201.97852 498.5)" fill="black">
          <tspan font-family="Helvetica" font-size="14" fill="black" x="45.493164" y="14">Considered by the</tspan>
          <tspan font-family="Helvetica" font-size="14" fill="black" x="40.427734" y="31">Business and Trade</tspan>
          <tspan font-family="Helvetica" font-size="14" fill="black" x="0" y="48">Committee (House of Commons)</tspan>
        </text>
      </g>
      <g id="Line_22">
        <path d="M 390.3968 405.9781 C 376.28735 425.32564 358.05554 450.3416 341.78814 472.6496" marker-end="url(#FilledArrow_Marker)" stroke="black" stroke-linecap="round" stroke-linejoin="round" stroke-dasharray="1.0,4.0" stroke-width="1"/>
      </g>
      <g id="Graphic_23">
        <ellipse cx="493.28516" cy="818" rx="72.2425470769435" ry="31.4286216483453" fill="white"/>
        <ellipse cx="493.28516" cy="818" rx="72.2425470769435" ry="31.4286216483453" stroke="black" stroke-linecap="round" stroke-linejoin="round" stroke-width="1"/>
        <text transform="translate(440.4912 801)" fill="black">
          <tspan font-family="Helvetica" font-size="14" fill="black" x="0" y="14">TREATY BAT AE</tspan>
          <tspan font-family="Helvetica" font-size="14" fill="black" x="25.94922" y="31">Decision </tspan>
        </text>
      </g>
      <g id="Graphic_24">
        <ellipse cx="485.28516" cy="941" rx="150.215083778584" ry="43.571498194297" stroke="black" stroke-linecap="round" stroke-linejoin="round" stroke-width="2"/>
        <text transform="translate(370.1133 915.5)" fill="black">
          <tspan font-family="Helvetica" font-size="14" fill="black" x="53.29297" y="14">Business and Trade</tspan>
          <tspan font-family="Helvetica" font-size="14" fill="black" x="28.803223" y="31">Committee recommended a</tspan>
          <tspan font-family="Helvetica" font-size="14" fill="black" x="0" y="48">general debate (House of Commons)</tspan>
        </text>
      </g>
      <g id="Line_25">
        <path d="M 491.24254 849.4161 C 490.5041 860.7665 489.6526 873.8525 488.826 886.5562" marker-end="url(#FilledArrow_Marker)" stroke="black" stroke-linecap="round" stroke-linejoin="round" stroke-dasharray="1.0,4.0" stroke-width="1"/>
      </g>
      <g id="Graphic_26">
        <ellipse cx="797.2852" cy="818" rx="71.751213284029" ry="31.4286216483453" fill="white"/>
        <ellipse cx="797.2852" cy="818" rx="71.751213284029" ry="31.4286216483453" stroke="black" stroke-linecap="round" stroke-linejoin="round" stroke-width="1"/>
        <text transform="translate(744.8843 801)" fill="black">
          <tspan font-family="Helvetica" font-size="14" fill="black" x="0" y="14">TREATY BAT AF</tspan>
          <tspan font-family="Helvetica" font-size="14" fill="black" x="25.556152" y="31">Decision </tspan>
        </text>
      </g>
      <g id="Graphic_27">
        <ellipse cx="831.2852" cy="941" rx="139.999613353728" ry="55.7143747402486" stroke="black" stroke-linecap="round" stroke-linejoin="round" stroke-width="2"/>
        <text transform="translate(724.28564 907)" fill="black">
          <tspan font-family="Helvetica" font-size="14" fill="black" x="45.120605" y="14">Business and Trade</tspan>
          <tspan font-family="Helvetica" font-size="14" fill="black" x="12.848145" y="31">Committee recommended that</tspan>
          <tspan font-family="Helvetica" font-size="14" fill="black" x="51.344727" y="48">objection period A</tspan>
          <tspan font-family="Helvetica" font-size="14" fill="black" x="0" y="65">be extended (House of Commons)</tspan>
        </text>
      </g>
      <g id="Line_28">
        <path d="M 805.9329 849.2008 C 808.1433 857.1929 810.5994 866.0775 813.0896 875.0888" marker-end="url(#FilledArrow_Marker)" stroke="black" stroke-linecap="round" stroke-linejoin="round" stroke-dasharray="1.0,4.0" stroke-width="1"/>
      </g>
      <g id="Graphic_29">
        <ellipse cx="22.285156" cy="818" rx="73.212397259479" ry="31.4286216483453" fill="white"/>
        <ellipse cx="22.285156" cy="818" rx="73.212397259479" ry="31.4286216483453" stroke="black" stroke-linecap="round" stroke-linejoin="round" stroke-width="1"/>
        <text transform="translate(-31.284668 801)" fill="black">
          <tspan font-family="Helvetica" font-size="14" fill="black" x="0" y="14">TREATY BAT AG</tspan>
          <tspan font-family="Helvetica" font-size="14" fill="black" x="26.725098" y="31">Decision </tspan>
        </text>
      </g>
      <g id="Graphic_30">
        <ellipse cx="22.285156" cy="941" rx="121.508372869087" ry="55.7143747402486" stroke="black" stroke-linecap="round" stroke-linejoin="round" stroke-width="2"/>
        <text transform="translate(-69.92139 907)" fill="black">
          <tspan font-family="Helvetica" font-size="14" fill="black" x="30.327637" y="14">Business and Trade</tspan>
          <tspan font-family="Helvetica" font-size="14" fill="black" x="0" y="31">Committee recommended the</tspan>
          <tspan font-family="Helvetica" font-size="14" fill="black" x="42.396484" y="48">treaty should be</tspan>
          <tspan font-family="Helvetica" font-size="14" fill="black" x="2.730957" y="65">ratified (House of Commons)</tspan>
        </text>
      </g>
      <g id="Line_31">
        <path d="M 22.285156 818 C 22.285156 821.6728 22.285156 847.3726 22.285156 874.3903" marker-end="url(#FilledArrow_Marker)" stroke="black" stroke-linecap="round" stroke-linejoin="round" stroke-dasharray="1.0,4.0" stroke-width="1"/>
      </g>
      <g id="Graphic_32">
        <ellipse cx="73.28516" cy="1361" rx="72.725335934329" ry="31.4286216483454" fill="white"/>
        <ellipse cx="73.28516" cy="1361" rx="72.725335934329" ry="31.4286216483454" stroke="black" stroke-linecap="round" stroke-linejoin="round" stroke-width="1"/>
        <text transform="translate(20.10498 1344)" fill="black">
          <tspan font-family="Helvetica" font-size="14" fill="black" x="0" y="14">TREATY BAT AH</tspan>
          <tspan font-family="Helvetica" font-size="14" fill="black" x="26.33545" y="31">Decision </tspan>
        </text>
      </g>
      <g id="Graphic_33">
        <ellipse cx="73.28516" cy="1497" rx="123.939407027072" ry="67.8572512862003" stroke="black" stroke-linecap="round" stroke-linejoin="round" stroke-width="2"/>
        <text transform="translate(-20.86621 1454.5)" fill="black">
          <tspan font-family="Helvetica" font-size="14" fill="black" x="32.27246" y="14">Business and Trade</tspan>
          <tspan font-family="Helvetica" font-size="14" fill="black" x="0" y="31">Committee recommended that</tspan>
          <tspan font-family="Helvetica" font-size="14" fill="black" x="42.396484" y="48">the treaty should</tspan>
          <tspan font-family="Helvetica" font-size="14" fill="black" x="51.734375" y="65">not be ratified</tspan>
          <tspan font-family="Helvetica" font-size="14" fill="black" x="27.63086" y="82">(House of Commons)</tspan>
        </text>
      </g>
      <g id="Line_34">
        <path d="M 73.28516 1392.4286 C 73.28516 1400.3308 73.28516 1409.156 73.28516 1418.2422" marker-end="url(#FilledArrow_Marker)" stroke="black" stroke-linecap="round" stroke-linejoin="round" stroke-dasharray="1.0,4.0" stroke-width="1"/>
      </g>
      <g id="Line_35">
        <path d="M 1112.2852 254 C 1112.2852 267.07148 1112.2852 337.26594 1112.2852 366.09843" marker-end="url(#FilledArrow_Marker)" stroke="black" stroke-linecap="round" stroke-linejoin="round" stroke-width="1"/>
      </g>
      <g id="Line_36">
        <path d="M 929.4691 284.67025 C 921.29 300.50004 911.3843 319.65496 902.6617 336.52864" marker-end="url(#FilledArrow_Marker)" stroke="black" stroke-linecap="round" stroke-linejoin="round" stroke-width="1"/>
      </g>
      <g id="Graphic_37">
        <ellipse cx="686.28516" cy="254" rx="72.725335934329" ry="31.4286216483453" fill="white"/>
        <ellipse cx="686.28516" cy="254" rx="72.725335934329" ry="31.4286216483453" stroke="black" stroke-linecap="round" stroke-linejoin="round" stroke-width="1"/>
        <text transform="translate(633.105 237)" fill="black">
          <tspan font-family="Helvetica" font-size="14" fill="black" x="0" y="14">TREATY BAT AD</tspan>
          <tspan font-family="Helvetica" font-size="14" fill="black" x="38.40088" y="31">AND </tspan>
        </text>
      </g>
      <g id="Line_38">
        <path d="M 686.28516 155 C 686.28516 161.70399 686.28516 219.81212 686.28516 244.1032" marker-end="url(#FilledArrow_Marker)" stroke="black" stroke-linecap="round" stroke-linejoin="round" stroke-width="1"/>
      </g>
      <g id="Line_39">
        <path d="M 635.7058 276.58275 C 588.5767 297.56318 521.52946 327.33936 471.9357 349.40104" marker-end="url(#FilledArrow_Marker)" stroke="black" stroke-linecap="round" stroke-linejoin="round" stroke-width="1"/>
      </g>
      <g id="Graphic_40">
        <ellipse cx="497.28516" cy="683" rx="72.2425470769435" ry="31.4286216483453" fill="white"/>
        <ellipse cx="497.28516" cy="683" rx="72.2425470769435" ry="31.4286216483453" stroke="black" stroke-linecap="round" stroke-linejoin="round" stroke-width="1"/>
        <text transform="translate(444.4912 666)" fill="black">
          <tspan font-family="Helvetica" font-size="14" fill="black" x="0" y="14">TREATY BAT AE</tspan>
          <tspan font-family="Helvetica" font-size="14" fill="black" x="38.01465" y="31">AND </tspan>
        </text>
      </g>
      <g id="Line_41">
        <path d="M 496.3544 714.426 C 495.79933 733.1583 495.1063 756.5405 494.5094 776.6813" marker-end="url(#FilledArrow_Marker)" stroke="black" stroke-linecap="round" stroke-linejoin="round" stroke-width="1"/>
      </g>
      <g id="Graphic_42">
        <ellipse cx="659.28516" cy="683" rx="71.7512132840291" ry="31.4286216483453" fill="white"/>
        <ellipse cx="659.28516" cy="683" rx="71.7512132840291" ry="31.4286216483453" stroke="black" stroke-linecap="round" stroke-linejoin="round" stroke-width="1"/>
        <text transform="translate(606.8843 666)" fill="black">
          <tspan font-family="Helvetica" font-size="14" fill="black" x="0" y="14">TREATY BAT AF</tspan>
          <tspan font-family="Helvetica" font-size="14" fill="black" x="37.62158" y="31">AND </tspan>
        </text>
      </g>
      <g id="Line_43">
        <path d="M 688.6276 711.6897 C 710.05095 732.6343 738.144 760.1 760.915 782.3783" marker-end="url(#FilledArrow_Marker)" stroke="black" stroke-linecap="round" stroke-linejoin="round" stroke-width="1"/>
      </g>
      <g id="Graphic_44">
        <ellipse cx="22.285156" cy="683" rx="73.212397259479" ry="31.4286216483453" fill="white"/>
        <ellipse cx="22.285156" cy="683" rx="73.212397259479" ry="31.4286216483453" stroke="black" stroke-linecap="round" stroke-linejoin="round" stroke-width="1"/>
        <text transform="translate(-31.284668 666)" fill="black">
          <tspan font-family="Helvetica" font-size="14" fill="black" x="0" y="14">TREATY BAT AG</tspan>
          <tspan font-family="Helvetica" font-size="14" fill="black" x="38.790527" y="31">AND </tspan>
        </text>
      </g>
      <g id="Line_45">
        <path d="M 22.285156 683 C 22.285156 695.1565 22.285156 740.99895 22.285156 776.6746" marker-end="url(#FilledArrow_Marker)" stroke="black" stroke-linecap="round" stroke-linejoin="round" stroke-width="1"/>
      </g>
      <g id="Graphic_46">
        <ellipse cx="73.28516" cy="1262" rx="72.725335934329" ry="31.4286216483454" fill="white"/>
        <ellipse cx="73.28516" cy="1262" rx="72.725335934329" ry="31.4286216483454" stroke="black" stroke-linecap="round" stroke-linejoin="round" stroke-width="1"/>
        <text transform="translate(20.10498 1245)" fill="black">
          <tspan font-family="Helvetica" font-size="14" fill="black" x="0" y="14">TREATY BAT AH</tspan>
          <tspan font-family="Helvetica" font-size="14" fill="black" x="38.40088" y="31">AND </tspan>
        </text>
      </g>
      <g id="Line_47">
        <path d="M 73.28516 1293.4286 C 73.28516 1301.7749 73.28516 1310.893 73.28516 1319.6701" marker-end="url(#FilledArrow_Marker)" stroke="black" stroke-linecap="round" stroke-linejoin="round" stroke-width="1"/>
      </g>
      <g id="Graphic_48">
        <ellipse cx="-27.714844" cy="1632" rx="72.2425470769435" ry="31.4286216483454" fill="white"/>
        <ellipse cx="-27.714844" cy="1632" rx="72.2425470769435" ry="31.4286216483454" stroke="black" stroke-linecap="round" stroke-linejoin="round" stroke-width="1"/>
        <text transform="translate(-80.50879 1615)" fill="black">
          <tspan font-family="Helvetica" font-size="14" fill="black" x="0" y="14">TREATY BAT AA</tspan>
          <tspan font-family="Helvetica" font-size="14" fill="black" x="42.293945" y="31">OR </tspan>
        </text>
      </g>
      <g id="Graphic_49">
        <ellipse cx="-77.71484" cy="1731" rx="71.751213284029" ry="31.4286216483455" fill="white"/>
        <ellipse cx="-77.71484" cy="1731" rx="71.751213284029" ry="31.4286216483455" stroke="black" stroke-linecap="round" stroke-linejoin="round" stroke-width="1"/>
        <text transform="translate(-130.11572 1714)" fill="black">
          <tspan font-family="Helvetica" font-size="14" fill="black" x="0" y="14">TREATY BAT AF</tspan>
          <tspan font-family="Helvetica" font-size="14" fill="black" x="37.748047" y="31">NOT </tspan>
        </text>
      </g>
      <g id="Line_50">
        <path d="M -43.217297 1662.7004 C -47.820225 1671.815 -52.91156 1681.8961 -57.749626 1691.4754" marker-end="url(#FilledArrow_Marker)" stroke="black" stroke-linecap="round" stroke-linejoin="round" stroke-width="1"/>
      </g>
      <g id="Graphic_51">
        <ellipse cx="22.285156" cy="1064" rx="72.2425470769435" ry="31.4286216483454" fill="white"/>
        <ellipse cx="22.285156" cy="1064" rx="72.2425470769435" ry="31.4286216483454" stroke="black" stroke-linecap="round" stroke-linejoin="round" stroke-width="1"/>
        <text transform="translate(-30.50879 1047)" fill="black">
          <tspan font-family="Helvetica" font-size="14" fill="black" x="0" y="14">TREATY BAT AB</tspan>
          <tspan font-family="Helvetica" font-size="14" fill="black" x="42.293945" y="31">OR </tspan>
        </text>
      </g>
      <g id="Graphic_52">
        <ellipse cx="72.28516" cy="1163" rx="73.212397259479" ry="31.4286216483454" fill="white"/>
        <ellipse cx="72.28516" cy="1163" rx="73.212397259479" ry="31.4286216483454" stroke="black" stroke-linecap="round" stroke-linejoin="round" stroke-width="1"/>
        <text transform="translate(18.715332 1146)" fill="black">
          <tspan font-family="Helvetica" font-size="14" fill="black" x="0" y="14">TREATY BAT AG</tspan>
          <tspan font-family="Helvetica" font-size="14" fill="black" x="38.91699" y="31">NOT </tspan>
        </text>
      </g>
      <g id="Line_53">
        <path d="M 37.789145 1094.7003 C 42.387216 1103.8052 47.47256 1113.875 52.305894 1123.4454" marker-end="url(#FilledArrow_Marker)" stroke="black" stroke-linecap="round" stroke-linejoin="round" stroke-width="1"/>
      </g>
      <g id="Graphic_54">
        <ellipse cx="1085.2852" cy="683" rx="72.2425470769435" ry="31.4286216483453" fill="white"/>
        <ellipse cx="1085.2852" cy="683" rx="72.2425470769435" ry="31.4286216483453" stroke="black" stroke-linecap="round" stroke-linejoin="round" stroke-width="1"/>
        <text transform="translate(1032.4912 666)" fill="black">
          <tspan font-family="Helvetica" font-size="14" fill="black" x="0" y="14">TREATY BAT AA</tspan>
          <tspan font-family="Helvetica" font-size="14" fill="black" x="38.141113" y="31">NOT </tspan>
        </text>
      </g>
      <g id="Line_55">
        <path d="M 1063.9555 652.9659 C 1046.7541 627.8991 1026.5244 596.0825 1021.542 578.4526 C 990.294 468.00457 979.35 422.64457 1031.55 320.40457 C 1034.2481 315.1487 1051.3092 301.29385 1069.1521 287.475" marker-end="url(#FilledArrow_Marker)" stroke="black" stroke-linecap="round" stroke-linejoin="round" stroke-width="1"/>
      </g>
      <g id="Graphic_56">
        <ellipse cx="945.2852" cy="155" rx="72.2425470769435" ry="31.4286216483453" fill="white"/>
        <ellipse cx="945.2852" cy="155" rx="72.2425470769435" ry="31.4286216483453" stroke="black" stroke-linecap="round" stroke-linejoin="round" stroke-width="1"/>
        <text transform="translate(892.4912 138)" fill="black">
          <tspan font-family="Helvetica" font-size="14" fill="black" x="0" y="14">TREATY BAT AB</tspan>
          <tspan font-family="Helvetica" font-size="14" fill="black" x="38.141113" y="31">NOT </tspan>
        </text>
      </g>
      <g id="Line_57">
        <path d="M 945.2852 186.42859 C 945.2852 194.77476 945.2852 203.8931 945.2852 212.67022" marker-end="url(#FilledArrow_Marker)" stroke="black" stroke-linecap="round" stroke-linejoin="round" stroke-width="1"/>
      </g>
      <g id="Graphic_58">
        <ellipse cx="822.2852" cy="683" rx="72.7253359343291" ry="31.4286216483453" fill="white"/>
        <ellipse cx="822.2852" cy="683" rx="72.7253359343291" ry="31.4286216483453" stroke="black" stroke-linecap="round" stroke-linejoin="round" stroke-width="1"/>
        <text transform="translate(769.105 666)" fill="black">
          <tspan font-family="Helvetica" font-size="14" fill="black" x="0" y="14">TREATY BAT AC</tspan>
          <tspan font-family="Helvetica" font-size="14" fill="black" x="38.527344" y="31">NOT </tspan>
        </text>
      </g>
      <g id="Line_59">
        <path d="M 812.4258 651.8599 C 784.9524 565.12685 729.588 390.56166 699.1503 294.57416" marker-end="url(#FilledArrow_Marker)" stroke="black" stroke-linecap="round" stroke-linejoin="round" stroke-width="1"/>
      </g>
      <g id="Graphic_60">
        <ellipse cx="396.28516" cy="1064" rx="72.7253359343291" ry="31.4286216483454" fill="white"/>
        <ellipse cx="396.28516" cy="1064" rx="72.7253359343291" ry="31.4286216483454" stroke="black" stroke-linecap="round" stroke-linejoin="round" stroke-width="1"/>
        <text transform="translate(343.105 1047)" fill="black">
          <tspan font-family="Helvetica" font-size="14" fill="black" x="0" y="14">TREATY BAT AD</tspan>
          <tspan font-family="Helvetica" font-size="14" fill="black" x="38.527344" y="31">NOT </tspan>
        </text>
      </g>
      <g id="Line_61">
        <path d="M 364.34816 1035.7546 C 347.3636 1020.5745 329.70163 1003.8769 326.53326 996.4126 C 307.24446 950.9806 309.61326 931.7566 326.53326 885.3886 C 345.28594 834.0649 410.77617 764.6711 459.19097 718.24105" marker-end="url(#FilledArrow_Marker)" stroke="black" stroke-linecap="round" stroke-linejoin="round" stroke-width="1"/>
      </g>
      <g id="Graphic_62">
        <ellipse cx="747.2852" cy="1064" rx="72.2425470769435" ry="31.4286216483454" fill="white"/>
        <ellipse cx="747.2852" cy="1064" rx="72.2425470769435" ry="31.4286216483454" stroke="black" stroke-linecap="round" stroke-linejoin="round" stroke-width="1"/>
        <text transform="translate(694.4912 1047)" fill="black">
          <tspan font-family="Helvetica" font-size="14" fill="black" x="0" y="14">TREATY BAT AE</tspan>
          <tspan font-family="Helvetica" font-size="14" fill="black" x="38.141113" y="31">NOT </tspan>
        </text>
      </g>
      <g id="Line_63">
        <path d="M 717.4946 1035.3587 C 701.93044 1020.2124 685.8046 1003.6795 682.56606 996.4126 C 649.307 922.0094 650.6416 799.8665 655.7677 724.2787" marker-end="url(#FilledArrow_Marker)" stroke="black" stroke-linecap="round" stroke-linejoin="round" stroke-width="1"/>
      </g>
      <g id="Line_64">
        <path d="M -92.54353 1700.2462 C -99.58598 1685.4018 -106.68052 1669.8234 -108.46626 1663.4206 C -128.52834 1591.4638 -127.46562 1571.1238 -127.46562 1496.4238 C -127.46562 940.9006 -127.46562 940.9006 -127.46562 940.9006 C -127.46562 870.9042 -60.258765 778.3512 -10.569455 719.8323" marker-end="url(#FilledArrow_Marker)" stroke="black" stroke-linecap="round" stroke-linejoin="round" stroke-width="1"/>
      </g>
      <g id="Line_65">
        <path d="M 72.60138 1194.4283 C 72.68573 1202.7747 72.77797 1211.893 72.866796 1220.6703" marker-end="url(#FilledArrow_Marker)" stroke="black" stroke-linecap="round" stroke-linejoin="round" stroke-width="1"/>
      </g>
      <g id="Line_66">
        <path d="M 1136.6897 579.5326 C 1126.2 600.6252 1114.578 623.99134 1104.9261 643.41174" marker-end="url(#FilledArrow_Marker)" stroke="black" stroke-linecap="round" stroke-linejoin="round" stroke-width="1"/>
      </g>
      <g id="Line_67">
        <path d="M 914.8858 86.85968 C 919.0395 96.17242 923.3968 105.94446 927.4808 115.10345" marker-end="url(#FilledArrow_Marker)" stroke="black" stroke-linecap="round" stroke-linejoin="round" stroke-width="1"/>
      </g>
      <g id="Line_68">
        <path d="M 828.9888 78.523 C 800.499 93.80535 767.7882 111.35622 740.7164 125.8712" marker-end="url(#FilledArrow_Marker)" stroke="black" stroke-linecap="round" stroke-linejoin="round" stroke-width="1"/>
      </g>
      <g id="Line_69">
        <path d="M 429.02517 541.28614 C 538.3278 557.86955 675.8222 583.17905 740.5261 614.4526 C 748.3936 618.2217 766.0539 633.039 783.2125 648.1374" marker-end="url(#FilledArrow_Marker)" stroke="black" stroke-linecap="round" stroke-linejoin="round" stroke-width="1"/>
      </g>
      <g id="Graphic_70">
        <ellipse cx="304.28516" cy="683" rx="102.551433398118" ry="67.8572512862001" stroke="black" stroke-linecap="round" stroke-linejoin="round" stroke-width="2"/>
        <text transform="translate(227.24414 640.5)" fill="black">
          <tspan font-family="Helvetica" font-size="14" fill="black" x="0" y="14">Government response to</tspan>
          <tspan font-family="Helvetica" font-size="14" fill="black" x="20.22754" y="31">the decision made</tspan>
          <tspan font-family="Helvetica" font-size="14" fill="black" x="27.624023" y="48">by the Business</tspan>
          <tspan font-family="Helvetica" font-size="14" fill="black" x="9.724121" y="65">and Trade Committee</tspan>
          <tspan font-family="Helvetica" font-size="14" fill="black" x="10.520508" y="82">(House of Commons)</tspan>
        </text>
      </g>
      <g id="Line_71">
        <path d="M 304.28516 568.57145 C 304.28516 579.7235 304.28516 591.9928 304.28516 604.24204" marker-end="url(#FilledArrow_Marker)" stroke="black" stroke-linecap="round" stroke-linejoin="round" stroke-dasharray="1.0,4.0" stroke-width="1"/>
      </g>
      <g id="Line_72">
        <path d="M 355.15197 565.3375 C 379.76215 585.2823 405.4801 606.12675 415.53246 614.4526 C 421.386 619.2795 438.9024 634.0012 456.419 648.726" marker-end="url(#FilledArrow_Marker)" stroke="black" stroke-linecap="round" stroke-linejoin="round" stroke-width="1"/>
      </g>
      <g id="Line_73">
        <path d="M 404.5792 553.9966 C 472.79903 574.5768 552.1349 599.676 578.52606 614.4526 C 585.7641 618.48986 603.1198 633.2584 620.1296 648.2409" marker-end="url(#FilledArrow_Marker)" stroke="black" stroke-linecap="round" stroke-linejoin="round" stroke-width="1"/>
      </g>
      <g id="Line_74">
        <path d="M 236.00106 562.533 C 185.96864 590.7361 121.67346 626.9524 75.2478 653.1208" marker-end="url(#FilledArrow_Marker)" stroke="black" stroke-linecap="round" stroke-linejoin="round" stroke-width="1"/>
      </g>
      <g id="Line_75">
        <path d="M 249.43804 564.7854 C 223.57286 584.1889 197.65766 604.81524 192.53406 614.4526 C 149.83086 694.5886 173.53326 727.0606 173.53326 817.9246 C 173.53326 817.9246 173.53326 817.9246 173.53326 1063.9198 C 173.53326 1122.535 183.15966 1143.2782 154.53246 1194.4198 C 151.5521 1199.7504 134.10902 1214.0951 116.04094 1228.3242" marker-end="url(#FilledArrow_Marker)" stroke="black" stroke-linecap="round" stroke-linejoin="round" stroke-width="1"/>
      </g>
      <g id="Line_76">
        <path d="M 453.73023 984.6063 C 443.9444 998.1266 433.2879 1012.8495 423.7886 1025.9756" marker-end="url(#FilledArrow_Marker)" stroke="black" stroke-linecap="round" stroke-linejoin="round" stroke-width="1"/>
      </g>
      <g id="Line_77">
        <path d="M 793.9193 995.709 C 787.0071 1005.8254 779.9297 1016.1838 773.4331 1025.6933" marker-end="url(#FilledArrow_Marker)" stroke="black" stroke-linecap="round" stroke-linejoin="round" stroke-width="1"/>
      </g>
      <g id="Line_78">
        <path d="M -25.71695 993.2172 C -41.613483 1010.6106 -55.8672 1026.8614 -58.46514 1032.4126 C -83.37066 1085.5486 -78.46602 1104.247 -78.46602 1162.9198 C -78.46602 1162.9198 -78.46602 1162.9198 -78.46602 1360.9198 C -78.46602 1451.755 -83.51106 1476.8254 -59.46594 1564.4206 C -58.40843 1568.268 -53.062217 1579.7971 -47.01773 1592.3466" marker-end="url(#FilledArrow_Marker)" stroke="black" stroke-linecap="round" stroke-linejoin="round" stroke-width="1"/>
      </g>
      <g id="Line_79">
        <path d="M 22.285156 997.7143 C 22.285156 1006.1249 22.285156 1014.6528 22.285156 1022.6746" marker-end="url(#FilledArrow_Marker)" stroke="black" stroke-linecap="round" stroke-linejoin="round" stroke-width="1"/>
      </g>
      <g id="Line_80">
        <path d="M 25.643454 1560.6878 C 17.069808 1572.1451 8.389111 1583.745 .5776812 1594.1836" marker-end="url(#FilledArrow_Marker)" stroke="black" stroke-linecap="round" stroke-linejoin="round" stroke-width="1"/>
      </g>
      <g id="Line_81">
        <path d="M 22.243235 1434.1148 C 6.7639015 1414.9697 -6.635036 1397.6625 -8.468342 1392.4198 C -41.60274 1297.6462 -20.477942 1180.3582 -9.469142 1131.4198 C -8.594527 1127.5367 -3.2906778 1116.0882 2.769829 1103.6236" marker-end="url(#FilledArrow_Marker)" stroke="black" stroke-linecap="round" stroke-linejoin="round" stroke-width="1"/>
      </g>
    </g>
  </g>
</svg>
